<svg width="115" height="92" viewBox="0 0 115 92" fill="none" xmlns="http://www.w3.org/2000/svg">
<path fill-rule="evenodd" clip-rule="evenodd" d="M96.6666 58.1886C94.6793 58.1886 92.6919 57.9576 90.781 57.4957C88.8701 57.0337 87.3795 56.5332 86.3859 55.9557C85.7744 55.6092 85.354 55.2242 85.2012 54.8777C85.0482 54.5312 84.9718 54.1463 84.9718 53.7998V51.8363C84.9718 51.0279 85.2775 50.6429 85.8508 50.6429C86.0801 50.6429 86.3095 50.6814 86.5388 50.7583C86.768 50.8354 87.112 50.9894 87.4942 51.1434C88.7936 51.7209 90.2077 52.1829 91.6982 52.4908C93.227 52.7989 94.7175 52.9528 96.2462 52.9528C98.6539 52.9528 100.527 52.5293 101.826 51.6824C103.126 50.8354 103.814 49.6034 103.814 48.025C103.814 46.9471 103.469 46.0616 102.782 45.3301C102.094 44.5986 100.794 43.9441 98.9215 43.3282L93.3798 41.5957C90.59 40.7103 88.5261 39.4013 87.2648 37.6689C86.0037 35.975 85.354 34.0885 85.354 32.0867C85.354 30.4697 85.698 29.0452 86.3859 27.8133C87.0737 26.5813 87.9911 25.5033 89.1376 24.6564C90.2841 23.7709 91.5836 23.1164 93.1123 22.6545C94.6411 22.1925 96.2462 22 97.9279 22C98.7687 22 99.6476 22.0384 100.488 22.154C101.367 22.2695 102.17 22.4235 102.973 22.5774C103.737 22.7699 104.463 22.9625 105.151 23.1935C105.839 23.4244 106.374 23.6554 106.756 23.8865C107.291 24.1944 107.674 24.5024 107.903 24.8488C108.132 25.1569 108.247 25.5804 108.247 26.1194V27.9288C108.247 28.7372 107.941 29.1608 107.368 29.1608C107.062 29.1608 106.565 29.0067 105.915 28.6988C103.737 27.6977 101.291 27.1972 98.5776 27.1972C96.3992 27.1972 94.6793 27.5438 93.4946 28.2752C92.3097 29.0067 91.6982 30.1231 91.6982 31.7016C91.6982 32.7796 92.0805 33.7035 92.8448 34.4351C93.6092 35.1665 95.0233 35.8979 97.0489 36.5525L102.476 38.2848C105.228 39.1703 107.215 40.4023 108.4 41.9808C109.585 43.5592 110.158 45.3686 110.158 47.3705C110.158 49.026 109.814 50.5275 109.164 51.8363C108.476 53.1453 107.559 54.3003 106.374 55.2242C105.189 56.1867 103.775 56.8797 102.132 57.3802C100.412 57.9192 98.6158 58.1886 96.6666 58.1886ZM47.5559 57.1491C46.868 57.1491 46.4094 57.0337 46.1036 56.7642C45.7979 56.5332 45.5303 55.9942 45.3011 55.2627L36.3197 25.5033C36.0904 24.7334 35.9758 24.2329 35.9758 23.9634C35.9758 23.3475 36.2815 23.001 36.893 23.001H40.6384C41.3646 23.001 41.8614 23.1164 42.1289 23.386C42.4347 23.6169 42.664 24.1559 42.8933 24.8874L49.314 50.3734L55.2761 24.8874C55.4672 24.1174 55.6964 23.6169 56.0022 23.386C56.308 23.1549 56.843 23.001 57.5309 23.001H60.5885C61.3146 23.001 61.8114 23.1164 62.1172 23.386C62.4229 23.6169 62.6904 24.1559 62.8433 24.8874L68.8819 50.6814L75.4936 24.8874C75.7229 24.1174 75.9905 23.6169 76.258 23.386C76.5637 23.1549 77.0606 23.001 77.7484 23.001H81.3028C81.9144 23.001 82.2583 23.3089 82.2583 23.9634C82.2583 24.1559 82.2201 24.3484 82.1819 24.5794C82.1436 24.8103 82.0672 25.1183 81.9144 25.5418L72.7037 55.3012C72.4744 56.0712 72.2068 56.5716 71.9011 56.8027C71.5954 57.0337 71.0985 57.1877 70.4487 57.1877H67.162C66.4358 57.1877 65.939 57.0722 65.6332 56.8027C65.3275 56.5332 65.0599 56.0327 64.9071 55.2627L58.9832 30.4312L53.0976 55.2242C52.9065 55.9942 52.6772 56.4947 52.3715 56.7642C52.0658 57.0337 51.5307 57.1491 50.8427 57.1491H47.5559ZM16.8665 52.9912C18.1277 52.9912 19.4272 52.7604 20.8031 52.2983C22.1789 51.8363 23.402 50.9894 24.4338 49.8345C25.0453 49.1029 25.5039 48.2945 25.7333 47.3705C25.9625 46.4466 26.1154 45.3301 26.1154 44.0212V42.4042C25.007 42.1347 23.8223 41.9037 22.5993 41.7497C21.3764 41.5957 20.1916 41.5188 19.0068 41.5188C16.4462 41.5188 14.5735 42.0192 13.3122 43.0587C12.051 44.0981 11.4395 45.5611 11.4395 47.4861C11.4395 49.2955 11.8982 50.6429 12.8536 51.5669C13.7709 52.5293 15.1085 52.9912 16.8665 52.9912ZM32.3833 47.1396C32.3833 48.5639 32.5361 49.719 32.8036 50.566C33.1094 51.4129 33.4916 52.3369 34.0266 53.3378C34.2177 53.6458 34.2942 53.9538 34.2942 54.2232C34.2942 54.6083 34.0648 54.9933 33.568 55.3782L31.1602 56.9951C30.8162 57.2262 30.4723 57.3417 30.1666 57.3417C29.7844 57.3417 29.4021 57.1491 29.02 56.8027C28.485 56.2252 28.0264 55.6092 27.6441 54.9933C27.262 54.3388 26.8798 53.6073 26.4594 52.7218C23.4783 56.2637 19.7329 58.0347 15.2231 58.0347C12.0128 58.0347 9.45215 57.1106 7.5795 55.2627C5.70676 53.4148 4.75133 50.9509 4.75133 47.8709C4.75133 44.5986 5.89783 41.9423 8.22914 39.9403C10.5604 37.9384 13.6562 36.9374 17.5927 36.9374C18.8921 36.9374 20.2298 37.0529 21.6439 37.2455C23.0579 37.4379 24.5102 37.7459 26.039 38.0924V35.282C26.039 32.3561 25.4275 30.3157 24.2428 29.1222C23.0197 27.9288 20.9559 27.3513 18.0132 27.3513C16.6754 27.3513 15.2997 27.5053 13.8856 27.8517C12.4714 28.1983 11.0955 28.6218 9.75795 29.1608C9.14644 29.4302 8.68779 29.5842 8.42029 29.6612C8.1528 29.7382 7.96173 29.7767 7.80878 29.7767C7.27379 29.7767 7.00621 29.3917 7.00621 28.5832V26.6968C7.00621 26.0808 7.08263 25.6189 7.27379 25.3493C7.46486 25.0799 7.80878 24.8103 8.34387 24.5409C9.68153 23.8479 11.2867 23.2704 13.1593 22.8085C15.0321 22.308 17.0194 22.0769 19.1215 22.0769C23.6695 22.0769 26.9945 23.1164 29.1346 25.1954C31.2368 27.2743 32.3067 30.4312 32.3067 34.666V47.1396H32.3833Z" fill="#FF5A00"/>
<mask id="mask0" mask-type="alpha" maskUnits="userSpaceOnUse" x="0" y="67" width="105" height="25">
<path d="M0 67.4448H104.802V91.2204H0V67.4448Z" fill="white"/>
</mask>
<g mask="url(#mask0)">
<path fill-rule="evenodd" clip-rule="evenodd" d="M103.89 76.8989C91.3161 86.254 73.0477 91.2204 57.3398 91.2204C35.326 91.2204 15.4907 83.0202 0.509029 69.3917C-0.675687 68.3137 0.394477 66.8508 1.80856 67.6977C18.0131 77.1684 38.0014 82.9047 58.6775 82.9047C72.6272 82.9047 87.9528 79.9788 102.055 73.973C104.157 73.0106 105.954 75.359 103.89 76.8989Z" fill="#FF5A00"/>
</g>
<path fill-rule="evenodd" clip-rule="evenodd" d="M109.126 70.8931C107.521 68.8142 98.5011 69.8922 94.4117 70.3927C93.1888 70.5467 92.9977 69.4687 94.106 68.6602C101.291 63.5785 113.101 65.0413 114.476 66.7352C115.852 68.4677 114.094 80.3638 107.368 86.0616C106.336 86.947 105.342 86.4851 105.801 85.3302C107.33 81.5188 110.731 72.9335 109.126 70.8931Z" fill="#FF5A00"/>
</svg>
