<?xml version="1.0" encoding="UTF-8"?>
<svg width="115px" height="92px" viewBox="0 0 115 92" version="1.1" xmlns="http://www.w3.org/2000/svg" xmlns:xlink="http://www.w3.org/1999/xlink">
    <defs>
        <polygon id="path-1" points="0 0.0797448642 104.802299 0.0797448642 104.802299 23.855301 0 23.855301"></polygon>
    </defs>
    <g id="Page-1" stroke="none" stroke-width="1" fill="none" fill-rule="evenodd">
        <g id="Group-8" transform="translate(0.000000, 22.000000)">
            <path d="M96.6666498,36.1886365 C94.6792668,36.1886365 92.6918838,35.9575832 90.7810179,35.4956575 C88.8700624,35.0337318 87.3795476,34.5332219 86.3859009,33.9557244 C85.7743916,33.6091897 85.3540406,33.2241613 85.2011856,32.877717 C85.0481513,32.5311823 84.9718136,32.1463346 84.9718136,31.7997999 L84.9718136,29.8363445 C84.9718136,29.0278841 85.2775234,28.6428557 85.850819,28.6428557 C86.0801014,28.6428557 86.3094735,28.6814398 86.5387559,28.7583371 C86.7680382,28.8354151 87.1119618,28.9893903 87.4941888,29.1433656 C88.7936349,29.7208631 90.2077223,30.1828792 91.6982371,30.4908296 C93.2269657,30.7988705 94.7174805,30.9528457 96.246209,30.9528457 C98.6539431,30.9528457 100.526685,30.5293235 101.826131,29.6823693 C103.125577,28.8354151 103.813514,27.6034324 103.813514,26.0250055 C103.813514,24.9470884 103.469501,24.0615501 102.781564,23.3300773 C102.093627,22.5986046 100.794271,21.9441194 98.9215289,21.3282185 L93.3798206,19.5957259 C90.5899493,18.7102779 88.5261388,17.4013077 87.2648167,15.6689055 C86.0036739,13.9749971 85.3540406,12.0885293 85.3540406,10.0866705 C85.3540406,8.46965934 85.6979641,7.04520764 86.3859009,5.81331535 C87.073748,4.5813327 87.9910569,3.50332529 89.1375585,2.6563711 C90.2841498,1.7709231 91.5835959,1.11643797 93.1123245,0.654512244 C94.641053,0.19249616 96.246209,2.71083171e-05 97.9278822,2.71083171e-05 C98.7686739,2.71083171e-05 99.6475897,0.0384305575 100.488471,0.154002349 C101.367477,0.26948378 102.170144,0.423459021 102.972722,0.577434262 C103.736997,0.769903314 104.463147,0.962462726 105.151084,1.19351595 C105.839021,1.42438845 106.374103,1.65544167 106.75633,1.88649489 C107.291322,2.19444538 107.673549,2.50239586 107.902921,2.84884015 C108.132114,3.15688099 108.246845,3.58040327 108.246845,4.11940697 L108.246845,5.92879678 C108.246845,6.73716679 107.941135,7.16077943 107.367839,7.16077943 C107.06204,7.16077943 106.565261,7.00671383 105.915449,6.69876334 C103.736997,5.69774356 101.291139,5.19723366 98.5776053,5.19723366 C96.3991537,5.19723366 94.6792668,5.54376831 93.4945515,6.27524107 C92.3097465,7.00671383 91.6982371,8.12312469 91.6982371,9.70164199 C91.6982371,10.7796494 92.0804641,11.7035008 92.8448284,12.435064 C93.6091927,13.1665367 95.02328,13.8979191 97.0488768,14.5524946 L102.475854,16.2848064 C105.227601,17.1703448 107.214984,18.4023274 108.3997,19.9807544 C109.584505,21.5591813 110.157711,23.3685711 110.157711,25.3705204 C110.157711,27.0260253 109.813787,28.5274646 109.164064,29.8363445 C108.476127,31.1453148 107.558908,32.3003098 106.374193,33.2241613 C105.189388,34.1866872 103.7753,34.8796662 102.131931,35.3801761 C100.412044,35.9191798 98.615819,36.1886365 96.6666498,36.1886365 L96.6666498,36.1886365 Z M47.5559087,35.1491229 C46.8679719,35.1491229 46.4094072,35.0337318 46.1036076,34.7641847 C45.7978978,34.5332219 45.530312,33.9942182 45.3011193,33.2627454 L36.319727,3.50332529 C36.0904446,2.73344908 35.9758034,2.23293919 35.9758034,1.96339215 C35.9758034,1.34749119 36.2815133,1.00095654 36.8930226,1.00095654 L40.6384165,1.00095654 C41.3645671,1.00095654 41.8614353,1.11643797 42.1289314,1.385985 C42.4347309,1.61694786 42.6640133,2.15586121 42.8932956,2.88742432 L49.3140094,28.373399 L55.2760686,2.88742432 C55.467227,2.1173674 55.6964197,1.61694786 56.0022192,1.385985 C56.3080187,1.15493178 56.8430109,1.00095654 57.5309477,1.00095654 L60.5884945,1.00095654 C61.3145554,1.00095654 61.8114236,1.11643797 62.1172231,1.385985 C62.4229329,1.61694786 62.690429,2.15586121 62.8432839,2.88742432 L68.8818604,28.6814398 L75.4936427,2.88742432 C75.7229251,2.1173674 75.9905109,1.61694786 76.258007,1.385985 C76.5637168,1.15493178 77.060585,1.00095654 77.7484321,1.00095654 L81.3028471,1.00095654 C81.9143565,1.00095654 82.25828,1.30890702 82.25828,1.96339215 C82.25828,2.15586121 82.2200663,2.34842062 82.1818526,2.57938348 C82.1436388,2.81034634 82.0672114,3.11829682 81.9143565,3.5418191 L72.7036817,33.3012392 C72.4743994,34.0712058 72.2068136,34.5716253 71.9011037,34.8026786 C71.5953939,35.0337318 71.0985257,35.187707 70.4487129,35.187707 L67.1619735,35.187707 C66.4358229,35.187707 65.9389548,35.0722256 65.6332449,34.8026786 C65.3275351,34.5332219 65.0599493,34.032712 64.9070944,33.2627454 L58.9832488,8.43116553 L53.097617,33.2241613 C52.9065484,33.9942182 52.6771763,34.4947281 52.3714665,34.7641847 C52.0657566,35.0337318 51.5306747,35.1491229 50.8427379,35.1491229 L47.5559087,35.1491229 Z M16.8665172,30.9912492 C18.1277496,30.9912492 19.4271958,30.7603767 20.8030694,30.2982702 C22.1789431,29.8363445 23.4019618,28.9893903 24.4338222,27.8344857 C25.0453315,27.1029225 25.5038963,26.2944622 25.7332683,25.3705204 C25.9625507,24.4465785 26.1154056,23.3300773 26.1154056,22.0211974 L26.1154056,20.4041863 C25.0070281,20.1347296 23.8223128,19.9036764 22.5992941,19.7497012 C21.3763651,19.5957259 20.1915601,19.5188287 19.0068448,19.5188287 C16.4461661,19.5188287 14.573514,20.0192482 13.3121919,21.0586714 C12.0510491,22.0980947 11.4395398,23.5611305 11.4395398,25.4860921 C11.4395398,27.2954819 11.8981942,28.6428557 12.8536271,29.5668878 C13.770936,30.5293235 15.1085062,30.9912492 16.8665172,30.9912492 L16.8665172,30.9912492 Z M32.3832644,25.1395575 C32.3832644,26.5639188 32.5361193,27.7190042 32.8036154,28.5659584 C33.109415,29.4129126 33.4915523,30.3368544 34.0266342,31.3377838 C34.2177028,31.6458247 34.29422,31.9537752 34.29422,32.2232318 C34.29422,32.6082603 34.0648479,32.9932888 33.5679797,33.3782269 L31.1602457,34.9951476 C30.8162324,35.2262008 30.4723089,35.3416823 30.1665991,35.3416823 C29.7843721,35.3416823 29.4021451,35.1491229 29.0200078,34.8026786 C28.4850156,34.225181 28.0263612,33.6091897 27.6441342,32.9932888 C27.2619969,32.3388036 26.8797699,31.6073309 26.4594189,30.7217925 C23.4782995,34.2636749 19.7329056,36.0346612 15.2231474,36.0346612 C12.0128354,36.0346612 9.45215679,35.110629 7.57950468,33.2627454 C5.70676287,31.4147715 4.75132995,28.9508965 4.75132995,25.8709399 C4.75132995,22.5986046 5.89783151,19.9422606 8.22913807,17.9403114 C10.5604446,15.9383621 13.6562051,14.9374327 17.5926677,14.9374327 C18.8921139,14.9374327 20.2297738,15.0529141 21.6438612,15.2454736 C23.0579485,15.4378522 24.5102496,15.7458931 26.0389782,16.0924277 L26.0389782,13.2820181 C26.0389782,10.3561271 25.4274688,8.3156841 24.2427535,7.12219526 C23.0197348,5.92879678 20.9559243,5.35129926 18.0131981,5.35129926 C16.6754485,5.35129926 15.2996646,5.5052745 13.8855772,5.8517188 C12.4714002,6.19825345 11.0955265,6.62177572 9.75795632,7.16077943 C9.14644696,7.4302361 8.68779251,7.58421134 8.42029641,7.66119896 C8.15280031,7.73818658 7.96173167,7.77668039 7.80878705,7.77668039 C7.27379485,7.77668039 7.00620905,7.39165193 7.00620905,6.58319155 L7.00620905,4.69681413 C7.00620905,4.0808228 7.08263651,3.61889708 7.27379485,3.34935005 C7.46486349,3.07989337 7.80878705,2.81034634 8.34386895,2.54088967 C9.68152886,1.84791072 11.2866849,1.27041321 13.159337,0.808487485 C15.0320788,0.30797759 17.0193721,0.0769243678 19.121486,0.0769243678 C23.6694579,0.0769243678 26.9945008,1.11643797 29.134649,3.1953748 C31.2367629,5.27431164 32.3067473,8.43116553 32.3067473,12.6660268 L32.3067473,25.1395575 L32.3832644,25.1395575 Z" id="Fill-1" fill="#FF5A00"></path>
            <g id="Group-5" transform="translate(0.000000, 45.365046)">
                <mask id="mask-2" fill="white">
                    <use xlink:href="#path-1"></use>
                </mask>
                <g id="Clip-4"></g>
                <path d="M103.889897,9.53388669 C91.316055,18.8889669 73.0476502,23.855301 57.3398342,23.855301 C35.3260355,23.855301 15.4906884,15.6551254 0.509023011,2.02669007 C-0.675692278,0.948682665 0.394471529,-0.514262847 1.80855889,0.33269134 C18.0130636,9.80334336 38.0013553,15.539644 58.6774941,15.539644 C72.6272094,15.539644 87.9527984,12.613753 102.055458,6.60799566 C104.157393,5.64556004 105.953707,7.99395355 103.889897,9.53388669" id="Fill-3" fill="#FF5A00" mask="url(#mask-2)"></path>
            </g>
            <path d="M109.125814,48.8931029 C107.520658,46.814166 98.501142,47.8921734 94.4117348,48.3926833 C93.1888058,48.5466586 92.9976474,47.4686512 94.106025,46.6601908 C101.291013,41.5784657 113.10058,43.0413208 114.476364,44.7352292 C115.852238,46.4677217 114.094227,58.3638453 107.367803,64.0615617 C106.335853,64.9470097 105.342207,64.485084 105.800861,63.3301793 C107.32959,59.5187499 110.73106,50.9335459 109.125814,48.8931029" id="Fill-6" fill="#FF5A00"></path>
        </g>
    </g>
</svg>