<svg width="264" height="412" viewBox="0 0 264 412" fill="none" xmlns="http://www.w3.org/2000/svg">
<path d="M102.728 211.371L110.55 207.722L112.621 215.449L115.08 224.625L128.293 231.438L140.464 255.611L156.749 271.953L174.956 280.016L181.373 286.578L179.615 297.402L163.143 313.204L148.989 300.95L118.636 263.013L101.326 250.569L79.0401 252.4L67.0515 246.294L63.4373 240.534L102.728 211.371Z" fill="#041E73"/>
<ellipse rx="10" ry="20.1274" transform="matrix(-0.866025 0.5 0.5 0.866025 192.991 99.2169)" fill="#FF5A00"/>
<path d="M145.046 408.58C103.561 393.813 100.243 357.433 126.246 338.419C152.249 319.405 195.417 298.083 177.774 282.797C167.984 274.316 157.234 278.447 141.718 256.274C127.019 235.268 134.165 230.893 121.773 227.553C103.465 222.619 118.698 202.606 108.272 207.847C97.8446 213.089 62.4518 240.392 62.4518 240.392C62.4518 240.392 69.7586 257.953 97.3856 251.231C106.947 247.556 133.687 276.907 146.72 297.437C150.92 304.052 159.94 315.889 169.731 314.297C181.184 312.435 212.134 290.093 190.93 272.527C182.857 265.84 167.211 268.134 152.604 249.989C137.08 230.703 143.676 225.735 136.99 221.105C131.46 217.275 128.326 222.055 123.598 215.298C119.551 209.514 125.689 202.6 121.604 198.097C116.237 192.181 87.959 205.763 73.8277 168.118C69.7898 157.361 69.0933 149.195 69.5343 143.487C69.8121 139.897 65.8672 137.431 62.9321 139.342C45.2867 150.827 17.3467 172.524 15.1626 175.041C11.1271 179.693 -8.7199 198.673 12.9531 227.627C30.2302 250.708 55.3221 234.788 55.3221 234.788C55.3221 234.788 119.349 186.871 132.419 183.754C145.489 180.638 192.528 183.011 190.133 180.703C187.738 178.394 178.797 170.267 178.797 170.267C178.797 170.267 133.01 170.674 124.711 174.083C116.412 177.492 108.409 183.864 104.518 185.098C100.628 186.33 80.5179 175.822 79.254 147.571C78.5993 132.933 84.742 126.01 84.742 126.01C84.742 126.01 114.331 97.8524 117.684 63.8017C117.684 63.8017 136.641 126.684 199.38 180.163C262.118 233.642 265.384 176.754 258.381 148.682C252.749 126.105 231.26 72.4591 189.281 32.0626C139.892 -15.4645 109.834 1.15056 118.925 40.1988C123.706 60.7311 149.435 116.345 175.69 144.65C175.69 144.65 192.915 133.891 203.326 115.869C216.607 92.8821 180.25 71.6066 180.268 84.5162C180.287 97.4251 198.932 127.265 207.209 117.688C215.486 108.11 213.745 79.9536 183.018 75.1765C183.018 75.1765 151.996 86.4423 150.989 87.7623C149.981 89.0824 150.426 103.037 162.046 108.141C162.046 108.141 265.384 85.0948 234.69 9.17972" stroke="#041E73" stroke-width="4" stroke-linecap="round" stroke-linejoin="round"/>
</svg>
