<?xml version="1.0" encoding="UTF-8"?>
<svg width="187px" height="92px" viewBox="0 0 187 92" version="1.1" xmlns="http://www.w3.org/2000/svg" xmlns:xlink="http://www.w3.org/1999/xlink">
    <defs>
        <polygon id="path-1" points="0 0.00575520833 32.1512577 0.00575520833 32.1512577 48.3504559 0 48.3504559"></polygon>
        <polygon id="path-3" points="0 64.9942448 186.897949 64.9942448 186.897949 0.112847222 0 0.112847222"></polygon>
    </defs>
    <g id="Page-1" stroke="none" stroke-width="1" fill="none" fill-rule="evenodd">
        <g id="Group-11" transform="translate(0.000000, 17.000000)">
            <g id="Group-3" transform="translate(0.000000, 0.107092)">
                <mask id="mask-2" fill="white">
                    <use xlink:href="#path-1"></use>
                </mask>
                <g id="Clip-2"></g>
                <path d="M22.1961978,0.00575520833 L32.1512577,0.00575520833 L32.1512577,46.9525694 C22.6090475,48.5069271 13.4699464,49.4926476 6.93185554,45.8503906 C-1.48642913,41.1610243 -2.16318565,26.2590972 4.49825045,19.6221007 C7.87569019,16.2573351 14.6750827,13.8884462 21.9751051,15.4343403 L21.9751051,0.667039931 C21.9559634,0.354114583 21.9382941,0.0425434028 22.1961978,0.00575520833 M10.2502844,31.7446007 C10.2177774,37.8988368 14.747119,41.5677257 21.9751051,39.8995052 L21.9751051,23.5895833 C14.6558277,21.36875 10.2808658,25.8617622 10.2502844,31.7446007" id="Fill-1" fill="#FF5A00" mask="url(#mask-2)"></path>
            </g>
            <mask id="mask-4" fill="white">
                <use xlink:href="#path-3"></use>
            </mask>
            <g id="Clip-5"></g>
            <polygon id="Fill-4" fill="#FF5A00" mask="url(#mask-4)" points="38.3455336 10.4719965 48.3004803 10.4719965 48.3004803 0.112847222 38.3455336 0.112847222"></polygon>
            <path d="M168.203125,15.1004818 C176.490702,14.217678 182.743139,17.8614019 185.237567,23.4761155 C189.493488,33.055829 185.003449,44.0481641 178.158411,47.2801085 C174.610735,48.9552127 170.895766,49.1147786 167.53962,48.8229557 C157.165934,47.9215321 150.623426,37.3885981 154.266245,25.6799089 C154.836306,23.8474957 155.476818,22.7264714 155.814913,22.153546 C158.069899,18.3335547 161.876839,15.7746311 168.203125,15.1004818 M167.760713,40.447322 C178.613056,44.6493012 179.813775,21.0940234 168.866969,23.2554991 C162.068709,24.5979297 162.287084,38.3281641 167.760713,40.447322" id="Fill-6" fill="#FF5A00" mask="url(#mask-4)"></path>
            <path d="M79.4928165,47.5005217 C71.2694604,47.9718845 58.7722878,50.7627092 54.2735276,45.2966155 C51.6304961,42.0847578 51.9147905,35.9589592 54.2735276,32.953612 C57.3217069,29.0704262 63.9758941,28.223395 69.9802817,27.6638984 C70.5254247,26.326546 70.1578807,24.1508516 69.5377566,23.255296 C64.0455518,21.86152 58.5885724,24.021303 54.716166,25.6798186 L54.716166,17.9658082 C60.5650412,15.2885078 74.1124041,12.4693585 78.1656942,18.62698 C80.2943907,21.8610686 79.4928165,27.5012856 79.4928165,32.512605 L79.4928165,47.5005217 Z M62.016415,36.7005911 C59.2630637,41.3107387 66.1811575,42.4152873 70.6438995,41.1087422 L70.6438995,34.2761814 C67.2148111,34.7530738 63.3118232,34.5311033 62.016415,36.7004783 L62.016415,36.7005911 Z" id="Fill-7" fill="#FF5A00" mask="url(#mask-4)"></path>
            <path d="M114.446197,47.9415512 L104.491137,47.9415512 L104.491137,35.1577665 C104.491137,30.948678 105.174576,25.6115686 102.942243,23.9169418 C101.194116,22.5890686 97.0465892,23.2553186 94.5361907,23.9169418 L94.5361907,47.9415512 L84.5809042,47.9415512 L84.5809042,17.3047717 C94.7575099,14.6710304 113.12689,11.8472543 114.446197,24.5781137 C115.09679,30.8547891 113.964143,40.2717769 114.446197,47.9415512" id="Fill-8" fill="#FF5A00" mask="url(#mask-4)"></path>
            <path d="M154.266256,16.4231302 C153.380186,19.0670278 152.083419,21.3011771 150.94794,23.6966979 C149.921989,23.9256649 149.032748,23.2903351 148.514335,23.6966979 C148.28724,34.4406562 150.81089,49.0055087 146.523369,56.7575486 C143.94184,61.4247969 139.188914,64.4190851 131.922644,64.9127917 C126.629332,65.2724358 122.520996,64.4107344 118.649269,62.9291632 L118.649269,53.671967 C123.19039,56.3136076 134.665462,58.4674097 137.895658,53.0106823 C138.846062,51.4052049 138.785805,49.7457865 139.222893,47.2800747 C137.143127,47.3888594 135.124184,48.3483993 132.586375,48.3822535 C122.153225,48.5202656 115.698497,40.2434861 118.206857,28.7656823 C119.176969,24.325934 121.787946,20.7512726 125.28624,18.6270365 C132.551603,14.2152743 143.719501,14.5502049 154.266256,16.4231302 M129.26806,37.3618194 C130.943244,40.0621406 135.479495,41.0746059 139.222893,39.3453351 C139.017318,34.1869757 138.945508,28.8953437 139.001687,23.4759687 C130.398328,21.2113507 125.271062,30.9203872 129.26806,37.3618194" id="Fill-9" fill="#FF5A00" mask="url(#mask-4)"></path>
            <path d="M48.300503,15.7174965 C48.2891765,23.0210816 48.2908755,28.2693802 48.2901959,37.1421059 C47.8672655,45.8619236 47.9656925,52.805526 44.7610947,56.9778264 C44.1290778,57.8005955 42.7868912,59.0009514 41.6638718,59.8433559 C40.7207168,60.5506823 38.9233194,61.9850833 37.9030311,62.0476007 C36.8744745,62.1104566 34.2320093,60.6248229 33.0359342,60.0637465 C31.4656326,59.3267413 30.0139191,58.3481302 28.3904963,57.8597274 C32.1771614,55.5219844 35.7717295,53.7691285 37.2393001,49.0434253 C38.5155666,44.9335295 38.3455563,38.9780174 38.3455563,33.1739462 C38.3455563,27.443 38.3711541,20.7800486 38.3711541,15.720092 L48.300503,15.7174965 L48.300503,15.7174965 Z" id="Fill-10" fill="#FF5A00" mask="url(#mask-4)"></path>
        </g>
    </g>
</svg>