<svg width="187" height="92" viewBox="0 0 187 92" fill="none" xmlns="http://www.w3.org/2000/svg">
<mask id="mask0" mask-type="alpha" maskUnits="userSpaceOnUse" x="0" y="17" width="33" height="49">
<path d="M0 17.1128H32.1513V65.4575H0V17.1128Z" fill="white"/>
</mask>
<g mask="url(#mask0)">
<path fill-rule="evenodd" clip-rule="evenodd" d="M22.1962 17.1128H32.1513V64.0597C22.6091 65.614 13.47 66.5997 6.93187 62.9575C-1.48642 58.2681 -2.16317 43.3662 4.49826 36.7292C7.8757 33.3644 14.6751 30.9955 21.9751 32.5414V17.7741C21.956 17.4612 21.9383 17.1496 22.1962 17.1128ZM10.2503 48.8517C10.2178 55.0059 14.7471 58.6748 21.9751 57.0066V40.6967C14.6558 38.4758 10.2809 42.9689 10.2503 48.8517Z" fill="#FF5A00"/>
</g>
<mask id="mask1" mask-type="alpha" maskUnits="userSpaceOnUse" x="0" y="17" width="187" height="65">
<path d="M0 81.9942H186.898V17.1128H0V81.9942Z" fill="white"/>
</mask>
<g mask="url(#mask1)">
<path fill-rule="evenodd" clip-rule="evenodd" d="M38.3455 27.472H48.3005V17.1128H38.3455V27.472Z" fill="#FF5A00"/>
<path fill-rule="evenodd" clip-rule="evenodd" d="M168.203 32.1005C176.491 31.2177 182.743 34.8614 185.238 40.4761C189.493 50.0558 185.003 61.0482 178.158 64.2801C174.611 65.9552 170.896 66.1148 167.54 65.823C157.166 64.9215 150.623 54.3886 154.266 42.6799C154.836 40.8475 155.477 39.7265 155.815 39.1535C158.07 35.3336 161.877 32.7746 168.203 32.1005ZM167.761 57.4473C178.613 61.6493 179.814 38.094 168.867 40.2555C162.069 41.5979 162.287 55.3282 167.761 57.4473Z" fill="#FF5A00"/>
<path fill-rule="evenodd" clip-rule="evenodd" d="M79.4928 64.5005C71.2695 64.9719 58.7723 67.7627 54.2735 62.2966C51.6305 59.0848 51.9148 52.959 54.2735 49.9536C57.3217 46.0704 63.9759 45.2234 69.9803 44.6639C70.5254 43.3265 70.1579 41.1509 69.5378 40.2553C64.0456 38.8615 58.5886 41.0213 54.7162 42.6798V34.9658C60.5651 32.2885 74.1124 29.4694 78.1657 35.627C80.2944 38.8611 79.4928 44.5013 79.4928 49.5126V64.5005ZM62.0164 53.7006C59.2631 58.3107 66.1812 59.4153 70.6439 58.1087V51.2762C67.2148 51.7531 63.3118 51.5311 62.0164 53.7005V53.7006Z" fill="#FF5A00"/>
<path fill-rule="evenodd" clip-rule="evenodd" d="M114.446 64.9416H104.491V52.1578C104.491 47.9487 105.175 42.6116 102.942 40.9169C101.194 39.5891 97.0466 40.2553 94.5362 40.9169V64.9416H84.5809V34.3048C94.7575 31.671 113.127 28.8473 114.446 41.5781C115.097 47.8548 113.964 57.2718 114.446 64.9416Z" fill="#FF5A00"/>
<path fill-rule="evenodd" clip-rule="evenodd" d="M154.266 33.4231C153.38 36.067 152.083 38.3012 150.948 40.6967C149.922 40.9257 149.033 40.2903 148.514 40.6967C148.287 51.4407 150.811 66.0055 146.523 73.7575C143.942 78.4248 139.189 81.4191 131.923 81.9128C126.629 82.2724 122.521 81.4107 118.649 79.9292V70.672C123.19 73.3136 134.665 75.4674 137.896 70.0107C138.846 68.4052 138.786 66.7458 139.223 64.2801C137.143 64.3889 135.124 65.3484 132.586 65.3823C122.153 65.5203 115.699 57.2435 118.207 45.7657C119.177 41.3259 121.788 37.7513 125.286 35.627C132.552 31.2153 143.72 31.5502 154.266 33.4231ZM129.268 54.3618C130.943 57.0621 135.48 58.0746 139.223 56.3453C139.017 51.187 138.946 45.8953 139.002 40.476C130.398 38.2114 125.271 47.9204 129.268 54.3618Z" fill="#FF5A00"/>
<path fill-rule="evenodd" clip-rule="evenodd" d="M48.3005 32.7175C48.2892 40.0211 48.2909 45.2694 48.2902 54.1421C47.8673 62.8619 47.9657 69.8055 44.7611 73.9778C44.1291 74.8006 42.7869 76.001 41.6639 76.8434C40.7207 77.5507 38.9233 78.9851 37.903 79.0476C36.8745 79.1105 34.232 77.6248 33.0359 77.0637C31.4656 76.3267 30.0139 75.3481 28.3905 74.8597C32.1772 72.522 35.7717 70.7691 37.2393 66.0434C38.5156 61.9335 38.3456 55.978 38.3456 50.1739C38.3456 44.443 38.3712 37.78 38.3712 32.7201L48.3005 32.7175Z" fill="#FF5A00"/>
</g>
</svg>
