<?xml version="1.0" encoding="UTF-8"?>
<svg width="275px" height="92px" viewBox="0 0 275 92" version="1.1" xmlns="http://www.w3.org/2000/svg" xmlns:xlink="http://www.w3.org/1999/xlink">
    <g id="Page-1" stroke="none" stroke-width="1" fill="none" fill-rule="evenodd">
        <g id="Group-14" transform="translate(0.000000, 13.000000)" fill="#FF5A00">
            <path d="M16.0834577,20.1370235 L24.9681592,20.1370235 L24.9681592,11.3129471 L16.0834577,11.3129471 L16.0834577,20.1370235 Z M27.2462687,20.1370235 L36.1309701,20.1370235 L36.1309701,11.3129471 L27.2462687,11.3129471 L27.2462687,20.1370235 Z M5.14850746,31.2236647 L14.033209,31.2236647 L14.033209,22.3995882 L5.14850746,22.3995882 L5.14850746,31.2236647 Z M27.2462687,31.2236647 L36.1309701,31.2236647 L36.1309701,22.3995882 L27.2462687,22.3995882 L27.2462687,31.2236647 Z M16.0834577,31.2236647 L24.9681592,31.2236647 L24.9681592,22.3995882 L16.0834577,22.3995882 L16.0834577,31.2236647 Z M49.1162935,31.2236647 L58.000995,31.2236647 L58.000995,22.3995882 L49.1162935,22.3995882 L49.1162935,31.2236647 Z M38.1812189,8.8242 L47.0659204,8.8242 L47.0659204,0.000123529412 L38.1812189,0.000123529412 L38.1812189,8.8242 Z M38.1812189,20.1370235 L47.0659204,20.1370235 L47.0659204,11.3129471 L38.1812189,11.3129471 L38.1812189,20.1370235 Z M38.1812189,31.2236647 L47.0659204,31.2236647 L47.0659204,22.3995882 L38.1812189,22.3995882 L38.1812189,31.2236647 Z M76.4537313,26.0196176 C75.9981343,22.3995882 73.7200249,19.4582294 70.7584577,17.1956647 L69.619403,16.2906882 L68.7080846,17.4218471 C66.8856965,19.4582294 66.2022388,23.0783824 66.4299751,25.7933118 C66.6578358,27.8298176 67.3412935,29.8660765 68.4803483,31.4498471 C67.5691542,31.9024588 66.4299751,32.3549471 65.5187811,32.8074353 C63.468408,33.4862294 61.4181592,33.7124118 59.3679104,33.7124118 L0.364427861,33.7124118 L0.136691542,35.07 C-0.318905473,39.3689471 0.364427861,43.8940765 2.1869403,47.9665941 L3.09825871,49.5504882 L3.09825871,49.7767941 C8.56567164,58.8269294 18.3616915,62.8996941 29.0689055,62.8996941 C49.5718905,62.8996941 66.4299751,54.0757412 74.4034826,35.07 C79.6431592,35.2961824 84.8828358,33.9387176 87.388806,28.9609765 L88.0721393,27.8298176 L86.9330846,27.1510235 C83.9716418,25.3408235 79.8708955,25.1146412 76.4537313,26.0196176 L76.4537313,26.0196176 Z M17.6782338,50.6817706 C15.1722637,50.6817706 12.8941542,48.6455118 12.8941542,46.1566412 C12.8941542,43.6677706 14.9445274,41.6313882 17.6782338,41.6313882 C20.4119403,41.6313882 22.4623134,43.6677706 22.4623134,46.1566412 C22.4623134,48.6455118 20.184204,50.6817706 17.6782338,50.6817706 L17.6782338,50.6817706 Z" id="Fill-1"></path>
            <polygon id="Fill-3" points="38.1813433 20.1370235 47.0660448 20.1370235 47.0660448 11.3129471 38.1813433 11.3129471"></polygon>
            <polygon id="Fill-4" points="38.1813433 31.2236647 47.0660448 31.2236647 47.0660448 22.3995882 38.1813433 22.3995882"></polygon>
            <polygon id="Fill-5" points="38.1813433 8.8242 47.0660448 8.8242 47.0660448 0.000123529412 38.1813433 0.000123529412"></polygon>
            <polygon id="Fill-6" points="27.2462687 20.1370235 36.1309701 20.1370235 36.1309701 11.3129471 27.2462687 11.3129471"></polygon>
            <polygon id="Fill-7" points="49.1162935 31.2236647 58.000995 31.2236647 58.000995 22.3995882 49.1162935 22.3995882"></polygon>
            <polygon id="Fill-8" points="5.14850746 31.2236647 14.033209 31.2236647 14.033209 22.3995882 5.14850746 22.3995882"></polygon>
            <path d="M17.6782463,50.6817582 C15.1722761,50.6817582 12.8941667,48.6454994 12.8941667,46.1566288 C12.8941667,43.6677582 14.9445398,41.6313759 17.6782463,41.6313759 C20.4119527,41.6313759 22.4623259,43.6677582 22.4623259,46.1566288 C22.4623259,48.6454994 20.184092,50.6817582 17.6782463,50.6817582 L17.6782463,50.6817582 Z M86.933097,27.1510112 C83.9716542,25.3408112 79.870908,25.1146288 76.4537438,26.0196053 C75.9981468,22.3995759 73.7200373,19.4580935 70.7584701,17.1956524 L69.6194154,16.2906759 L68.7082214,17.4218347 C66.8855846,19.4580935 66.2022512,23.07837 66.4299876,25.7932994 C66.6578483,27.8298053 67.341306,29.8660641 68.4803607,31.4498347 C67.5691667,31.9024465 66.4299876,32.3549347 65.5187935,32.8074229 C63.4684204,33.4862171 61.4181716,33.7123994 59.3679229,33.7123994 L0.364440299,33.7123994 L0.13670398,35.0699876 C-0.318893035,39.3688112 0.364440299,43.8940641 2.18695274,47.9667053 L3.09827114,49.5504759 L3.09827114,49.7767818 C8.56568408,58.8270406 18.361704,62.8996818 29.0689179,62.8996818 C49.571903,62.8996818 66.4299876,54.0756053 74.403495,35.0699876 C79.6431716,35.29617 84.8828483,33.9387053 87.3888184,28.9609641 L88.0721517,27.8298053 L86.933097,27.1510112 Z" id="Fill-9"></path>
            <polygon id="Fill-10" points="16.0834577 31.2236647 24.9681592 31.2236647 24.9681592 22.3995882 16.0834577 22.3995882"></polygon>
            <polygon id="Fill-11" points="27.2462687 31.2236647 36.1309701 31.2236647 36.1309701 22.3995882 27.2462687 22.3995882"></polygon>
            <polygon id="Fill-12" points="16.0834577 20.1370235 24.9681592 20.1370235 24.9681592 11.3129471 16.0834577 11.3129471"></polygon>
            <path d="M128.167114,27.1509741 L128.167114,16.0643329 C128.167114,14.7068682 129.078433,13.3491565 130.673085,13.3491565 L131.128682,13.3491565 C132.723333,13.3491565 133.634527,14.4805624 133.634527,16.0643329 L133.634527,39.3688976 C133.634527,45.0253094 130.900821,49.5504388 125.889005,52.2656153 C123.610896,53.62308 121.104925,54.3018741 118.371219,54.3018741 L117.232164,54.3018741 C111.536891,54.3018741 106.980547,51.5866976 104.246841,46.6092035 C102.879925,44.3465153 102.196468,41.8577682 102.196468,39.1425918 L102.196468,38.0113094 C102.196468,32.3548976 104.930299,27.8297682 109.942114,25.1147153 C112.220348,23.7570035 114.726194,23.0783329 117.460025,23.0783329 L118.598955,23.0783329 C122.016119,23.3045153 125.433408,24.6622271 128.167114,27.1509741 L128.167114,27.1509741 Z M107.208408,38.6901035 C107.208408,42.7627447 109.258781,45.9302859 112.903682,47.7404859 C114.270597,48.4191565 115.865249,48.8716447 117.687761,48.8716447 C121.788383,48.8716447 124.74995,47.0616918 126.800199,43.6677212 C127.711517,42.0839506 128.167114,40.2738741 128.167114,38.4637976 C128.167114,34.8436447 126.572463,32.1285918 123.610896,30.0923329 C121.788383,28.9609271 119.965871,28.2822565 117.687761,28.2822565 C113.359279,28.2822565 110.169975,30.5448212 108.347463,34.3911565 C107.664005,35.9750506 107.208408,37.3325153 107.208408,38.6901035 L107.208408,38.6901035 Z M151.40393,23.3045153 L152.087388,23.3045153 C158.238259,23.3045153 162.794602,26.2459976 165.756169,31.4499212 C166.895224,33.48618 167.578682,35.7487447 167.578682,38.2376153 L167.578682,39.3688976 C167.578682,45.0253094 164.844851,49.5504388 159.833035,52.2656153 C157.554925,53.62308 155.048955,54.3018741 152.315249,54.3018741 L151.176194,54.3018741 C145.480796,54.3018741 140.924577,51.5866976 138.190871,46.6092035 C136.823955,44.3465153 136.140498,41.8577682 136.140498,39.1425918 L136.140498,38.0113094 C136.140498,32.3548976 138.874204,27.8297682 143.886144,25.1147153 C146.392114,23.9833094 148.670224,23.3045153 151.40393,23.3045153 L151.40393,23.3045153 Z M141.835771,38.6901035 C141.835771,42.5365624 143.886144,45.4777976 147.075572,47.51418 C148.670224,48.4191565 150.492736,48.8716447 152.315249,48.8716447 C156.18801,48.8716447 159.149577,46.8353859 161.199826,43.6677212 C162.111144,42.0839506 162.566741,40.2738741 162.566741,38.4637976 C162.566741,34.8436447 160.744229,31.9024094 157.782662,29.8660271 C156.18801,28.7347447 154.137761,28.2822565 152.315249,28.2822565 C147.986766,28.2822565 144.797463,30.5448212 142.97495,34.3911565 C141.835771,35.9750506 141.835771,37.3325153 141.835771,38.6901035 L141.835771,38.6901035 Z M189.676443,28.9609271 C188.992985,28.5084388 187.398333,28.5084388 186.487015,28.5084388 C182.158657,28.2822565 178.969229,30.7711271 177.146716,34.6174624 C176.463259,35.9750506 176.235522,37.3325153 176.235522,38.9162859 C176.235522,43.4415388 178.513632,46.6092035 182.614254,48.4191565 C183.981169,49.0979506 186.031418,49.3242565 187.62607,49.3242565 C188.992985,49.3242565 191.043234,48.4191565 192.182413,47.9666682 L193.321343,47.9666682 C194.460522,48.1929741 195.371716,48.8716447 195.371716,50.2292329 L195.371716,50.6817212 C195.371716,53.8493859 189.448582,54.52818 187.398333,54.7543624 C179.652687,55.2068506 173.729552,50.9080271 171.451443,43.6677212 C170.995846,42.3102565 170.995846,41.1789741 170.995846,39.8213859 L170.995846,38.6901035 C170.995846,33.0336918 173.729552,28.5084388 178.741493,25.7933859 C181.019602,24.4359212 183.525572,23.7570035 186.259279,23.7570035 L187.398333,23.7570035 C190.13204,23.7570035 192.865746,24.4359212 195.14398,26.0196918 L195.371716,26.2459976 L195.599577,26.47218 C195.827313,26.9246682 196.055174,27.3771565 196.055174,27.8297682 L196.055174,28.2822565 C196.055174,29.6397212 195.14398,30.3186388 193.777065,30.5448212 L193.549204,30.5448212 C191.954552,30.0923329 190.13204,29.1872329 189.676443,28.9609271 L189.676443,28.9609271 Z M206.534527,32.3548976 L212.685398,26.2459976 C213.368856,25.7933859 215.419104,23.3045153 216.330423,23.3045153 L217.241741,23.3045153 C218.380672,23.5308212 219.29199,24.2094918 219.29199,25.5672035 L219.29199,26.0196918 C219.29199,26.9246682 218.152935,27.8297682 217.697338,28.5084388 C216.558284,29.8660271 215.191368,30.9974329 214.052313,32.3548976 L207.673582,38.6901035 L215.874826,46.8353859 L218.152935,49.0979506 L219.064129,50.0029271 C219.29199,50.4554153 219.519851,50.6817212 219.519851,51.1342094 L219.519851,51.8131271 C219.29199,52.9444094 218.380672,53.8493859 217.241741,53.8493859 L216.786144,53.8493859 C215.874826,53.8493859 214.963507,52.9444094 214.280174,52.2656153 C213.140995,51.1342094 211.774204,50.0029271 210.635149,48.6454624 L206.534527,44.7990035 L206.534527,51.1342094 C206.534527,52.4917976 205.623333,53.8493859 204.028557,53.8493859 L203.57296,53.8493859 C201.978308,53.8493859 201.06699,52.7181035 201.06699,51.1342094 L201.06699,16.2906388 C201.06699,14.9330506 201.978308,13.8017682 203.57296,13.8017682 L204.028557,13.8017682 C205.623333,13.8017682 206.534527,14.9330506 206.534527,16.2906388 L206.534527,32.3548976 Z M271.688881,23.5308212 L272.144478,23.5308212 C273.739129,23.5308212 274.878184,24.6622271 274.878184,26.2459976 C274.878184,28.5084388 272.827811,28.9609271 271.005299,28.9609271 C268.727313,28.9609271 266.44908,30.3186388 264.854428,31.9024094 C262.804055,33.9386682 261.892861,36.4275388 261.892861,39.1425918 L261.892861,51.8131271 C261.892861,53.1705918 260.981667,54.52818 259.386891,54.52818 L258.931294,54.52818 C257.336642,54.52818 256.425323,53.3968976 256.425323,51.8131271 L256.425323,38.4637976 C256.425323,33.2598741 258.931294,29.1872329 263.031915,26.2459976 C265.993483,24.4359212 268.727313,23.5308212 271.688881,23.5308212 L271.688881,23.5308212 Z M234.555423,48.4191565 C236.377935,49.0979506 238.656045,49.0979506 240.706294,48.6454624 C241.617612,48.1929741 244.351318,47.0616918 245.262637,47.2878741 L245.718234,47.2878741 C246.401567,47.51418 246.857289,47.9666682 247.085149,48.6454624 C247.768483,50.0029271 247.540746,51.3605153 246.173831,52.0393094 L245.718234,52.2656153 C240.706294,55.2068506 235.466617,54.7543624 230.454801,52.0393094 C228.176692,50.6817212 226.354179,48.8716447 224.987264,46.6092035 L224.759527,46.1565918 C221.5701,40.7263624 222.025821,34.8436447 225.670721,29.6397212 C226.809776,27.8297682 228.632289,26.47218 230.454801,25.3408976 L231.138259,24.8884094 C235.922338,22.1732329 240.934154,22.3995388 245.718234,24.6622271 C248.224204,26.0196918 250.502313,27.8297682 251.869104,30.3186388 L252.096965,30.7711271 C253.23602,32.58108 251.869104,34.1648506 250.274453,35.2962565 L245.490373,39.3688976 C241.389751,42.5365624 237.972587,45.4777976 234.555423,48.4191565 L234.555423,48.4191565 Z M229.999204,45.2514918 C233.871965,41.8577682 237.744726,38.6901035 241.617612,35.2962565 C242.984403,34.1648506 244.351318,33.0336918 245.718234,31.6761035 C244.579179,30.3186388 242.984527,29.4135388 241.389751,28.7347447 C238.428308,27.6034624 235.466617,28.0559506 232.50505,29.6397212 C228.860149,31.6761035 227.265373,35.0699506 227.493234,39.1425918 C227.493234,40.7263624 227.948831,42.3102565 228.860149,43.6677212 C229.543483,44.3465153 229.771343,44.7990035 229.999204,45.2514918 L229.999204,45.2514918 Z" id="Fill-13"></path>
        </g>
    </g>
</svg>