<svg width="275" height="92" viewBox="0 0 275 92" fill="none" xmlns="http://www.w3.org/2000/svg">
<path fill-rule="evenodd" clip-rule="evenodd" d="M16.0835 33.137H24.9682V24.3129H16.0835V33.137ZM27.2463 33.137H36.131V24.3129H27.2463V33.137ZM5.1485 44.2237H14.0332V35.3996H5.1485V44.2237ZM27.2463 44.2237H36.131V35.3996H27.2463V44.2237ZM16.0835 44.2237H24.9682V35.3996H16.0835V44.2237ZM49.1163 44.2237H58.001V35.3996H49.1163V44.2237ZM38.1812 21.8242H47.0659V13.0001H38.1812V21.8242ZM38.1812 33.137H47.0659V24.3129H38.1812V33.137ZM38.1812 44.2237H47.0659V35.3996H38.1812V44.2237ZM76.4537 39.0196C75.9981 35.3996 73.72 32.4582 70.7585 30.1957L69.6194 29.2907L68.7081 30.4218C66.8857 32.4582 66.2022 36.0784 66.43 38.7933C66.6578 40.8298 67.3413 42.8661 68.4803 44.4498C67.5691 44.9025 66.43 45.3549 65.5188 45.8074C63.4684 46.4862 61.4182 46.7124 59.3679 46.7124H0.364421L0.136685 48.07C-0.318912 52.3689 0.364421 56.8941 2.18693 60.9666L3.09825 62.5505V62.7768C8.56566 71.8269 18.3617 75.8997 29.0689 75.8997C49.5719 75.8997 66.43 67.0757 74.4035 48.07C79.6431 48.2962 84.8828 46.9387 87.3888 41.961L88.0721 40.8298L86.9331 40.151C83.9716 38.3408 79.8709 38.1146 76.4537 39.0196ZM17.6782 63.6818C15.1723 63.6818 12.8941 61.6455 12.8941 59.1566C12.8941 56.6678 14.9445 54.6314 17.6782 54.6314C20.4119 54.6314 22.4623 56.6678 22.4623 59.1566C22.4623 61.6455 20.1842 63.6818 17.6782 63.6818Z" fill="#FF5A00"/>
<path fill-rule="evenodd" clip-rule="evenodd" d="M38.1813 33.137H47.066V24.3129H38.1813V33.137Z" fill="#FF5A00"/>
<path fill-rule="evenodd" clip-rule="evenodd" d="M38.1813 44.2237H47.066V35.3996H38.1813V44.2237Z" fill="#FF5A00"/>
<path fill-rule="evenodd" clip-rule="evenodd" d="M38.1813 21.8242H47.066V13.0001H38.1813V21.8242Z" fill="#FF5A00"/>
<path fill-rule="evenodd" clip-rule="evenodd" d="M27.2463 33.137H36.131V24.3129H27.2463V33.137Z" fill="#FF5A00"/>
<path fill-rule="evenodd" clip-rule="evenodd" d="M49.1163 44.2237H58.001V35.3996H49.1163V44.2237Z" fill="#FF5A00"/>
<path fill-rule="evenodd" clip-rule="evenodd" d="M5.1485 44.2237H14.0332V35.3996H5.1485V44.2237Z" fill="#FF5A00"/>
<path fill-rule="evenodd" clip-rule="evenodd" d="M17.6782 63.6818C15.1723 63.6818 12.8941 61.6455 12.8941 59.1566C12.8941 56.6678 14.9445 54.6314 17.6782 54.6314C20.4119 54.6314 22.4623 56.6678 22.4623 59.1566C22.4623 61.6455 20.1841 63.6818 17.6782 63.6818ZM86.9331 40.151C83.9716 38.3408 79.8709 38.1146 76.4537 39.0196C75.9981 35.3996 73.72 32.4581 70.7584 30.1957L69.6194 29.2907L68.7082 30.4218C66.8856 32.4581 66.2022 36.0784 66.43 38.7933C66.6578 40.8298 67.3413 42.8661 68.4803 44.4498C67.5691 44.9024 66.43 45.3549 65.5188 45.8074C63.4684 46.4862 61.4182 46.7124 59.3679 46.7124H0.364421L0.136685 48.07C-0.318912 52.3688 0.364421 56.8941 2.18693 60.9667L3.09825 62.5505V62.7768C8.56566 71.827 18.3617 75.8997 29.0689 75.8997C49.5719 75.8997 66.43 67.0756 74.4035 48.07C79.6431 48.2962 84.8828 46.9387 87.3888 41.961L88.0721 40.8298L86.9331 40.151Z" fill="#FF5A00"/>
<path fill-rule="evenodd" clip-rule="evenodd" d="M16.0834 44.2237H24.9681V35.3996H16.0834V44.2237Z" fill="#FF5A00"/>
<path fill-rule="evenodd" clip-rule="evenodd" d="M27.2463 44.2237H36.131V35.3996H27.2463V44.2237Z" fill="#FF5A00"/>
<path fill-rule="evenodd" clip-rule="evenodd" d="M16.0834 33.137H24.9681V24.3129H16.0834V33.137Z" fill="#FF5A00"/>
<path fill-rule="evenodd" clip-rule="evenodd" d="M128.167 40.151V29.0643C128.167 27.7069 129.078 26.3492 130.673 26.3492H131.129C132.723 26.3492 133.635 27.4806 133.635 29.0643V52.3689C133.635 58.0253 130.901 62.5504 125.889 65.2656C123.611 66.6231 121.105 67.3019 118.371 67.3019H117.232C111.537 67.3019 106.981 64.5867 104.247 59.6092C102.88 57.3465 102.196 54.8578 102.196 52.1426V51.0113C102.196 45.3549 104.93 40.8298 109.942 38.1147C112.22 36.757 114.726 36.0783 117.46 36.0783H118.599C122.016 36.3045 125.433 37.6622 128.167 40.151ZM107.208 51.6901C107.208 55.7627 109.259 58.9303 112.904 60.7405C114.271 61.4192 115.865 61.8716 117.688 61.8716C121.788 61.8716 124.75 60.0617 126.8 56.6677C127.712 55.084 128.167 53.2739 128.167 51.4638C128.167 47.8436 126.572 45.1286 123.611 43.0923C121.788 41.9609 119.966 41.2823 117.688 41.2823C113.359 41.2823 110.17 43.5448 108.347 47.3912C107.664 48.9751 107.208 50.3325 107.208 51.6901ZM151.404 36.3045H152.087C158.238 36.3045 162.795 39.246 165.756 44.4499C166.895 46.4862 167.579 48.7487 167.579 51.2376V52.3689C167.579 58.0253 164.845 62.5504 159.833 65.2656C157.555 66.6231 155.049 67.3019 152.315 67.3019H151.176C145.481 67.3019 140.925 64.5867 138.191 59.6092C136.824 57.3465 136.141 54.8578 136.141 52.1426V51.0113C136.141 45.3549 138.874 40.8298 143.886 38.1147C146.392 36.9833 148.67 36.3045 151.404 36.3045ZM141.836 51.6901C141.836 55.5366 143.886 58.4778 147.076 60.5142C148.67 61.4192 150.493 61.8716 152.315 61.8716C156.188 61.8716 159.15 59.8354 161.2 56.6677C162.111 55.084 162.567 53.2739 162.567 51.4638C162.567 47.8436 160.744 44.9024 157.783 42.866C156.188 41.7347 154.138 41.2823 152.315 41.2823C147.987 41.2823 144.797 43.5448 142.975 47.3912C141.836 48.9751 141.836 50.3325 141.836 51.6901ZM189.676 41.9609C188.993 41.5084 187.398 41.5084 186.487 41.5084C182.159 41.2823 178.969 43.7711 177.147 47.6175C176.463 48.9751 176.236 50.3325 176.236 51.9163C176.236 56.4415 178.514 59.6092 182.614 61.4192C183.981 62.098 186.031 62.3243 187.626 62.3243C188.993 62.3243 191.043 61.4192 192.182 60.9667H193.321C194.461 61.193 195.372 61.8716 195.372 63.2292V63.6817C195.372 66.8494 189.449 67.5282 187.398 67.7544C179.653 68.2069 173.73 63.908 171.451 56.6677C170.996 55.3103 170.996 54.179 170.996 52.8214V51.6901C170.996 46.0337 173.73 41.5084 178.741 38.7934C181.02 37.4359 183.526 36.757 186.259 36.757H187.398C190.132 36.757 192.866 37.4359 195.144 39.0197L195.372 39.246L195.6 39.4722C195.827 39.9247 196.055 40.3772 196.055 40.8298V41.2823C196.055 42.6397 195.144 43.3186 193.777 43.5448H193.549C191.955 43.0923 190.132 42.1872 189.676 41.9609ZM206.535 45.3549L212.685 39.246C213.369 38.7934 215.419 36.3045 216.33 36.3045H217.242C218.381 36.5308 219.292 37.2095 219.292 38.5672V39.0197C219.292 39.9247 218.153 40.8298 217.697 41.5084C216.558 42.866 215.191 43.9974 214.052 45.3549L207.674 51.6901L215.875 59.8354L218.153 62.098L219.064 63.0029C219.292 63.4554 219.52 63.6817 219.52 64.1342V64.8131C219.292 65.9444 218.381 66.8494 217.242 66.8494H216.786C215.875 66.8494 214.964 65.9444 214.28 65.2656C213.141 64.1342 211.774 63.0029 210.635 61.6455L206.535 57.799V64.1342C206.535 65.4918 205.623 66.8494 204.029 66.8494H203.573C201.978 66.8494 201.067 65.7181 201.067 64.1342V29.2906C201.067 27.933 201.978 26.8018 203.573 26.8018H204.029C205.623 26.8018 206.535 27.933 206.535 29.2906V45.3549ZM271.689 36.5308H272.144C273.739 36.5308 274.878 37.6622 274.878 39.246C274.878 41.5084 272.828 41.9609 271.005 41.9609C268.727 41.9609 266.449 43.3186 264.854 44.9024C262.804 46.9387 261.893 49.4275 261.893 52.1426V64.8131C261.893 66.1706 260.982 67.5282 259.387 67.5282H258.931C257.337 67.5282 256.425 66.3969 256.425 64.8131V51.4638C256.425 46.2599 258.931 42.1872 263.032 39.246C265.993 37.4359 268.727 36.5308 271.689 36.5308ZM234.555 61.4192C236.378 62.098 238.656 62.098 240.706 61.6455C241.618 61.193 244.351 60.0617 245.263 60.2879H245.718C246.402 60.5142 246.857 60.9667 247.085 61.6455C247.768 63.0029 247.541 64.3605 246.174 65.0393L245.718 65.2656C240.706 68.2068 235.467 67.7544 230.455 65.0393C228.177 63.6817 226.354 61.8716 224.987 59.6092L224.76 59.1566C221.57 53.7264 222.026 47.8436 225.671 42.6397C226.81 40.8298 228.632 39.4722 230.455 38.3409L231.138 37.8884C235.922 35.1732 240.934 35.3995 245.718 37.6622C248.224 39.0197 250.502 40.8298 251.869 43.3186L252.097 43.7711C253.236 45.5811 251.869 47.1649 250.274 48.2963L245.49 52.3689C241.39 55.5366 237.973 58.4778 234.555 61.4192ZM229.999 58.2515C233.872 54.8578 237.745 51.6901 241.618 48.2963C242.984 47.1649 244.351 46.0337 245.718 44.6761C244.579 43.3186 242.985 42.4135 241.39 41.7347C238.428 40.6035 235.467 41.056 232.505 42.6397C228.86 44.6761 227.265 48.07 227.493 52.1426C227.493 53.7264 227.949 55.3103 228.86 56.6677C229.543 57.3465 229.771 57.799 229.999 58.2515Z" fill="#FF5A00"/>
</svg>
