<?xml version="1.0" encoding="UTF-8"?>
<svg width="266px" height="92px" viewBox="0 0 266 92" version="1.1" xmlns="http://www.w3.org/2000/svg" xmlns:xlink="http://www.w3.org/1999/xlink">
    <defs>
        <polygon id="path-1" points="2.20392439e-06 0.085407574 67.1178336 0.085407574 67.1178336 75.1386282 2.20392439e-06 75.1386282"></polygon>
    </defs>
    <g id="Page-1" stroke="none" stroke-width="1" fill="none" fill-rule="evenodd">
        <g id="Group-18" transform="translate(0.000000, 15.000000)">
            <path d="M236.065535,37.1493763 C236.024065,37.148614 235.982595,37.1478517 235.941234,37.1470895 C235.941234,36.0199011 235.97603,34.891515 235.933137,33.7658512 C235.86847,32.0688072 235.661994,30.3907111 235.050446,28.7844868 C234.163378,26.4552982 232.556874,24.8370953 230.205766,23.9959783 C228.247258,23.2952289 226.222988,23.2379493 224.208785,23.6942259 C221.915123,24.2138803 220.100174,25.4632506 218.925441,27.5224846 C217.995152,29.1535373 217.594018,30.954033 217.521801,32.8071258 C217.436891,34.9921354 217.424855,37.1813919 217.434155,39.3685793 C217.443019,41.4317336 217.585155,43.4839982 218.3256,45.4467499 C219.263439,47.9328584 220.995776,49.6184683 223.542089,50.3759528 C225.844285,51.0608033 228.170226,51.0150667 230.442661,50.1700294 C231.977933,49.5993025 233.210439,48.6255494 234.128145,47.2709851 C235.126274,45.7976146 235.603455,44.1322595 235.767694,42.3937258 C235.932262,40.6518164 235.971434,38.8980373 236.065535,37.1493763 M235.46657,50.5549787 C236.391497,51.853788 237.306358,53.1512906 238.237303,54.4374679 C238.487109,54.78267 238.618413,55.1410486 238.433384,55.5324228 C238.239163,55.9435073 237.861555,56.0208239 237.421577,56.0757078 C236.327377,56.212264 235.608597,55.7249519 235.027796,54.8734897 C234.484635,54.077238 233.897487,53.3109329 233.337257,52.5261154 C233.192823,52.3236767 233.064254,52.2399352 232.799677,52.3614638 C231.480728,52.9674732 230.08803,53.2971031 228.643249,53.4416088 C226.677847,53.638276 224.729186,53.5786007 222.801097,53.1314714 C219.405794,52.3439315 217.018797,50.3710524 215.713088,47.1355178 C215.178134,45.8101377 214.869898,44.4267158 214.729622,43.0117138 C214.408474,39.7729123 214.536386,36.5231121 214.585078,33.2791924 C214.618341,31.0661965 214.983585,28.8934923 215.93357,26.8528796 C216.675547,25.2589606 217.732216,23.9258489 219.155113,22.8849066 C220.561269,21.8561608 222.140856,21.2202049 223.851529,20.9285799 C225.578395,20.6343414 227.314234,20.6131066 229.055543,20.8623708 C230.734265,21.1025966 232.307834,21.6129948 233.732592,22.5387245 C236.254394,24.1772911 237.689437,26.5500383 238.314663,29.4262143 C239.036069,32.7455993 238.931682,36.118997 238.843052,39.4837919 C238.80771,40.8239819 238.723237,42.1687455 238.558123,43.4986993 C238.237303,46.0837948 237.416981,48.4769056 235.574568,50.423105 C235.538568,50.461001 235.507821,50.5042329 235.46657,50.5549787" id="Fill-1" fill="#FF5A00"></path>
            <path d="M111.852803,38.9122374 L111.38547,38.9122374 C109.063906,38.9122374 106.741686,38.8813108 104.420778,38.9239982 C103.082572,38.9486088 102.789983,38.4276477 102.876534,37.2002745 C102.926648,36.4888533 103.302287,36.1546497 104.022052,36.153343 C107.203985,36.1475715 110.386028,36.1473537 113.567961,36.1530163 C114.418264,36.1545408 114.743679,36.4938625 114.744336,37.3470671 C114.745321,38.828387 114.765235,40.3103604 114.733394,41.7911358 C114.679231,44.3096955 114.063196,46.6870164 112.611631,48.7696631 C111.039047,51.025891 108.855899,52.4579897 106.168106,53.1066865 C103.593126,53.7281592 101.008735,53.7197742 98.4434925,53.0929656 C95.959221,52.4857583 93.9485192,51.1290161 92.4570153,49.0513785 C91.2558026,47.378074 90.545448,45.4973214 90.327374,43.4609557 C90.1732012,42.0205809 90.0966072,40.5663762 90.0841334,39.1177252 C90.0642189,36.8086825 90.072316,34.4966996 90.1683868,32.1901615 C90.2750712,29.6294588 90.9786418,27.2301408 92.5065826,25.1234279 C94.1658273,22.8356201 96.4382617,21.5027261 99.1981622,20.9793693 C101.610654,20.5220037 104.042076,20.5029468 106.404672,21.1730962 C110.042668,22.2048912 112.787687,24.315851 114.069652,28.0022175 C114.192859,28.3565669 114.255666,28.7389027 114.293854,29.1136158 C114.342764,29.5937407 113.990104,29.9877285 113.497276,30.016695 C113.061894,30.0425035 112.623339,30.0355341 112.186972,30.0191996 C111.874796,30.0075477 111.660333,29.8344021 111.535157,29.5432127 C111.278895,28.947113 111.062353,28.3274915 110.743503,27.7660208 C109.348617,25.3092055 107.207815,23.9539878 104.409727,23.5702363 C102.646752,23.3284859 100.903473,23.3649663 99.183281,23.8297368 C96.4301646,24.5735003 94.5777936,26.2827408 93.6771576,28.9900182 C93.1939589,30.4425894 93.0103522,31.9435108 93.0054283,33.4644691 C92.9966747,36.1536697 92.9762132,38.8437415 93.0359565,41.531962 C93.0740346,43.2433804 93.4022946,44.9150515 94.1821309,46.4709656 C95.1773057,48.4568033 96.7958462,49.7050846 98.8978043,50.3247061 C101.322989,51.0392853 103.782641,51.0422255 106.169857,50.2237589 C108.525888,49.4160731 110.273107,47.882265 111.164332,45.4846894 C111.59501,44.3262478 111.797437,43.131108 111.845144,41.9098331 C111.883222,40.9335754 111.852803,39.9548131 111.852803,38.9122374" id="Fill-3" fill="#FF5A00"></path>
            <path d="M164.23804,41.3865524 C164.235523,43.1793165 164.285966,44.9616266 165.053328,46.6385247 C165.828241,48.3317574 167.010852,49.6184792 168.748988,50.3557089 C170.21084,50.9758748 171.732762,51.0200868 173.277991,50.783019 C174.531397,50.5907077 175.654265,50.1227792 176.568141,49.2198089 C177.245889,48.550095 177.698997,47.7370733 178.087875,46.8813641 C178.815518,45.2809113 178.995842,43.5680773 179.048036,41.849145 C179.114891,39.6434451 178.88303,37.4668207 177.993446,35.4100913 C177.378287,33.9876844 176.482903,32.818462 175.003873,32.1723787 C173.585243,31.5526483 172.100742,31.4691247 170.596217,31.6234311 C169.490747,31.7367924 168.444144,32.0631554 167.529831,32.7343938 C166.000468,33.8571174 165.166359,35.4287126 164.655039,37.1914212 C164.258392,38.5587265 164.226879,39.9732928 164.23804,41.3865524 M164.278854,32.3384459 C164.985707,31.7131619 165.637084,31.0566245 166.36976,30.507568 C167.487048,29.6702624 168.791225,29.2528618 170.168822,29.0444338 C171.61251,28.8258784 173.054665,28.8564783 174.47811,29.1399361 C176.238459,29.4906919 177.78511,30.2493743 178.971004,31.6533777 C180.468745,33.4267582 181.27703,35.4854477 181.61481,37.751803 C181.939021,39.9272296 181.945587,42.1106057 181.682322,44.2865768 C181.371788,46.8527243 180.4961,49.2060879 178.699314,51.1309435 C177.79452,52.1004496 176.648455,52.7196355 175.373384,53.1028425 C173.876847,53.5525853 172.340043,53.6410093 170.804115,53.4997705 C168.370067,53.2758791 166.265374,52.3381708 164.67572,50.4179977 C164.574397,50.295598 164.459068,50.1845235 164.301285,50.0158427 C164.291109,50.2122921 164.278525,50.3425324 164.278525,50.4727727 C164.277431,53.7479457 164.278525,57.0230098 164.275899,60.2979651 C164.27568,60.5416756 164.26627,60.7876729 164.231803,61.0285521 C164.175561,61.4222132 163.861635,61.7228766 163.460611,61.7474872 C163.080048,61.7705733 162.696203,61.766653 162.315312,61.747705 C161.918555,61.7278858 161.608459,61.4408345 161.53471,61.0475001 C161.499914,60.8622671 161.475732,60.6719159 161.475732,60.4838515 C161.472887,50.5631569 161.472997,40.6423533 161.473544,30.7215498 C161.473653,29.6593727 161.767227,29.3686189 162.831555,29.3679655 C163.022821,29.3678566 163.214854,29.3602338 163.404807,29.376895 C163.857696,29.4162067 164.200728,29.7275419 164.233007,30.1832741 C164.273164,30.7509518 164.266599,31.3220054 164.278416,31.8917522 C164.281698,32.0508501 164.278854,32.2098391 164.278854,32.3384459" id="Fill-5" fill="#FF5A00"></path>
            <path d="M151.35865,40.870252 C150.530888,40.9840489 149.748754,41.0844516 148.968918,41.2003175 C147.166005,41.4684209 145.35576,41.6987371 143.564555,42.0302182 C141.99394,42.320972 140.48482,42.8235297 139.208873,43.8438905 C138.343033,44.536037 137.855239,45.4289888 137.854142,46.5431096 C137.852394,48.2106426 138.707949,49.3448003 140.16028,50.0788721 C141.828278,50.9220581 143.589722,51.0968371 145.406859,50.741181 C147.731378,50.2859933 149.445114,49.0001427 150.485479,46.8793822 C151.412485,44.9891556 151.425068,42.9542056 151.35865,40.870252 L151.35865,40.870252 Z M151.374954,49.9864189 C150.095834,51.6403399 148.545681,52.7307212 146.612449,53.1834042 C144.137478,53.7631695 141.665133,53.8135886 139.302318,52.6945675 C137.385717,51.7869146 135.895308,50.4348549 135.28737,48.3427342 C134.759419,46.5254683 135.063935,44.792924 136.14194,43.2309117 C136.767604,42.32413 137.633116,41.656703 138.582991,41.105033 C140.399363,40.0502609 142.399013,39.5921331 144.458188,39.3182582 C146.319531,39.0708452 148.177592,38.7972971 150.037185,38.536272 C150.467753,38.4758344 150.898977,38.4196438 151.362371,38.3572461 C151.377908,36.7966494 151.516325,35.248467 150.638886,33.8470771 C150.006876,32.8377149 149.085888,32.2125397 147.962035,31.9140542 C146.098065,31.4187927 144.213744,31.3608597 142.368157,31.9898463 C141.008723,32.4532011 139.934984,33.2740634 139.39051,34.6714241 C139.055138,35.5321425 138.153408,35.8877987 137.298729,35.5423788 C136.743531,35.317943 136.525786,34.6606433 136.764431,33.8995653 C137.283629,32.243793 138.409232,31.0967855 139.8678,30.2202771 C141.776523,29.0733785 143.869508,28.8272723 146.038869,28.93606 C147.474022,29.0080406 148.873394,29.2231113 150.196719,29.8346744 C151.69632,30.5276921 152.67366,31.7045373 153.370446,33.1411007 C153.952998,34.3425565 154.170197,35.626447 154.167702,36.9594498 C154.158161,41.9339537 154.164288,46.9083486 154.163632,51.8827436 C154.163413,52.7929011 153.851347,53.1040186 152.944146,53.106741 C151.597842,53.1107702 151.374954,52.8896012 151.374954,51.5483223 L151.374954,49.9864189 Z" id="Fill-7" fill="#FF5A00"></path>
            <path d="M190.952231,32.3627081 C191.507865,31.8372822 192.035817,31.2939972 192.609506,30.8039627 C193.900443,29.7014939 195.429916,29.1479727 197.106667,28.9801631 C198.747748,28.8161648 200.376356,28.8840074 201.959991,29.3803579 C203.914561,29.9931189 205.388667,31.2213632 206.441178,32.9585901 C207.553979,34.7953484 207.991112,36.8143996 207.997349,38.9329822 C208.01037,43.2691344 208.001725,47.6053955 208.00096,51.9416567 C208.000741,52.7678549 207.666572,53.0987915 206.833886,53.1066321 C205.442392,53.1199175 205.214908,52.8964617 205.214908,51.5160889 C205.214908,47.4517425 205.219503,43.3873961 205.212282,39.3230497 C205.210093,38.0577805 205.047386,36.816033 204.587931,35.6225267 C203.710602,33.3434305 202.051466,32.0218618 199.640834,31.6660968 C197.942089,31.415308 196.270589,31.5319362 194.701507,32.3135957 C193.376321,32.9735089 192.407516,33.9911473 191.769926,35.3143494 C191.182888,36.5327931 190.955294,37.8329091 190.954857,39.1770194 C190.953872,43.3636566 190.955513,47.5505117 190.947088,51.7371489 C190.946431,52.0163597 190.934833,52.3268238 190.816769,52.5689009 C190.493323,53.231972 189.844244,53.0995538 189.2676,53.1044542 C188.817994,53.1082655 188.406793,52.9816188 188.245071,52.5239266 C188.153486,52.2648617 188.155565,51.9647427 188.155237,51.6831362 C188.150268,46.5178456 188.150641,41.3526638 188.150268,36.1872643 C188.150268,31.4842395 188.150268,26.780997 188.150969,22.0778633 C188.151079,21.9014509 188.155018,21.7242762 188.170227,21.5485171 C188.209837,21.0967053 188.473758,20.8139009 188.929055,20.7251502 C189.035302,20.7042421 189.141549,20.6752756 189.249108,20.6684151 C190.621782,20.5809712 190.952887,20.891762 190.952887,22.2640765 C190.952887,25.5128965 190.952449,28.7616077 190.952231,32.0104277 L190.952231,32.3627081 Z" id="Fill-9" fill="#FF5A00"></path>
            <path d="M249.076798,50.3531825 L249.597856,50.3531825 C254.541232,50.3534003 259.484827,50.3585184 264.428313,50.3504601 C265.659835,50.3483911 266.016544,50.6061492 265.964898,51.8951578 C265.929774,52.7711218 265.628869,53.1055431 264.751977,53.1057609 C258.975368,53.1075033 253.198868,53.1075033 247.422258,53.1058698 C246.558715,53.105652 246.194566,52.7485802 246.194347,51.8982069 C246.192924,42.0447015 246.193034,32.1914138 246.194456,22.3379083 C246.194566,21.4784967 246.5446,21.1365614 247.420288,21.137431 C247.732901,21.1377593 248.051423,21.1340568 248.356486,21.1901386 C248.781801,21.2684352 249.045613,21.5821662 249.055461,22.0166635 C249.076907,22.9673305 249.077454,23.9185419 249.077564,24.8695356 C249.078439,33.2005582 249.077345,41.5315809 249.076798,49.8624946 L249.076798,50.3531825 Z" id="Fill-11" fill="#FF5A00"></path>
            <path d="M124.083792,32.4255632 C124.572024,31.5637558 125.193857,30.9014469 125.992295,30.3998693 C127.033317,29.7462722 128.193497,29.4791489 129.39274,29.3912694 C130.234836,29.329525 131.084702,29.3649164 131.931175,29.3722125 C132.576753,29.3778751 132.896587,29.6886659 132.958191,30.3335513 C132.964756,30.4010672 132.970008,30.4688008 132.972853,30.5366434 C133.01859,31.6283314 132.720749,32.0093605 131.572277,32.0043513 C130.500289,31.9997776 129.407621,32.0177456 128.359487,32.2137594 C126.064731,32.6428118 124.528474,34.2185451 124.189054,36.5258455 C124.006651,37.7657417 124.034662,39.0412472 124.028206,40.3009626 C124.00862,44.1732155 124.020219,48.0455772 124.015295,51.917939 C124.0142,52.7673322 123.67478,53.0965265 122.821523,53.1066539 C121.483535,53.1226617 121.221912,52.8650124 121.221912,51.5357121 C121.222131,44.6060793 121.221365,37.6765554 121.225194,30.7469227 C121.225304,30.5187844 121.244124,30.2837856 121.301022,30.0640323 C121.452022,29.4813268 121.824488,29.333772 122.970443,29.36851 C123.498942,29.3845178 123.913206,29.6723314 123.983891,30.1340528 C124.034881,30.4669496 124.013106,30.8113894 124.017264,31.1507111 C124.021969,31.5310868 124.018796,31.9115714 124.021313,32.2919471 C124.021422,32.3142709 124.041008,32.3363769 124.083792,32.4255632" id="Fill-13" fill="#FF5A00"></path>
            <g id="Group-17" transform="translate(0.000000, 0.023522)">
                <mask id="mask-2" fill="white">
                    <use xlink:href="#path-1"></use>
                </mask>
                <g id="Clip-16"></g>
                <path d="M38.5292301,63.9434408 L53.9721112,55.0700044 C53.9258266,54.9250631 53.8844658,54.7787061 53.8481384,54.6310424 L13.2680931,54.6310424 C13.2466468,54.7179419 13.2233404,54.8039701 13.1983926,54.8898895 L28.7166641,63.8069935 C29.9830911,62.4965322 31.7320602,61.7574512 33.558827,61.760827 C35.4509175,61.7575601 37.2563473,62.5502182 38.5292301,63.9434408 L38.5292301,63.9434408 Z M35.4368023,13.1994939 L55.733226,48.1841481 C55.268191,48.6256148 54.8697928,49.1315482 54.5499582,49.6862673 C54.2309989,50.2376106 53.9923539,50.8314235 53.8414638,51.4496293 L13.2767373,51.4496293 C13.1256283,50.8313146 12.8869833,50.2376106 12.5678052,49.6862673 C12.2469858,49.1354685 11.8491347,48.6324752 11.386507,48.1927509 L31.6866509,13.2009096 C32.2952449,13.3753619 32.9255041,13.4635681 33.558827,13.4630236 C34.2109701,13.4630236 34.840901,13.3711149 35.4368023,13.1994939 L35.4368023,13.1994939 Z M28.9160273,11.6142867 L8.61500798,46.6068903 C8.52725315,46.5815174 8.43895121,46.5581046 8.3502116,46.5363253 L8.3502116,28.6848029 C10.0608838,28.261522 11.6022832,27.1754966 12.5484378,25.5374745 C13.4587028,23.9669682 13.6884847,22.0955808 13.1847151,20.3531269 L28.7241046,11.4243711 C28.7866929,11.4888378 28.8507036,11.5522156 28.9160273,11.6140689 L28.9160273,11.6142867 Z M38.3866559,11.4316671 L53.9304222,20.3631454 C53.4303729,22.102768 53.6609208,23.9700173 54.5693255,25.5374745 C55.5154802,27.1754966 57.0568796,28.261522 58.7676612,28.6848029 L58.7676612,46.534583 C58.6803441,46.5557089 58.5934646,46.5789039 58.5072416,46.6035145 L38.2060035,11.6103664 C38.2672787,11.5519978 38.3276785,11.4924314 38.3866559,11.4316671 L38.3866559,11.4316671 Z M40.002242,8.68616698 L55.5090244,17.5967371 C55.9566616,17.1253239 56.4704979,16.7207732 57.0343391,16.3954991 C60.2503021,14.5554739 64.3522388,15.6479242 66.2202568,18.8487209 C68.0692359,22.0494087 66.9715345,26.1315052 63.7552433,27.9906962 C63.19556,28.3115055 62.592437,28.5504246 61.9643663,28.7003751 L61.9643663,46.5280492 C62.585653,46.6782175 63.1822108,46.915612 63.7360948,47.2330455 C66.9714251,49.0921276 68.0692359,53.1745509 66.2011084,56.3753475 C64.3522388,59.5758175 60.2310442,60.6683767 57.0148624,58.8284604 C56.3919343,58.4728042 55.8306098,58.0193589 55.3527727,57.485548 L39.9403103,66.3413432 C40.1660438,67.0215111 40.2807159,67.733259 40.2798406,68.4495806 C40.2798406,72.1294132 37.2758241,75.1386609 33.5589364,75.1386609 C29.8419393,75.1386609 26.8379228,72.1484701 26.8379228,68.4495806 C26.8379228,67.7920632 26.9328994,67.1569784 27.1098315,66.5570672 L11.6072071,57.6491106 C11.1644938,58.1111587 10.6578792,58.5083045 10.1027916,58.8284604 C6.86757071,60.6682678 2.76552464,59.5758175 0.91665504,56.3753475 C-0.931995721,53.1745509 0.165815056,49.0921276 3.38166861,47.2330455 C3.93566203,46.9155031 4.53221983,46.6779997 5.15350654,46.5277225 L5.15350654,28.7003751 C4.52532637,28.5504246 3.92220337,28.3115055 3.36252012,27.9906962 C0.146338298,26.1508888 -0.95136306,22.0494087 0.897506541,18.8487209 C2.74637614,15.6479242 6.86735187,14.5554739 10.0834243,16.3954991 C10.6443111,16.7190308 11.1555214,17.120968 11.6014078,17.5892233 L27.1126764,8.6762574 C26.9298356,8.05870499 26.8372663,7.41806651 26.8379228,6.77416114 C26.8379228,3.07559829 29.8419393,0.085407574 33.558827,0.085407574 C37.2758241,0.085407574 40.2798406,3.0752716 40.2798406,6.77416114 C40.2798406,7.43897465 40.182785,8.0805932 40.002242,8.68616698 L40.002242,8.68616698 Z" id="Fill-15" fill="#FF5A00" mask="url(#mask-2)"></path>
            </g>
        </g>
    </g>
</svg>