<svg width="266" height="92" viewBox="0 0 266 92" fill="none" xmlns="http://www.w3.org/2000/svg">
<path fill-rule="evenodd" clip-rule="evenodd" d="M236.066 52.1494C236.024 52.1486 235.983 52.1479 235.941 52.1471C235.941 51.0199 235.976 49.8915 235.933 48.7658C235.868 47.0688 235.662 45.3907 235.05 43.7845C234.163 41.4553 232.557 39.8371 230.206 38.996C228.247 38.2952 226.223 38.2379 224.209 38.6942C221.915 39.2139 220.1 40.4632 218.925 42.5225C217.995 44.1535 217.594 45.954 217.522 47.8071C217.437 49.9921 217.425 52.1814 217.434 54.3686C217.443 56.4317 217.585 58.484 218.326 60.4468C219.263 62.9329 220.996 64.6185 223.542 65.376C225.844 66.0608 228.17 66.0151 230.443 65.17C231.978 64.5993 233.21 63.6255 234.128 62.271C235.126 60.7976 235.603 59.1323 235.768 57.3937C235.932 55.6518 235.971 53.898 236.066 52.1494ZM235.467 65.555C236.392 66.8538 237.306 68.1513 238.237 69.4375C238.487 69.7827 238.618 70.141 238.433 70.5324C238.239 70.9435 237.862 71.0208 237.422 71.0757C236.327 71.2123 235.609 70.725 235.028 69.8735C234.485 69.0772 233.897 68.3109 233.337 67.5261C233.193 67.3237 233.064 67.2399 232.8 67.3615C231.481 67.9675 230.088 68.2971 228.643 68.4416C226.678 68.6383 224.729 68.5786 222.801 68.1315C219.406 67.3439 217.019 65.3711 215.713 62.1355C215.178 60.8101 214.87 59.4267 214.73 58.0117C214.408 54.7729 214.536 51.5231 214.585 48.2792C214.618 46.0662 214.984 43.8935 215.934 41.8529C216.676 40.259 217.732 38.9258 219.155 37.8849C220.561 36.8562 222.141 36.2202 223.852 35.9286C225.578 35.6343 227.314 35.6131 229.056 35.8624C230.734 36.1026 232.308 36.613 233.733 37.5387C236.254 39.1773 237.689 41.55 238.315 44.4262C239.036 47.7456 238.932 51.119 238.843 54.4838C238.808 55.824 238.723 57.1687 238.558 58.4987C238.237 61.0838 237.417 63.4769 235.575 65.4231C235.539 65.461 235.508 65.5042 235.467 65.555Z" fill="#FF5A00"/>
<path fill-rule="evenodd" clip-rule="evenodd" d="M111.853 53.9122H111.385C109.064 53.9122 106.742 53.8813 104.421 53.924C103.083 53.9486 102.79 53.4276 102.877 52.2003C102.927 51.4889 103.302 51.1546 104.022 51.1533C107.204 51.1476 110.386 51.1474 113.568 51.153C114.418 51.1545 114.744 51.4939 114.744 52.3471C114.745 53.8284 114.765 55.3104 114.733 56.7911C114.679 59.3097 114.063 61.687 112.612 63.7697C111.039 66.0259 108.856 67.458 106.168 68.1067C103.593 68.7282 101.009 68.7198 98.4435 68.093C95.9592 67.4858 93.9485 66.129 92.457 64.0514C91.2558 62.3781 90.5455 60.4973 90.3274 58.461C90.1732 57.0206 90.0966 55.5664 90.0841 54.1177C90.0642 51.8087 90.0723 49.4967 90.1684 47.1902C90.2751 44.6295 90.9786 42.2301 92.5066 40.1234C94.1658 37.8356 96.4383 36.5027 99.1982 35.9794C101.611 35.522 104.042 35.5029 106.405 36.1731C110.043 37.2049 112.788 39.3159 114.07 43.0022C114.193 43.3566 114.256 43.7389 114.294 44.1136C114.343 44.5937 113.99 44.9877 113.497 45.0167C113.062 45.0425 112.623 45.0355 112.187 45.0192C111.875 45.0075 111.66 44.8344 111.535 44.5432C111.279 43.9471 111.062 43.3275 110.744 42.766C109.349 40.3092 107.208 38.954 104.41 38.5702C102.647 38.3285 100.903 38.365 99.1833 38.8297C96.4302 39.5735 94.5778 41.2827 93.6772 43.99C93.194 45.4426 93.0104 46.9435 93.0054 48.4645C92.9967 51.1537 92.9762 53.8437 93.036 56.532C93.074 58.2434 93.4023 59.9151 94.1821 61.471C95.1773 63.4568 96.7959 64.7051 98.8978 65.3247C101.323 66.0393 103.783 66.0422 106.17 65.2238C108.526 64.4161 110.273 62.8823 111.164 60.4847C111.595 59.3262 111.797 58.1311 111.845 56.9098C111.883 55.9336 111.853 54.9548 111.853 53.9122Z" fill="#FF5A00"/>
<path fill-rule="evenodd" clip-rule="evenodd" d="M164.238 56.3866C164.236 58.1793 164.286 59.9616 165.053 61.6385C165.828 63.3318 167.011 64.6185 168.749 65.3557C170.211 65.9759 171.733 66.0201 173.278 65.783C174.531 65.5907 175.654 65.1228 176.568 64.2198C177.246 63.5501 177.699 62.7371 178.088 61.8814C178.816 60.2809 178.996 58.5681 179.048 56.8491C179.115 54.6434 178.883 52.4668 177.993 50.4101C177.378 48.9877 176.483 47.8185 175.004 47.1724C173.585 46.5526 172.101 46.4691 170.596 46.6234C169.491 46.7368 168.444 47.0632 167.53 47.7344C166 48.8571 165.166 50.4287 164.655 52.1914C164.258 53.5587 164.227 54.9733 164.238 56.3866ZM164.279 47.3384C164.986 46.7132 165.637 46.0566 166.37 45.5076C167.487 44.6703 168.791 44.2529 170.169 44.0444C171.613 43.8259 173.055 43.8565 174.478 44.1399C176.238 44.4907 177.785 45.2494 178.971 46.6534C180.469 48.4268 181.277 50.4854 181.615 52.7518C181.939 54.9272 181.946 57.1106 181.682 59.2866C181.372 61.8527 180.496 64.2061 178.699 66.1309C177.795 67.1004 176.648 67.7196 175.373 68.1028C173.877 68.5526 172.34 68.641 170.804 68.4998C168.37 68.2759 166.265 67.3382 164.676 65.418C164.574 65.2956 164.459 65.1845 164.301 65.0158C164.291 65.2123 164.279 65.3425 164.279 65.4728C164.277 68.7479 164.279 72.023 164.276 75.298C164.276 75.5417 164.266 75.7877 164.232 76.0286C164.176 76.4222 163.862 76.7229 163.461 76.7475C163.08 76.7706 162.696 76.7667 162.315 76.7477C161.919 76.7279 161.608 76.4408 161.535 76.0475C161.5 75.8623 161.476 75.6719 161.476 75.4839C161.473 65.5632 161.473 55.6424 161.474 45.7215C161.474 44.6594 161.767 44.3686 162.832 44.368C163.023 44.3679 163.215 44.3602 163.405 44.3769C163.858 44.4162 164.201 44.7275 164.233 45.1833C164.273 45.751 164.267 46.322 164.278 46.8918C164.282 47.0508 164.279 47.2098 164.279 47.3384Z" fill="#FF5A00"/>
<path fill-rule="evenodd" clip-rule="evenodd" d="M151.359 55.8702C150.531 55.984 149.749 56.0845 148.969 56.2003C147.166 56.4684 145.356 56.6987 143.565 57.0302C141.994 57.321 140.485 57.8235 139.209 58.8439C138.343 59.536 137.855 60.429 137.854 61.5431C137.852 63.2106 138.708 64.3448 140.16 65.0789C141.828 65.9221 143.59 66.0968 145.407 65.7412C147.731 65.286 149.445 64.0001 150.485 61.8794C151.412 59.9892 151.425 57.9542 151.359 55.8702ZM151.375 64.9864C150.096 66.6403 148.546 67.7307 146.612 68.1834C144.137 68.7632 141.665 68.8136 139.302 67.6946C137.386 66.7869 135.895 65.4349 135.287 63.3427C134.759 61.5255 135.064 59.7929 136.142 58.2309C136.768 57.3241 137.633 56.6567 138.583 56.105C140.399 55.0503 142.399 54.5921 144.458 54.3183C146.32 54.0708 148.178 53.7973 150.037 53.5363C150.468 53.4758 150.899 53.4196 151.362 53.3572C151.378 51.7966 151.516 50.2485 150.639 48.8471C150.007 47.8377 149.086 47.2125 147.962 46.9141C146.098 46.4188 144.214 46.3609 142.368 46.9898C141.009 47.4532 139.935 48.2741 139.391 49.6714C139.055 50.5321 138.153 50.8878 137.299 50.5424C136.744 50.3179 136.526 49.6606 136.764 48.8996C137.284 47.2438 138.409 46.0968 139.868 45.2203C141.777 44.0734 143.87 43.8273 146.039 43.9361C147.474 44.008 148.873 44.2231 150.197 44.8347C151.696 45.5277 152.674 46.7045 153.37 48.1411C153.953 49.3426 154.17 50.6264 154.168 51.9594C154.158 56.934 154.164 61.9083 154.164 66.8827C154.163 67.7929 153.851 68.104 152.944 68.1067C151.598 68.1108 151.375 67.8896 151.375 66.5483V64.9864Z" fill="#FF5A00"/>
<path fill-rule="evenodd" clip-rule="evenodd" d="M190.952 47.3627C191.508 46.8373 192.036 46.294 192.61 45.804C193.9 44.7015 195.43 44.148 197.107 43.9802C198.748 43.8162 200.376 43.884 201.96 44.3804C203.915 44.9931 205.389 46.2214 206.441 47.9586C207.554 49.7954 207.991 51.8144 207.997 53.933C208.01 58.2691 208.002 62.6054 208.001 66.9417C208.001 67.7679 207.667 68.0988 206.834 68.1066C205.442 68.1199 205.215 67.8965 205.215 66.5161C205.215 62.4517 205.22 58.3874 205.212 54.3231C205.21 53.0578 205.047 51.816 204.588 50.6225C203.711 48.3434 202.051 47.0219 199.641 46.6661C197.942 46.4153 196.271 46.5319 194.702 47.3136C193.376 47.9735 192.408 48.9911 191.77 50.3144C191.183 51.5328 190.955 52.8329 190.955 54.177C190.954 58.3637 190.956 62.5505 190.947 66.7371C190.946 67.0164 190.935 67.3268 190.817 67.5689C190.493 68.232 189.844 68.0996 189.268 68.1045C188.818 68.1083 188.407 67.9816 188.245 67.5239C188.153 67.2649 188.156 66.9647 188.155 66.6831C188.15 61.5178 188.151 56.3527 188.15 51.1873C188.15 46.4842 188.15 41.781 188.151 37.0779C188.151 36.9015 188.155 36.7243 188.17 36.5485C188.21 36.0967 188.474 35.8139 188.929 35.7252C189.035 35.7042 189.142 35.6753 189.249 35.6684C190.622 35.581 190.953 35.8918 190.953 37.2641C190.953 40.5129 190.952 43.7616 190.952 47.0104V47.3627Z" fill="#FF5A00"/>
<path fill-rule="evenodd" clip-rule="evenodd" d="M249.077 65.3532H249.598C254.541 65.3534 259.485 65.3585 264.428 65.3505C265.66 65.3484 266.017 65.6061 265.965 66.8952C265.93 67.7711 265.629 68.1055 264.752 68.1058C258.975 68.1075 253.199 68.1075 247.422 68.1059C246.559 68.1057 246.195 67.7486 246.194 66.8982C246.193 57.0447 246.193 47.1914 246.194 37.3379C246.195 36.4785 246.545 36.1366 247.42 36.1374C247.733 36.1378 248.051 36.1341 248.356 36.1901C248.782 36.2684 249.046 36.5822 249.055 37.0167C249.077 37.9673 249.077 38.9185 249.078 39.8695C249.078 48.2006 249.077 56.5316 249.077 64.8625V65.3532Z" fill="#FF5A00"/>
<path fill-rule="evenodd" clip-rule="evenodd" d="M124.084 47.4256C124.572 46.5638 125.194 45.9014 125.992 45.3999C127.033 44.7463 128.194 44.4791 129.393 44.3913C130.235 44.3295 131.085 44.3649 131.931 44.3722C132.577 44.3779 132.897 44.6887 132.958 45.3336C132.965 45.4011 132.97 45.4688 132.973 45.5366C133.019 46.6283 132.721 47.0094 131.572 47.0044C130.5 46.9998 129.408 47.0177 128.359 47.2138C126.065 47.6428 124.528 49.2185 124.189 51.5258C124.007 52.7657 124.035 54.0412 124.028 55.301C124.009 59.1732 124.02 63.0456 124.015 66.9179C124.014 67.7673 123.675 68.0965 122.822 68.1067C121.484 68.1227 121.222 67.865 121.222 66.5357C121.222 59.6061 121.221 52.6766 121.225 45.7469C121.225 45.5188 121.244 45.2838 121.301 45.064C121.452 44.4813 121.824 44.3338 122.97 44.3685C123.499 44.3845 123.913 44.6723 123.984 45.1341C124.035 45.4669 124.013 45.8114 124.017 46.1507C124.022 46.5311 124.019 46.9116 124.021 47.2919C124.021 47.3143 124.041 47.3364 124.084 47.4256Z" fill="#FF5A00"/>
<mask id="mask0" mask-type="alpha" maskUnits="userSpaceOnUse" x="0" y="15" width="68" height="76">
<path d="M3.8147e-06 15.1089H67.1178V90.1621H3.8147e-06V15.1089Z" fill="white"/>
</mask>
<g mask="url(#mask0)">
<path fill-rule="evenodd" clip-rule="evenodd" d="M38.5292 78.967L53.9721 70.0935C53.9258 69.9486 53.8845 69.8022 53.8481 69.6546H13.2681C13.2466 69.7415 13.2233 69.8275 13.1984 69.9134L28.7167 78.8305C29.9831 77.5201 31.7321 76.781 33.5588 76.7843C35.4509 76.7811 37.2563 77.5737 38.5292 78.967ZM35.4368 28.223L55.7332 63.2077C55.2682 63.6491 54.8698 64.1551 54.55 64.7098C54.231 65.2611 53.9924 65.8549 53.8415 66.4732H13.2767C13.1256 65.8548 12.887 65.2611 12.5678 64.7098C12.247 64.159 11.8491 63.656 11.3865 63.2163L31.6867 28.2244C32.2952 28.3989 32.9255 28.4871 33.5588 28.4865C34.211 28.4865 34.8409 28.3946 35.4368 28.223ZM28.916 26.6378L8.61501 61.6304C8.52726 61.605 8.43895 61.5816 8.35021 61.5598V43.7083C10.0609 43.285 11.6023 42.199 12.5484 40.561C13.4587 38.9905 13.6885 37.1191 13.1847 35.3766L28.7241 26.4479C28.7867 26.5124 28.8507 26.5757 28.916 26.6376V26.6378ZM38.3867 26.4552L53.9304 35.3867C53.4304 37.1263 53.6609 38.9935 54.5693 40.561C55.5155 42.199 57.0569 43.285 58.7677 43.7083V61.5581C58.6803 61.5792 58.5935 61.6024 58.5072 61.627L38.206 26.6339C38.2673 26.5755 38.3277 26.516 38.3867 26.4552ZM40.0022 23.7097L55.509 32.6203C55.9567 32.1488 56.4705 31.7443 57.0343 31.419C60.2503 29.579 64.3522 30.6714 66.2203 33.8722C68.0692 37.0729 66.9715 41.155 63.7552 43.0142C63.1956 43.335 62.5924 43.5739 61.9644 43.7239V61.5516C62.5857 61.7017 63.1822 61.9391 63.7361 62.2566C66.9714 64.1156 68.0692 68.1981 66.2011 71.3989C64.3522 74.5993 60.231 75.6919 57.0149 73.852C56.3919 73.4963 55.8306 73.0429 55.3528 72.5091L39.9403 81.3649C40.166 82.045 40.2807 82.7568 40.2798 83.4731C40.2798 87.1529 37.2758 90.1622 33.5589 90.1622C29.8419 90.1622 26.8379 87.172 26.8379 83.4731C26.8379 82.8156 26.9329 82.1805 27.1098 81.5806L11.6072 72.6726C11.1645 73.1347 10.6579 73.5318 10.1028 73.852C6.86757 75.6918 2.76553 74.5993 0.916657 71.3989C-0.931994 68.1981 0.165817 64.1156 3.38167 62.2566C3.93566 61.939 4.53222 61.7015 5.15351 61.5512V43.7239C4.52533 43.5739 3.92221 43.335 3.36252 43.0142C0.14634 41.1744 -0.951361 37.0729 0.897508 33.8722C2.74638 30.6714 6.86735 29.579 10.0834 31.419C10.6443 31.7426 11.1555 32.1445 11.6014 32.6127L27.1127 23.6998C26.9298 23.0822 26.8373 22.4416 26.8379 21.7977C26.8379 18.0991 29.8419 15.1089 33.5588 15.1089C37.2758 15.1089 40.2798 18.0988 40.2798 21.7977C40.2798 22.4625 40.1828 23.1041 40.0022 23.7097Z" fill="#FF5A00"/>
</g>
</svg>
