<?xml version="1.0" encoding="UTF-8"?>
<svg width="871px" height="550px" viewBox="0 0 871 550" version="1.1" xmlns="http://www.w3.org/2000/svg" xmlns:xlink="http://www.w3.org/1999/xlink">
    <defs>
        <polygon id="path-1" points="0 0.877926583 98.8506172 0.877926583 98.8506172 59.5762009 0 59.5762009"></polygon>
        <polygon id="path-3" points="0.636277393 0.185 117.47476 0.185 117.47476 112.527359 0.636277393 112.527359"></polygon>
    </defs>
    <g id="Project" stroke="none" stroke-width="1" fill="none" fill-rule="evenodd">
        <g id="Desktop_Ivelum_Site_Error-404" transform="translate(-256.000000, -167.000000)">
            <g id="Group-157" transform="translate(256.000000, 166.000000)">
                <path d="M803.8723,130.1666 C787.0813,130.1666 770.3253,129.8566 753.8623,129.5526 C745.6963,129.4016 737.5363,129.2506 729.3893,129.1366 C728.3263,129.1216 727.4763,128.2476 727.4913,127.1856 C727.5063,126.1226 728.3723,125.2396 729.4423,125.2876 C737.5953,125.4016 745.7613,125.5526 753.9343,125.7036 C785.0433,126.2786 817.2143,126.8736 848.5963,125.3546 C854.3973,125.0736 858.7653,123.8036 861.9483,121.4726 C865.5863,118.8086 866.4923,114.9856 866.6113,112.2486 C866.8433,106.9196 864.3263,100.9996 860.3463,97.5146 C855.4003,93.1836 848.5353,93.0936 841.8953,93.0076 C840.6253,92.9906 839.3653,92.9746 838.1273,92.9296 C829.4733,92.6206 824.8143,88.6516 819.4193,84.0566 C818.6343,83.3886 817.8273,82.6996 816.9793,81.9996 C809.3763,75.7156 798.9513,73.4616 790.4153,76.2526 C788.6253,76.8386 786.8753,77.7126 785.0223,78.6386 C780.9313,80.6816 776.6983,82.7936 771.6153,81.9616 C767.8373,81.3436 765.0023,79.3776 762.2603,77.4776 C758.0903,74.5866 754.1543,71.8566 746.5023,72.9826 C742.4713,73.5756 739.9243,77.4906 737.2283,81.6346 C735.7773,83.8656 734.2773,86.1706 732.4843,87.9876 C727.5553,92.9806 723.2983,93.6676 717.4063,94.6206 L716.4683,94.7716 C715.4163,94.9386 714.4293,94.2316 714.2583,93.1826 C714.0873,92.1336 714.7983,91.1446 715.8483,90.9736 L716.7913,90.8196 C722.5363,89.8926 725.7003,89.3806 729.7453,85.2836 C731.2633,83.7446 732.5933,81.7006 734.0013,79.5356 C736.9033,75.0756 740.1913,70.0206 745.9413,69.1736 C755.0963,67.8276 760.0673,71.2736 764.4533,74.3136 C767.0623,76.1226 769.3163,77.6856 772.2373,78.1636 C776.0943,78.7956 779.5953,77.0456 783.3023,75.1946 C785.1983,74.2476 787.1593,73.2686 789.2183,72.5946 C798.9763,69.4006 810.8353,71.9276 819.4313,79.0326 C820.2943,79.7456 821.1173,80.4456 821.9153,81.1256 C827.1603,85.5936 830.9503,88.8216 838.2653,89.0836 C839.4743,89.1256 840.7053,89.1426 841.9463,89.1586 C848.9403,89.2496 856.8693,89.3536 862.8823,94.6186 C867.7683,98.8966 870.7423,105.8826 870.4563,112.4166 C870.2363,117.4766 868.0223,121.7946 864.2233,124.5776 C860.4113,127.3696 855.3613,128.8806 848.7833,129.1996 C833.9123,129.9186 818.8783,130.1666 803.8723,130.1666" id="Fill-1" fill="#041D72"></path>
                <path d="M176.7268,332.5338 C158.1568,332.5358 135.4568,317.3378 129.8098,308.6088 C129.2318,307.7168 129.4868,306.5248 130.3798,305.9468 C131.2708,305.3688 132.4638,305.6248 133.0408,306.5168 C138.3098,314.6588 161.0428,329.5898 178.3178,328.6408 C206.8488,327.0558 224.6708,290.5398 228.2128,265.1158 C231.8228,239.2098 230.4888,209.9108 224.2478,178.0338 C218.4568,148.4578 202.2528,129.5258 176.0848,121.7618 C152.0688,114.6358 124.8918,117.8018 103.3878,130.2298 C102.4678,130.7628 101.2908,130.4468 100.7588,129.5258 C100.2268,128.6058 100.5418,127.4288 101.4618,126.8968 C123.8638,113.9498 152.1698,110.6498 177.1798,118.0708 C204.8308,126.2748 221.9378,146.2008 228.0248,177.2938 C234.3488,209.5908 235.6938,239.3168 232.0258,265.6468 C228.3018,292.3738 209.2428,330.7788 178.5318,332.4848 C177.9358,332.5178 177.3318,332.5338 176.7268,332.5338" id="Fill-3" fill="#041D72"></path>
                <path d="M177.8923,284.8941 C177.6143,284.8941 177.3323,284.8841 177.0473,284.8641 C173.0683,284.5821 169.4803,282.3451 166.3853,278.2181 C165.7473,277.3681 165.9193,276.1611 166.7703,275.5231 C167.6203,274.8841 168.8273,275.0581 169.4643,275.9081 C171.8603,279.1031 174.5043,280.8241 177.3203,281.0241 C180.7463,281.2691 183.7493,279.2031 184.9753,278.2121 C184.8123,272.5591 183.9033,242.0821 183.0083,232.2371 C182.3903,225.4351 180.5083,204.7351 194.0033,197.3731 C205.6423,191.0241 221.9133,197.0031 222.6003,197.2611 C223.5953,197.6341 224.0993,198.7421 223.7263,199.7371 C223.3543,200.7321 222.2463,201.2391 221.2503,200.8661 C221.0983,200.8091 205.9303,195.2541 195.8473,200.7521 C188.2593,204.8911 185.3133,215.0761 186.8423,231.8891 C187.8353,242.8241 188.8083,277.5381 188.8493,279.0091 C188.8633,279.5391 188.6603,280.0501 188.2863,280.4241 C188.0953,280.6151 183.7453,284.8941 177.8923,284.8941" id="Fill-5" fill="#041D72"></path>
                <path d="M175.426,311.9527 C169.93,311.9527 163.827,310.3417 157.743,305.6097 C156.905,304.9567 156.753,303.7477 157.405,302.9087 C158.058,302.0677 159.268,301.9167 160.107,302.5707 C176.637,315.4277 193.007,302.1797 193.695,301.6097 C194.513,300.9317 195.726,301.0457 196.405,301.8617 C197.083,302.6787 196.973,303.8897 196.157,304.5687 C196.027,304.6777 187.099,311.9527 175.426,311.9527" id="Fill-7" fill="#041D72"></path>
                <path d="M122.9236,160.9879 C122.5436,160.9879 122.1596,160.8759 121.8246,160.6419 C110.8116,152.9709 98.3286,144.2749 84.3996,140.4559 C75.3896,137.9859 65.8786,137.0409 56.6806,136.1269 C49.0616,135.3699 41.1826,134.5869 33.5216,132.9449 C18.4156,129.7079 16.1166,116.9219 16.0266,116.3799 C15.8516,115.3309 16.5606,114.3399 17.6086,114.1649 C18.6576,113.9869 19.6466,114.6969 19.8226,115.7419 C19.9086,116.2299 21.8786,126.5129 34.3286,129.1809 C41.7776,130.7779 49.5476,131.5499 57.0616,132.2959 C66.4186,133.2259 76.0936,134.1879 85.4166,136.7429 C99.9856,140.7379 112.7566,149.6339 124.0256,157.4839 C124.8976,158.0919 125.1116,159.2909 124.5046,160.1629 C124.1306,160.6999 123.5316,160.9879 122.9236,160.9879" id="Fill-9" fill="#041D72"></path>
                <path d="M143.22,184.0323 C142.442,184.0323 141.654,184.0173 140.851,183.9863 C124.075,183.3413 108.91,174.6013 95.531,166.8903 C87.664,162.3563 80.233,158.0733 73.346,155.8983 C55.021,150.1123 31.477,153.9233 31.241,153.9613 C30.194,154.1393 29.201,153.4283 29.027,152.3793 C28.852,151.3303 29.56,150.3393 30.609,150.1643 C31.607,149.9973 55.284,146.1583 74.505,152.2273 C81.792,154.5293 89.399,158.9133 97.453,163.5553 C110.446,171.0433 125.173,179.5313 140.999,180.1393 C160.551,180.8923 171.761,171.7803 181.647,163.7413 C184.473,161.4423 187.143,159.2713 189.857,157.4613 C202.505,149.0313 218.861,154.5063 219.551,154.7423 C220.556,155.0883 221.091,156.1833 220.745,157.1883 C220.4,158.1943 219.304,158.7293 218.3,158.3833 C218.05,158.2993 202.998,153.3263 191.993,160.6643 C189.43,162.3723 186.829,164.4883 184.075,166.7273 C174.556,174.4693 162.796,184.0323 143.22,184.0323" id="Fill-11" fill="#041D72"></path>
                <path d="M25.1238,197.0338 C17.8538,197.0338 10.7068,193.5088 6.8328,187.3018 C3.7688,182.3938 2.8368,176.8828 4.1388,171.3658 C5.9128,163.8428 11.8128,156.3868 19.9198,151.4218 C20.8278,150.8678 22.0108,151.1518 22.5668,152.0578 C23.1218,152.9648 22.8368,154.1498 21.9308,154.7048 C14.6798,159.1448 9.4288,165.7038 7.8848,172.2498 C6.8098,176.8088 7.5548,181.1878 10.0988,185.2638 C14.7048,192.6428 25.0078,195.3688 33.0638,191.3418 C37.1538,189.2968 40.1378,185.6838 41.0468,181.6768 C41.8548,178.1128 40.9418,174.5058 38.4058,171.2448 C37.7528,170.4058 37.9048,169.1968 38.7438,168.5438 C39.5818,167.8918 40.7908,168.0438 41.4448,168.8818 C45.5728,174.1898 45.5478,179.2318 44.8008,182.5278 C43.6398,187.6478 39.8958,192.2298 34.7858,194.7848 C31.7358,196.3098 28.4168,197.0328 25.1238,197.0338" id="Fill-13" fill="#041D72"></path>
                <g id="Group-17" transform="translate(0.000000, 191.815000)">
                    <mask id="mask-2" fill="white">
                        <use xlink:href="#path-1"></use>
                    </mask>
                    <g id="Clip-16"></g>
                    <path d="M11.4592,59.5762 C8.0632,59.5772 4.5742,58.7862 1.0402,56.9572 C0.0962,56.4692 -0.2728,55.3072 0.2152,54.3632 C0.7052,53.4192 1.8652,53.0512 2.8102,53.5392 C20.5952,62.7402 38.0952,40.1082 44.7942,29.9502 C45.7082,28.5642 46.6182,27.1312 47.5402,25.6802 C53.6652,16.0382 60.6072,5.1092 72.7562,1.9962 C80.0952,0.1152 88.8902,0.6192 97.5192,3.4172 C98.5302,3.7452 99.0842,4.8312 98.7562,5.8422 C98.4272,6.8522 97.3412,7.4032 96.3312,7.0792 C88.3882,4.5042 80.3552,4.0232 73.7122,5.7242 C63.0392,8.4602 56.8122,18.2632 50.7902,27.7442 C49.8552,29.2142 48.9342,30.6652 48.0082,32.0692 C41.9852,41.2022 27.8252,59.5742 11.4592,59.5762" id="Fill-15" fill="#041D72" mask="url(#mask-2)"></path>
                </g>
                <path d="M63.9275,201.9879 C63.8585,201.9879 63.7895,201.9839 63.7195,201.9769 C62.6625,201.8639 61.8985,200.9149 62.0115,199.8579 C65.0235,171.7469 75.3495,154.7609 75.7875,154.0519 C76.3455,153.1469 77.5305,152.8669 78.4345,153.4249 C79.3395,153.9829 79.6205,155.1689 79.0635,156.0729 C78.9605,156.2399 68.7515,173.0849 65.8385,200.2679 C65.7335,201.2559 64.8985,201.9879 63.9275,201.9879" id="Fill-18" fill="#041D72"></path>
                <path d="M47.4744,279.6089 C47.3824,279.6089 47.2904,279.6079 47.1984,279.6069 C36.3074,279.4249 28.7414,269.9249 26.0744,260.5909 C25.7824,259.5699 26.3744,258.5049 27.3964,258.2129 C28.4184,257.9199 29.4844,258.5119 29.7754,259.5349 C32.0524,267.5029 38.3424,275.6089 47.2624,275.7569 C50.0254,275.8349 52.2894,274.9459 54.1464,273.1359 C57.9614,269.4169 60.0264,261.6879 60.1174,250.7879 C60.2714,232.4769 65.6624,220.1709 76.1404,214.2069 C80.9464,211.4709 87.4084,210.3659 93.6584,209.2959 C107.0194,207.0089 118.5584,205.0339 118.0014,190.1349 C117.9624,189.0729 118.7904,188.1789 119.8534,188.1399 C120.9044,188.0829 121.8084,188.9279 121.8484,189.9909 C122.5314,208.2589 107.5374,210.8259 94.3074,213.0899 C88.1134,214.1499 82.2624,215.1519 78.0444,217.5519 C68.8454,222.7879 64.1084,233.9809 63.9674,250.8199 C63.8654,262.9399 61.4654,271.3769 56.8344,275.8929 C54.3044,278.3599 51.1564,279.6089 47.4744,279.6089" id="Fill-20" fill="#041D72"></path>
                <path d="M30.1951,122.9879 C29.6781,122.9879 29.1621,122.7799 28.7821,122.3709 C19.3531,112.1929 18.7661,99.7819 22.2111,92.5589 C25.5991,85.4549 31.7711,81.2599 39.5891,80.7479 C49.0071,80.1289 59.0881,85.0929 64.1031,92.8169 C68.1641,99.0689 68.4211,106.2729 64.8291,113.0999 C62.1171,118.2539 57.2721,120.9089 51.8601,120.2059 C45.4601,119.3719 39.9251,114.1449 38.4011,107.4929 C38.1631,106.4569 38.8111,105.4249 39.8471,105.1869 C40.8821,104.9489 41.9161,105.5969 42.1531,106.6329 C43.3251,111.7469 47.5211,115.7589 52.3571,116.3879 C54.5911,116.6809 58.7391,116.4069 61.4231,111.3079 C65.1581,104.2069 63.1871,98.4729 60.8751,94.9129 C56.6521,88.4089 47.8021,84.0709 39.8411,84.5889 C33.4741,85.0069 28.4471,88.4249 25.6851,94.2169 C21.7281,102.5149 25.6681,113.3449 31.6071,119.7549 C32.3291,120.5349 32.2821,121.7529 31.5031,122.4749 C31.1321,122.8179 30.6631,122.9879 30.1951,122.9879" id="Fill-22" fill="#041D72"></path>
                <path d="M126.97,468.0591 C110.394,468.0591 92.354,466.2241 78.234,456.4511 C64.36,446.8481 57.293,430.9511 55.996,406.4201 C54.821,384.2061 56.016,359.6231 59.547,333.3531 C63.281,305.5731 70.074,282.4971 80.312,262.8071 C85.61,252.6191 92.232,243.2461 98.599,234.6351 C104.55,226.5891 111.706,217.5101 121.354,211.6051 C129.539,206.5941 140.707,203.8571 151.97,204.1391 C153.033,204.1631 153.874,205.0451 153.849,206.1081 C153.824,207.1711 152.938,208.0491 151.88,207.9871 C141.478,207.7461 130.824,210.3221 123.364,214.8881 C114.305,220.4321 107.429,229.1691 101.694,236.9241 C95.421,245.4081 88.902,254.6311 83.727,264.5821 C73.698,283.8721 67.036,306.5351 63.362,333.8671 C59.863,359.8991 58.678,384.2421 59.84,406.2171 C61.07,429.4591 67.61,444.4161 80.424,453.2851 C95.148,463.4761 114.821,464.5021 132.13,464.1551 L132.881,464.1391 L206.925,464.1381 C207.988,464.1381 208.85,464.9991 208.85,466.0631 C208.85,467.1261 207.988,467.9881 206.925,467.9881 L132.212,468.0031 C130.487,468.0381 128.735,468.0591 126.97,468.0591" id="Fill-24" fill="#041D72"></path>
                <path d="M135.9265,230.9879 C135.3415,230.9879 134.7635,230.7219 134.3855,230.2179 C133.7475,229.3679 133.9195,228.1609 134.7705,227.5229 C142.0625,222.0539 158.6985,213.5459 162.3665,211.6919 C162.8015,210.2319 162.6675,208.9399 161.9745,208.0809 C161.1145,207.0099 159.3905,206.6029 157.2415,206.9619 C153.1975,207.6349 138.4205,217.5369 130.0565,223.6199 C129.1985,224.2439 127.9945,224.0559 127.3685,223.1949 C126.7435,222.3359 126.9335,221.1319 127.7935,220.5069 C130.0825,218.8419 150.3415,204.2099 156.6085,203.1649 C160.1705,202.5699 163.2165,203.4839 164.9735,205.6669 C166.6645,207.7669 166.9335,210.7239 165.7125,213.7779 C165.5365,214.2159 165.2075,214.5739 164.7855,214.7849 C164.5875,214.8839 144.8485,224.7759 137.0795,230.6029 C136.7335,230.8629 136.3285,230.9879 135.9265,230.9879" id="Fill-26" fill="#041D72"></path>
                <path d="M143.927,238.9879 C143.305,238.9879 142.695,238.6869 142.323,238.1309 C141.734,237.2469 141.973,236.0509 142.857,235.4619 C151.221,229.8849 166.005,223.6129 168.765,222.4609 C169.367,221.6939 170.747,219.5079 169.275,217.0529 C167.216,213.6229 164.884,214.7359 164.786,214.7849 C163.835,215.2589 162.679,214.8749 162.203,213.9239 C161.728,212.9729 162.114,211.8169 163.064,211.3419 C164.998,210.3739 169.476,209.9099 172.575,215.0729 C175.21,219.4639 172.901,223.7459 171.312,225.3969 C171.127,225.5899 170.905,225.7409 170.658,225.8419 C170.489,225.9119 153.729,232.8409 144.993,238.6649 C144.665,238.8839 144.294,238.9879 143.927,238.9879" id="Fill-28" fill="#041D72"></path>
                <path d="M117.926,490.9879 C117.205,490.9879 116.514,490.5819 116.186,489.8869 C115.436,488.3049 97.993,450.7199 112.131,414.3659 C118.208,398.7399 129.591,383.1919 144.185,370.5849 C159.274,357.5509 176.485,348.9319 192.648,346.3169 C196.871,345.6339 203.559,345.3689 208.169,346.1899 C209.216,346.3759 209.913,347.3749 209.727,348.4219 C209.541,349.4679 208.546,350.1619 207.495,349.9799 C203.353,349.2419 197.07,349.4999 193.262,350.1179 C162.136,355.1519 128.075,383.9859 115.719,415.7599 C102.194,450.5409 119.488,487.8669 119.665,488.2399 C120.119,489.2009 119.709,490.3479 118.748,490.8019 C118.482,490.9279 118.202,490.9879 117.926,490.9879" id="Fill-30" fill="#041D72"></path>
                <path d="M175.7307,401.9927 C154.9207,401.9927 137.2967,394.9627 126.7987,382.3057 C115.7807,369.0237 113.7017,351.9697 111.6917,335.4757 L111.4687,333.6577 C110.0827,322.4347 107.7627,303.6527 117.7107,295.5687 C133.6397,282.6277 143.5097,261.4787 146.1557,255.3057 C149.2577,248.0667 154.1237,243.9507 163.8567,237.4617 C172.8337,231.4767 173.5857,230.1337 173.0987,228.6717 C172.5617,227.0577 170.2827,226.1437 169.4497,225.9287 C168.4247,225.6617 167.8027,224.6157 168.0637,223.5897 C168.3257,222.5617 169.3637,221.9377 170.3917,222.1957 C170.9057,222.3247 175.4547,223.5637 176.7517,227.4547 C178.3277,232.1837 174.3707,235.0797 165.9927,240.6647 C156.9177,246.7147 152.4107,250.4827 149.6937,256.8207 C146.9607,263.1997 136.7507,285.0597 120.1387,298.5567 C111.8447,305.2967 114.0857,323.4387 115.2887,333.1857 L115.5127,335.0107 C117.4557,350.9527 119.4647,367.4357 129.7617,379.8487 C140.4157,392.6917 159.1597,399.2967 181.2097,397.9777 C188.7257,397.5277 198.8417,394.4667 206.9837,390.1797 C207.9237,389.6867 209.0877,390.0457 209.5837,390.9867 C210.0787,391.9277 209.7177,393.0917 208.7767,393.5867 C200.1887,398.1077 189.4587,401.3397 181.4397,401.8197 C179.5137,401.9357 177.6087,401.9927 175.7307,401.9927" id="Fill-32" fill="#041D72"></path>
                <path d="M204.925,221.563 C208.258,221.563 211.185,223.283 212.881,225.879 C213.544,224.584 213.925,223.119 213.925,221.563 C213.925,216.316 209.672,212.063 204.425,212.063 C199.178,212.063 194.925,216.316 194.925,221.563 C194.925,223.477 195.496,225.255 196.469,226.747 C198.043,223.672 201.234,221.563 204.925,221.563" id="Fill-34" fill="#041D72"></path>
                <path d="M481.925,377.9879 C480.862,377.9879 480,377.1269 480,376.0629 C480,374.9999 480.862,374.1379 481.925,374.1379 C485.782,374.1379 488.9,372.9199 491.193,370.5149 C496.41,365.0439 496.007,355.2529 496.003,355.1549 C496.001,355.1189 496,355.0829 496,355.0469 C496.02,352.7369 497.977,123.7369 496.004,91.1789 C495.661,85.5179 495.163,79.6779 493.219,75.9539 C492.727,75.0119 493.092,73.8489 494.034,73.3569 C494.975,72.8659 496.139,73.2289 496.631,74.1729 C498.926,78.5689 499.478,84.8699 499.846,90.9469 C501.818,123.4799 499.888,350.5919 499.85,355.0309 C499.889,356.0249 500.153,366.6969 493.979,373.1719 C490.931,376.3679 486.876,377.9879 481.925,377.9879" id="Fill-36" fill="#041D72"></path>
                <path d="M452.1926,66.1656 C451.4496,66.1656 450.7416,65.7326 450.4256,65.0066 C450.0026,64.0316 450.4496,62.8986 451.4246,62.4746 C455.3256,60.7806 459.8006,59.6616 464.7256,59.1486 C465.0676,59.1156 472.8936,58.4056 481.1496,61.8006 C482.1326,62.2046 482.6026,63.3296 482.1976,64.3126 C481.7946,65.2966 480.6696,65.7636 479.6856,65.3606 C472.3046,62.3266 465.1806,62.9696 465.1106,62.9786 C460.5906,63.4496 456.4976,64.4686 452.9586,66.0056 C452.7086,66.1146 452.4486,66.1656 452.1926,66.1656" id="Fill-38" fill="#041D72"></path>
                <path d="M233.9236,324.9879 C232.9086,324.9879 232.0596,324.1949 232.0036,323.1699 C231.1156,307.0999 231.2166,276.5289 241.8736,252.3299 C251.5836,230.2809 272.2206,214.4419 303.2116,205.2519 C316.4536,201.3259 330.2096,199.6289 343.5116,197.9869 C355.9076,196.4579 368.7266,194.8759 380.9016,191.4869 C399.6936,186.2579 412.9146,175.1469 419.1346,159.3579 C423.1596,149.1389 424.1526,136.3269 425.2036,122.7629 C426.5496,105.3809 427.9426,87.4069 436.3296,74.9859 C436.9246,74.1039 438.1206,73.8709 439.0026,74.4679 C439.8826,75.0629 440.1146,76.2589 439.5206,77.1399 C431.7016,88.7179 430.3496,106.1769 429.0416,123.0609 C428.0146,136.3109 426.9526,150.0129 422.7156,160.7689 C416.0366,177.7249 401.9336,189.6299 381.9336,195.1959 C369.4826,198.6609 356.5196,200.2599 343.9836,201.8069 C330.8366,203.4289 317.2416,205.1069 304.3066,208.9429 C274.4496,217.7969 254.6296,232.9159 245.3976,253.8809 C237.8496,271.0199 234.3686,296.1979 235.8466,322.9569 C235.9056,324.0179 235.0926,324.9259 234.0306,324.9849 C233.9946,324.9869 233.9596,324.9879 233.9236,324.9879" id="Fill-40" fill="#041D72"></path>
                <path d="M431.925,348.9879 C430.862,348.9879 430,348.1269 430,347.0629 L430,295.0629 C430,295.0159 430.002,294.9679 430.006,294.9219 C430.025,294.6569 431.866,268.3399 424.254,255.0179 C417.047,242.4059 405.692,243.9009 405.21,243.9669 C404.164,244.1189 403.182,243.3949 403.026,242.3469 C402.869,241.2999 403.585,240.3219 404.633,240.1609 C405.216,240.0699 419.038,238.1329 427.596,253.1079 C435.664,267.2269 433.985,293.2399 433.85,295.1329 L433.85,347.0629 C433.85,348.1269 432.988,348.9879 431.925,348.9879" id="Fill-42" fill="#041D72"></path>
                <path d="M472.925,365.9879 C471.862,365.9879 471,365.1269 471,364.0629 L471,320.0629 C471,315.6099 467.378,311.9879 462.925,311.9879 C458.472,311.9879 454.85,315.6099 454.85,320.0629 L454.85,352.5629 C454.85,353.6269 453.988,354.4879 452.925,354.4879 C451.862,354.4879 451,353.6269 451,352.5629 L451,320.0629 C451,313.4879 456.35,308.1379 462.925,308.1379 C469.5,308.1379 474.85,313.4879 474.85,320.0629 L474.85,364.0629 C474.85,365.1269 473.988,365.9879 472.925,365.9879" id="Fill-44" fill="#041D72"></path>
                <path d="M492.925,426.9879 C491.862,426.9879 491,426.1269 491,425.0629 C491,381.2959 469.934,364.4039 463.477,360.2699 C452.701,353.3699 439.571,350.8609 430.632,349.5749 C423.155,348.4989 415.903,348.3279 408.224,348.1469 L405.851,348.0909 C400.18,347.9509 395.829,346.1819 392.919,342.8349 C387.792,336.9359 388.226,327.3589 388.999,320.6689 C389.181,319.0879 389.388,317.5299 389.592,315.9879 C390.666,307.8929 391.68,300.2469 388.597,292.3149 C384.055,280.6319 369.893,266.9879 344.924,266.9879 C321.287,266.9879 309.611,283.0139 309.495,283.1759 C308.88,284.0409 307.679,284.2439 306.813,283.6329 C305.947,283.0179 305.74,281.8209 306.353,280.9529 C306.866,280.2259 319.223,263.1379 344.924,263.1379 C354.79,263.1379 364.69,265.5229 372.801,269.8539 C382.043,274.7889 388.746,282.0729 392.185,290.9209 C395.626,299.7729 394.549,307.8949 393.408,316.4939 C393.207,318.0139 393.003,319.5509 392.823,321.1099 C391.728,330.5929 392.681,336.6939 395.824,340.3089 C398.026,342.8419 401.337,344.1289 405.946,344.2429 L408.315,344.2999 C416.112,344.4819 423.476,344.6549 431.181,345.7639 C440.474,347.1019 454.148,349.7249 465.553,357.0279 C492.737,374.4349 494.85,413.5039 494.85,425.0629 C494.85,426.1269 493.988,426.9879 492.925,426.9879" id="Fill-46" fill="#041D72"></path>
                <path d="M289.925,526.563 C285.231,526.563 281.425,522.757 281.425,518.063 C281.425,513.369 285.231,509.563 289.925,509.563 C294.619,509.563 298.425,513.369 298.425,518.063 C298.425,522.757 294.619,526.563 289.925,526.563 M259.925,526.563 C255.231,526.563 251.425,522.757 251.425,518.063 C251.425,513.369 255.231,509.563 259.925,509.563 C264.619,509.563 268.425,513.369 268.425,518.063 C268.425,522.757 264.619,526.563 259.925,526.563 M229.925,526.563 C225.231,526.563 221.425,522.757 221.425,518.063 C221.425,513.369 225.231,509.563 229.925,509.563 C234.619,509.563 238.425,513.369 238.425,518.063 C238.425,522.757 234.619,526.563 229.925,526.563 M376.425,453.723 L376.425,445.563 C376.425,438.963 371.025,433.563 364.425,433.563 L219.425,433.563 C212.825,433.563 207.425,438.963 207.425,445.563 L207.425,525.563 C207.425,532.163 212.825,537.563 219.425,537.563 L364.425,537.563 C371.025,537.563 376.425,532.163 376.425,525.563 L376.425,500.999 C367.873,500.867 352.439,499.654 341.425,493.23 C325.425,483.896 334.425,466.563 339.758,459.23 C343.899,453.537 366.511,453.469 376.425,453.723" id="Fill-48" fill="#FF5A00"></path>
                <path d="M391.6272,502.9859 C380.3642,502.9859 368.1042,502.3159 354.7332,500.9779 C344.6572,499.9699 336.0982,494.3329 332.3952,486.2639 C328.9762,478.8149 330.0442,470.4959 335.4032,462.8399 C343.6472,451.0629 356.7732,451.8069 368.3522,452.4649 C370.0532,452.5619 371.7472,452.6589 373.4182,452.7169 C375.9192,452.8059 378.4272,452.9089 380.9402,453.0119 C391.7572,453.4589 402.9442,453.9179 413.7862,453.1429 C428.9242,452.0619 439.8042,447.7369 446.1242,440.2889 C452.5812,432.6769 454.5442,421.3279 451.1252,411.3739 C447.4612,400.7089 437.7372,392.5469 425.1112,389.5419 C409.7202,385.8779 393.1862,387.6549 376.1852,389.9699 C375.1312,390.1109 374.1612,389.3759 374.0182,388.3229 C373.8742,387.2699 374.6122,386.2989 375.6652,386.1559 C393.0412,383.7889 409.9652,381.9779 426.0032,385.7979 C439.9192,389.1089 450.6712,398.2029 454.7662,410.1239 C458.6172,421.3349 456.3772,434.1529 449.0592,442.7789 C442.0452,451.0469 430.2702,455.8249 414.0602,456.9829 C403.0022,457.7739 391.7072,457.3069 380.7822,456.8589 C378.2762,456.7559 375.7752,456.6529 373.2822,456.5649 C371.5842,456.5049 369.8622,456.4069 368.1332,456.3089 C356.5312,455.6499 345.5702,455.0269 338.5562,465.0479 C334.0142,471.5379 333.0682,478.5029 335.8942,484.6589 C339.0282,491.4899 346.3942,496.2759 355.1162,497.1479 C386.9242,500.3309 412.3202,499.7009 432.7562,495.2229 C462.8752,488.6259 481.4872,473.5899 488.0742,450.5349 C488.3662,449.5119 489.4322,448.9199 490.4542,449.2129 C491.4762,449.5049 492.0672,450.5699 491.7752,451.5909 C484.7692,476.1149 465.1892,492.0599 433.5802,498.9839 C421.3902,501.6539 407.5022,502.9849 391.6272,502.9859" id="Fill-50" fill="#041D72"></path>
                <path d="M436.1355,76.7715 C436.1355,76.7715 428.8995,58.4995 428.8625,58.4045 C427.4745,54.8985 427.4255,50.2175 430.4485,47.6695 C435.2275,43.6435 440.1735,48.5895 442.2855,50.7025 C444.8585,53.2745 453.0135,62.3935 453.3605,62.7805 C454.0685,63.5725 454.0005,64.7895 453.2075,65.4985 C452.4165,66.2065 451.1995,66.1385 450.4895,65.3455 C450.4065,65.2515 442.0605,55.9205 439.5645,53.4235 C436.1545,50.0155 434.4815,49.3075 432.9295,50.6135 C431.4465,51.8635 431.5625,54.7675 432.4435,56.9915 C432.5065,57.1505 439.7145,75.3545 439.7145,75.3545 L436.1355,76.7715 Z" id="Fill-52" fill="#041D72"></path>
                <path d="M496.6648,75.7715 L493.0858,74.3545 C493.0858,74.3545 500.3218,56.0805 500.3598,55.9865 C501.2378,53.7675 501.3528,50.8625 499.8718,49.6135 C498.3198,48.3075 496.6448,49.0165 493.2358,52.4245 C490.7398,54.9205 482.3938,64.2515 482.3108,64.3455 C481.6018,65.1385 480.3848,65.2075 479.5928,64.4985 C478.7998,63.7895 478.7318,62.5725 479.4398,61.7805 C479.7868,61.3935 487.9418,52.2745 490.5148,49.7025 C492.6268,47.5905 497.5748,42.6445 502.3518,46.6705 C505.3748,49.2175 505.3258,53.8985 503.9368,57.4085 C503.8668,57.5845 496.6648,75.7715 496.6648,75.7715" id="Fill-54" fill="#041D72"></path>
                <path d="M456.925,81.063 C456.925,83.272 455.134,85.063 452.925,85.063 C450.716,85.063 448.925,83.272 448.925,81.063 C448.925,78.854 450.716,77.063 452.925,77.063 C455.134,77.063 456.925,78.854 456.925,81.063" id="Fill-56" fill="#041D72"></path>
                <path d="M482.425,81.563 C482.425,83.772 480.634,85.563 478.425,85.563 C476.216,85.563 474.425,83.772 474.425,81.563 C474.425,79.354 476.216,77.563 478.425,77.563 C480.634,77.563 482.425,79.354 482.425,81.563" id="Fill-58" fill="#041D72"></path>
                <path d="M469.425,101.563 C469.425,103.772 467.634,105.563 465.425,105.563 C463.216,105.563 461.425,103.772 461.425,101.563 C461.425,99.354 463.216,97.563 465.425,97.563 C467.634,97.563 469.425,99.354 469.425,101.563" id="Fill-60" fill="#041D72"></path>
                <path d="M225.425,333.563 C222.116,333.563 219.425,336.254 219.425,339.563 L219.425,415.563 C219.425,418.872 222.116,421.563 225.425,421.563 L358.425,421.563 C361.734,421.563 364.425,418.872 364.425,415.563 L364.425,339.563 C364.425,336.254 361.734,333.563 358.425,333.563 L225.425,333.563 Z M358.425,433.563 L225.425,433.563 C215.5,433.563 207.425,425.488 207.425,415.563 L207.425,339.563 C207.425,329.638 215.5,321.563 225.425,321.563 L358.425,321.563 C368.35,321.563 376.425,329.638 376.425,339.563 L376.425,415.563 C376.425,425.488 368.35,433.563 358.425,433.563 L358.425,433.563 Z" id="Fill-62" fill="#FF5A00"></path>
                <path d="M304.9247,132.9761 C298.5667,132.9761 296.2437,136.9841 293.5537,141.6261 C291.0557,145.9361 288.2247,150.8201 281.7587,151.9951 L280.7337,152.1841 C280.7327,152.1841 280.7327,152.1841 280.7317,152.1841 C272.9387,153.6391 268.3117,155.6551 269.3177,161.2041 C269.9897,164.9001 272.5687,167.2791 276.9827,168.2731 C280.6187,169.0911 284.1377,168.6471 284.1717,168.6431 C284.5537,168.5931 284.9017,168.6081 285.1787,168.6191 C285.2637,168.6231 285.3467,168.6261 285.4277,168.6261 C295.4497,168.6261 323.7897,168.4541 346.5607,168.3151 C362.1747,168.2201 375.6597,168.1381 378.9247,168.1381 C382.4747,168.1381 384.4697,166.0531 385.5187,164.3041 C387.3007,161.3291 387.6307,157.1871 386.2847,154.6681 C382.8067,148.1591 377.2857,148.2741 370.8997,148.4081 C365.3187,148.5221 358.9977,148.6551 354.2077,143.6711 L354.0517,143.5101 C348.2177,137.4361 344.6257,134.1841 338.6487,137.8991 C337.4117,138.6681 336.1867,139.6261 335.0017,140.5521 C330.8667,143.7831 325.7217,147.8081 319.2257,142.7481 C317.9287,141.7371 316.8747,140.4691 315.7577,139.1261 C313.1287,135.9631 310.6457,132.9761 304.9247,132.9761 L304.9247,132.9761 Z M281.8127,172.6141 C276.9067,172.6141 267.2547,171.3761 265.5307,161.8921 C263.6377,151.4601 275.1187,149.3161 280.0237,148.4001 L281.0707,148.2081 C285.7857,147.3511 287.8427,143.8031 290.2237,139.6951 C293.0947,134.7421 296.3497,129.1261 304.9247,129.1261 C312.4507,129.1261 315.9257,133.3071 318.7187,136.6661 C319.6977,137.8441 320.6227,138.9571 321.5907,139.7101 C325.5347,142.7821 328.0867,141.0701 332.6307,137.5201 C333.8957,136.5311 335.2027,135.5091 336.6157,134.6301 C345.5307,129.0841 351.5327,135.3311 356.8277,140.8431 L356.9827,141.0041 C360.6047,144.7721 365.5667,144.6691 370.8187,144.5591 C377.5127,144.4181 385.0887,144.2621 389.6807,152.8541 C391.6437,156.5281 391.2817,162.1761 388.8197,166.2831 C386.6147,169.9621 383.1007,171.9881 378.9247,171.9881 C375.6717,171.9881 362.1917,172.0701 346.5837,172.1651 C323.8077,172.3031 295.4617,172.4761 285.4277,172.4761 C285.2947,172.4761 285.1567,172.4711 285.0187,172.4651 C284.9037,172.4611 284.7857,172.4491 284.6757,172.4591 C284.6497,172.4641 283.5177,172.6141 281.8127,172.6141 L281.8127,172.6141 Z" id="Fill-64" fill="#041D72"></path>
                <g id="Group-68" transform="translate(293.000000, 0.815000)">
                    <mask id="mask-4" fill="white">
                        <use xlink:href="#path-3"></use>
                    </mask>
                    <g id="Clip-67"></g>
                    <path d="M2.7776,41.0488 C-5.6774,70.8898 11.6596,101.9338 41.5006,110.3878 C59.3816,115.4538 77.6906,111.2518 91.3166,100.6538 C99.4366,104.6688 109.1466,109.4698 109.2356,109.5138 C113.7346,111.7388 118.0736,107.5748 117.4066,102.8968 C116.9376,99.6008 113.9696,95.9338 112.3616,93.0548 C110.4046,89.5508 108.4486,86.0468 106.4916,82.5428 C108.2796,79.1418 109.7506,75.5088 110.8396,71.6648 C119.2936,41.8238 101.9566,10.7798 72.1166,2.3258 C42.2756,-6.1282 11.2316,11.2088 2.7776,41.0488" id="Fill-66" fill="#FF5A00" mask="url(#mask-4)"></path>
                </g>
                <path d="M340.1033,41.689 C338.0523,41.689 336.3893,40.026 336.3893,37.975 C336.3893,35.924 338.0523,34.262 340.1033,34.262 C342.1543,34.262 343.8163,35.924 343.8163,37.975 C343.8163,40.026 342.1543,41.689 340.1033,41.689 M380.6153,72.749 C378.1113,70.673 375.6183,68.585 373.1323,66.489 C370.0023,63.85 366.8733,61.207 363.8153,58.485 C362.2573,57.098 360.7593,55.784 359.7283,53.933 C358.4993,51.728 357.8073,49.282 356.9423,46.924 C355.8743,44.013 354.9983,40.995 353.7763,38.144 C352.7633,35.781 350.7373,25.315 340.6093,25.315 C330.4813,25.315 328.4563,34.431 328.4563,34.431 L321.0283,39.832 C319.1713,41.352 321.5353,42.364 321.5353,42.364 C323.8653,43.238 327.5513,44.352 328.5833,46.866 C329.7143,49.62 328.7383,53.076 328.5683,55.94 C328.3763,59.177 328.3973,62.457 328.9623,65.659 C330.9883,77.137 343.4793,80.851 343.4793,80.851 C343.1423,88.616 348.5433,89.966 348.5433,89.966 C348.5433,89.966 349.0493,88.447 349.2183,82.877 C349.3803,77.541 356.3083,77.813 356.3083,77.813 L378.5903,77.813 C378.5903,77.813 381.6283,78.15 382.3043,76.125 C382.9783,74.099 380.6153,72.749 380.6153,72.749" id="Fill-69" fill="#FFFFFF"></path>
                <path d="M234.5911,489.5474 C227.3421,489.5484 220.4961,486.0974 213.7841,482.7154 C210.1391,480.8784 206.3691,478.9794 202.5631,477.6464 C191.7991,473.8784 184.7581,481.3504 181.5191,486.1414 C180.9241,487.0214 179.7281,487.2544 178.8471,486.6574 C177.9661,486.0624 177.7351,484.8654 178.3311,483.9854 C184.8981,474.2714 194.1941,470.6334 203.8361,474.0134 C207.8781,475.4284 211.7611,477.3854 215.5161,479.2774 C226.6711,484.8994 236.3041,489.7504 247.7181,480.5644 C248.5461,479.8984 249.7581,480.0264 250.4241,480.8564 C251.0911,481.6844 250.9601,482.8964 250.1321,483.5624 C244.7081,487.9294 239.5541,489.5474 234.5911,489.5474" id="Fill-71" fill="#041D72"></path>
                <path d="M507.9744,101.4796 C503.8714,101.4796 500.0464,99.5516 496.5014,97.7656 C494.5914,96.8026 492.6164,95.8076 490.6494,95.1186 C485.5024,93.3176 482.0934,96.9556 480.5194,99.2846 C479.9244,100.1656 478.7284,100.3966 477.8474,99.8016 C476.9664,99.2056 476.7354,98.0096 477.3304,97.1286 C481.0664,91.6046 486.3844,89.5466 491.9224,91.4856 C494.1244,92.2566 496.2134,93.3096 498.2334,94.3276 C504.1114,97.2886 508.7534,99.6296 514.3634,95.1136 C515.1914,94.4476 516.4024,94.5786 517.0694,95.4066 C517.7364,96.2346 517.6054,97.4456 516.7774,98.1126 C513.7144,100.5776 510.7794,101.4796 507.9744,101.4796" id="Fill-73" fill="#041D72"></path>
                <path d="M447.9744,100.4796 C443.8714,100.4796 440.0464,98.5516 436.5014,96.7656 C434.5914,95.8026 432.6164,94.8076 430.6494,94.1186 C425.5024,92.3166 422.0934,95.9546 420.5194,98.2846 C419.9244,99.1656 418.7284,99.3966 417.8474,98.8016 C416.9664,98.2056 416.7354,97.0096 417.3304,96.1286 C421.0664,90.6046 426.3834,88.5466 431.9224,90.4856 C434.1244,91.2566 436.2134,92.3096 438.2334,93.3276 C444.1114,96.2886 448.7544,98.6296 454.3634,94.1136 C455.1904,93.4476 456.4024,93.5786 457.0694,94.4066 C457.7364,95.2346 457.6054,96.4456 456.7774,97.1126 C453.7144,99.5776 450.7794,100.4796 447.9744,100.4796" id="Fill-75" fill="#041D72"></path>
                <path d="M508.9744,110.4796 C504.8714,110.4796 501.0464,108.5516 497.5014,106.7656 C495.5914,105.8026 493.6164,104.8076 491.6494,104.1186 C490.6464,103.7676 490.1184,102.6696 490.4694,101.6666 C490.8204,100.6636 491.9194,100.1346 492.9224,100.4856 C495.1244,101.2566 497.2134,102.3096 499.2334,103.3276 C505.1114,106.2886 509.7534,108.6286 515.3634,104.1136 C516.1914,103.4476 517.4024,103.5786 518.0694,104.4066 C518.7364,105.2346 518.6054,106.4456 517.7774,107.1126 C514.7144,109.5776 511.7794,110.4796 508.9744,110.4796" id="Fill-77" fill="#041D72"></path>
                <path d="M234.5911,504.5474 C227.3421,504.5484 220.4961,501.0974 213.7841,497.7154 C210.1391,495.8784 206.3691,493.9794 202.5631,492.6464 C191.7991,488.8784 184.7581,496.3504 181.5191,501.1414 C180.9241,502.0214 179.7281,502.2544 178.8471,501.6574 C177.9661,501.0624 177.7351,499.8654 178.3311,498.9854 C184.8981,489.2714 194.1941,485.6334 203.8361,489.0134 C207.8781,490.4284 211.7611,492.3854 215.5161,494.2774 C226.6711,499.8984 236.3041,504.7504 247.7181,495.5644 C248.5461,494.8974 249.7581,495.0264 250.4241,495.8564 C251.0911,496.6844 250.9601,497.8964 250.1321,498.5624 C244.7081,502.9294 239.5541,504.5474 234.5911,504.5474" id="Fill-79" fill="#041D72"></path>
                <path d="M559.448,550.815 C547.344,550.815 534.868,550.075 522.281,548.606 C515.3,547.793 508.143,546.736 501.009,545.466 C500.164,545.317 499.295,545.18 498.414,545.043 C493.401,544.255 487.719,543.364 483.686,539.485 C482.485,538.331 481.765,537.003 481.605,535.649 C481.349,533.497 482.195,532.193 482.949,531.478 C484.617,529.897 487.567,529.501 491.967,530.264 C493.556,530.541 495.147,530.828 496.74,531.115 C504.981,532.601 513.502,534.138 521.925,534.138 C522.988,534.138 523.85,535.001 523.85,536.063 C523.85,537.126 522.988,537.988 521.925,537.988 C513.158,537.988 504.464,536.419 496.056,534.903 C494.472,534.618 492.889,534.332 491.308,534.057 C486.896,533.29 485.776,534.102 485.597,534.272 C485.535,534.331 485.346,534.509 485.427,535.196 C485.481,535.649 485.811,536.187 486.355,536.711 C489.513,539.75 494.341,540.506 499.01,541.239 C499.918,541.381 500.813,541.522 501.683,541.677 C508.741,542.933 515.822,543.978 522.727,544.782 C536.946,546.44 551.018,547.159 564.554,546.92 C600.822,546.277 637.762,539.104 674.35,525.599 C731.665,504.446 755.953,448.265 774.22,397.267 L774.881,395.426 C782.413,374.462 795.021,339.377 772.619,324.245 C763.239,317.91 752.474,317.452 741.077,316.968 C739.356,316.895 737.633,316.822 735.914,316.727 C724.649,316.109 715.447,312.306 708.565,305.425 C696.873,293.733 691.96,273.347 692.278,258.33 C692.651,240.71 700.101,224.622 707.34,211.208 C719.136,189.346 725.57,170.51 727.588,151.93 C730.793,122.411 724.043,100.637 706.951,85.363 C687.977,68.406 659.769,60.047 635.087,64.069 C620.43,66.456 592.655,76.307 571.299,115.456 C559.482,137.118 548.236,156.859 536.918,175.809 C536.705,176.165 536.467,176.55 536.214,176.958 C534.375,179.929 531.595,184.418 533.465,186.908 C534.293,188.011 540.665,187.491 544.471,187.179 C550.913,186.652 558.212,186.054 562.786,188.341 C568.473,191.185 573.172,199.041 567.694,211.821 C566.378,214.892 565.971,218.158 566.517,221.266 C566.521,221.287 566.525,221.304 566.528,221.319 C567.586,221.75 571.857,220.291 574.429,219.413 C580.615,217.297 587.629,214.902 591.471,218.627 C594.847,221.901 594.883,224.912 594.32,226.861 C593.067,231.191 587.783,234.153 583.406,235.072 C581.972,235.373 580.25,235.484 578.426,235.601 C574.73,235.839 570.13,236.136 568.427,238.266 C565.461,241.976 570.416,248.842 570.467,248.911 C570.523,248.986 570.575,249.068 570.62,249.151 C574.804,256.921 585.726,258.155 593.578,258.406 C595.747,258.47 598.373,258.234 601.156,257.979 C608.578,257.296 616.987,256.526 622.154,261.065 C626.798,265.147 627.102,271.805 626.847,277.15 C625.985,295.27 606.846,299.356 596.854,298.987 L470.925,298.988 C469.862,298.988 469,298.126 469,297.063 C469,296.001 469.862,295.138 470.925,295.138 L596.925,295.138 C598.015,295.172 622.106,295.807 623.003,276.966 C623.216,272.484 623.023,266.955 619.613,263.957 C615.689,260.51 608.155,261.203 601.508,261.812 C598.604,262.079 595.86,262.332 593.455,262.253 C584.689,261.972 572.46,260.508 567.296,251.096 C566.465,249.944 560.796,241.646 565.421,235.862 C568.186,232.405 573.494,232.062 578.178,231.76 C579.861,231.652 581.45,231.549 582.615,231.304 C585.97,230.6 589.883,228.345 590.621,225.791 C590.768,225.284 591.215,223.741 588.791,221.39 C586.64,219.307 580.56,221.385 575.674,223.055 C570.794,224.723 566.939,226.04 564.509,224.604 C563.84,224.209 562.988,223.424 562.726,221.932 C562.05,218.086 562.544,214.065 564.156,210.305 C566.92,203.856 567.768,195.136 561.064,191.785 C557.454,189.979 550.724,190.531 544.785,191.016 C537.916,191.579 532.49,192.022 530.386,189.219 C526.939,184.626 530.696,178.558 532.941,174.932 C533.182,174.542 533.41,174.175 533.613,173.835 C544.906,154.929 556.127,135.23 567.92,113.612 C590.06,73.025 619.117,62.77 634.468,60.269 C660.251,56.07 689.71,64.792 709.517,82.493 C727.601,98.654 734.764,121.503 731.415,152.346 C729.342,171.437 722.768,190.721 710.727,213.036 C703.707,226.045 696.483,241.61 696.127,258.412 C695.836,272.151 700.456,291.872 711.287,302.703 C717.478,308.893 725.835,312.319 736.125,312.883 C737.828,312.977 739.535,313.049 741.241,313.122 C752.671,313.608 764.49,314.11 774.773,321.055 C799.656,337.862 786.415,374.711 778.504,396.728 L777.844,398.566 C768.997,423.264 757.732,451.766 741.251,475.898 C723.363,502.09 701.915,519.529 675.683,529.211 C638.689,542.865 601.323,550.119 564.622,550.77 C562.906,550.8 561.18,550.815 559.448,550.815" id="Fill-81" fill="#041D72"></path>
                <path d="M482.9275,535.4879 C482.8475,535.4879 482.7675,535.4829 482.6865,535.4729 C478.8755,534.9969 473.9695,532.3089 471.9675,528.0959 C470.6885,525.4059 470.8725,522.5039 472.4865,519.9249 C476.4235,513.6309 485.8455,516.7279 491.4765,518.5789 C492.2115,518.8199 492.8855,519.0419 493.4785,519.2189 C503.1545,522.1229 518.8875,523.1329 519.0455,523.1419 C520.1065,523.2089 520.9125,524.1229 520.8455,525.1829 C520.7805,526.2439 519.8675,527.0549 518.8045,526.9839 C518.1425,526.9429 502.4685,525.9349 492.3715,522.9069 C491.7515,522.7199 491.0445,522.4879 490.2745,522.2349 C485.7165,520.7379 478.0855,518.2279 475.7495,521.9659 C474.8195,523.4539 474.7195,524.9189 475.4435,526.4439 C476.7865,529.2679 480.4235,531.3099 483.1635,531.6529 C484.2185,531.7849 484.9675,532.7479 484.8345,533.8019 C484.7135,534.7759 483.8845,535.4879 482.9275,535.4879" id="Fill-83" fill="#041D72"></path>
                <path d="M473.9236,522.9879 C473.6336,522.9879 473.3406,522.9229 473.0646,522.7849 C469.5276,521.0169 467.2886,516.6239 467.6196,512.1009 C467.9006,508.2579 470.0326,505.3169 473.3236,504.2349 C478.5626,502.5119 484.0326,504.8829 488.8596,506.9699 C490.2256,507.5619 491.5166,508.1209 492.7136,508.5469 C502.0136,511.8559 511.7946,513.2359 520.1346,514.1499 C521.1916,514.2649 521.9536,515.2169 521.8386,516.2729 C521.7216,517.3299 520.7636,518.0919 519.7156,517.9759 C511.1536,517.0389 501.0966,515.6159 491.4236,512.1739 C490.1056,511.7049 488.7576,511.1209 487.3306,510.5039 C482.9266,508.5969 478.3716,506.6279 474.5266,507.8909 C472.0846,508.6939 471.5556,511.0499 471.4586,512.3819 C471.2456,515.2949 472.6756,518.2869 474.7856,519.3419 C475.7366,519.8169 476.1216,520.9729 475.6466,521.9239 C475.3096,522.5979 474.6296,522.9879 473.9236,522.9879" id="Fill-85" fill="#041D72"></path>
                <path d="M470.9226,507.9869 C470.4306,507.9869 469.9396,507.7999 469.5646,507.4249 C469.3696,507.2299 464.8056,502.6029 465.1476,497.4729 C465.3116,495.0059 466.5256,492.8889 468.7556,491.1849 C474.4426,486.8389 483.6666,490.3319 490.4006,492.8819 C491.9436,493.4659 493.4006,494.0169 494.5856,494.3849 C512.2926,499.8789 528.3016,500.9919 543.5276,497.7829 C544.5706,497.5689 545.5896,498.2299 545.8086,499.2699 C546.0276,500.3099 545.3616,501.3309 544.3216,501.5499 C528.6576,504.8489 511.5396,503.6769 493.4436,498.0609 C492.1476,497.6589 490.6366,497.0869 489.0376,496.4809 C483.1486,494.2519 475.0806,491.1969 471.0936,494.2439 C469.7686,495.2569 469.0796,496.3929 468.9886,497.7189 C468.7966,500.5239 471.3056,503.7139 472.2886,504.7049 C473.0366,505.4589 473.0336,506.6759 472.2816,507.4249 C471.9056,507.7999 471.4146,507.9869 470.9226,507.9869" id="Fill-87" fill="#041D72"></path>
                <path d="M484.925,494.063 C484.925,494.063 490.925,493.063 503.425,498.563 C515.925,504.063 534.925,500.563 534.925,500.563 L536.37,500.937 C537.355,499.197 537.925,502.695 537.925,500.563 L537.925,436.063 C537.925,429.463 532.525,424.063 525.925,424.063 L494.925,424.063 C488.325,424.063 482.925,429.463 482.925,436.063 L482.925,493.368 L484.925,494.063 Z" id="Fill-89" fill="#041D72"></path>
                <path d="M653.9099,451.4136 C652.9769,451.4136 652.5589,451.7766 652.3859,451.9286 C651.0759,453.0646 650.5479,456.2776 651.1009,459.7396 C652.1089,466.0386 656.7369,471.6156 662.8919,473.9486 C663.0339,474.0026 663.1809,474.0576 663.3319,474.1106 C663.9909,471.8296 664.3589,469.3366 664.3289,466.6226 C664.2739,461.5046 660.8989,453.3486 655.5289,451.6926 C654.8659,451.4886 654.3339,451.4136 653.9099,451.4136 M623.0999,502.7606 C606.9549,502.7606 591.4159,497.4376 576.3689,492.2836 C574.0079,491.4746 571.6569,490.6696 569.3159,489.8896 L533.3159,477.8896 C532.3079,477.5536 531.7629,476.4626 532.0989,475.4546 C532.4359,474.4456 533.5279,473.9006 534.5339,474.2366 L570.5339,486.2366 C572.8839,487.0206 575.2449,487.8296 577.6169,488.6426 C592.9469,493.8926 608.8029,499.3246 624.9519,498.8866 C634.2399,498.6356 644.1829,495.2846 651.5499,489.9246 C655.2809,487.2106 659.4539,483.2016 661.9859,477.7186 C661.8329,477.6626 661.6809,477.6056 661.5279,477.5486 C654.1059,474.7346 648.5219,467.9836 647.3009,460.3476 C646.6819,456.4836 647.0309,451.4796 649.8609,449.0216 C651.0649,447.9756 653.2219,446.9526 656.6619,448.0156 C664.0699,450.2976 668.1099,460.2646 668.1789,466.5806 C668.2109,469.5026 667.8189,472.3536 667.0239,475.0986 C675.3179,476.6286 689.8079,474.8926 704.0019,451.8936 C716.0079,432.4376 720.2849,410.9786 716.0439,391.4726 C715.8189,390.4336 716.4769,389.4076 717.5159,389.1826 C718.5509,388.9536 719.5799,389.6156 719.8059,390.6536 C724.2599,411.1406 719.8099,433.6066 707.2769,453.9156 C703.4819,460.0656 697.1529,468.5576 688.5549,474.0896 C681.0209,478.9346 673.3439,480.5126 665.6789,478.7986 C663.3059,484.1936 659.2889,489.0546 653.8149,493.0376 C645.8429,498.8386 635.0919,502.4636 625.0569,502.7336 C624.4039,502.7516 623.7509,502.7606 623.0999,502.7606" id="Fill-91" fill="#041D72"></path>
                <path d="M657.3494,320.1363 C651.5054,320.1363 645.7544,319.4763 640.3864,317.9103 C616.2654,310.8753 602.2574,299.0253 601.6724,298.5243 C600.8664,297.8323 600.7724,296.6183 601.4634,295.8123 C602.1544,295.0053 603.3684,294.9083 604.1764,295.6013 C604.3144,295.7183 618.1894,307.4273 641.4644,314.2153 C665.0264,321.0883 697.6774,308.9793 708.9554,302.4013 C709.8744,301.8633 711.0524,302.1763 711.5874,303.0933 C712.1234,304.0113 711.8134,305.1903 710.8944,305.7253 C701.3064,311.3193 678.7124,320.1363 657.3494,320.1363" id="Fill-93" fill="#041D72"></path>
                <path d="M600.8391,111.4654 C576.3931,111.4654 553.7311,102.1744 535.0601,92.7824 C534.1101,92.3044 533.7281,91.1474 534.2061,90.1984 C534.6831,89.2484 535.8411,88.8664 536.7901,89.3434 C589.1671,115.6914 618.4491,108.5154 638.1101,99.3194 C639.0731,98.8684 640.2171,99.2844 640.6691,100.2474 C641.1191,101.2104 640.7031,102.3564 639.7401,102.8064 C626.5051,108.9974 613.4341,111.4654 600.8391,111.4654" id="Fill-95" fill="#041D72"></path>
                <path d="M673.0969,201.355 C671.1949,201.355 669.1899,200.958 667.0719,200.047 C666.0959,199.627 665.6439,198.496 666.0639,197.519 C666.4829,196.542 667.6149,196.09 668.5929,196.51 C677.1419,200.184 683.5859,192.668 689.2699,186.037 L689.4529,185.822 C700.8009,172.584 699.9299,154.45 696.2539,148.018 C694.2169,144.453 691.4339,142.32 688.6179,142.166 C685.6259,142.001 682.4699,144.086 679.4819,148.195 C669.2609,162.248 658.9239,168.902 648.7509,167.98 C643.4949,167.502 635.4109,163.821 629.9239,155.019 C625.3049,147.609 621.4159,134.543 629.1269,114.376 C634.6039,100.05 646.2659,87.52 662.8519,78.138 C675.3069,71.093 685.9989,68.313 686.4479,68.198 C687.4749,67.934 688.5249,68.555 688.7889,69.585 C689.0529,70.615 688.4319,71.663 687.4029,71.927 C686.9819,72.036 645.2069,83.099 632.7229,115.751 C625.5769,134.44 629.0329,146.313 633.1899,152.982 C637.6269,160.099 644.3769,163.717 649.0989,164.146 C657.8229,164.939 667.0009,158.811 676.3679,145.931 C681.1619,139.339 685.7909,138.162 688.8289,138.322 C692.9739,138.549 696.8989,141.387 699.5959,146.108 C704.3319,154.396 704.4859,174.199 692.3759,188.328 L692.1929,188.542 C687.4169,194.114 681.2099,201.354 673.0969,201.355" id="Fill-97" fill="#041D72"></path>
                <path d="M679.3235,183.2867 C678.4025,183.2867 677.4775,183.1817 676.5595,182.9647 C672.5265,182.0147 669.6065,179.1237 668.7485,175.2317 C668.5205,174.1937 669.1765,173.1667 670.2145,172.9377 C671.2485,172.7077 672.2795,173.3647 672.5085,174.4037 C673.0395,176.8157 674.8845,178.6157 677.4425,179.2187 C679.9885,179.8177 683.6835,179.2477 686.4275,175.8527 C690.1285,171.2757 691.6855,163.3297 689.4575,160.3947 C688.4175,159.0257 686.4155,158.9687 683.5065,160.2257 C682.5295,160.6487 681.3975,160.1987 680.9765,159.2227 C680.5545,158.2467 681.0035,157.1137 681.9795,156.6927 C688.2015,154.0007 691.2565,156.3987 692.5235,158.0667 C696.1915,162.8977 693.9115,172.7197 689.4215,178.2727 C686.8185,181.4937 683.1175,183.2867 679.3235,183.2867" id="Fill-99" fill="#041D72"></path>
                <path d="M635.925,195.063 C635.925,203.9 628.761,211.063 619.925,211.063 C611.089,211.063 603.925,203.9 603.925,195.063 C603.925,186.227 611.089,179.063 619.925,179.063 C628.761,179.063 635.925,186.227 635.925,195.063" id="Fill-101" fill="#041D72"></path>
                <path d="M584.7092,160.1485 C580.9382,160.1485 578.2332,159.4995 577.9582,159.4305 C576.9272,159.1725 576.3002,158.1275 576.5582,157.0965 C576.8152,156.0655 577.8582,155.4385 578.8882,155.6945 C579.4932,155.8445 593.7812,159.2145 601.8852,148.4085 C602.5232,147.5585 603.7302,147.3855 604.5802,148.0235 C605.4302,148.6615 605.6032,149.8675 604.9642,150.7175 C599.0802,158.5645 590.5962,160.1485 584.7092,160.1485" id="Fill-103" fill="#041D72"></path>
                <path d="M593.1897,137.959 C582.7637,137.959 574.9757,136.06 574.4587,135.93 C573.4277,135.672 572.8007,134.628 573.0577,133.597 C573.3147,132.566 574.3587,131.939 575.3907,132.195 C575.5867,132.245 595.1117,136.986 613.3457,131.228 C614.3597,130.908 615.4407,131.47 615.7607,132.483 C616.0807,133.497 615.5187,134.578 614.5047,134.898 C607.1227,137.23 599.6497,137.959 593.1897,137.959" id="Fill-105" fill="#041D72"></path>
                <path d="M584.0334,446.7574 C583.0644,446.7574 582.2304,446.0284 582.1224,445.0424 C580.5774,430.9504 575.2214,417.4874 566.6344,406.1094 C557.7384,394.3204 545.7914,385.2904 532.0864,379.9964 C531.0944,379.6124 530.6004,378.4984 530.9844,377.5074 C531.3664,376.5154 532.4804,376.0234 533.4724,376.4044 C547.8484,381.9584 560.3784,391.4284 569.7064,403.7904 C578.7114,415.7224 584.3274,429.8424 585.9494,444.6224 C586.0654,445.6794 585.3024,446.6304 584.2454,446.7454 C584.1744,446.7534 584.1034,446.7574 584.0334,446.7574" id="Fill-107" fill="#041D72"></path>
                <path d="M569.553,450.2916 C568.56,450.2916 567.718,449.5276 567.636,448.5206 C566.659,436.3676 562.241,424.7736 554.861,414.9936 C547.592,405.3616 537.825,397.9976 526.617,393.6976 C525.625,393.3166 525.129,392.2036 525.51,391.2116 C525.89,390.2196 527.001,389.7236 527.996,390.1036 C539.878,394.6626 550.23,402.4676 557.933,412.6756 C565.755,423.0406 570.437,435.3286 571.473,448.2126 C571.559,449.2716 570.769,450.1996 569.709,450.2856 C569.657,450.2896 569.605,450.2916 569.553,450.2916" id="Fill-109" fill="#041D72"></path>
                <path d="M555.6296,451.8531 C554.6296,451.8531 553.7846,451.0801 553.7116,450.0671 C553.0146,440.4071 549.5476,431.1951 543.6856,423.4271 C537.8516,415.6971 529.9876,409.8511 520.9426,406.5241 C519.9456,406.1571 519.4346,405.0501 519.8016,404.0521 C520.1686,403.0541 521.2756,402.5461 522.2726,402.9111 C532.0116,406.4941 540.4786,412.7871 546.7586,421.1091 C553.0676,429.4691 556.8006,439.3871 557.5516,449.7901 C557.6276,450.8501 556.8306,451.7711 555.7706,451.8481 C555.7226,451.8511 555.6756,451.8531 555.6296,451.8531" id="Fill-111" fill="#041D72"></path>
                <path d="M652.425,338.063 C652.425,339.444 651.306,340.563 649.925,340.563 C648.544,340.563 647.425,339.444 647.425,338.063 C647.425,336.682 648.544,335.563 649.925,335.563 C651.306,335.563 652.425,336.682 652.425,338.063" id="Fill-113" fill="#041D72"></path>
                <path d="M647.425,369.3961 C647.425,370.7771 646.306,371.8961 644.925,371.8961 C643.544,371.8961 642.425,370.7771 642.425,369.3961 C642.425,368.0151 643.544,366.8961 644.925,366.8961 C646.306,366.8961 647.425,368.0151 647.425,369.3961" id="Fill-115" fill="#041D72"></path>
                <path d="M644.425,385.063 C644.425,386.444 643.306,387.563 641.925,387.563 C640.544,387.563 639.425,386.444 639.425,385.063 C639.425,383.682 640.544,382.563 641.925,382.563 C643.306,382.563 644.425,383.682 644.425,385.063" id="Fill-117" fill="#041D72"></path>
                <path d="M650.425,353.73 C650.425,355.111 649.306,356.23 647.925,356.23 C646.544,356.23 645.425,355.111 645.425,353.73 C645.425,352.349 646.544,351.23 647.925,351.23 C649.306,351.23 650.425,352.349 650.425,353.73" id="Fill-119" fill="#041D72"></path>
                <path d="M774.7,284.0064 C774.35,292.8524 774.249,303.2094 779.728,307.4484 C784.023,310.7734 789.298,309.2714 792.802,306.7554 C796.913,303.8054 800.48,298.1464 798.596,292.6914 C797.431,289.3194 794.844,286.8604 790.905,285.3824 C786.429,283.7014 780.599,283.4244 774.7,284.0064 M770.828,284.5074 C763.588,285.6594 756.669,287.9444 752.475,290.3454 C729.258,303.6424 719.82,334.9754 731.865,358.7684 C741.887,378.5654 763.373,393.1274 786.604,395.8664 C806.646,398.2324 824.38,391.6394 836.534,377.3094 C850.622,360.6994 857.225,335.6764 854.197,310.3724 C852.627,297.2564 843.729,265.9424 795.133,258.4654 C789.922,257.6634 782.663,257.2724 774.415,257.1554 C774.446,263.5614 774.567,269.3124 774.844,272.9154 C775.005,275.0084 774.956,277.4794 774.857,280.1254 C781.008,279.5524 787.198,279.8804 792.257,281.7774 C797.321,283.6784 800.678,286.9274 802.235,291.4354 C804.4,297.7054 801.445,305.2924 795.046,309.8834 C789.139,314.1224 782.367,314.3574 777.372,310.4934 C770.532,305.2004 770.467,294.0984 770.828,284.5074 M794.52,400.1904 C791.779,400.1904 788.988,400.0244 786.153,399.6904 C761.677,396.8034 739.019,381.4224 728.43,360.5064 C715.49,334.9454 725.625,301.2864 750.562,287.0054 C754.77,284.5954 762.604,281.8754 770.987,280.6024 C771.096,277.8364 771.164,275.2644 771.006,273.2104 C770.719,269.4794 770.594,263.6164 770.561,257.1214 C738.694,257.0234 695.15,260.4364 694.578,260.4824 C693.514,260.5604 692.591,259.7764 692.507,258.7164 C692.422,257.6564 693.212,256.7294 694.272,256.6444 C696.604,256.4574 738.969,253.1134 770.553,253.2574 C770.556,238.0514 770.974,221.0884 771.001,220.0154 C771.028,218.9514 771.898,218.0734 772.973,218.1394 C774.036,218.1654 774.876,219.0484 774.849,220.1104 C774.843,220.3754 774.413,237.8234 774.407,253.2944 C782.84,253.4174 790.295,253.8264 795.718,254.6604 C831.772,260.2074 854.48,280.3474 858.019,309.9154 C861.172,336.2634 854.238,362.3884 839.47,379.7994 C828.181,393.1094 812.438,400.1894 794.52,400.1904" id="Fill-121" fill="#041D72"></path>
                <path d="M743.7141,232.2603 C746.4611,233.6753 751.0511,235.5383 756.1751,235.5383 C761.3191,235.5383 765.8971,233.6803 768.6361,232.2663 C765.8881,230.8513 761.2981,228.9883 756.1751,228.9883 C751.0301,228.9883 746.4531,230.8463 743.7141,232.2603 M756.1751,239.3883 C746.6921,239.3883 739.1231,234.0563 738.8061,233.8283 C738.3001,233.4673 738.0001,232.8843 738.0001,232.2633 C738.0001,231.6423 738.3001,231.0593 738.8061,230.6983 C739.1231,230.4703 746.6921,225.1383 756.1751,225.1383 C765.6581,225.1383 773.2271,230.4703 773.5441,230.6983 C774.0491,231.0593 774.3501,231.6423 774.3501,232.2633 C774.3501,232.8843 774.0491,233.4673 773.5441,233.8283 C773.2271,234.0563 765.6581,239.3883 756.1751,239.3883" id="Fill-123" fill="#041D72"></path>
                <path d="M775.7141,232.2603 C778.4611,233.6753 783.0511,235.5383 788.1751,235.5383 C793.3191,235.5383 797.8971,233.6803 800.6361,232.2663 C797.8881,230.8513 793.2981,228.9883 788.1751,228.9883 C783.0301,228.9883 778.4531,230.8463 775.7141,232.2603 M788.1751,239.3883 C778.6921,239.3883 771.1231,234.0563 770.8061,233.8283 C770.3001,233.4673 770.0001,232.8843 770.0001,232.2633 C770.0001,231.6423 770.3001,231.0593 770.8061,230.6983 C771.1231,230.4703 778.6921,225.1383 788.1751,225.1383 C797.6581,225.1383 805.2271,230.4703 805.5441,230.6983 C806.0491,231.0593 806.3501,231.6423 806.3501,232.2633 C806.3501,232.8843 806.0491,233.4673 805.5441,233.8283 C805.2271,234.0563 797.6581,239.3883 788.1751,239.3883" id="Fill-125" fill="#041D72"></path>
                <path d="M755.925,181.563 L755.925,206.063 C755.925,212.663 761.325,218.063 767.925,218.063 L777.925,218.063 C784.525,218.063 789.925,212.663 789.925,206.063 L789.925,181.563 L755.925,181.563 Z" id="Fill-127" fill="#FF5A00"></path>
                <path d="M765.425,175.063 C765.425,179.205 762.067,182.563 757.925,182.563 C753.783,182.563 750.425,179.205 750.425,175.063 C750.425,170.921 753.783,167.563 757.925,167.563 C762.067,167.563 765.425,170.921 765.425,175.063" id="Fill-129" fill="#FF5A00"></path>
                <path d="M780.425,175.063 C780.425,179.205 777.067,182.563 772.925,182.563 C768.783,182.563 765.425,179.205 765.425,175.063 C765.425,170.921 768.783,167.563 772.925,167.563 C777.067,167.563 780.425,170.921 780.425,175.063" id="Fill-131" fill="#FF5A00"></path>
                <path d="M795.425,175.063 C795.425,179.205 792.067,182.563 787.925,182.563 C783.783,182.563 780.425,179.205 780.425,175.063 C780.425,170.921 783.783,167.563 787.925,167.563 C792.067,167.563 795.425,170.921 795.425,175.063" id="Fill-133" fill="#FF5A00"></path>
                <path d="M753.4246,158.4883 C753.1866,158.4883 752.9446,158.4443 752.7106,158.3503 C751.7236,157.9553 751.2436,156.8353 751.6376,155.8483 L757.6376,140.8483 C758.0336,139.8613 759.1546,139.3833 760.1396,139.7763 C761.1266,140.1713 761.6066,141.2913 761.2126,142.2783 L755.2126,157.2783 C754.9106,158.0303 754.1886,158.4883 753.4246,158.4883" id="Fill-135" fill="#041D72"></path>
                <path d="M779.4246,157.4883 C779.1866,157.4883 778.9446,157.4443 778.7106,157.3503 C777.7236,156.9553 777.2436,155.8353 777.6376,154.8483 L783.6376,139.8483 C784.0336,138.8613 785.1546,138.3833 786.1396,138.7763 C787.1266,139.1713 787.6066,140.2913 787.2126,141.2783 L781.2126,156.2783 C780.9106,157.0303 780.1886,157.4883 779.4246,157.4883" id="Fill-137" fill="#041D72"></path>
                <path d="M814.4246,151.4883 C814.1866,151.4883 813.9446,151.4443 813.7106,151.3503 C812.7236,150.9553 812.2436,149.8353 812.6376,148.8483 L818.6376,133.8483 C819.0336,132.8613 820.1546,132.3833 821.1396,132.7763 C822.1266,133.1713 822.6066,134.2913 822.2126,135.2783 L816.2126,150.2783 C815.9106,151.0303 815.1886,151.4883 814.4246,151.4883" id="Fill-139" fill="#041D72"></path>
                <path d="M850.4246,153.4883 C850.1866,153.4883 849.9446,153.4443 849.7106,153.3503 C848.7236,152.9553 848.2436,151.8353 848.6376,150.8483 L854.6376,135.8483 C855.0336,134.8613 856.1556,134.3833 857.1396,134.7763 C858.1266,135.1713 858.6066,136.2913 858.2126,137.2783 L852.2126,152.2783 C851.9106,153.0303 851.1886,153.4883 850.4246,153.4883" id="Fill-141" fill="#041D72"></path>
                <path d="M829.4246,165.4883 C829.1866,165.4883 828.9446,165.4443 828.7106,165.3503 C827.7236,164.9553 827.2436,163.8353 827.6376,162.8483 L833.6376,147.8483 C834.0336,146.8613 835.1556,146.3823 836.1396,146.7763 C837.1266,147.1713 837.6066,148.2913 837.2126,149.2783 L831.2126,164.2783 C830.9106,165.0303 830.1886,165.4883 829.4246,165.4883" id="Fill-143" fill="#041D72"></path>
                <path d="M795.4246,164.4883 C795.1866,164.4883 794.9446,164.4443 794.7106,164.3503 C793.7236,163.9553 793.2436,162.8353 793.6376,161.8483 L799.6376,146.8483 C800.0336,145.8613 801.1546,145.3823 802.1396,145.7763 C803.1266,146.1713 803.6066,147.2913 803.2126,148.2783 L797.2126,163.2783 C796.9106,164.0303 796.1886,164.4883 795.4246,164.4883" id="Fill-145" fill="#041D72"></path>
                <path d="M806.4246,193.4883 C806.1866,193.4883 805.9446,193.4443 805.7106,193.3503 C804.7236,192.9553 804.2436,191.8353 804.6376,190.8483 L810.6376,175.8483 C811.0336,174.8613 812.1556,174.3833 813.1396,174.7763 C814.1266,175.1713 814.6066,176.2913 814.2126,177.2783 L808.2126,192.2783 C807.9106,193.0303 807.1886,193.4883 806.4246,193.4883" id="Fill-147" fill="#041D72"></path>
                <path d="M839.4246,188.4883 C839.1866,188.4883 838.9446,188.4443 838.7106,188.3503 C837.7236,187.9553 837.2436,186.8353 837.6376,185.8483 L843.6376,170.8483 C844.0336,169.8613 845.1546,169.3823 846.1396,169.7763 C847.1266,170.1713 847.6066,171.2913 847.2126,172.2783 L841.2126,187.2783 C840.9106,188.0303 840.1886,188.4883 839.4246,188.4883" id="Fill-149" fill="#041D72"></path>
                <path d="M736.4246,180.4883 C736.1866,180.4883 735.9446,180.4443 735.7106,180.3503 C734.7236,179.9553 734.2436,178.8353 734.6376,177.8483 L740.6376,162.8483 C741.0336,161.8613 742.1546,161.3823 743.1396,161.7763 C744.1266,162.1713 744.6066,163.2913 744.2126,164.2783 L738.2126,179.2783 C737.9106,180.0303 737.1886,180.4883 736.4246,180.4883" id="Fill-151" fill="#041D72"></path>
                <path d="M290.4504,395.5621 C288.2904,395.5621 286.4174,397.4341 286.4174,399.6661 C286.4174,401.8991 288.2904,403.6991 290.4504,403.6991 C292.7544,403.6991 294.5544,401.8991 294.5544,399.6661 C294.5544,397.4341 292.7544,395.5621 290.4504,395.5621" id="Fill-153" fill="#041D72"></path>
                <path d="M290.9543,352.8629 C288.5273,352.8629 283.5973,353.0669 280.1653,353.3029 C279.1823,353.3709 278.4253,354.1889 278.4253,355.1759 C278.4253,356.2569 279.3313,357.1139 280.4113,357.0479 C284.2293,356.8109 289.3983,356.6069 291.4583,356.6069 C297.6513,356.6069 300.9633,359.9199 300.9633,365.6789 C300.9633,375.7599 285.4103,374.4649 285.4103,385.6969 C285.4103,386.6539 285.5083,387.5519 285.6323,388.3049 C285.8283,389.4959 286.9763,390.2779 288.1583,390.0369 C289.3023,389.8039 290.0253,388.7009 289.8243,387.5509 C289.7283,387.0019 289.6583,386.3699 289.6583,385.6969 C289.6583,377.9929 305.0673,378.1359 305.0673,365.8959 C305.0673,358.2629 301.1793,352.8629 290.9543,352.8629" id="Fill-155" fill="#041D72"></path>
            </g>
        </g>
    </g>
</svg>