<svg width="846" height="174" viewBox="0 0 846 174" fill="none" xmlns="http://www.w3.org/2000/svg">
<path fill-rule="evenodd" clip-rule="evenodd" d="M793.681 64.3571C792.96 65.5161 792.238 66.7221 791.517 67.9881C790.23 70.2521 789.034 72.5571 787.906 74.8891C795.383 74.9841 822.78 74.7661 837.688 67.0241C835.867 63.9211 833.775 61.0001 831.444 58.2861C820.049 63.8031 802.878 64.3871 796.163 64.3871C794.982 64.3871 794.127 64.3691 793.681 64.3571" fill="#FF5A00"/>
<path fill-rule="evenodd" clip-rule="evenodd" d="M803.672 117.598C820.418 117.094 834.324 114.482 844.576 109.989C845.28 106.707 845.715 103.326 845.859 99.8683C836.126 103.787 822.718 105.843 805.809 105.973C805.257 105.978 804.707 105.98 804.162 105.98C791.805 105.98 781.279 104.919 777.613 104.502C776.668 108.532 775.878 112.556 775.225 116.544C779.273 116.975 790.517 117.99 803.672 117.598" fill="#FF5A00"/>
<path fill-rule="evenodd" clip-rule="evenodd" d="M786.513 77.8673C785.074 81.0563 783.769 84.2933 782.594 87.5623C790.992 88.3483 824.002 90.7093 843.818 81.5973C842.682 77.4143 841.105 73.4153 839.141 69.6483C824.909 77.0743 800.79 77.9183 790.591 77.9183C788.695 77.9183 787.294 77.8883 786.513 77.8673" fill="#FF5A00"/>
<path fill-rule="evenodd" clip-rule="evenodd" d="M771.945 118.068C771.925 117.934 771.916 117.797 771.935 117.656C771.956 117.488 772.011 117.335 772.081 117.192C772.831 112.441 773.77 107.63 774.93 102.814C774.931 102.76 774.928 102.707 774.935 102.652C774.956 102.491 775.008 102.343 775.075 102.204C776.159 97.7791 777.438 93.3541 778.927 88.9701C778.919 88.8721 778.921 88.7721 778.933 88.6701C778.971 88.3471 779.112 88.0641 779.315 87.8401C781.89 80.4591 785.079 73.2081 789.027 66.3021C797.119 52.1431 805.335 44.6821 808.846 41.8941C805.704 40.5941 802.427 39.5601 799.043 38.8051C795.418 41.8341 787.859 49.0851 780.518 61.9881C763.855 91.2781 760.936 126.958 761.491 152.147C764.052 153.291 766.706 154.258 769.442 155.038C769.334 144.032 769.917 131.301 771.945 118.068" fill="#FF5A00"/>
<path fill-rule="evenodd" clip-rule="evenodd" d="M797.541 133.98C785.932 133.98 776.355 132.877 773.26 132.476C772.968 135.911 772.765 139.272 772.632 142.543C778.375 143.523 809.854 148.144 831.743 136.067C833.916 133.497 835.876 130.744 837.598 127.831C827.64 131.774 814.734 133.842 799.06 133.974C798.55 133.978 798.043 133.98 797.541 133.98" fill="#FF5A00"/>
<path fill-rule="evenodd" clip-rule="evenodd" d="M778.026 60.3019C784.536 48.9129 791.126 41.8569 795.283 38.0799C792.755 37.6839 790.171 37.4599 787.547 37.3899C784.161 40.1349 776.22 47.4499 768.517 60.9889C753.178 87.9509 749.484 120.335 749.427 144.961C752.251 147.129 755.273 149.046 758.462 150.691C758.048 125.142 761.263 89.6269 778.026 60.3019" fill="#FF5A00"/>
<path fill-rule="evenodd" clip-rule="evenodd" d="M766.026 59.3019C772.345 48.2479 778.736 41.2789 782.908 37.4249C778.783 37.6289 774.767 38.2479 770.902 39.2449C764.717 44.8259 740.065 71.0219 738.888 134.579C741.162 137.448 743.692 140.104 746.446 142.513C746.742 117.757 750.782 85.9699 766.026 59.3019" fill="#FF5A00"/>
<path fill-rule="evenodd" clip-rule="evenodd" d="M796.961 147.223C795.837 147.253 794.731 147.267 793.649 147.267C783.638 147.267 775.637 146.1 772.528 145.572C772.428 149.123 772.409 152.546 772.451 155.811C776.783 156.806 781.288 157.349 785.922 157.349C801.325 157.349 815.366 151.539 825.99 141.999C818.697 144.798 809.211 146.901 796.961 147.223" fill="#FF5A00"/>
<path fill-rule="evenodd" clip-rule="evenodd" d="M752.34 59.5333C756.779 50.9733 761.266 45.0453 764.677 41.2313C742.029 49.8113 725.922 71.6943 725.922 97.3483C725.922 109.664 729.638 121.11 736.003 130.636C736.771 108.702 740.619 82.1383 752.34 59.5333" fill="#FF5A00"/>
<path fill-rule="evenodd" clip-rule="evenodd" d="M797.627 120.688C786.892 120.688 778.162 119.879 774.762 119.513C774.264 122.878 773.857 126.21 773.534 129.486C779.749 130.29 816.958 134.501 839.901 123.565C841.438 120.407 842.692 117.09 843.662 113.652C833.329 117.776 819.966 120.113 803.717 120.598C801.633 120.661 799.596 120.688 797.627 120.688" fill="#FF5A00"/>
<path fill-rule="evenodd" clip-rule="evenodd" d="M795.606 61.3771C801.489 61.3861 818.281 60.9441 829.336 55.9591C824.382 50.7641 818.516 46.4451 811.979 43.2881C810.54 44.3201 803.39 49.7731 795.606 61.3771" fill="#FF5A00"/>
<mask id="mask0" mask-type="alpha" maskUnits="userSpaceOnUse" x="778" y="84" width="68" height="19">
<path fill-rule="evenodd" clip-rule="evenodd" d="M778.331 84.5748H845.903V102.957H778.331V84.5748Z" fill="white"/>
</mask>
<g mask="url(#mask0)">
<path fill-rule="evenodd" clip-rule="evenodd" d="M801.816 91.4498C792.313 91.4498 784.565 90.7788 781.58 90.4798C780.349 94.1528 779.272 97.8548 778.331 101.562C786.747 102.492 824.241 105.946 845.903 96.6078C845.853 92.4828 845.388 88.4598 844.545 84.5748C835.619 88.5688 823.412 90.8418 808.096 91.3478C805.944 91.4188 803.84 91.4498 801.816 91.4498" fill="#FF5A00"/>
</g>
<path fill-rule="evenodd" clip-rule="evenodd" d="M455.957 41.4695C467.877 45.4645 479.584 50.1295 491.415 54.9455C494.383 56.1545 497.355 57.3785 500.333 58.6055C502.303 59.4165 504.28 60.2305 506.263 61.0435C508.618 53.1685 509.379 44.4855 506.557 38.4955C504.379 33.8745 500.195 31.3445 494.119 30.9765C487.38 30.5695 480.447 32.7115 473.742 34.7835L472.388 35.2015C467.165 36.8065 461.749 38.8715 455.957 41.4695M570.822 81.1695C590.98 83.9775 613.242 82.6035 640.026 76.9655C657.797 73.2245 680.674 57.7785 683.535 43.4715C684.459 38.8495 684.002 34.4185 682.212 30.6585C677.91 21.6185 663.383 12.0425 636.596 14.8005C615.559 16.9675 595.883 27.3215 583.962 42.4955C575.975 52.6635 571.426 66.4725 570.822 81.1695M270.572 63.8545C268.564 63.8545 266.588 64.5075 265.248 66.0225C263.711 67.7605 263.148 70.5825 263.777 73.3875C264.451 76.3875 266.286 79.1045 267.809 81.1365C272.292 87.1175 277.59 91.9365 283.492 95.5325C285.293 87.6375 284.593 80.3515 282.462 74.6455C280.735 70.0235 278.323 66.8045 275.293 65.0805C273.927 64.3035 272.238 63.8545 270.572 63.8545M390.257 32.6895C382.45 32.6895 374.431 33.4385 366.195 35.2495C352.699 38.2165 335.689 45.8345 331.3 65.2735C328.662 76.9565 330.648 88.6815 336.613 98.3185C343.686 95.6595 350.488 92.3165 356.471 89.2975C361.389 86.8155 366.326 84.3635 371.263 81.9105C382.959 76.0995 395.053 70.0915 406.696 63.7715C411.88 60.9565 417.093 57.9645 422.135 55.0695C429.722 50.7135 437.537 46.2275 445.524 42.1915C441.802 41.0755 438.053 40.0375 434.27 39.0945C420.42 35.6415 405.758 32.6895 390.257 32.6895M338.851 101.585C340.381 103.614 342.104 105.528 344.014 107.302C350.659 113.478 362.273 120.743 393.356 122.12C436.448 124.033 477.134 106.106 499.549 75.3425C501.544 72.6035 503.485 68.8605 505.036 64.7005C502.972 63.8545 500.917 63.0085 498.868 62.1645C495.894 60.9395 492.927 59.7175 489.963 58.5115C476.915 53.1985 464.021 48.0735 450.857 43.8475C450.736 43.9065 450.615 43.9655 450.493 44.0245C441.48 48.4015 432.62 53.4885 424.051 58.4075C418.99 61.3135 413.757 64.3185 408.532 67.1545C396.828 73.5085 384.702 79.5325 372.976 85.3575C368.046 87.8065 363.116 90.2555 358.205 92.7335C352.374 95.6765 345.774 98.9225 338.851 101.585M221.588 54.8325C220.987 54.8325 220.412 54.8695 219.872 54.9385C216.556 55.3635 213.715 57.1515 211.426 60.2515C205.016 68.9345 203.916 86.4835 206.143 99.3315C208.267 111.589 214.034 122.373 221.945 129.233C229.344 121.148 235.978 111.233 238.203 101.303C243.585 77.2845 238.89 65.8485 234.004 60.4855C230.187 56.2955 225.364 54.8325 221.588 54.8325M114.493 173.227C113.455 173.227 112.6 172.401 112.57 171.357C112.54 170.294 113.377 169.408 114.439 169.378C154.237 168.246 186.2 158.62 209.442 140.766C212.582 138.354 215.969 135.388 219.292 132.023C210.788 124.574 204.611 113.036 202.35 99.9885C200.057 86.7565 200.95 67.9615 208.329 57.9655C211.266 53.9865 214.985 51.6835 219.382 51.1205C224.273 50.4925 231.43 51.9435 236.85 57.8925C242.351 63.9315 247.703 76.5115 241.959 102.145C241.308 105.053 237.893 117.569 225.075 131.661C225.521 131.969 225.973 132.265 226.431 132.549C237.628 139.501 251.108 134.944 259.99 128.361C272.41 119.157 279.292 108.963 282.418 99.4035C275.741 95.5005 269.759 90.1565 264.729 83.4455C262.975 81.1065 260.855 77.9445 260.021 74.2305C259.113 70.1815 259.988 66.1595 262.364 63.4725C265.777 59.6125 272.153 58.8655 277.197 61.7355C281.032 63.9175 284.017 67.8085 286.068 73.2995C288.953 81.0215 289.28 89.2645 287.081 97.5315C300.142 104.148 315.75 105.162 331.87 99.9765C332.216 99.8655 332.561 99.7515 332.906 99.6365C326.749 89.2915 324.743 76.8345 327.545 64.4255C331.372 47.4775 344.451 36.0885 365.369 31.4895C390.732 25.9125 413.92 30.0535 435.201 35.3595C440.388 36.6525 445.503 38.1175 450.57 39.7165C457.962 36.2095 464.747 33.5225 471.257 31.5215L472.605 31.1065C479.312 29.0325 486.915 26.6915 494.352 27.1345C501.832 27.5875 507.256 30.9485 510.039 36.8545C513.386 43.9575 512.488 53.7855 509.826 62.4975C526.776 69.3865 544.201 75.9825 562.068 79.6615C563.7 79.9985 565.346 80.3055 567.003 80.5835C567.717 65.2425 572.538 50.8075 580.935 40.1175C593.487 24.1385 614.147 13.2425 636.201 10.9715C654.187 9.11746 677.943 12.7285 685.688 29.0045C687.838 33.5205 688.398 38.7835 687.31 44.2265C684.117 60.1905 660.13 76.6665 640.818 80.7325C613.79 86.4215 591.238 87.8325 570.755 85.0465C570.791 90.9615 571.461 96.9805 572.799 102.926C572.938 103.543 573.088 104.158 573.249 104.77C578.09 123.23 592.179 132.201 603.146 136.476C624.689 144.875 652.641 142.451 671.122 130.582C683.546 122.603 693.933 111.587 703.977 100.932C705.922 98.8705 707.863 96.8125 709.815 94.7775C717.786 86.4695 726.884 79.0245 734.731 72.8375C735.566 72.1795 736.776 72.3225 737.434 73.1575C738.092 73.9915 737.949 75.2025 737.114 75.8605C729.371 81.9655 720.402 89.3035 712.594 97.4425C710.649 99.4695 708.716 101.519 706.779 103.573C696.575 114.396 686.024 125.588 673.203 133.821C653.75 146.313 624.366 148.882 601.747 140.063C589.946 135.463 574.778 125.775 569.525 105.746C569.353 105.091 569.192 104.432 569.044 103.771C567.6 97.3565 566.902 90.8575 566.911 84.4705C565.021 84.1605 563.148 83.8145 561.29 83.4325C543.176 79.7015 525.634 73.0745 508.586 66.1485C506.894 70.6655 504.786 74.6915 502.66 77.6095C479.495 109.403 437.545 127.929 393.186 125.966C360.849 124.533 348.521 116.746 341.393 110.122C339.023 107.919 336.915 105.519 335.083 102.962C334.407 103.196 333.729 103.422 333.049 103.64C316.13 109.084 299.722 108.093 285.91 101.281C285.322 102.923 284.634 104.563 283.846 106.196C279.362 115.502 271.703 124.471 262.282 131.454C252.385 138.789 237.236 143.787 224.4 135.82C223.722 135.398 223.054 134.953 222.397 134.484C219.345 137.574 215.831 140.713 211.787 143.819C187.889 162.177 155.173 172.071 114.549 173.226C114.53 173.226 114.511 173.227 114.493 173.227" fill="#FF5A00"/>
<mask id="mask1" mask-type="alpha" maskUnits="userSpaceOnUse" x="0" y="1" width="177" height="173">
<path fill-rule="evenodd" clip-rule="evenodd" d="M0.000396729 1H176.772V173.407H0.000396729V1Z" fill="white"/>
</mask>
<g mask="url(#mask1)">
<path fill-rule="evenodd" clip-rule="evenodd" d="M88.3804 0.999634C39.5764 0.999634 0.000396729 40.5706 0.000396729 89.3916C0.000396729 128.438 25.3224 161.566 60.4484 173.255C64.8674 174.066 66.4804 171.337 66.4804 168.995C66.4804 166.896 66.4044 161.338 66.3614 153.962C41.7754 159.304 36.5874 142.114 36.5874 142.114C32.5684 131.904 26.7744 129.186 26.7744 129.186C18.7494 123.701 27.3814 123.813 27.3814 123.813C36.2514 124.438 40.9194 132.921 40.9194 132.921C48.8044 146.428 61.6064 142.528 66.6424 140.265C67.4454 134.553 69.7284 130.659 72.2544 128.449C52.6274 126.218 31.9944 118.636 31.9944 84.7656C31.9944 75.1166 35.4384 67.2266 41.0914 61.0476C40.1824 58.8126 37.1504 49.8256 41.9584 37.6566C41.9584 37.6566 49.3794 35.2806 66.2634 46.7176C73.3134 44.7576 80.8744 43.7766 88.3914 43.7426C95.8974 43.7766 103.458 44.7576 110.518 46.7176C127.393 35.2806 134.8 37.6566 134.8 37.6566C139.622 49.8256 136.588 58.8126 135.68 61.0476C141.344 67.2266 144.765 75.1166 144.765 84.7656C144.765 118.72 124.1 126.192 104.409 128.38C107.583 131.109 110.41 136.503 110.41 144.748C110.41 156.564 110.301 166.097 110.301 168.995C110.301 171.358 111.893 174.108 116.379 173.245C151.47 161.534 176.772 128.428 176.772 89.3916C176.772 40.5706 137.195 0.999634 88.3804 0.999634" fill="#041D72"/>
</g>
</svg>
