<svg width="946" height="628" viewBox="0 0 946 628" fill="none" xmlns="http://www.w3.org/2000/svg">
<path fill-rule="evenodd" clip-rule="evenodd" d="M670.34 598.876C664.204 598.876 661.141 592.421 660.805 591.667L647.826 565.709C645.139 560.335 644.709 555.951 646.547 552.679C648.934 548.432 654.166 547.949 654.388 547.931L679.261 544.944C691.782 542.699 694.373 551.233 694.398 551.32C696.381 558.258 691.836 561.781 689.156 562.675L682.614 565.054C695.895 571.038 708.958 575.939 721.502 579.643C753.54 589.103 785.864 590.658 814.979 584.141C846.238 577.145 873.091 561.426 894.792 537.422C918.107 511.635 933.298 478.055 937.569 442.868C941.989 406.451 934.131 370.774 915.44 342.408C914.856 341.52 915.101 340.326 915.988 339.741C916.877 339.156 918.07 339.402 918.655 340.29C937.846 369.417 945.921 406.011 941.391 443.332C937.025 479.3 921.49 513.633 897.648 540.004C875.402 564.61 847.871 580.724 815.82 587.898C786.067 594.558 753.075 592.98 720.412 583.335C706.347 579.183 691.652 573.55 676.734 566.593C676.028 566.264 675.59 565.542 675.625 564.764C675.659 563.986 676.158 563.306 676.89 563.04L687.89 559.04C688.631 558.777 692.096 557.275 690.697 552.377C690.635 552.186 688.911 547.104 679.892 548.742C679.854 548.749 679.815 548.755 679.777 548.76L654.777 551.76C654.683 551.769 651.261 552.118 649.892 554.585C648.748 556.647 649.224 559.898 651.269 563.988L664.269 589.988C664.286 590.022 664.302 590.056 664.317 590.09C664.414 590.313 666.816 595.679 671.231 594.95C672.858 594.679 673.981 594.047 674.568 593.071C675.371 591.738 675.173 589.813 674.721 588.458L669.735 574.496C669.453 573.707 669.714 572.826 670.381 572.318C671.047 571.81 671.965 571.793 672.652 572.272L682.652 579.272C683.522 579.881 683.734 581.082 683.124 581.953C682.515 582.824 681.315 583.035 680.444 582.425L675.391 578.889L678.36 587.201C678.823 588.59 679.674 592.053 677.866 595.057C677.045 596.421 675.337 598.168 671.864 598.747C671.337 598.835 670.828 598.876 670.34 598.876" fill="#041D72"/>
<path fill-rule="evenodd" clip-rule="evenodd" d="M776.871 605.659C764.661 605.659 753.523 604.536 743.991 602.999C713.062 598.01 691.905 587.678 691.695 587.574C690.742 587.103 690.351 585.95 690.822 584.996C691.292 584.044 692.444 583.653 693.399 584.122C693.605 584.224 714.341 594.336 744.732 599.219C772.7 603.713 814.823 604.57 856.67 583.136C857.616 582.651 858.776 583.025 859.26 583.971C859.745 584.917 859.371 586.077 858.425 586.561C829.891 601.176 801.253 605.659 776.871 605.659" fill="#041D72"/>
<path fill-rule="evenodd" clip-rule="evenodd" d="M682.045 511.485C678.173 511.485 674.254 511.285 670.503 511.093C667.287 510.929 664.249 510.774 661.599 510.774H608.549C602.561 510.774 595.759 506.685 592.727 501.264C590.513 497.306 590.556 493.072 592.847 489.341C595.66 484.761 600.769 483.741 605.276 482.841C606.873 482.522 608.38 482.221 609.719 481.786C614.407 480.263 616.733 476.22 619.197 471.94C621.88 467.276 624.656 462.452 630.617 460.658C635.291 459.255 640.524 460.755 643.343 464.309C643.941 465.064 644.406 465.859 644.856 466.627C645.467 467.672 646.044 468.658 646.819 469.252C647.701 469.929 648.993 470.112 650.031 469.709C651.57 469.109 652.19 467.677 653.072 465.391C653.512 464.251 653.967 463.072 654.65 461.989C656.996 458.271 661.897 456.229 666.842 456.907C672.583 457.695 675.859 461.04 679.028 464.275C681.024 466.312 682.909 468.236 685.392 469.536C689.893 471.892 695.332 468.692 698.624 465.235C706.125 457.361 708.14 445.454 709.759 435.886C711.96 422.889 711.618 409.436 711.288 396.426C710.902 381.261 710.504 365.58 714.074 350.307C716.067 341.777 718.956 333.215 721.75 324.934C723.431 319.952 725.169 314.8 726.683 309.736C726.954 308.833 727.283 307.796 727.646 306.656C730.594 297.384 736.083 280.126 727.385 275.44C726.425 274.923 725.403 274.832 724.508 275.184C723.682 275.509 723.056 276.198 722.745 277.123C721.335 281.308 721.345 286.087 721.356 290.708C721.358 292.169 721.361 293.618 721.323 295.042C721.226 298.623 719.656 301.056 717.014 301.716C715.867 302.005 714.728 301.765 713.805 301.048C710.714 298.643 709.698 290.82 709.623 268.856C709.618 267.456 709.626 265.894 709.634 264.22C709.686 253.882 709.782 234.639 705.8 231.106C705.388 230.741 705.068 230.724 704.786 230.758C699.841 231.377 699.505 251.523 700.459 259.624C700.487 259.991 702.472 287.69 703.446 293.532C703.621 294.581 702.912 295.572 701.864 295.747C700.815 295.927 699.824 295.214 699.649 294.165C698.646 288.145 696.71 261.133 696.628 259.986C696.599 259.756 693.395 228.303 704.309 226.939C705.799 226.753 707.196 227.199 708.355 228.227C713.242 232.563 713.569 247.102 713.483 264.239C713.475 265.902 713.467 267.453 713.472 268.842C713.534 286.887 714.422 296.684 716.112 297.971C717.237 297.634 717.448 295.934 717.475 294.938C717.513 293.551 717.509 292.139 717.506 290.717C717.495 285.783 717.484 280.682 719.096 275.894C719.776 273.876 721.196 272.352 723.095 271.603C725.033 270.838 727.262 271.001 729.212 272.051C740.719 278.251 734.601 297.488 731.314 307.823C730.959 308.939 730.636 309.954 730.372 310.839C728.837 315.968 727.088 321.152 725.397 326.165C722.632 334.36 719.774 342.833 717.822 351.183C714.365 365.976 714.757 381.406 715.136 396.328C715.471 409.522 715.817 423.164 713.555 436.528C711.848 446.613 709.724 459.164 701.411 467.891C697.197 472.316 690.004 476.295 683.607 472.946C680.585 471.364 678.396 469.13 676.278 466.968C673.314 463.943 670.754 461.329 666.318 460.72C662.894 460.251 659.436 461.617 657.906 464.043C657.423 464.809 657.054 465.765 656.663 466.777C655.756 469.126 654.628 472.048 651.429 473.296C649.147 474.184 646.418 473.796 644.476 472.307C643.102 471.253 642.269 469.828 641.533 468.57C641.134 467.887 640.756 467.242 640.327 466.701C638.492 464.388 634.874 463.397 631.726 464.345C627.23 465.697 624.948 469.662 622.533 473.86C619.942 478.363 617.005 483.467 610.908 485.447C609.356 485.952 607.665 486.289 606.03 486.616C601.932 487.434 598.061 488.207 596.128 491.356C594.553 493.918 594.54 496.62 596.087 499.385C598.412 503.542 604.003 506.924 608.549 506.924H661.599C664.347 506.924 667.433 507.082 670.699 507.249C680.769 507.763 693.298 508.403 700.761 504.232C703.558 502.669 705.173 500.501 705.432 497.963C705.73 495.043 704.181 491.806 701.288 489.304C700.484 488.609 700.396 487.394 701.092 486.589C701.787 485.787 703.002 485.698 703.807 486.393C707.648 489.715 709.687 494.187 709.261 498.354C708.875 502.14 706.523 505.422 702.639 507.592C697.055 510.714 689.642 511.485 682.045 511.485" fill="#041D72"/>
<path fill-rule="evenodd" clip-rule="evenodd" d="M690.545 302.774C689.541 302.774 688.694 301.994 688.627 300.977C688.616 300.827 687.622 285.775 687.622 273.849C687.622 269.147 688.905 265.733 691.436 263.703C694.723 261.066 698.793 261.931 698.964 261.97C700.002 262.201 700.656 263.229 700.426 264.267C700.196 265.3 699.174 265.953 698.142 265.731C698.071 265.716 695.627 265.253 693.818 266.727C692.261 267.996 691.472 270.392 691.472 273.849C691.472 285.649 692.458 300.572 692.467 300.721C692.538 301.782 691.735 302.699 690.675 302.77C690.631 302.773 690.588 302.774 690.545 302.774" fill="#041D72"/>
<path fill-rule="evenodd" clip-rule="evenodd" d="M677.545 307.774C676.554 307.774 675.712 307.014 675.629 306.009C675.569 305.297 674.204 288.461 676.69 279.343C677.842 275.117 679.854 272.416 682.669 271.315C686.593 269.78 690.406 272.117 690.567 272.217C691.468 272.78 691.742 273.968 691.179 274.869C690.618 275.768 689.436 276.043 688.536 275.487C688.475 275.451 686.14 274.074 684.051 274.908C682.442 275.549 681.215 277.382 680.404 280.356C678.094 288.825 679.451 305.522 679.465 305.69C679.553 306.749 678.766 307.679 677.707 307.767C677.652 307.772 677.598 307.774 677.545 307.774" fill="#041D72"/>
<path fill-rule="evenodd" clip-rule="evenodd" d="M637.082 182.816C638.608 184.473 639.677 186.411 640.627 188.136C646.406 198.62 651.672 203.6 656.275 202.944C661.058 202.26 661.341 195.354 660.935 187.992L660.91 187.529C660.752 184.628 660.183 182.382 659.167 180.662C656.303 175.811 653.205 177.029 647.522 179.796C645.964 180.555 644.353 181.34 642.754 181.865C640.722 182.532 638.811 182.846 637.082 182.816M414.667 22.1266C410.581 22.1266 407.277 25.4516 405.458 28.7946C398.076 42.3726 397.614 64.1216 404.429 77.2766C410.558 89.1096 420.978 100.696 430.263 110.627C444.249 125.584 453.851 144.985 463.136 163.748C465.235 167.989 467.218 171.996 469.259 175.97C479.912 196.716 498.293 224.185 525.361 237.235C531.376 240.135 536.783 241.806 541.204 242.759C539.493 240.446 537.83 238.075 536.218 235.649C523.423 216.383 514.964 194.383 507.728 173.479C498.433 146.627 503.913 129.777 509.778 116.091C515.381 103.015 518.351 86.7046 518.604 67.6136C518.691 61.0906 518.809 52.1576 513.237 48.6216C511.045 47.2316 508.568 47.1876 506.612 48.5026C504.601 49.8556 503.643 52.3066 504.112 54.9006C504.432 56.6696 504.985 58.4156 505.521 60.1036C506.624 63.5806 507.764 67.1756 507.096 71.3726C505.417 81.9176 496.28 96.1896 476.052 101.707C458.097 106.603 436.472 99.0936 424.631 83.8536C415.974 72.7116 414.311 57.0636 419.69 37.3416C420.845 33.1076 421.377 27.4916 419.41 24.4246C418.629 23.2066 417.487 22.4886 415.92 22.2306C415.495 22.1596 415.078 22.1266 414.667 22.1266M605.788 264.964C605.282 264.964 604.645 265.366 604.208 265.971C601.835 269.26 602.339 273.923 602.827 278.433C602.913 279.227 602.996 279.994 603.063 280.747C603.779 280.483 604.457 280.14 605.077 279.706C608.839 277.072 609.278 270.646 607.327 266.296C606.999 265.564 606.401 265.018 605.873 264.968C605.845 264.965 605.816 264.964 605.788 264.964M507.962 563.824C507.924 563.824 507.886 563.825 507.848 563.828C506.616 563.922 505.746 564.438 505.109 565.452C502.66 569.35 504.402 578.908 506.066 583.164C506.892 585.277 508.042 587.317 509.441 589.172C510.649 587.282 511.486 585.169 511.875 582.945C512.9 577.091 512.637 569.147 510.15 565.291C509.671 564.546 508.819 563.824 507.962 563.824M533.391 564.087C532.281 564.087 531.735 564.537 531.409 564.908C529.105 567.522 530.016 575.172 530.988 578.499C532.536 583.791 534.553 587.961 537.071 591.046C539.372 587.309 540.036 583.1 540.219 581.348C540.764 576.139 540.006 565.084 534.189 564.155C533.895 564.108 533.629 564.087 533.391 564.087M555.691 601.973C552.741 601.973 549.798 601.711 546.939 601.194C543.297 600.536 540.104 599.084 537.341 596.816C535.57 598.529 533.503 599.837 531.194 600.662C525.448 602.713 519.21 601.878 513.627 598.308C512.186 597.387 510.817 596.302 509.546 595.087C508.549 596.054 507.452 596.931 506.267 597.699C501.38 600.865 495.654 601.841 490.143 600.449C489.112 600.188 488.488 599.142 488.748 598.111C489.009 597.081 490.056 596.458 491.086 596.716C495.547 597.845 500.196 597.046 504.173 594.468C505.178 593.817 506.105 593.071 506.945 592.247C505.087 589.932 503.558 587.321 502.481 584.565C500.807 580.285 498.325 569.013 501.85 563.403C503.135 561.357 505.108 560.177 507.555 559.99C509.763 559.821 511.999 561.052 513.386 563.205C517.02 568.841 516.53 578.683 515.667 583.609C515.126 586.698 513.882 589.614 512.072 592.15C516.883 596.8 523.429 599.346 529.899 597.037C531.787 596.362 533.332 595.343 534.598 594.134C531.519 590.584 529.098 585.747 527.294 579.579C526.393 576.497 524.683 566.718 528.52 562.363C529.582 561.159 531.531 559.837 534.796 560.353C543.734 561.781 544.756 574.973 544.048 581.748C543.557 586.451 542.089 590.581 539.846 593.843C542.113 595.696 544.7 596.878 547.624 597.406C570.02 601.454 585.208 589.561 588.124 576.316C590.739 564.434 587.122 549.714 575.147 544.573C566.282 540.767 556.051 540.774 546.194 540.774H545.356H447.547C437.417 540.774 429.737 537.92 424.721 532.291C417.728 524.446 418.495 514.051 418.622 512.749V419.849C418.622 411.759 421.012 405.365 425.725 400.845C433.336 393.544 444.17 393.902 444.627 393.926L537.547 393.924C540.582 393.924 550.82 393.389 555.144 386.496C556.993 383.547 557.357 379.705 557.47 376.336C557.837 365.285 555.38 356.41 549.957 349.204C549.199 348.195 548.414 347.189 547.625 346.176C542.555 339.668 537.312 332.939 537.07 324.024C536.813 314.564 543.468 307.815 553.632 307.232C557.455 307.01 561.744 307.294 566.288 307.592C576.747 308.279 588.603 309.059 595.77 303.241C600.616 299.306 600.046 291.962 599.543 285.483C599.539 285.429 599.535 285.376 599.531 285.322C597.296 285.464 594.828 285.27 592.163 284.735C581.108 282.522 570.411 273.679 560.498 264.452C554.911 259.252 549.627 253.521 544.703 247.323C539.479 246.572 532.3 244.816 523.967 240.836C495.795 227.38 476.805 199.091 465.834 177.729C463.781 173.729 461.699 169.523 459.686 165.456C450.524 146.943 441.05 127.799 427.451 113.255C417.99 103.137 407.365 91.3146 401.011 79.0476C393.678 64.8916 394.156 41.5236 402.077 26.9566C404.709 22.1146 409.892 17.3336 416.548 18.4326C419.213 18.8726 421.267 20.1896 422.65 22.3456C425.983 27.5426 424.07 35.9126 423.404 38.3546C418.361 56.8446 419.796 71.3576 427.671 81.4916C438.423 95.3296 458.786 102.423 475.04 97.9926C487.487 94.5976 501.051 84.8626 503.294 70.7666C503.819 67.4706 502.863 64.4576 501.852 61.2676C501.28 59.4636 500.688 57.5986 500.324 55.5856C499.579 51.4646 501.165 47.5266 504.464 45.3086C507.679 43.1456 511.831 43.1706 515.3 45.3716C522.687 50.0596 522.546 60.6536 522.454 67.6646C522.193 87.2626 519.119 104.066 513.316 117.608C507.478 131.228 502.52 146.664 511.366 172.22C518.519 192.884 526.868 214.612 539.425 233.519C541.756 237.029 544.196 240.42 546.736 243.682C550.871 244.16 553.299 243.94 553.352 243.935C553.44 243.925 553.534 243.921 553.623 243.926C554.38 243.956 629.564 246.883 644.169 243.962C646.676 243.461 652.372 241.557 651.121 234.723C650.203 229.716 646.661 225.66 643.236 221.737L643.153 221.643C638.677 216.517 633.933 211.445 629.345 206.541C628.198 205.315 627.052 204.089 625.908 202.861L625.664 202.6C621.312 197.934 615.897 192.126 619.351 184.179C621.226 179.866 625.669 178.512 629.667 179.001C629.535 178.777 629.412 178.545 629.3 178.302C628.46 176.493 627.582 172.649 628.803 170.035C631.488 164.281 636.624 160.509 643.657 159.125C653.304 157.228 665.408 160.252 671.808 166.163C672.507 166.808 674.04 168.312 675.334 170.194C676.025 169.222 676.909 168.412 677.955 167.819C680.554 166.349 683.682 166.485 686.537 168.199C687.568 168.817 688.486 169.75 689.243 170.801C690.106 169.553 691.272 168.593 692.703 167.982C696.032 166.557 700.497 167.245 703.563 169.654C703.989 169.988 704.372 170.346 704.71 170.721C706.481 168.647 709.007 168.033 711.287 168.295C716.41 168.879 721.851 173.818 721.468 179.969C721.457 180.131 720.476 195.887 721.469 214.748C721.752 220.13 723.429 224.16 726.453 226.726C731.009 230.591 737.266 229.942 737.328 229.937C737.398 229.929 737.476 229.924 737.547 229.924H834.547C834.636 229.924 834.726 229.931 834.814 229.943C838.169 230.413 841.419 231.026 844.474 231.766C859.473 235.399 871.503 242.63 879.263 252.676C888.737 264.941 892.578 281.53 889.537 297.054C886.903 310.503 877.342 322.698 868.906 333.458C866.877 336.045 864.961 338.49 863.163 340.913C858.763 346.84 854.003 354.003 852.063 362.193C850.532 368.662 847.966 384.965 857.201 396.633C861.179 401.658 866.648 405.526 871.938 409.267C874.99 411.424 878.145 413.655 881.003 416.097C889.46 423.321 899.639 433.315 903.324 446.587C905.06 452.837 905.178 460.092 903.676 468.151C903.539 468.886 903.391 469.619 903.232 470.349C899.756 486.392 891.501 502.768 877.995 520.41C867.669 533.899 854.316 545.565 840.395 553.259C824.319 562.146 807.545 565.78 791.891 563.774C790.236 563.562 788.562 563.271 786.916 562.911C750.199 554.867 731.786 516.456 719.601 491.039C706.209 463.103 694.653 433.819 683.477 405.5C681.905 401.518 680.333 397.536 678.757 393.558C658.966 343.608 659.807 319.771 663.664 301.453C667.826 281.68 676.35 280.059 677.308 279.94C678.363 279.808 679.325 280.556 679.457 281.61C679.586 282.649 678.862 283.598 677.832 283.753C677.597 283.804 670.973 285.419 667.43 302.246C661.114 332.247 670.862 363.181 682.336 392.14C683.913 396.12 685.485 400.103 687.057 404.087C698.208 432.343 709.74 461.562 723.073 489.375C738.144 520.814 755.551 552.099 787.74 559.15C789.276 559.487 790.838 559.758 792.381 559.956C814.603 562.808 847.968 553.299 874.938 518.07C888.092 500.888 896.117 485.011 899.471 469.534C899.621 468.84 899.762 468.145 899.892 467.446C901.285 459.968 901.192 453.297 899.615 447.617C896.209 435.349 886.543 425.892 878.503 419.024C875.778 416.697 872.833 414.614 869.716 412.41C864.204 408.512 858.504 404.482 854.183 399.022C846.945 389.878 844.807 376.131 848.317 361.307C850.43 352.385 855.709 344.495 860.072 338.618C861.901 336.154 863.832 333.691 865.877 331.083C874.045 320.664 883.303 308.856 885.759 296.314C888.59 281.863 885.022 266.429 876.216 255.029C867.096 243.221 853.428 237.896 843.568 235.507C840.675 234.807 837.596 234.224 834.412 233.774H737.645C736.578 233.875 729.514 234.342 723.999 229.691C720.112 226.414 717.967 221.454 717.625 214.95C716.62 195.855 717.616 179.878 717.626 179.722C717.864 175.907 714.179 172.499 710.85 172.119C708.455 171.845 706.933 173.245 706.445 176.164C706.271 177.212 705.276 177.924 704.23 177.746C703.182 177.571 702.474 176.58 702.648 175.531C702.866 174.222 701.825 173.184 701.186 172.681C699.239 171.152 696.243 170.652 694.217 171.521C692.568 172.226 691.619 173.76 691.395 176.079C691.302 177.033 690.522 177.774 689.565 177.817C688.614 177.868 687.765 177.193 687.587 176.252C687.254 174.489 685.838 172.269 684.556 171.5C682.901 170.505 681.23 170.389 679.852 171.169C678.361 172.013 677.472 173.762 677.472 175.848C677.472 176.911 676.61 177.773 675.547 177.773C674.484 177.773 673.622 176.911 673.622 175.848C673.622 173.944 671.328 170.959 669.197 168.991C664.384 164.547 653.793 161.055 644.4 162.902C640.372 163.695 635 165.858 632.291 171.663C631.774 172.77 632.136 175.269 632.791 176.681C634.437 180.226 639.914 178.746 641.553 178.208C642.903 177.764 644.328 177.07 645.836 176.336C650.834 173.901 657.678 170.569 662.481 178.705C663.819 180.97 664.562 183.789 664.753 187.321L664.778 187.78C665.096 193.524 665.755 205.477 656.82 206.754C647.248 208.128 639.728 194.478 637.256 189.994C635.216 186.293 633.62 183.807 630.159 182.993C627.608 182.393 624.171 182.745 622.881 185.714C620.433 191.346 624.341 195.538 628.479 199.975L628.724 200.237C629.866 201.463 631.011 202.687 632.156 203.911C636.766 208.839 641.533 213.935 646.052 219.11L646.135 219.205C649.728 223.319 653.799 227.981 654.907 234.03C656.163 240.892 652.245 246.273 644.924 247.736C630.037 250.714 558.169 247.957 553.597 247.777C553.174 247.813 551.956 247.891 550.07 247.821C554.192 252.766 558.554 257.384 563.121 261.634C569.512 267.583 581.409 278.656 592.919 280.961C594.802 281.338 597.056 281.62 599.263 281.49C599.195 280.647 599.099 279.765 599 278.846C598.461 273.858 597.85 268.205 601.087 263.718C602.367 261.945 604.337 260.951 606.235 261.136C608.165 261.318 609.93 262.692 610.84 264.721C613.409 270.448 612.78 279.012 607.285 282.859C606.137 283.663 604.817 284.275 603.343 284.693C603.355 284.856 603.368 285.02 603.381 285.185C603.928 292.24 604.61 301.021 598.196 306.229C589.858 312.999 577.201 312.168 566.035 311.433C561.613 311.143 557.437 310.869 553.853 311.074C545.795 311.537 540.719 316.58 540.918 323.92C541.126 331.57 545.974 337.793 550.662 343.81C551.464 344.839 552.261 345.864 553.034 346.89C559.006 354.825 561.715 364.5 561.317 376.464C561.188 380.346 560.74 384.817 558.404 388.542C554.778 394.323 546.981 397.774 537.547 397.774H444.547C444.372 397.767 434.771 397.478 428.366 403.646C424.455 407.411 422.472 412.863 422.472 419.849V512.849C422.472 512.923 422.467 512.997 422.459 513.07C422.449 513.163 421.45 522.864 427.619 529.757C431.875 534.513 438.58 536.924 447.547 536.924H546.193C556.465 536.918 567.073 536.918 576.665 541.036C590.561 547.002 594.839 563.716 591.883 577.144C588.144 594.133 571.818 601.973 555.691 601.973" fill="#041D72"/>
<path fill-rule="evenodd" clip-rule="evenodd" d="M581.547 207.774C580.484 207.774 579.622 206.912 579.622 205.849V30.8486C579.622 23.1706 585.869 16.9236 593.547 16.9236H769.547C777.225 16.9236 783.472 23.1706 783.472 30.8486V161.924H807.547C811.326 161.924 818.472 164.208 818.472 172.849C818.472 181.491 811.326 183.774 807.547 183.774H719.547C718.484 183.774 717.622 182.912 717.622 181.849C717.622 180.786 718.484 179.924 719.547 179.924H807.547C808.263 179.918 814.622 179.66 814.622 172.849C814.622 165.972 808.271 165.774 807.547 165.774H781.547C780.484 165.774 779.622 164.912 779.622 163.849V30.8486C779.622 25.2936 775.103 20.7736 769.547 20.7736H593.547C587.991 20.7736 583.472 25.2936 583.472 30.8486V205.849C583.472 206.912 582.61 207.774 581.547 207.774" fill="#041D72"/>
<path fill-rule="evenodd" clip-rule="evenodd" d="M754.547 156.849H609.547C602.947 156.849 597.547 151.449 597.547 144.849V43.8489C597.547 37.2489 602.947 31.8489 609.547 31.8489H754.547C761.147 31.8489 766.547 37.2489 766.547 43.8489V144.849C766.547 151.449 761.147 156.849 754.547 156.849" fill="#041D72"/>
<path fill-rule="evenodd" clip-rule="evenodd" d="M715.049 478.274C714.93 478.274 714.81 478.263 714.689 478.24C713.645 478.042 712.958 477.035 713.156 475.991C716.551 458.043 731.211 440.963 750.503 432.479C754.778 430.599 759.233 429.045 763.541 427.541C768.943 425.655 774.529 423.706 779.686 421.127C785.756 418.092 790.005 412.295 791.051 405.62C792.336 397.423 787.195 392.383 782.656 389.598C779.066 387.394 774.853 386.093 770.393 384.716C763.409 382.56 756.188 380.33 751.273 374.331C746.736 368.792 745.714 361.355 748.54 354.436C748.91 353.529 749.474 352.385 750.554 351.586C752.858 349.88 755.878 350.679 758.303 351.321C759.04 351.516 759.737 351.701 760.262 351.771C763.027 352.143 765.995 352.077 769.084 351.58C775.052 350.616 780.641 348.154 784.821 344.649C785.443 344.128 785.813 343.63 785.835 343.284C785.835 343.279 785.836 343.274 785.837 343.272C785.616 343.141 784.869 342.904 783.328 343.001C782.124 343.077 780.925 343.165 779.731 343.252C775.538 343.558 771.204 343.871 766.806 343.699C762.857 343.541 754.639 343.213 752.721 337.457C751.853 334.854 753.28 332.596 754.66 330.413C755.483 329.111 756.334 327.765 756.68 326.382C756.763 326.05 756.804 325.587 756.382 324.944C755.206 323.15 751.528 321.463 747.231 320.747C744.615 320.312 742.871 319.216 742.048 317.492C740.545 314.346 742.718 310.5 744.465 307.41L744.811 306.795C747.948 301.186 751.417 295.614 755.12 290.233C762.501 279.511 770.877 269.428 780.015 260.266C791.299 248.95 804.089 236.125 820.638 230.174C833.209 225.653 847.828 223.986 866.643 224.926C900.373 226.621 902.612 207.851 902.632 207.662C902.735 206.603 903.688 205.83 904.734 205.933C905.792 206.036 906.566 206.978 906.463 208.036C906.372 208.96 903.823 230.635 866.451 228.771C848.162 227.859 834.017 229.454 821.941 233.796C806.205 239.455 793.739 251.956 782.74 262.984C773.766 271.982 765.54 281.885 758.291 292.416C754.655 297.699 751.25 303.169 748.171 308.673L747.816 309.304C746.718 311.245 744.882 314.495 745.522 315.833C745.85 316.52 747.13 316.828 747.863 316.95C749.939 317.296 756.919 318.743 759.601 322.834C760.517 324.23 760.798 325.78 760.414 327.316C759.919 329.299 758.854 330.983 757.914 332.47C756.972 333.96 756.082 335.368 756.373 336.24C757.45 339.473 763.873 339.729 766.96 339.852C771.137 340.02 775.176 339.724 779.45 339.413C780.657 339.325 781.867 339.236 783.083 339.159C785.638 338.997 787.501 339.476 788.612 340.587C789.382 341.357 789.75 342.375 789.676 343.529C789.584 344.982 788.782 346.352 787.294 347.6C782.59 351.544 776.341 354.307 769.698 355.38C766.235 355.94 762.888 356.009 759.749 355.586C758.985 355.483 758.175 355.269 757.318 355.042C755.774 354.633 753.66 354.074 752.844 354.68C752.528 354.914 752.271 355.483 752.104 355.891C749.82 361.482 750.623 367.462 754.251 371.891C758.431 376.994 764.793 378.958 771.529 381.038C776.021 382.425 780.665 383.859 784.67 386.316C792.496 391.119 796.112 398.187 794.854 406.216C793.615 414.119 788.589 420.98 781.407 424.57C776.03 427.259 770.326 429.25 764.809 431.175C760.571 432.654 756.189 434.184 752.053 436.003C733.888 443.991 720.105 459.968 716.938 476.707C716.763 477.63 715.956 478.274 715.049 478.274" fill="#041D72"/>
<path fill-rule="evenodd" clip-rule="evenodd" d="M892.625 240.263C889.681 240.263 886.736 239.729 883.869 238.65C882.874 238.276 882.371 237.165 882.746 236.171C883.119 235.177 884.229 234.671 885.225 235.047C893.493 238.158 900.431 235.469 904.796 232.665C913 227.396 918.959 217.369 919.627 207.716C919.7 206.656 920.619 205.856 921.68 205.929C922.74 206.002 923.541 206.921 923.467 207.981C922.72 218.788 916.053 230.01 906.876 235.904C902.375 238.795 897.502 240.263 892.625 240.263" fill="#041D72"/>
<path fill-rule="evenodd" clip-rule="evenodd" d="M850.596 329.849C850.163 329.849 849.723 329.819 849.274 329.754C845.79 329.257 842.676 326.878 841.525 323.836C840.566 321.3 841.074 318.687 842.955 316.478C845.009 314.067 849.052 312.99 852.155 314.023C853.163 314.359 853.709 315.449 853.373 316.457C853.036 317.467 851.944 318.01 850.938 317.675C849.301 317.129 846.939 317.737 845.886 318.974C844.928 320.099 844.672 321.276 845.125 322.474C845.774 324.188 847.748 325.648 849.818 325.944C854.658 326.632 858.835 320.253 861.083 316.826C864.241 312.011 866.504 306.477 867.628 300.822C868.666 295.594 870.6 285.865 865.851 282.122C864.197 280.819 861.795 280.996 860.099 281.594C857.2 282.617 854.253 285.29 851.133 288.12C845.299 293.412 838.685 299.412 830.426 295.485C826.64 293.685 824.251 290.583 823.516 286.515C821.914 277.647 828.368 266.086 833.234 261.064C841.359 252.68 853.529 247.401 865.79 246.943C870.691 246.759 876.058 247.25 881.742 247.771C897.514 249.215 913.827 250.708 922.849 238.312C925.12 235.192 926.457 231.658 927.872 227.915C928.897 225.207 929.956 222.406 931.407 219.745C934.938 213.273 939.8 210.801 944.414 213.131C945.363 213.61 945.744 214.768 945.264 215.717C944.785 216.666 943.627 217.045 942.679 216.567C939.167 214.796 936.225 218.951 934.787 221.588C933.462 224.016 932.496 226.572 931.473 229.277C930.03 233.093 928.537 237.038 925.962 240.578C915.654 254.74 897.451 253.074 881.391 251.604C875.835 251.096 870.587 250.614 865.933 250.789C854.64 251.212 843.45 256.054 835.999 263.743C831.629 268.252 826.018 278.712 827.304 285.83C827.824 288.707 829.385 290.728 832.078 292.008C838.01 294.828 843.128 290.185 848.547 285.269C851.811 282.307 855.187 279.245 858.818 277.964C862.214 276.765 865.822 277.2 868.233 279.098C874.836 284.301 872.603 295.536 871.403 301.572C870.184 307.708 867.729 313.713 864.302 318.937C861.753 322.823 857.143 329.849 850.596 329.849" fill="#041D72"/>
<path fill-rule="evenodd" clip-rule="evenodd" d="M852.545 311.774C851.531 311.774 850.683 310.982 850.625 309.957C850.566 308.895 851.378 307.987 852.44 307.927C855.541 307.754 857.687 305.715 859.4 301.317C860.74 297.876 861.136 295.101 860.487 293.706C860.268 293.236 859.929 292.944 859.387 292.76C857.312 292.05 855.517 296.131 855.319 296.599C854.905 297.578 853.777 298.035 852.797 297.622C851.818 297.208 851.36 296.078 851.774 295.099C853.826 290.249 857.218 287.956 860.627 289.116C862.157 289.637 863.316 290.662 863.977 292.081C865.115 294.526 864.782 298.104 862.987 302.714C862.152 304.858 859.611 311.382 852.654 311.771C852.618 311.773 852.582 311.774 852.545 311.774" fill="#041D72"/>
<path fill-rule="evenodd" clip-rule="evenodd" d="M824.047 321.849C824.047 329.305 818.003 335.349 810.547 335.349C803.091 335.349 797.047 329.305 797.047 321.849C797.047 314.393 803.091 308.349 810.547 308.349C818.003 308.349 824.047 314.393 824.047 321.849" fill="#041D72"/>
<path fill-rule="evenodd" clip-rule="evenodd" d="M829.047 445.849C829.047 447.23 827.927 448.349 826.547 448.349C825.166 448.349 824.047 447.23 824.047 445.849C824.047 444.469 825.166 443.349 826.547 443.349C827.927 443.349 829.047 444.469 829.047 445.849" fill="#041D72"/>
<path fill-rule="evenodd" clip-rule="evenodd" d="M824.047 477.182C824.047 478.563 822.927 479.682 821.547 479.682C820.166 479.682 819.047 478.563 819.047 477.182C819.047 475.801 820.166 474.682 821.547 474.682C822.927 474.682 824.047 475.801 824.047 477.182" fill="#041D72"/>
<path fill-rule="evenodd" clip-rule="evenodd" d="M821.047 492.849C821.047 494.23 819.927 495.349 818.547 495.349C817.166 495.349 816.047 494.23 816.047 492.849C816.047 491.469 817.166 490.349 818.547 490.349C819.927 490.349 821.047 491.469 821.047 492.849" fill="#041D72"/>
<path fill-rule="evenodd" clip-rule="evenodd" d="M827.047 461.516C827.047 462.896 825.927 464.016 824.547 464.016C823.166 464.016 822.047 462.896 822.047 461.516C822.047 460.135 823.166 459.016 824.547 459.016C825.927 459.016 827.047 460.135 827.047 461.516" fill="#041D72"/>
<path fill-rule="evenodd" clip-rule="evenodd" d="M785.772 290.793C786.676 287.319 790.226 285.235 793.7 286.14C794.938 286.462 795.995 287.125 796.808 287.996C797.413 284.679 795.371 281.408 792.056 280.545C788.582 279.641 785.032 281.724 784.128 285.198C783.546 287.434 784.207 289.697 785.673 291.27C785.703 291.111 785.731 290.952 785.772 290.793" fill="#041D72"/>
<path fill-rule="evenodd" clip-rule="evenodd" d="M808.047 282.274C797.513 282.274 784.425 272.299 783.874 271.875C783.031 271.227 782.874 270.019 783.521 269.176C784.169 268.334 785.378 268.176 786.22 268.823C786.345 268.919 798.826 278.424 808.047 278.424C809.11 278.424 809.972 279.286 809.972 280.349C809.972 281.412 809.11 282.274 808.047 282.274" fill="#041D72"/>
<path fill-rule="evenodd" clip-rule="evenodd" d="M826.547 430.774C799.93 430.774 788.678 417.134 788.213 416.554C787.547 415.725 787.68 414.513 788.509 413.848C789.337 413.183 790.545 413.315 791.211 414.14C791.318 414.271 801.896 426.924 826.547 426.924C843.062 426.924 855.986 420.941 866.057 408.63C866.73 407.808 867.944 407.687 868.766 408.359C869.589 409.033 869.71 410.245 869.037 411.068C858.339 424.144 844.043 430.774 826.547 430.774" fill="#041D72"/>
<path fill-rule="evenodd" clip-rule="evenodd" d="M563.047 524.349H450.047C443.447 524.349 438.047 518.949 438.047 512.349V423.349C438.047 416.749 443.447 411.349 450.047 411.349H563.047C569.647 411.349 575.047 416.749 575.047 423.349V512.349C575.047 518.949 569.647 524.349 563.047 524.349" fill="#FF5A00"/>
<path fill-rule="evenodd" clip-rule="evenodd" d="M579.213 450.334C571.964 450.334 565.118 446.884 558.405 443.501C554.76 441.664 550.991 439.765 547.185 438.432C536.422 434.664 529.38 442.136 526.142 446.927C525.546 447.807 524.351 448.039 523.469 447.444C522.588 446.848 522.357 445.652 522.952 444.771C529.519 435.058 538.815 431.421 548.457 434.799C552.5 436.214 556.382 438.171 560.137 440.063C571.292 445.685 580.925 450.539 592.34 441.35C593.168 440.683 594.379 440.813 595.046 441.642C595.713 442.47 595.582 443.682 594.754 444.349C589.329 448.715 584.176 450.334 579.213 450.334" fill="#041D72"/>
<path fill-rule="evenodd" clip-rule="evenodd" d="M579.213 465.334C571.964 465.334 565.118 461.884 558.405 458.501C554.76 456.664 550.991 454.765 547.185 453.432C536.422 449.663 529.38 457.136 526.142 461.927C525.546 462.807 524.351 463.039 523.469 462.444C522.588 461.848 522.357 460.652 522.952 459.771C529.519 450.058 538.815 446.421 548.457 449.799C552.5 451.214 556.382 453.171 560.137 455.063C571.292 460.684 580.925 465.539 592.34 456.35C593.168 455.683 594.379 455.813 595.046 456.642C595.713 457.47 595.582 458.682 594.754 459.349C589.329 463.715 584.176 465.334 579.213 465.334" fill="#041D72"/>
<path fill-rule="evenodd" clip-rule="evenodd" d="M462.047 507.849C462.047 512.543 458.241 516.349 453.547 516.349C448.852 516.349 445.047 512.543 445.047 507.849C445.047 503.155 448.852 499.349 453.547 499.349C458.241 499.349 462.047 503.155 462.047 507.849" fill="white"/>
<path fill-rule="evenodd" clip-rule="evenodd" d="M492.047 507.849C492.047 512.543 488.241 516.349 483.547 516.349C478.852 516.349 475.047 512.543 475.047 507.849C475.047 503.155 478.852 499.349 483.547 499.349C488.241 499.349 492.047 503.155 492.047 507.849" fill="white"/>
<path fill-rule="evenodd" clip-rule="evenodd" d="M522.047 507.849C522.047 512.543 518.241 516.349 513.547 516.349C508.852 516.349 505.047 512.543 505.047 507.849C505.047 503.155 508.852 499.349 513.547 499.349C518.241 499.349 522.047 503.155 522.047 507.849" fill="white"/>
<path fill-rule="evenodd" clip-rule="evenodd" d="M279.813 489.208C270.605 489.208 262.245 480.637 254.102 472.287C246.422 464.413 238.481 456.271 230.522 456.272C226.602 456.272 222.809 458.209 218.926 462.192C218.66 462.458 212.767 468.285 206.682 467.852C204.027 467.664 201.781 466.369 200.008 464.003C199.37 463.153 199.542 461.947 200.393 461.309C201.242 460.67 202.449 460.843 203.087 461.694C204.177 463.146 205.442 463.905 206.955 464.012C210.567 464.283 214.841 460.833 216.187 459.488C220.814 454.74 225.509 452.423 230.521 452.423H230.523C240.104 452.423 248.621 461.155 256.857 469.599C266.694 479.685 275.986 489.209 285.857 483.653C289.71 481.483 292.004 478.337 292.87 474.033C295.863 459.153 280.338 434.191 270.692 421.788C269.398 420.125 268.093 418.469 266.788 416.813C258.913 406.823 250.77 396.492 245.326 384.476C236.867 365.808 238.535 350.439 250.574 336.11C251.258 335.296 252.471 335.19 253.286 335.875C254.099 336.559 254.205 337.773 253.521 338.587C242.396 351.828 240.95 365.491 248.832 382.887C254.083 394.477 262.079 404.621 269.812 414.43C271.122 416.092 272.432 417.754 273.731 419.425C275.878 422.187 283.351 432.115 289.321 443.906C295.75 456.6 298.213 466.992 296.644 474.792C295.56 480.184 292.566 484.293 287.746 487.007C285.026 488.539 282.387 489.208 279.813 489.208" fill="#041D72"/>
<path fill-rule="evenodd" clip-rule="evenodd" d="M176.995 462.239C176.776 462.239 176.559 462.23 176.343 462.212C174.768 462.081 173.425 461.45 172.56 460.437C171.144 458.777 170.873 456.335 171.915 454.631C177.903 444.849 184.567 437.377 192.889 431.115C203.793 422.912 213.494 418.925 222.546 418.925C233.892 418.925 252.65 428.729 253.443 429.146C254.384 429.641 254.745 430.805 254.25 431.745C253.755 432.685 252.592 433.046 251.65 432.552C251.465 432.455 232.941 422.774 222.546 422.774C214.359 422.774 205.415 426.509 195.203 434.192C187.281 440.152 180.925 447.285 175.199 456.64C175.046 456.891 175.149 457.54 175.489 457.938C175.681 458.164 176.131 458.332 176.662 458.376C177.941 458.484 179.386 457.982 180.734 456.966C182.827 455.39 184.349 453.19 185.96 450.861C187.227 449.03 188.537 447.137 190.186 445.489C196.332 439.342 200.496 436.223 206.686 433.128C207.637 432.652 208.793 433.038 209.268 433.989C209.744 434.939 209.358 436.095 208.408 436.571C202.563 439.493 198.797 442.322 192.908 448.21C191.505 449.614 190.349 451.283 189.126 453.051C187.412 455.529 185.639 458.091 183.05 460.041C181.149 461.471 179.023 462.239 176.995 462.239" fill="#041D72"/>
<path fill-rule="evenodd" clip-rule="evenodd" d="M190.938 461.809C189.009 461.809 186.995 461.183 185.561 460.014C183.801 458.58 183.118 456.518 183.686 454.359C183.957 453.331 185.01 452.717 186.037 452.987C187.065 453.258 187.679 454.31 187.409 455.338C187.278 455.833 187.246 456.421 187.993 457.03C189.111 457.941 191.291 458.247 192.477 457.659C194.661 456.576 196.303 454.491 198.042 452.284C198.866 451.237 199.72 450.153 200.644 449.176C203.891 445.743 207.561 442.741 211.551 440.252C212.455 439.691 213.641 439.966 214.203 440.867C214.766 441.768 214.49 442.956 213.588 443.518C209.876 445.833 206.462 448.627 203.441 451.821C202.636 452.672 201.873 453.641 201.065 454.666C199.14 457.111 197.148 459.639 194.188 461.107C193.233 461.581 192.101 461.809 190.938 461.809" fill="#041D72"/>
<path fill-rule="evenodd" clip-rule="evenodd" d="M199.528 464.86C196.801 464.86 193.507 463.466 192.659 459.227C192.451 458.184 193.127 457.171 194.169 456.962C195.211 456.752 196.225 457.429 196.434 458.472C197.026 461.434 199.649 461.065 200.169 460.962C202.695 460.328 203.939 458.974 205.66 457.1C206.142 456.575 206.64 456.034 207.186 455.488C212.358 450.317 215.587 449.14 215.938 449.023C216.944 448.688 218.036 449.232 218.373 450.24C218.706 451.242 218.171 452.324 217.176 452.668C217.086 452.702 214.366 453.752 209.907 458.21C209.402 458.716 208.942 459.218 208.495 459.704C206.653 461.709 204.749 463.783 201.013 464.716C200.553 464.809 200.051 464.86 199.528 464.86" fill="#041D72"/>
<path fill-rule="evenodd" clip-rule="evenodd" d="M447.547 601.774C447.345 601.774 447.141 601.742 446.939 601.675C445.93 601.338 445.384 600.249 445.72 599.24C448.216 591.754 442.658 587.583 442.421 587.409C442.381 587.379 442.332 587.342 442.294 587.31C435.73 581.684 424.195 578.745 424.079 578.716C423.249 578.508 422.657 577.777 422.625 576.922C422.592 576.067 423.127 575.294 423.939 575.023C434.158 571.619 446.6 575.271 454.839 579.824L455.12 579.98C457.347 581.214 459.644 582.486 461.859 582.307C462.258 582.274 462.943 582.158 463.03 581.758C463.198 580.987 462.313 579.237 460.273 578.088C457.111 576.307 453.601 575.044 450.276 573.903C435.089 568.688 417.765 568.894 402.741 574.468C398.819 575.924 394.9 577.387 390.982 578.849C378.633 583.46 365.864 588.227 353.182 592.666C345.839 595.236 339.824 595.673 334.249 594.041C314.477 588.256 306.015 561.243 304.689 537.891C303.879 523.623 303.757 507.299 308.995 494.41C313.677 482.888 323.691 481.924 333.547 481.924C336.306 481.924 339.117 481.971 341.836 482.016C347.074 482.103 352.49 482.192 357.747 481.951C366.253 481.56 372.3 478.953 375.721 474.203C380.588 467.446 379.544 460.255 378.44 452.642C377.782 448.109 377.102 443.423 377.633 438.637C378.009 435.26 379.303 432.78 381.482 431.265C384.444 429.206 387.997 429.769 388.836 429.941C389.524 430.001 390.222 430.065 390.93 430.129C396.154 430.605 402.076 431.145 407.025 429.995C408.486 429.655 409.66 428.974 410.331 428.076C411.675 426.274 411.181 423.533 410.272 421.567C407.958 416.571 404.763 411.621 401.671 406.833C399.984 404.219 398.237 401.516 396.664 398.848C382.225 374.354 365.787 350.119 337.819 346.299C318.443 343.652 303.316 353.685 287.298 364.306C275.367 372.216 263.03 380.396 248.682 383.015C233.88 385.715 219.182 377.917 203.749 359.168C194.373 347.776 185.897 336.224 185.174 320.193C184.63 308.142 189.082 295.85 198.044 284.647C210.305 269.32 217.44 241.57 214.639 220.098C211.104 192.992 193.608 180.097 162.651 181.771C128.111 183.638 107.471 217.851 107.471 249.849C107.471 263.92 111.354 277.378 119.011 289.847C120.421 292.141 121.942 294.474 123.414 296.729C129.193 305.588 135.169 314.749 137.057 325.426C138.15 331.601 137.532 337.223 135.272 341.685C132.327 347.499 124.328 353.774 116.542 353.774H59.5475C58.4845 353.774 57.6225 352.912 57.6225 351.849C57.6225 350.786 58.4845 349.924 59.5475 349.924H116.542C122.577 349.924 129.448 344.665 131.839 339.945C134.215 335.255 133.926 329.826 133.266 326.097C131.515 316.193 125.757 307.368 120.19 298.833C118.704 296.555 117.168 294.201 115.731 291.861C107.696 278.777 103.622 264.642 103.622 249.849C103.622 216.058 125.624 179.917 162.443 177.927C203.963 175.684 215.814 199.351 218.455 219.6C221.377 241.998 213.894 270.996 201.049 287.051C192.559 297.664 188.512 308.756 189.02 320.02C189.69 334.887 197.433 345.437 206.721 356.721C221.186 374.295 234.684 381.657 247.992 379.228C261.562 376.751 273.564 368.793 285.171 361.097C301.079 350.549 317.523 339.646 338.34 342.484C368.013 346.538 385.063 371.586 399.982 396.893C401.515 399.494 403.238 402.164 404.905 404.745C408.069 409.644 411.339 414.71 413.766 419.95C415.548 423.799 415.416 427.698 413.415 430.378C411.859 432.462 409.556 433.359 407.896 433.745C402.342 435.035 396.093 434.464 390.581 433.962C389.838 433.895 389.104 433.828 388.383 433.767C388.281 433.758 388.18 433.741 388.081 433.716C388.066 433.712 385.518 433.13 383.659 434.441C382.446 435.295 381.706 436.851 381.461 439.062C380.983 443.358 381.627 447.796 382.25 452.089C383.416 460.124 384.62 468.433 378.845 476.453C374.702 482.205 367.664 485.348 357.924 485.796C352.547 486.044 347.069 485.953 341.772 485.865C339.069 485.82 336.275 485.774 333.547 485.774C322.346 485.774 316.026 487.333 312.561 495.859C307.611 508.041 307.748 523.833 308.533 537.673C308.965 545.286 312.288 583.605 335.329 590.347C340.094 591.74 345.363 591.323 351.911 589.032C364.555 584.607 377.305 579.846 389.635 575.243C393.555 573.779 397.476 572.316 401.401 570.859C417.243 564.982 435.514 564.765 451.526 570.262C455.019 571.461 458.718 572.794 462.163 574.733C465.488 576.607 467.392 579.833 466.792 582.58C466.349 584.608 464.623 585.94 462.177 586.143C458.809 586.433 455.727 584.718 453.254 583.347L452.975 583.193C447.462 580.146 439.943 577.521 432.763 577.521H432.685C436.575 579.067 441.209 581.33 444.737 584.335C447.564 586.399 452.079 592.341 449.374 600.458C449.105 601.264 448.353 601.774 447.547 601.774" fill="#041D72"/>
<path fill-rule="evenodd" clip-rule="evenodd" d="M440.547 609.774C439.484 609.774 438.622 608.912 438.622 607.849C438.622 606.786 439.484 605.924 440.547 605.924C442.131 605.924 443.622 603.066 443.622 600.849C443.622 599.073 443.622 597.539 437.686 594.571C431.844 591.649 423.95 588.681 423.871 588.651C422.876 588.278 422.372 587.169 422.745 586.173C423.119 585.179 424.226 584.673 425.223 585.047C425.553 585.171 433.387 588.117 439.408 591.128C445.437 594.142 447.472 596.595 447.472 600.849C447.472 604.497 445.006 609.774 440.547 609.774" fill="#041D72"/>
<path fill-rule="evenodd" clip-rule="evenodd" d="M321.517 627.675C312.817 627.675 303.972 625.967 296.022 622.572C283.301 617.139 273.794 607.828 269.253 596.355C259.424 571.523 260.246 536.188 281.13 519.612C300.185 504.487 333.372 506.99 354.448 518.148C355.387 518.645 355.746 519.81 355.248 520.749C354.751 521.689 353.586 522.048 352.647 521.55C327.2 508.079 297.518 511.52 283.523 522.627C264.093 538.049 263.513 571.394 272.832 594.938C276.993 605.448 285.766 614.006 297.535 619.032C311.726 625.092 328.932 625.443 342.438 619.946C347.126 618.037 351.837 615.934 356.392 613.899C366.993 609.165 377.955 604.27 389.596 601.389C405.382 597.482 418.742 599.638 428.228 607.626C428.512 607.865 428.807 608.12 429.111 608.383C432.951 611.707 434.994 612.868 436.95 610.966C438.554 609.408 437.691 607.488 437.034 606.483C433.608 601.244 426.635 598.329 420.482 595.757C419.56 595.371 418.656 594.993 417.784 594.615C416.808 594.194 416.359 593.061 416.781 592.085C417.202 591.109 418.334 590.66 419.311 591.082C420.169 591.453 421.059 591.825 421.968 592.205C428.631 594.991 436.183 598.149 440.255 604.377C442.413 607.676 442.173 611.259 439.632 613.728C434.813 618.406 429.465 613.78 426.592 611.294C426.302 611.043 426.02 610.799 425.749 610.571C417.122 603.307 405.268 601.477 390.521 605.125C379.212 607.925 368.409 612.749 357.962 617.414C353.377 619.462 348.637 621.578 343.89 623.511C337.058 626.292 329.346 627.675 321.517 627.675" fill="#041D72"/>
<path fill-rule="evenodd" clip-rule="evenodd" d="M388.549 463.774C388.506 463.774 388.463 463.773 388.419 463.77C373.013 462.743 359.923 452.797 359.374 452.375C358.531 451.727 358.374 450.52 359.021 449.677C359.668 448.835 360.876 448.675 361.719 449.323C361.845 449.42 374.459 458.981 388.675 459.929C389.736 460 390.538 460.917 390.467 461.977C390.4 462.994 389.553 463.774 388.549 463.774" fill="#041D72"/>
<path fill-rule="evenodd" clip-rule="evenodd" d="M354.23 369.351C352.832 369.351 351.074 368.9 349.265 367.284C348.472 366.576 348.403 365.359 349.111 364.566C349.82 363.773 351.037 363.705 351.829 364.413C353.142 365.585 354.109 365.569 354.725 365.456C358.823 364.695 363.282 356.012 365.677 351.347C366.427 349.887 367.019 348.733 367.517 347.927C370.46 343.162 375.254 336.817 382.876 336.723C385.812 336.676 388.597 337.288 391.297 337.872C393.806 338.413 396.175 338.924 398.547 338.924C400.681 338.924 403.622 336.562 403.622 334.849C403.622 333.786 404.484 332.924 405.547 332.924C406.61 332.924 407.472 333.786 407.472 334.849C407.472 339.042 402.481 342.773 398.547 342.773C395.764 342.773 393.081 342.194 390.485 341.635C387.879 341.072 385.418 340.537 382.924 340.572C378.566 340.626 374.711 343.605 370.792 349.95C370.374 350.627 369.784 351.775 369.102 353.105C366.028 359.09 361.384 368.135 355.428 369.241C355.07 369.307 354.667 369.351 354.23 369.351" fill="#041D72"/>
<path fill-rule="evenodd" clip-rule="evenodd" d="M305.452 437.809C305.214 437.809 304.973 437.801 304.729 437.784C296.974 437.251 294.229 427.793 293.327 424.685C291.163 417.231 289.21 409.223 289.568 401.171C289.674 398.778 290.026 395.703 291.819 393.152C296.745 386.146 305.928 387.219 312.634 388C313.191 388.066 313.738 388.129 314.27 388.187C335.628 390.522 352.767 385.15 366.668 371.768C370.595 367.988 372.825 363.354 375.184 358.45C376.212 356.314 377.274 354.107 378.498 351.939C379.076 350.916 379.897 349.614 381.128 348.623C383.92 346.374 387.753 346.809 390.043 349.638C390.711 350.464 390.584 351.676 389.758 352.345C388.933 353.013 387.72 352.888 387.051 352.06C386.095 350.879 384.685 350.703 383.542 351.621C382.826 352.199 382.285 353.063 381.85 353.832C380.688 355.89 379.654 358.039 378.653 360.119C376.249 365.115 373.764 370.281 369.338 374.541C354.769 388.566 336.105 394.444 313.852 392.015C313.311 391.955 312.755 391.891 312.188 391.824C305.808 391.08 298.576 390.235 294.969 395.366C293.748 397.101 293.496 399.472 293.413 401.342C293.08 408.837 294.952 416.475 297.024 423.612C298.974 430.33 301.58 433.709 304.993 433.943C306.562 434.055 307.765 433.638 308.683 432.682C310.607 430.676 310.936 426.784 310.634 424.061C310.516 423.005 311.278 422.054 312.334 421.936C313.393 421.823 314.343 422.58 314.46 423.637C314.66 425.441 315.036 431.618 311.461 435.346C309.909 436.965 307.843 437.809 305.452 437.809" fill="#041D72"/>
<path fill-rule="evenodd" clip-rule="evenodd" d="M305.807 422.113C304.025 422.113 302.376 421.475 301.109 420.281C299.976 419.214 299.417 417.853 299.019 416.662C298.211 414.245 297.103 406.2 300.892 403.048C302.297 401.879 304.854 400.975 309.054 403.298C309.984 403.812 310.321 404.983 309.807 405.913C309.292 406.842 308.122 407.18 307.191 406.666C306.152 406.091 304.272 405.241 303.354 406.007C301.65 407.425 301.896 413.129 302.67 415.442C302.916 416.178 303.237 416.997 303.749 417.48C304.379 418.072 305.182 418.334 306.129 418.25C307.356 418.144 308.646 417.453 309.338 416.531C309.977 415.681 311.183 415.509 312.033 416.147C312.883 416.785 313.055 417.991 312.417 418.842C311.066 420.642 308.783 421.885 306.459 422.085C306.24 422.104 306.022 422.113 305.807 422.113" fill="#041D72"/>
<path fill-rule="evenodd" clip-rule="evenodd" d="M357.545 395.711C356.498 395.711 355.64 394.872 355.621 393.821C355.602 392.758 356.448 391.881 357.511 391.862C363.122 391.761 367.606 389.849 372.884 387.358C378.477 384.721 383.631 385.544 387.025 389.616C387.706 390.433 387.596 391.647 386.779 392.327C385.963 393.007 384.75 392.898 384.068 392.081C381.229 388.674 377.312 389.526 374.527 390.84C369.021 393.437 363.945 395.597 357.58 395.711C357.568 395.711 357.557 395.711 357.545 395.711" fill="#041D72"/>
<path fill-rule="evenodd" clip-rule="evenodd" d="M367.541 408.756C364.967 408.756 362.619 408.276 360.899 407.662C359.898 407.304 359.377 406.203 359.734 405.202C360.092 404.203 361.191 403.683 362.189 404.035C362.695 404.213 374.624 408.255 379.799 397.043C380.245 396.077 381.388 395.655 382.354 396.102C383.319 396.547 383.74 397.691 383.294 398.656C379.657 406.537 373.075 408.756 367.541 408.756" fill="#041D72"/>
<path fill-rule="evenodd" clip-rule="evenodd" d="M301.486 260.51C300.447 260.51 299.333 260.592 298.124 260.769C294.093 261.363 291.547 265.277 288.85 269.422C287.4 271.652 285.9 273.958 284.107 275.775C279.548 280.393 273.462 281.3 267.577 282.177C260.4 283.246 254.201 284.17 251.301 291.423C249.61 295.65 250.272 300.504 253.116 304.741C256.423 309.669 262.094 312.881 267.563 312.924C267.567 312.924 267.57 312.924 267.574 312.925L267.548 314.849L267.613 312.925C280.266 313.024 293.119 313.261 305.549 313.49C336.663 314.067 368.835 314.661 400.218 313.141C406.018 312.861 410.386 311.591 413.569 309.259C417.207 306.595 418.113 302.773 418.233 300.035C418.464 294.707 415.948 288.786 411.968 285.302C407.023 280.97 400.157 280.881 393.518 280.794C392.248 280.778 390.988 280.761 389.75 280.717C381.095 280.407 376.436 276.438 371.041 271.843C370.257 271.175 369.448 270.487 368.601 269.786C360.999 263.503 350.572 261.248 342.037 264.039C340.248 264.625 338.498 265.499 336.645 266.425C332.554 268.468 328.327 270.583 323.237 269.748C319.459 269.13 316.624 267.165 313.882 265.264C310.371 262.83 307.023 260.51 301.486 260.51M355.485 317.953C338.694 317.953 321.94 317.644 305.478 317.34C293.058 317.11 280.215 316.873 267.637 316.775L267.532 316.774C260.726 316.719 253.977 312.931 249.92 306.886C246.356 301.577 245.556 295.42 247.727 289.993C251.448 280.689 259.715 279.456 267.01 278.369C272.512 277.55 277.71 276.775 281.367 273.071C282.886 271.532 284.215 269.488 285.623 267.323C288.525 262.863 291.814 257.807 297.564 256.961C306.718 255.615 311.69 259.06 316.075 262.1C318.685 263.909 320.939 265.471 323.859 265.949C327.718 266.581 331.219 264.832 334.925 262.981C336.821 262.034 338.781 261.054 340.84 260.381C350.598 257.186 362.458 259.714 371.053 266.819C371.916 267.532 372.738 268.232 373.537 268.912C378.782 273.38 382.572 276.608 389.887 276.87C391.097 276.913 392.327 276.929 393.568 276.945C400.562 277.036 408.491 277.14 414.505 282.405C419.391 286.683 422.364 293.67 422.079 300.203C421.859 305.263 419.644 309.582 415.844 312.364C412.032 315.156 406.983 316.668 400.405 316.986C385.531 317.706 370.493 317.953 355.485 317.953" fill="#041D72"/>
<path fill-rule="evenodd" clip-rule="evenodd" d="M159.594 220.877C157.925 220.877 156.22 220.842 154.469 220.772C129.281 219.764 117.084 212.807 116.577 212.511C115.658 211.976 115.348 210.797 115.884 209.879C116.419 208.961 117.596 208.652 118.514 209.185C118.69 209.285 130.561 215.963 154.624 216.925C178.943 217.902 194.197 212.244 207.269 197.41C207.972 196.613 209.188 196.534 209.986 197.238C210.783 197.941 210.86 199.157 210.157 199.955C197.36 214.478 182.042 220.877 159.594 220.877" fill="#041D72"/>
<path fill-rule="evenodd" clip-rule="evenodd" d="M184.204 261.916C182.187 261.916 180.883 261.103 180.098 260.328C177.667 257.925 177.208 253.212 178.655 245.495C181.651 229.515 187.684 213.335 187.745 213.173C188.118 212.179 189.229 211.674 190.223 212.047C191.218 212.42 191.722 213.529 191.349 214.525C191.29 214.684 185.372 230.562 182.439 246.204C180.864 254.599 182.17 256.963 182.804 257.589C182.98 257.764 183.514 258.292 185.17 257.962C187.624 257.471 189.936 255.744 192.614 253.744C194.665 252.212 196.989 250.476 199.686 249.127C205.044 246.449 211.04 246.103 213.962 247.137C215.122 247.548 215.908 248.192 216.299 249.052C216.739 250.02 216.311 251.161 215.344 251.601C214.45 252.007 213.406 251.673 212.906 250.856C211.76 250.164 206.366 250.091 201.408 252.571C199.017 253.766 196.933 255.323 194.917 256.828C191.993 259.012 189.231 261.075 185.924 261.736C185.3 261.861 184.728 261.916 184.204 261.916" fill="#041D72"/>
<path fill-rule="evenodd" clip-rule="evenodd" d="M149.815 286.614C148.374 286.614 147.105 286.305 145.994 285.689C142.091 283.525 141.446 278.416 140.877 273.908C140.8 273.3 140.724 272.7 140.642 272.121C139.621 264.978 142.507 233.986 142.63 232.67C142.73 231.611 143.67 230.836 144.727 230.933C145.785 231.032 146.563 231.97 146.463 233.029C145.433 244.019 143.687 266.219 144.452 271.577C144.538 272.176 144.616 272.796 144.696 273.426C145.15 277.026 145.666 281.105 147.861 282.323C149.415 283.185 152.141 282.763 155.74 281.102C156.708 280.656 157.849 281.078 158.294 282.043C158.74 283.008 158.319 284.152 157.354 284.597C154.437 285.943 151.939 286.614 149.815 286.614" fill="#041D72"/>
<path fill-rule="evenodd" clip-rule="evenodd" d="M155.54 244.657C154.515 244.657 153.663 243.848 153.619 242.814C153.573 241.752 154.397 240.854 155.459 240.809L173.471 240.042C174.534 239.99 175.431 240.821 175.476 241.883C175.521 242.945 174.697 243.843 173.635 243.888L155.623 244.655C155.596 244.657 155.568 244.657 155.54 244.657" fill="#041D72"/>
<path fill-rule="evenodd" clip-rule="evenodd" d="M133.482 244.477C133.356 244.477 133.228 244.464 133.099 244.438L116.233 241.034C115.191 240.823 114.516 239.808 114.727 238.766C114.937 237.724 115.948 237.049 116.994 237.26L133.861 240.665C134.903 240.875 135.577 241.891 135.367 242.933C135.182 243.846 134.379 244.477 133.482 244.477" fill="#041D72"/>
<path fill-rule="evenodd" clip-rule="evenodd" d="M173.616 234.287C171.199 234.287 168.614 233.442 166.207 232.655C161.899 231.247 157.83 229.917 154.74 232.359C153.905 233.017 152.695 232.875 152.036 232.042C151.377 231.207 151.519 229.997 152.353 229.338C157.064 225.615 162.796 227.49 167.403 228.996C171.751 230.418 174.512 231.162 176.186 229.488C176.937 228.736 178.157 228.736 178.908 229.488C179.659 230.239 179.659 231.458 178.908 232.209C177.369 233.748 175.546 234.287 173.616 234.287" fill="#041D72"/>
<path fill-rule="evenodd" clip-rule="evenodd" d="M116.797 231.797C116.317 231.797 115.823 231.792 115.311 231.786C114.755 231.78 114.171 231.774 113.547 231.774C112.484 231.774 111.622 230.912 111.622 229.849C111.622 228.786 112.484 227.924 113.547 227.924C114.186 227.924 114.785 227.931 115.353 227.937C119.006 227.978 121.015 228 124.602 226.257C128.702 224.267 133.021 224.196 138.192 226.035C139.193 226.392 139.716 227.492 139.36 228.494C139.005 229.495 137.905 230.018 136.902 229.662C132.711 228.171 129.435 228.189 126.283 229.72C122.472 231.571 119.895 231.797 116.797 231.797" fill="#041D72"/>
<path fill-rule="evenodd" clip-rule="evenodd" d="M151.098 307.038C142.24 307.038 134.476 298.536 134.116 298.136C133.405 297.346 133.469 296.129 134.259 295.418C135.048 294.707 136.265 294.769 136.976 295.56C137.081 295.676 145.359 304.697 153.129 302.97C161.485 301.113 166.14 296.534 166.186 296.488C166.937 295.736 168.157 295.736 168.908 296.488C169.66 297.239 169.66 298.458 168.908 299.209C168.687 299.43 163.403 304.63 153.964 306.727C153.002 306.941 152.043 307.038 151.098 307.038" fill="#041D72"/>
<path fill-rule="evenodd" clip-rule="evenodd" d="M130.047 344.682C130.047 344.682 142.547 357.849 158.547 356.849C158.547 356.849 176.547 358.849 196.047 346.349L205.714 358.682C205.714 358.682 183.547 372.849 161.547 371.849C161.547 371.849 131.547 372.849 116.547 351.849C116.547 351.849 127.547 350.515 130.047 344.682" fill="#041D72"/>
<mask id="mask0" mask-type="alpha" maskUnits="userSpaceOnUse" x="0" y="196" width="126" height="241">
<path fill-rule="evenodd" clip-rule="evenodd" d="M0 196.425H125.638V436.274H0V196.425Z" fill="white"/>
</mask>
<g mask="url(#mask0)">
<path fill-rule="evenodd" clip-rule="evenodd" d="M15.047 436.274C14.259 436.274 13.52 435.786 13.236 435.003C12.974 434.276 -12.755 361.671 8.23401 302.703C18.115 274.941 34.609 251.072 57.256 231.759C76.574 215.285 99.378 203.091 123.2 196.494C124.225 196.213 125.285 196.811 125.568 197.835C125.852 198.859 125.252 199.92 124.227 200.204C107.99 204.7 83.624 214.333 59.754 234.688C37.627 253.558 21.512 276.876 11.86 303.994C-8.65999 361.645 16.6 432.982 16.858 433.695C17.218 434.695 16.7 435.798 15.7 436.159C15.484 436.237 15.264 436.274 15.047 436.274" fill="#041D72"/>
</g>
<path fill-rule="evenodd" clip-rule="evenodd" d="M220.65 192.806C210.793 192.806 203.563 192.314 202.912 192.268C201.852 192.194 201.052 191.274 201.127 190.213C201.202 189.153 202.114 188.348 203.182 188.429C203.533 188.453 238.637 190.836 261.061 184.986C283.703 179.079 296.186 173.366 305.888 156.872C311.028 148.134 312.63 137.837 314.179 127.879L314.276 127.257C314.787 123.975 316.342 113.987 325.646 113.716C329.37 113.59 332.942 115.733 334.702 119.133C336.854 123.287 336.456 129.346 336.071 135.206C335.57 142.843 335.097 150.057 339.702 152.287C344.601 154.66 352.427 153.85 358.714 153.198C359.642 153.101 360.532 153.009 361.37 152.932C361.635 152.907 367.815 152.391 371.613 155.858C373.51 157.591 374.472 159.942 374.472 162.848C374.472 168.799 371.361 175.746 362.599 175.773L343.648 176.77C342.582 176.825 341.681 176.011 341.625 174.95C341.569 173.888 342.384 172.982 343.446 172.927L362.446 171.927C362.48 171.925 362.513 171.924 362.547 171.924C364.975 171.924 370.622 171.039 370.622 162.848C370.622 161.049 370.1 159.695 369.026 158.709C366.495 156.385 361.764 156.761 361.716 156.766C360.9 156.841 360.025 156.932 359.111 157.027C352.338 157.728 343.908 158.602 338.024 155.752C331.086 152.392 331.668 143.527 332.23 134.953C332.58 129.62 332.942 124.105 331.284 120.903C330.216 118.841 328 117.512 325.758 117.563C321.536 117.687 319.168 120.859 318.08 127.849L317.983 128.471C316.379 138.785 314.719 149.452 309.206 158.825C298.879 176.38 285.217 182.662 262.033 188.711C249.256 192.044 232.919 192.806 220.65 192.806" fill="#041D72"/>
<path fill-rule="evenodd" clip-rule="evenodd" d="M342.546 196.774C341.519 196.774 340.666 195.962 340.624 194.926C340.582 193.864 341.408 192.968 342.47 192.926C349.369 192.65 367.957 191.763 371.081 190.982C373.695 190.328 375.396 185.649 374.649 181.166C373.864 176.455 367.572 174.549 367.508 174.53C366.491 174.231 365.905 173.163 366.202 172.144C366.499 171.126 367.565 170.541 368.582 170.834C368.936 170.936 377.26 173.419 378.446 180.533C379.413 186.339 377.229 193.413 372.014 194.716C367.94 195.735 345.204 196.669 342.625 196.773C342.598 196.774 342.572 196.774 342.546 196.774" fill="#041D72"/>
<path fill-rule="evenodd" clip-rule="evenodd" d="M342.546 215.774C341.527 215.774 340.676 214.974 340.625 213.945C340.572 212.884 341.39 211.98 342.451 211.927C343.27 211.886 362.557 210.924 367.547 210.924C369.998 210.924 373.819 208.335 374.642 202.577C375.426 197.086 370.87 194.666 370.676 194.565C369.735 194.08 369.358 192.923 369.838 191.98C370.317 191.037 371.463 190.655 372.408 191.128C374.913 192.38 379.399 196.498 378.453 203.121C377.372 210.69 372.027 214.774 367.547 214.774C362.652 214.774 342.843 215.761 342.644 215.772C342.611 215.773 342.578 215.774 342.546 215.774" fill="#041D72"/>
<path fill-rule="evenodd" clip-rule="evenodd" d="M217.714 232.774C216.651 232.774 215.789 231.912 215.789 230.849C215.789 229.786 216.651 228.924 217.714 228.924H258.548C259.449 228.921 349.52 228.587 357.388 227.931C364.008 227.379 369.08 224.894 370.624 221.446C371.611 219.241 371.068 216.738 369.01 214.007C368.371 213.159 368.54 211.952 369.389 211.312C370.237 210.673 371.445 210.841 372.085 211.691C375.778 216.592 375.24 220.556 374.137 223.019C371.988 227.818 365.846 231.089 357.707 231.767C349.689 232.435 262.272 232.76 258.554 232.774H217.714Z" fill="#041D72"/>
<path fill-rule="evenodd" clip-rule="evenodd" d="M108.214 230.773H54.5466C37.2916 230.773 20.7326 220.89 13.3406 206.18C4.0616 187.715 8.1266 159.948 22.2176 145.546C36.0046 131.454 54.6656 131.669 72.7196 131.877C74.4196 131.896 76.1106 131.916 77.7896 131.922C88.2026 131.965 98.7936 131.951 109.037 131.937C114.207 131.93 119.378 131.923 124.547 131.923H202.547C203.358 131.923 204.081 132.431 204.357 133.193C204.633 133.955 204.402 134.808 203.78 135.327L191.949 145.186C191.407 145.933 189.442 149.021 191.908 151.487C194.644 154.222 197.216 153.423 200.48 151.247C202.791 149.706 217.745 137.564 225.329 131.358C225.366 131.328 225.404 131.299 225.444 131.272C225.474 131.25 228.971 128.727 229.065 125.428C229.122 123.435 227.894 121.41 225.415 119.408L199.494 102.459C199.432 102.419 199.372 102.375 199.315 102.327C198.56 101.711 194.572 98.8265 191.026 103.08C190.602 103.637 188.519 106.819 192.78 110.37L204.702 119.309C205.365 119.806 205.635 120.671 205.374 121.457C205.111 122.243 204.376 122.773 203.547 122.773H183.547C182.484 122.773 181.623 121.911 181.623 120.848C181.623 119.785 182.484 118.923 183.547 118.923H197.774L190.393 113.388C184.423 108.417 186.254 102.885 188.045 100.646C190.576 97.6085 193.879 96.4055 197.363 97.2255C199.612 97.7545 201.241 98.9445 201.679 99.2895L227.601 116.237C227.652 116.271 227.702 116.307 227.75 116.345C231.281 119.17 233.018 122.273 232.912 125.568C232.754 130.528 228.356 133.912 227.721 134.375C226.314 135.526 205.619 152.447 202.615 154.45C200.451 155.893 194.703 159.727 189.187 154.209C185.059 150.082 187.289 144.84 189.045 142.646C189.125 142.545 189.216 142.452 189.315 142.37L197.231 135.773H124.547C119.379 135.773 114.211 135.78 109.042 135.787C98.7946 135.801 88.1976 135.815 77.7736 135.772C76.0856 135.765 74.3846 135.746 72.6756 135.726C55.4316 135.529 37.6056 135.322 24.9696 148.238C12.1456 161.346 8.3176 187.614 16.7796 204.452C23.5336 217.893 38.7116 226.923 54.5466 226.923H108.214C109.277 226.923 110.139 227.785 110.139 228.848C110.139 229.911 109.277 230.773 108.214 230.773" fill="#041D72"/>
<path fill-rule="evenodd" clip-rule="evenodd" d="M9.54511 145.774C9.20111 145.774 8.85311 145.682 8.53811 145.488C7.63311 144.931 7.35111 143.746 7.90811 142.84C24.1501 116.447 58.4561 117.817 60.6001 117.924H163.547C164.61 117.924 165.472 118.786 165.472 119.849C165.472 120.912 164.61 121.774 163.547 121.774H60.5471C60.5111 121.774 60.4741 121.773 60.4391 121.771C60.1011 121.749 26.3801 120.167 11.1861 144.858C10.8231 145.449 10.1911 145.774 9.54511 145.774" fill="#041D72"/>
<path fill-rule="evenodd" clip-rule="evenodd" d="M567.825 184.958C565.718 184.958 560.193 184.621 556.676 181.322C554.649 179.422 553.622 176.907 553.622 173.849C553.622 170.653 554.67 168.069 556.736 166.168C560.618 162.596 566.761 162.866 567.616 162.924H634.047C635.11 162.924 635.971 163.786 635.971 164.849C635.971 165.912 635.11 166.773 634.047 166.773H567.547C567.493 166.773 567.44 166.771 567.387 166.767C567.339 166.764 562.167 166.39 559.332 169.01C558.08 170.168 557.471 171.75 557.471 173.849C557.471 175.824 558.07 177.348 559.301 178.507C562.397 181.422 568.366 181.098 568.427 181.095C568.466 181.092 568.508 181.091 568.547 181.091H621.38C622.443 181.091 623.304 181.953 623.304 183.016C623.304 184.079 622.443 184.94 621.38 184.94H568.6C568.475 184.947 568.206 184.958 567.825 184.958" fill="#041D72"/>
<path fill-rule="evenodd" clip-rule="evenodd" d="M726.97 166.372C725.692 166.372 724.776 166.302 724.457 166.274H666.38C665.317 166.274 664.455 165.412 664.455 164.349C664.455 163.286 665.317 162.424 666.38 162.424H724.547C724.609 162.424 724.674 162.428 724.736 162.434C724.87 162.446 738.244 163.667 740.72 156.24C741.057 155.232 742.148 154.691 743.156 155.023C744.164 155.359 744.709 156.449 744.373 157.458C741.731 165.381 731.782 166.372 726.97 166.372" fill="#041D72"/>
<path fill-rule="evenodd" clip-rule="evenodd" d="M724.976 112.055C723.815 112.055 722.7 112.14 721.677 112.298C718.472 112.791 714.603 114.789 714.247 118.793C713.994 121.645 715.959 124.779 718.819 126.084C722.108 127.585 726.559 127.005 730.159 124.606C733.245 122.55 735.778 119.535 737.299 116.201C737.08 115.983 736.842 115.771 736.584 115.562C733.494 113.061 728.971 112.055 724.976 112.055M742.547 157.773C741.484 157.773 740.622 156.912 740.622 155.849C740.622 150.266 740.605 143.778 740.394 137.429C740.338 135.723 740.244 134.015 740.15 132.306C740.01 129.753 739.865 127.115 739.848 124.502C739.838 122.886 739.749 121.495 739.481 120.271C737.666 123.248 735.182 125.885 732.293 127.809C727.537 130.978 721.763 131.659 717.221 129.586C712.879 127.605 710.016 122.921 710.413 118.451C710.93 112.628 716.148 109.254 721.09 108.493C725.952 107.744 733.374 108.299 738.598 112.25C739.795 107.191 740.047 102.908 739.345 99.5045C738.901 97.3495 737.827 95.6105 736.399 94.7325C734.233 93.4015 731.68 93.5515 728.259 94.2235C727.786 94.3165 727.3 94.4305 726.81 94.5465C723.723 95.2705 718.558 96.4815 716.716 90.6615C716.324 89.4235 716.209 88.2085 716.099 87.0335C716.022 86.2145 715.95 85.4415 715.787 84.7265C714.889 80.7945 710.417 77.4235 706.224 77.5415C703.22 77.6165 700.854 79.6625 698.349 81.8285C697.331 82.7085 696.28 83.6185 695.175 84.3925C693.063 85.8705 690.388 86.6105 686.996 86.6545C682.335 86.7305 679.586 84.0285 677.123 81.6605C675.776 80.3655 674.504 79.1415 672.98 78.3315C667.456 75.3975 663.427 79.8195 661.517 82.7175C658.296 87.6005 653.786 90.7415 647.321 92.6005C646.767 92.7605 646.198 92.9155 645.621 93.0735C640.777 94.3955 636.202 95.6455 635.123 100.204C634.596 102.43 635.221 104.948 636.794 106.937C638.295 108.836 640.393 109.924 642.548 109.924H684.547C685.61 109.924 686.472 110.786 686.472 111.849C686.472 112.912 685.61 113.774 684.547 113.774H642.548C639.208 113.774 636.011 112.153 633.775 109.325C631.477 106.42 630.581 102.679 631.377 99.3175C632.982 92.5345 639.428 90.7745 644.607 89.3595C645.166 89.2065 645.719 89.0555 646.257 88.9015C651.865 87.2885 655.58 84.7275 658.303 80.5975C662.713 73.9095 668.876 71.7915 674.786 74.9325C676.785 75.9935 678.313 77.4645 679.791 78.8865C682.091 81.0975 683.941 82.8765 686.946 82.8045C689.54 82.7715 691.509 82.2595 692.967 81.2395C693.91 80.5785 694.843 79.7715 695.83 78.9175C698.603 76.5195 701.745 73.8025 706.128 73.6925C712.19 73.5425 718.224 78.1065 719.539 83.8705C719.759 84.8305 719.847 85.7675 719.932 86.6735C720.027 87.6915 720.118 88.6535 720.386 89.5005C721.061 91.6345 722.111 91.6935 725.931 90.7985C726.467 90.6725 726.998 90.5485 727.516 90.4465C731.16 89.7295 735.001 89.3555 738.414 91.4525C740.744 92.8845 742.457 95.5355 743.116 98.7275C743.978 102.912 743.637 108.094 742.101 114.129C741.98 114.6 741.842 115.071 741.688 115.537C743.468 118.348 743.678 121.464 743.698 124.477C743.714 126.997 743.856 129.589 743.994 132.095C744.089 133.832 744.184 135.568 744.242 137.301C744.454 143.709 744.472 150.235 744.472 155.849C744.472 156.912 743.61 157.773 742.547 157.773" fill="white"/>
<path fill-rule="evenodd" clip-rule="evenodd" d="M411.546 93.7736C411.136 93.7736 410.724 93.6436 410.374 93.3746C401.455 86.5136 389.31 68.4006 387.169 58.7666C385.237 50.0756 385.252 26.9816 394.057 21.6986C396.527 20.2156 398.915 19.7606 401.157 20.3486C404.327 21.1776 405.885 23.7686 406.052 24.0616C406.579 24.9846 406.258 26.1606 405.335 26.6876C404.416 27.2116 403.248 26.8966 402.717 25.9836C402.68 25.9236 401.774 24.4716 400.148 24.0636C398.956 23.7646 397.572 24.0786 396.038 24.9996C393.317 26.6316 391.261 31.8736 390.397 39.3816C389.55 46.7406 390.053 54.0006 390.926 57.9316C392.884 66.7396 404.494 83.9956 412.721 90.3236C413.564 90.9716 413.721 92.1796 413.073 93.0226C412.694 93.5156 412.123 93.7736 411.546 93.7736" fill="#041D72"/>
<path fill-rule="evenodd" clip-rule="evenodd" d="M396.047 75.2737C395.519 75.2737 394.992 75.0577 394.612 74.6317C385.989 64.9947 382.859 58.8107 380.759 53.5637C378.88 48.8647 375.113 35.5607 380.186 30.4877C384.728 25.9447 389.899 26.0817 390.118 26.0927C391.18 26.1317 392.009 27.0247 391.97 28.0867C391.931 29.1457 391.039 29.9757 389.988 29.9397C389.815 29.9407 386.204 29.9137 382.907 33.2097C380.082 36.0357 381.957 46.1927 384.334 52.1337C386.301 57.0537 389.256 62.8727 397.481 72.0657C398.19 72.8577 398.122 74.0747 397.33 74.7837C396.963 75.1117 396.504 75.2737 396.047 75.2737" fill="#041D72"/>
<mask id="mask1" mask-type="alpha" maskUnits="userSpaceOnUse" x="423" y="1" width="79" height="79">
<path fill-rule="evenodd" clip-rule="evenodd" d="M423.239 1H501.739V79.4997H423.239V1Z" fill="white"/>
</mask>
<g mask="url(#mask1)">
<path fill-rule="evenodd" clip-rule="evenodd" d="M501.739 40.2498C501.739 61.9268 484.166 79.4998 462.489 79.4998C440.812 79.4998 423.239 61.9268 423.239 40.2498C423.239 18.5728 440.812 0.999756 462.489 0.999756C484.166 0.999756 501.739 18.5728 501.739 40.2498" fill="#FF5A00"/>
</g>
<path fill-rule="evenodd" clip-rule="evenodd" d="M144.547 482.349H55.547C48.947 482.349 43.547 476.949 43.547 470.349V396.849C43.547 390.249 48.947 384.849 55.547 384.849H144.547C151.147 384.849 156.547 390.249 156.547 396.849V470.349C156.547 476.949 151.147 482.349 144.547 482.349" fill="#FF5A00"/>
<path fill-rule="evenodd" clip-rule="evenodd" d="M188.047 482.349H123.047C118.097 482.349 114.047 478.299 114.047 473.349C114.047 468.399 118.097 464.349 123.047 464.349H188.047C192.997 464.349 197.047 468.399 197.047 473.349C197.047 478.299 192.997 482.349 188.047 482.349" fill="#FF5A00"/>
<path fill-rule="evenodd" clip-rule="evenodd" d="M439.714 583.349H478.047C485.747 583.349 492.047 589.649 492.047 597.349C492.047 605.049 485.747 611.349 478.047 611.349H438.381C438.381 611.349 441.214 609.182 444.381 606.016C447.547 602.849 448.547 595.849 448.047 591.349C448.047 591.349 442.881 583.849 439.714 583.349" fill="#041D72"/>
<path fill-rule="evenodd" clip-rule="evenodd" d="M109.353 529.981C101.561 531.436 96.9327 533.452 97.9397 539.001C98.6117 542.699 101.193 545.078 105.61 546.071C109.243 546.889 112.759 546.445 112.795 546.44C113.174 546.39 113.522 546.404 113.802 546.416C113.886 546.42 113.969 546.424 114.049 546.424C124.072 546.424 152.412 546.252 175.183 546.113C190.797 546.018 204.282 545.936 207.547 545.936C211.097 545.936 213.092 543.851 214.141 542.101C215.923 539.127 216.253 534.984 214.907 532.466C211.429 525.958 205.916 526.074 199.522 526.205C193.938 526.318 187.62 526.453 182.83 521.468L182.674 521.306C176.84 515.233 173.248 511.98 167.27 515.696C166.033 516.466 164.809 517.423 163.624 518.35C159.489 521.581 154.343 525.605 147.848 520.545C146.551 519.535 145.497 518.267 144.38 516.924C141.751 513.761 139.267 510.773 133.547 510.773C127.189 510.773 124.866 514.782 122.176 519.423C119.678 523.733 116.847 528.617 110.381 529.793L109.353 529.981ZM110.414 550.413C105.501 550.413 95.8767 549.172 94.1527 539.689C92.2587 529.256 103.744 527.112 108.647 526.197H108.648L109.692 526.005C114.408 525.148 116.464 521.601 118.846 517.493C121.717 512.539 124.972 506.924 133.547 506.924C141.073 506.924 144.548 511.104 147.341 514.463C148.32 515.641 149.245 516.754 150.213 517.508C154.157 520.58 156.71 518.868 161.253 515.316C162.518 514.328 163.825 513.306 165.237 512.428C174.152 506.88 180.155 513.127 185.45 518.639L185.605 518.801C189.227 522.569 194.19 522.464 199.442 522.356C206.126 522.217 213.711 522.059 218.303 530.651C220.266 534.326 219.904 539.974 217.442 544.081C215.237 547.759 211.723 549.785 207.547 549.785C204.294 549.785 190.814 549.867 175.206 549.962C152.43 550.101 124.084 550.273 114.049 550.273C113.916 550.273 113.779 550.268 113.64 550.262C113.525 550.258 113.409 550.244 113.3 550.257C113.267 550.262 112.126 550.413 110.414 550.413V550.413Z" fill="#041D72"/>
<path fill-rule="evenodd" clip-rule="evenodd" d="M469.423 70.3757C469.088 70.3757 468.749 70.2887 468.44 70.1047C467.527 69.5607 467.227 68.3787 467.771 67.4657C472.58 59.3917 475.122 50.1287 475.122 40.6787C475.122 30.8877 472.406 21.3387 467.268 13.0627C466.707 12.1607 466.985 10.9737 467.888 10.4127C468.791 9.8517 469.977 10.1297 470.538 11.0327C476.055 19.9177 478.972 30.1687 478.972 40.6787C478.972 50.8217 476.242 60.7667 471.079 69.4357C470.718 70.0407 470.079 70.3757 469.423 70.3757" fill="white"/>
<path fill-rule="evenodd" clip-rule="evenodd" d="M457.508 66.4158C457.155 66.4158 456.798 66.3188 456.477 66.1158C455.58 65.5448 455.315 64.3558 455.885 63.4578C460.21 56.6558 462.495 48.7788 462.495 40.6788C462.495 32.7008 460.274 24.9258 456.071 18.1928C455.508 17.2908 455.783 16.1038 456.685 15.5408C457.588 14.9788 458.774 15.2538 459.337 16.1548C463.921 23.4988 466.344 31.9788 466.344 40.6788C466.344 49.5118 463.851 58.1028 459.134 65.5238C458.768 66.1008 458.145 66.4158 457.508 66.4158" fill="white"/>
<path fill-rule="evenodd" clip-rule="evenodd" d="M446.151 61.6251C445.793 61.6251 445.43 61.5251 445.108 61.3161C444.215 60.7391 443.96 59.5471 444.537 58.6551C448.001 53.3011 449.832 47.0851 449.832 40.6781C449.832 34.3021 448.018 28.1121 444.585 22.7761C444.009 21.8821 444.268 20.6911 445.162 20.1161C446.056 19.5411 447.247 19.7991 447.822 20.6931C451.655 26.6511 453.682 33.5621 453.682 40.6781C453.682 47.8291 451.637 54.7681 447.769 60.7461C447.401 61.3151 446.782 61.6251 446.151 61.6251" fill="white"/>
</svg>
