<svg width="917" height="674" viewBox="0 0 917 674" fill="none" xmlns="http://www.w3.org/2000/svg">
<path fill-rule="evenodd" clip-rule="evenodd" d="M526.615 556.605C526.615 544.751 526.617 532.896 526.614 521.041C526.613 516.575 527.375 512.259 529.37 508.239C533.886 499.134 541.119 493.491 551.198 491.97C566.148 489.715 579.848 498.964 583.514 513.617C584.036 515.706 584.328 517.909 584.333 520.06C584.39 544.446 584.383 568.833 584.364 593.218C584.353 606.931 574.066 618.98 560.458 621.292C545.179 623.887 530.674 614.205 527.332 599.076C526.836 596.831 526.658 594.475 526.646 592.169C526.579 580.315 526.615 568.459 526.615 556.605Z" fill="#FF5A00"/>
<path fill-rule="evenodd" clip-rule="evenodd" d="M511.987 491.652V494.578C511.987 502.96 511.954 511.341 511.996 519.723C512.037 527.843 509.351 534.881 503.675 540.687C499.025 545.444 493.352 548.31 486.719 549.085C477.481 550.163 469.455 547.431 462.809 540.953C458.12 536.381 455.32 530.764 454.505 524.231C452.917 511.508 459.422 499.722 471.035 494.252C474.643 492.552 478.458 491.632 482.444 491.615C492.001 491.573 501.56 491.601 511.118 491.603C511.376 491.603 511.633 491.631 511.987 491.652Z" fill="#FF5A00"/>
<path fill-rule="evenodd" clip-rule="evenodd" d="M667.276 547.768C655.422 547.768 643.567 547.766 631.712 547.769C627.245 547.77 622.931 547.007 618.91 545.013C609.805 540.497 604.161 533.264 602.641 523.184C600.387 508.235 609.636 494.535 624.288 490.869C626.376 490.346 628.58 490.054 630.732 490.049C655.117 489.993 679.504 490 703.889 490.019C717.602 490.03 729.651 500.317 731.963 513.924C734.559 529.204 724.876 543.709 709.747 547.051C707.502 547.546 705.146 547.724 702.84 547.737C690.986 547.803 679.131 547.768 667.276 547.768Z" fill="#FF5A00"/>
<path fill-rule="evenodd" clip-rule="evenodd" d="M602.323 562.396H605.249C613.631 562.396 622.013 562.429 630.394 562.386C638.514 562.346 645.552 565.032 651.358 570.709C656.115 575.359 658.981 581.032 659.755 587.664C660.834 596.903 658.102 604.928 651.624 611.574C647.052 616.263 641.436 619.063 634.902 619.878C622.18 621.466 610.393 614.961 604.923 603.348C603.223 599.741 602.304 595.925 602.286 591.94C602.244 582.382 602.272 572.824 602.274 563.265C602.274 563.007 602.302 562.75 602.323 562.396Z" fill="#FF5A00"/>
<path fill-rule="evenodd" clip-rule="evenodd" d="M660.359 406.107C660.359 417.961 660.357 429.816 660.36 441.671C660.361 446.138 659.599 450.453 657.604 454.473C653.088 463.578 645.855 469.222 635.776 470.742C620.826 472.997 607.126 463.748 603.46 449.095C602.938 447.007 602.645 444.803 602.64 442.652C602.584 418.266 602.591 393.879 602.61 369.494C602.621 355.781 612.907 343.732 626.515 341.42C641.795 338.825 656.3 348.507 659.642 363.636C660.138 365.881 660.315 368.237 660.328 370.543C660.394 382.397 660.359 394.253 660.359 406.107Z" fill="#FF5A00"/>
<path fill-rule="evenodd" clip-rule="evenodd" d="M674.987 471.06V468.134C674.987 459.752 675.02 451.371 674.978 442.989C674.937 434.869 677.623 427.831 683.299 422.026C687.949 417.268 693.622 414.402 700.255 413.627C709.493 412.549 717.519 415.281 724.165 421.759C728.854 426.331 731.654 431.948 732.469 438.481C734.057 451.204 727.552 462.99 715.939 468.46C712.332 470.16 708.516 471.08 704.531 471.097C694.973 471.139 685.415 471.111 675.857 471.109C675.599 471.109 675.341 471.081 674.987 471.06Z" fill="#FF5A00"/>
<path fill-rule="evenodd" clip-rule="evenodd" d="M517.698 413.024C529.553 413.024 541.407 413.026 553.262 413.023C557.729 413.022 562.044 413.785 566.064 415.779C575.169 420.295 580.813 427.528 582.333 437.608C584.588 452.557 575.338 466.257 560.686 469.923C558.598 470.446 556.394 470.738 554.243 470.743C529.857 470.799 505.471 470.793 481.085 470.773C467.372 470.762 455.323 460.476 453.011 446.868C450.416 431.588 460.098 417.084 475.227 413.742C477.473 413.246 479.828 413.068 482.134 413.055C493.989 412.989 505.844 413.024 517.698 413.024Z" fill="#FF5A00"/>
<path fill-rule="evenodd" clip-rule="evenodd" d="M582.651 398.396H579.725C571.343 398.396 562.961 398.363 554.579 398.406C546.459 398.447 539.422 395.76 533.616 390.084C528.859 385.434 525.993 379.761 525.218 373.128C524.14 363.89 526.871 355.864 533.35 349.218C537.922 344.529 543.538 341.729 550.071 340.914C562.794 339.326 574.581 345.832 580.051 357.444C581.751 361.051 582.67 364.867 582.687 368.852C582.73 378.411 582.701 387.968 582.699 397.527C582.699 397.785 582.672 398.042 582.651 398.396Z" fill="#FF5A00"/>
<path fill-rule="evenodd" clip-rule="evenodd" d="M476.425 318.205C475.975 318.205 475.522 318.048 475.157 317.727C474.358 317.026 474.278 315.81 474.979 315.012C497.925 288.843 510.562 255.241 510.562 220.395C510.562 141.227 446.154 76.8204 366.987 76.8204C287.82 76.8204 223.412 141.227 223.412 220.395C223.412 250.798 232.794 279.85 250.545 304.408C251.168 305.27 250.974 306.474 250.112 307.096C249.251 307.722 248.048 307.526 247.425 306.664C229.197 281.444 219.562 251.613 219.562 220.395C219.562 139.105 285.697 72.9714 366.987 72.9714C448.277 72.9714 514.412 139.105 514.412 220.395C514.412 256.175 501.435 290.678 477.873 317.549C477.493 317.983 476.96 318.205 476.425 318.205Z" fill="#041D72"/>
<mask id="mask0" mask-type="alpha" maskUnits="userSpaceOnUse" x="240" y="1" width="178" height="76">
<path fill-rule="evenodd" clip-rule="evenodd" d="M240.562 1H417.856V76.8208H240.562V1Z" fill="white"/>
</mask>
<g mask="url(#mask0)">
<path fill-rule="evenodd" clip-rule="evenodd" d="M242.487 76.8208C242.005 76.8208 241.523 76.6408 241.149 76.2798C240.385 75.5418 240.364 74.3228 241.103 73.5578C271.426 42.1898 309.942 30.1088 336.913 25.4988C356.717 22.1138 373.392 22.1558 382.132 22.5358L375.332 17.4358C369.363 12.4648 371.193 6.93181 372.984 4.69381C377.881 -1.18419 383.988 1.20481 386.628 3.34181L412.54 20.2848C412.592 20.3188 412.641 20.3548 412.689 20.3928C416.22 23.2178 417.957 26.3208 417.852 29.6158C417.693 34.5758 413.295 37.9598 412.66 38.4238C411.251 39.5758 390.558 56.4958 387.555 58.4978C385.391 59.9408 379.641 63.7708 374.126 58.2578C369.998 54.1298 372.228 48.8878 373.984 46.6938C374.065 46.5918 374.155 46.5008 374.255 46.4178L382.968 39.1558C376.165 38.3028 361.977 37.2568 347.954 40.7628C346.921 41.0218 345.878 40.3948 345.62 39.3628C345.362 38.3318 345.989 37.2868 347.02 37.0288C367.208 31.9808 387.031 35.8428 387.864 36.0078C388.592 36.1538 389.17 36.7038 389.353 37.4228C389.535 38.1408 389.289 38.8998 388.719 39.3748L376.888 49.2338C376.347 49.9808 374.381 53.0678 376.848 55.5348C379.583 58.2718 382.156 57.4708 385.419 55.2948C387.73 53.7538 402.684 41.6118 410.268 35.4068C410.305 35.3758 410.344 35.3468 410.383 35.3188C410.413 35.2988 413.911 32.7748 414.005 29.4758C414.062 27.4828 412.834 25.4578 410.355 23.4558L384.434 6.50781C384.372 6.46681 384.312 6.42281 384.255 6.37481C383.499 5.75981 379.512 2.87281 375.966 7.12881C375.541 7.68481 373.459 10.8668 377.719 14.4178L389.642 23.3558C390.337 23.8778 390.596 24.7998 390.276 25.6058C389.955 26.4138 389.137 26.9178 388.27 26.8078C388.051 26.7838 366.111 24.3958 337.443 29.3128C311.075 33.8368 273.438 45.6478 243.871 76.2338C243.493 76.6248 242.99 76.8208 242.487 76.8208Z" fill="#041D72"/>
</g>
<path fill-rule="evenodd" clip-rule="evenodd" d="M441.414 472.467C432.072 472.467 422.469 470.403 413.371 466.303C396.603 458.746 383.838 445.32 378.348 429.466C375.293 420.646 377.271 411.166 383.511 404.726C389.692 398.347 398.204 396.404 406.436 394.526C415.509 392.454 424.079 390.499 429.228 382.932C431.437 379.687 432.329 375.566 431.5 372.434C430.919 370.241 429.569 368.612 427.486 367.591C424.16 365.961 420.635 365.159 416.902 364.311C411.732 363.135 406.386 361.919 401.601 358.34C398.4 355.946 396.287 352.836 395.65 349.58C395.295 347.764 395.489 346.12 396.212 344.826C396.96 343.488 398.083 342.634 399.461 342.354C402.866 341.674 406.844 344.756 409.475 346.802C409.956 347.176 410.371 347.501 410.698 347.729C415.499 351.07 422.532 353.705 425.518 352.134C425.961 351.901 427.31 351.191 427.289 347.774C427.284 346.993 427.143 345.876 426.993 344.694C426.514 340.919 425.917 336.222 428.427 333.618C429.669 332.33 431.428 331.781 433.66 331.979C436.548 332.242 444.833 332.444 448.496 330.245C451.753 328.291 447.845 320.905 447.804 320.83C447.781 320.79 447.76 320.748 447.741 320.706C445.185 315.203 442.651 309.585 440.201 304.152C436.994 297.043 433.678 289.693 430.286 282.533C419.986 260.792 410.66 243.223 392.45 231.407C375.834 220.626 355.537 216.029 336.767 218.8C305.919 223.351 288.962 238.769 280.17 250.901C270.663 264.018 268.402 276.116 268.38 276.237C268.192 277.282 267.188 277.976 266.145 277.79C265.099 277.602 264.404 276.601 264.592 275.555C264.687 275.027 267.035 262.463 277.053 248.641C286.28 235.91 304.032 219.738 336.206 214.991C355.889 212.085 377.155 216.894 394.546 228.179C413.603 240.545 423.2 258.585 433.765 280.885C437.172 288.077 440.496 295.445 443.709 302.57C446.147 307.973 448.667 313.56 451.204 319.024C453.386 322.988 455.656 330.439 450.477 333.546C444.959 336.855 433.781 335.858 433.308 335.812C431.79 335.679 431.345 336.138 431.198 336.29C429.969 337.566 430.476 341.564 430.811 344.208C430.976 345.509 431.132 346.738 431.139 347.749C431.168 352.508 429.074 354.613 427.31 355.54C421.848 358.419 412.616 353.754 408.498 350.888C408.128 350.63 407.656 350.264 407.111 349.841C405.552 348.627 401.907 345.78 400.226 346.127C400.104 346.152 399.853 346.202 399.573 346.703C399.228 347.321 399.304 348.206 399.428 348.841C399.881 351.158 401.471 353.437 403.906 355.258C408.037 358.347 412.758 359.42 417.756 360.557C421.539 361.417 425.451 362.308 429.179 364.134C432.266 365.646 434.354 368.176 435.221 371.449C436.34 375.677 435.264 380.906 432.411 385.098C426.41 393.915 416.691 396.133 407.293 398.279C399.254 400.113 391.662 401.846 386.276 407.404C381.052 412.795 379.408 420.766 381.985 428.206C387.13 443.064 399.146 455.67 414.952 462.793C430.648 469.867 447.888 470.532 462.253 464.616C463.239 464.206 464.361 464.681 464.766 465.663C465.171 466.646 464.702 467.771 463.719 468.175C456.758 471.042 449.176 472.467 441.414 472.467Z" fill="#041D72"/>
<path fill-rule="evenodd" clip-rule="evenodd" d="M363.523 256.675C356.572 256.675 349.068 255.361 340.896 252.728C339.884 252.402 339.329 251.318 339.654 250.306C339.981 249.292 341.065 248.735 342.077 249.064C356.47 253.7 368.571 254.042 379.071 250.11C385.931 247.54 392.423 243.778 398.702 240.139C402.163 238.133 405.742 236.059 409.372 234.186C420.203 228.603 431.645 229.358 441.59 236.319C442.461 236.929 442.673 238.129 442.063 238.999C441.453 239.871 440.254 240.079 439.382 239.473C430.54 233.281 420.772 232.636 411.137 237.608C407.59 239.437 404.053 241.487 400.632 243.469C394.217 247.188 387.583 251.032 380.421 253.715C375.155 255.688 369.546 256.675 363.523 256.675Z" fill="#041D72"/>
<path fill-rule="evenodd" clip-rule="evenodd" d="M263.484 345.821C262.569 345.821 261.757 345.166 261.591 344.233C258.08 324.484 263.494 308.817 276.444 301.25C279.709 299.342 283.29 298.014 287.086 297.304C296.588 295.529 306.261 298.129 315.618 300.644C327.042 303.717 337.833 306.617 347.919 301.943C362.275 295.289 368.472 278.052 369.418 265.315C370.004 257.417 367.757 250.593 362.92 245.584C357.152 239.61 347.899 236.424 337.562 236.819C336.491 236.844 335.605 236.033 335.563 234.971C335.522 233.909 336.349 233.014 337.411 232.973C348.86 232.511 359.161 236.148 365.689 242.91C371.309 248.731 373.926 256.577 373.256 265.6C371.622 287.622 359.933 300.617 349.538 305.435C338.184 310.701 326.204 307.478 314.618 304.362C305.678 301.959 296.434 299.475 287.794 301.088C284.434 301.717 281.269 302.889 278.387 304.574C262.087 314.097 263.861 335.01 265.381 343.559C265.567 344.606 264.87 345.605 263.823 345.791C263.71 345.811 263.596 345.821 263.484 345.821Z" fill="#041D72"/>
<path fill-rule="evenodd" clip-rule="evenodd" d="M324.487 378.821C323.424 378.821 322.562 377.959 322.562 376.896C322.562 376.232 322.898 375.647 323.41 375.301C324.275 373.841 327.374 364.87 319.285 358.399C313.941 354.123 307.324 356.812 300.32 359.657C296.991 361.009 293.847 362.287 290.803 362.794C277.923 364.942 266.546 352.718 266.068 352.197C265.35 351.413 265.403 350.198 266.186 349.479C266.967 348.761 268.186 348.812 268.904 349.594C269.008 349.706 279.362 360.807 290.17 358.997C292.793 358.56 295.745 357.361 298.871 356.09C306.234 353.099 314.58 349.704 321.69 355.393C329.114 361.332 329.487 369.888 327.55 375.409C326.723 377.769 325.778 378.821 324.487 378.821Z" fill="#041D72"/>
<path fill-rule="evenodd" clip-rule="evenodd" d="M325.554 346.247C321.788 346.247 317.852 345.14 315.307 343.268C309.471 338.975 305.105 331.572 301.96 320.638C299.44 311.876 302.026 304.358 309.241 299.47C310.121 298.875 311.318 299.103 311.914 299.984C312.51 300.864 312.28 302.06 311.4 302.657C305.593 306.591 303.608 312.44 305.659 319.573C308.56 329.66 312.462 336.396 317.588 340.166C321.219 342.837 328.625 343.17 331.251 340.778C332.591 339.56 332.451 337.577 330.837 334.887C330.29 333.976 330.585 332.793 331.497 332.246C332.408 331.697 333.591 331.994 334.137 332.906C337.666 338.787 335.468 342.146 333.843 343.625C331.846 345.444 328.761 346.247 325.554 346.247Z" fill="#041D72"/>
<path fill-rule="evenodd" clip-rule="evenodd" d="M322.9 329.5C319.116 329.5 316.183 328.047 314.414 325.223C312.922 322.84 312.625 319.494 313.674 316.897C314.483 314.896 316.028 313.521 318.024 313.027C319.053 312.773 320.099 313.4 320.355 314.433C320.61 315.464 319.981 316.508 318.949 316.764C318.15 316.962 317.592 317.478 317.243 318.341C316.662 319.777 316.849 321.857 317.677 323.18C319.726 326.451 324.384 325.748 326.978 325.039C328.005 324.757 329.062 325.362 329.343 326.388C329.624 327.412 329.02 328.472 327.995 328.752C326.167 329.252 324.461 329.5 322.9 329.5Z" fill="#041D72"/>
<path fill-rule="evenodd" clip-rule="evenodd" d="M208.485 325.821C207.463 325.821 206.612 325.017 206.564 323.986C206.514 322.924 207.335 322.023 208.397 321.973C222.651 321.308 235.342 316.645 244.133 308.842C247.36 305.978 250.32 302.666 253.183 299.463C256.647 295.588 260.229 291.581 264.404 288.194C273.315 280.967 284.609 279.971 295.486 279.971C296.549 279.971 297.411 280.833 297.411 281.896C297.411 282.96 296.549 283.821 295.486 283.821C283.735 283.821 274.364 285.073 266.829 291.184C262.893 294.377 259.416 298.266 256.053 302.028C253.117 305.313 250.081 308.71 246.689 311.721C237.242 320.106 223.707 325.113 208.576 325.819C208.546 325.82 208.515 325.821 208.485 325.821Z" fill="#041D72"/>
<mask id="mask1" mask-type="alpha" maskUnits="userSpaceOnUse" x="191" y="359" width="356" height="315">
<path fill-rule="evenodd" clip-rule="evenodd" d="M191.539 359.472H546.667V673.269H191.539V359.472Z" fill="white"/>
</mask>
<g mask="url(#mask1)">
<path fill-rule="evenodd" clip-rule="evenodd" d="M501.944 493.681C501.979 493.703 502.014 493.725 502.051 493.745C502.048 493.743 502.046 493.743 502.043 493.741C502.009 493.722 501.976 493.702 501.944 493.681ZM336.875 673.269C310.194 673.269 283.571 668.07 260.521 657.8C242.082 649.585 225.312 637.207 213.302 622.948C199.532 606.598 192.015 587.923 191.563 568.942C190.57 527.244 221.097 499.351 234.133 487.441L235.186 486.477C238.584 483.363 243.465 479.238 249.116 474.462C263.372 462.413 282.897 445.912 295.021 431.65C310.275 413.703 306.438 393.101 301.765 383.756C297.938 376.102 285.385 362.855 285.259 362.722C284.527 361.952 284.557 360.733 285.328 360.001C286.099 359.268 287.317 359.301 288.049 360.07C288.581 360.629 301.127 373.871 305.209 382.035C306.612 384.843 318.337 410.161 297.953 434.142C285.624 448.648 265.959 465.267 251.6 477.402C245.981 482.151 241.128 486.252 237.788 489.315L236.73 490.283C224.081 501.839 194.46 528.904 195.411 568.85C195.842 586.946 203.047 604.795 216.246 620.467C227.889 634.291 244.169 646.301 262.088 654.285C302.973 672.498 355.346 674.424 398.768 659.306C407.732 656.184 416.266 652.319 424.135 647.817C447.24 634.599 469.284 614.365 491.525 585.959C499.059 576.337 506.867 566.93 514.184 558.198C520.769 550.337 526.37 543.868 531.81 537.838C532.617 536.943 533.675 535.936 534.795 534.869C540.339 529.592 544.701 524.907 541.921 521.015C538.205 515.812 514.43 501.083 503.956 494.868C502.932 496.775 500.961 499.965 497.277 505.591C493.369 511.562 489.272 517.563 488.686 518.376C460.053 558.148 432.774 592.284 388.808 607.195C384.58 608.629 380.224 609.865 375.86 610.869C364.749 613.422 353.442 614.414 342.253 613.818C339.283 613.659 336.295 613.385 333.37 613.002C296.597 608.2 260.072 589.873 238.05 565.177C237.343 564.383 237.413 563.166 238.206 562.459C238.998 561.752 240.215 561.822 240.923 562.615C262.357 586.652 297.972 604.496 333.868 609.186C336.696 609.555 339.587 609.821 342.459 609.974C353.287 610.549 364.236 609.591 374.998 607.117C379.236 606.142 383.466 604.943 387.572 603.55C430.458 589.004 457.323 555.352 485.562 516.126C487.459 513.493 499.706 495.261 501.062 492.078C501.06 491.861 501.095 491.639 501.172 491.422C501.521 490.433 502.6 489.905 503.595 490.237C503.601 490.239 503.622 490.249 503.656 490.268L503.659 490.259C503.861 490.334 504.05 490.448 504.22 490.589C509.028 493.367 540.081 511.816 545.053 518.778C550.003 525.706 542.448 532.899 537.449 537.658C536.384 538.672 535.378 539.63 534.668 540.416C529.26 546.41 523.689 552.846 517.134 560.67C509.839 569.377 502.055 578.754 494.556 588.332C472.002 617.137 449.592 637.688 426.047 651.159C417.972 655.778 409.22 659.742 400.034 662.941C380.191 669.849 358.513 673.269 336.875 673.269Z" fill="#041D72"/>
</g>
<path fill-rule="evenodd" clip-rule="evenodd" d="M345.487 449.821C327.778 449.821 304.082 444.338 295.049 434.175C294.342 433.381 294.414 432.164 295.208 431.458C296.003 430.753 297.219 430.822 297.925 431.618C305.08 439.667 325.972 445.971 345.487 445.971C367.442 445.971 381.101 434.549 381.237 434.433C382.044 433.744 383.258 433.841 383.949 434.646C384.639 435.454 384.546 436.667 383.739 437.357C383.146 437.867 368.929 449.821 345.487 449.821Z" fill="#041D72"/>
<path fill-rule="evenodd" clip-rule="evenodd" d="M410.487 291.396C413.808 291.396 416.677 293.305 418.076 296.083C418.966 294.739 419.487 293.128 419.487 291.396C419.487 286.702 415.681 282.896 410.987 282.896C406.293 282.896 402.487 286.702 402.487 291.396C402.487 292.769 402.82 294.062 403.399 295.209C404.92 292.913 407.526 291.396 410.487 291.396Z" fill="#041D72"/>
<path fill-rule="evenodd" clip-rule="evenodd" d="M486.728 320.082C483.098 320.082 479.558 319.685 476.433 318.849C458.708 314.106 452.01 298.64 445.533 283.683C442.801 277.374 439.977 270.852 436.385 265.464C429.262 254.778 419.148 257.705 419.047 257.738C418.029 258.047 416.955 257.474 416.645 256.457C416.336 255.44 416.91 254.364 417.926 254.055C418.056 254.019 430.896 250.289 439.588 263.329C443.372 269.004 446.266 275.688 449.065 282.152C455.46 296.92 461.5 310.869 477.428 315.13C486.174 317.469 498.988 315.951 505.997 311.746C506.908 311.198 508.09 311.494 508.637 312.406C509.184 313.317 508.889 314.5 507.977 315.047C502.594 318.276 494.457 320.082 486.728 320.082Z" fill="#041D72"/>
<path fill-rule="evenodd" clip-rule="evenodd" d="M538.487 324.821C537.424 324.821 536.562 323.96 536.562 322.896C536.562 318.394 536.014 312.863 531.74 310.023C525.985 306.194 518.517 309.503 516.366 310.608C515.419 311.093 514.26 310.722 513.775 309.775C513.289 308.83 513.662 307.67 514.608 307.184C521.609 303.59 528.811 303.452 533.871 306.817C539.668 310.669 540.412 317.433 540.412 322.896C540.412 323.96 539.55 324.821 538.487 324.821Z" fill="#041D72"/>
<path fill-rule="evenodd" clip-rule="evenodd" d="M517.632 392.695C513.483 392.695 509.714 390.995 506.862 387.734C501.558 381.668 503.537 372.62 505.128 365.349C505.562 363.366 505.972 361.491 506.2 359.851C507.026 353.925 506.632 345.358 500.068 338.198C489.872 327.074 471.866 328.795 471.686 328.81C470.621 328.915 469.683 328.151 469.573 327.095C469.463 326.039 470.229 325.093 471.285 324.982C472.1 324.897 491.382 323.024 502.906 335.596C508.818 342.046 511.341 350.848 510.013 360.382C509.764 362.17 509.339 364.114 508.888 366.173C507.409 372.932 505.733 380.594 509.761 385.201C513.794 389.814 518.935 389.05 521.64 388.186C527.436 386.334 532.033 381.085 532.571 375.705C532.677 374.646 533.633 373.875 534.678 373.981C535.736 374.087 536.507 375.03 536.402 376.088C535.707 383.035 530.119 389.517 522.812 391.853C521.048 392.418 519.308 392.695 517.632 392.695Z" fill="#041D72"/>
<path fill-rule="evenodd" clip-rule="evenodd" d="M539.487 297.654C538.424 297.654 537.562 296.792 537.562 295.729V210.896C537.562 203.218 543.809 196.971 551.487 196.971H645.487C653.165 196.971 659.412 203.218 659.412 210.896V258.396C659.412 259.46 658.55 260.321 657.487 260.321C656.424 260.321 655.562 259.46 655.562 258.396V210.896C655.562 205.341 651.043 200.821 645.487 200.821H551.487C545.931 200.821 541.412 205.341 541.412 210.896V295.729C541.412 296.792 540.55 297.654 539.487 297.654Z" fill="#041D72"/>
<path fill-rule="evenodd" clip-rule="evenodd" d="M601.217 241.095C597.43 241.095 593.114 240.186 588.531 237.567C574.584 229.597 542.676 205.453 541.324 204.43C540.477 203.788 540.31 202.58 540.952 201.734C541.594 200.886 542.8 200.718 543.649 201.362C543.978 201.611 576.71 226.378 590.442 234.225C602.827 241.301 612.882 233.705 613.303 233.378L652.266 201.407C653.087 200.736 654.3 200.854 654.974 201.675C655.649 202.496 655.529 203.709 654.707 204.384L615.707 236.384C615.34 236.673 609.565 241.095 601.217 241.095Z" fill="#041D72"/>
<path fill-rule="evenodd" clip-rule="evenodd" d="M640.216 299.095C636.429 299.095 632.113 298.185 627.532 295.567C616.61 289.325 594.188 272.796 585.054 265.979C584.202 265.343 584.027 264.137 584.663 263.285C585.299 262.434 586.505 262.256 587.357 262.895C596.433 269.669 618.704 286.089 629.442 292.225C641.827 299.302 651.882 291.705 652.303 291.378L688.21 261.376C689.026 260.693 690.239 260.805 690.921 261.618C691.602 262.435 691.493 263.649 690.677 264.329L654.721 294.372C654.344 294.669 648.566 299.095 640.216 299.095Z" fill="#041D72"/>
<path fill-rule="evenodd" clip-rule="evenodd" d="M585.412 330.893H682.487C688.043 330.893 692.562 326.305 692.562 320.666V271.047C692.562 265.409 688.043 260.821 682.487 260.821H595.487C589.932 260.821 585.412 265.409 585.412 271.047V330.893ZM564.573 353.17H581.564L581.563 334.743H563.487C562.461 334.748 553.412 335.061 553.412 343.956C553.412 347.391 555.175 349.884 558.802 351.58C561.464 352.824 564.132 353.127 564.573 353.17ZM680.487 461.321H637.487C636.424 461.321 635.562 460.459 635.562 459.396C635.562 458.332 636.424 457.471 637.487 457.471H680.487C697.303 457.471 697.56 439.889 697.562 439.14V388.512C697.562 385.372 696.563 382.999 694.507 381.259C688.532 376.2 675.933 378.238 675.806 378.259C675.701 378.277 675.594 378.286 675.487 378.286H609.487C590.489 378.286 583.433 365.654 581.89 357.02H564.487C564.437 357.02 564.388 357.018 564.338 357.014C559.227 356.616 549.562 353.374 549.562 343.956C549.562 333.623 558.671 330.893 563.487 330.893H581.563L581.562 271.047C581.562 263.286 587.809 256.971 595.487 256.971H682.487C690.165 256.971 696.412 263.286 696.412 271.047V320.666C696.412 328.428 690.165 334.743 682.487 334.743H585.412V353.17H599.987C601.05 353.17 601.912 354.033 601.912 355.095C601.912 356.158 601.05 357.02 599.987 357.02H585.854C587.103 362.669 591.825 374.436 609.487 374.436H675.334C677.034 374.172 689.985 372.394 696.987 378.315C699.923 380.796 701.412 384.228 701.412 388.512V439.144C701.412 439.366 701.173 461.321 680.487 461.321Z" fill="#041D72"/>
<path fill-rule="evenodd" clip-rule="evenodd" d="M503.485 493.821C503.083 493.821 502.678 493.696 502.332 493.436C501.481 492.799 501.309 491.592 501.947 490.741C505.055 486.596 507.996 481.994 510.84 477.543C516.711 468.353 522.782 458.851 531.152 451.809C540.088 444.292 553.611 439.122 567.327 437.978C590.92 436.012 638.532 437.891 640.547 437.972C642.581 438.055 644.63 438.109 646.698 438.164C659.586 438.505 672.912 438.856 684.283 445.766C691.694 450.27 696.991 460.5 696.876 470.09C696.785 477.683 693.451 483.756 687.488 487.186C684.45 488.934 680.749 489.821 676.486 489.821H641.32C640.257 489.821 639.395 488.96 639.395 487.896C639.395 486.833 640.257 485.971 641.32 485.971H676.486C680.066 485.971 683.122 485.258 685.568 483.85C690.304 481.125 692.953 476.221 693.027 470.043C693.127 461.725 688.609 452.899 682.284 449.055C671.787 442.677 658.981 442.34 646.596 442.012C644.509 441.957 642.442 441.902 640.408 441.819C638.387 441.738 591.006 439.87 567.646 441.814C554.695 442.893 541.979 447.731 533.631 454.755C525.71 461.419 519.799 470.669 514.084 479.615C511.202 484.126 508.222 488.791 505.026 493.051C504.648 493.555 504.07 493.821 503.485 493.821Z" fill="#041D72"/>
<path fill-rule="evenodd" clip-rule="evenodd" d="M694.654 476.654H638.487C637.424 476.654 636.562 475.793 636.562 474.729C636.562 473.666 637.424 472.804 638.487 472.804H694.654C695.717 472.804 696.579 473.666 696.579 474.729C696.579 475.793 695.717 476.654 694.654 476.654Z" fill="#041D72"/>
<path fill-rule="evenodd" clip-rule="evenodd" d="M682.32 448.654H638.487C637.424 448.654 636.562 447.793 636.562 446.729C636.562 445.666 637.424 444.804 638.487 444.804H682.32C683.383 444.804 684.245 445.666 684.245 446.729C684.245 447.793 683.383 448.654 682.32 448.654Z" fill="#041D72"/>
<path fill-rule="evenodd" clip-rule="evenodd" d="M540.652 518.988C540.382 518.988 540.108 518.931 539.846 518.81C538.881 518.364 538.461 517.22 538.906 516.256C548.244 496.051 572.437 496.888 574.037 496.971H616.485C618.176 496.971 619.936 497.043 621.637 497.111C625.048 497.246 628.575 497.389 631.772 496.977C635.132 496.545 638.171 493.824 638.997 490.509C639.372 489.004 639.539 486.152 636.445 483.96C633.288 481.722 628.349 482.062 623.992 482.363C623.055 482.427 622.148 482.489 621.289 482.525C620.39 482.563 619.471 482.611 618.538 482.66C613.238 482.937 607.23 483.253 601.959 481.747C593.752 479.402 588.325 466.74 585.717 460.654C583.258 454.917 573.581 454.821 573.484 454.821C572.422 454.818 571.562 453.955 571.563 452.893C571.565 451.832 572.424 450.971 573.486 450.971C573.987 450.971 585.796 451.064 589.256 459.138C591.444 464.245 596.569 476.204 603.016 478.046C607.669 479.375 613.092 479.091 618.337 478.816C619.283 478.766 620.215 478.717 621.128 478.679C621.954 478.644 622.826 478.585 623.728 478.522C628.482 478.196 634.394 477.789 638.671 480.819C642.24 483.348 643.759 487.319 642.732 491.439C641.518 496.31 637.214 500.158 632.264 500.796C628.746 501.25 625.054 501.1 621.483 500.957C619.742 500.887 618.098 500.821 616.485 500.821H573.986C573.943 500.821 573.898 500.819 573.854 500.816C573.623 500.801 550.887 499.507 542.401 517.871C542.075 518.574 541.38 518.988 540.652 518.988Z" fill="#041D72"/>
<path fill-rule="evenodd" clip-rule="evenodd" d="M342.987 469.896C342.987 471.277 341.868 472.396 340.487 472.396C339.107 472.396 337.987 471.277 337.987 469.896C337.987 468.515 339.107 467.396 340.487 467.396C341.868 467.396 342.987 468.515 342.987 469.896Z" fill="#041D72"/>
<path fill-rule="evenodd" clip-rule="evenodd" d="M342.987 502.896C342.987 504.277 341.868 505.396 340.487 505.396C339.107 505.396 337.987 504.277 337.987 502.896C337.987 501.515 339.107 500.396 340.487 500.396C341.868 500.396 342.987 501.515 342.987 502.896Z" fill="#041D72"/>
<path fill-rule="evenodd" clip-rule="evenodd" d="M342.987 535.896C342.987 537.277 341.868 538.396 340.487 538.396C339.107 538.396 337.987 537.277 337.987 535.896C337.987 534.515 339.107 533.396 340.487 533.396C341.868 533.396 342.987 534.515 342.987 535.896Z" fill="#041D72"/>
<path fill-rule="evenodd" clip-rule="evenodd" d="M342.987 568.896C342.987 570.277 341.868 571.396 340.487 571.396C339.107 571.396 337.987 570.277 337.987 568.896C337.987 567.515 339.107 566.396 340.487 566.396C341.868 566.396 342.987 567.515 342.987 568.896Z" fill="#041D72"/>
<path fill-rule="evenodd" clip-rule="evenodd" d="M342.987 601.896C342.987 603.277 341.868 604.396 340.487 604.396C339.107 604.396 337.987 603.277 337.987 601.896C337.987 600.515 339.107 599.396 340.487 599.396C341.868 599.396 342.987 600.515 342.987 601.896Z" fill="#041D72"/>
<path fill-rule="evenodd" clip-rule="evenodd" d="M265.487 115.896C265.325 116.066 268.919 118.329 269.168 118.443C271.928 119.716 278.287 117.638 279.266 121.261C280.84 127.085 275.136 133.284 270.987 136.396C266.987 139.396 273.487 149.896 276.487 152.896C279.487 155.896 286.487 152.896 287.487 147.896C288.487 142.897 292.486 138.897 298.485 139.896C302.925 140.635 308.49 138.422 312.505 141.076C315.499 143.055 316.38 146.918 315.888 150.291C315.34 154.053 312.499 156.355 311.487 159.896C309.487 166.896 309.487 167.896 302.487 173.896C296.454 179.068 293.933 186.178 292.227 193.707C290.803 199.995 290.494 209.898 281.487 206.896C272.487 203.896 270.487 197.896 264.487 199.896C258.487 201.896 254.487 210.896 260.488 215.897C264.702 219.409 270.507 218.41 274.503 222.04C279.274 226.373 283.6 239.034 282.237 245.396C281.487 248.896 274.487 254.896 274.487 254.896C274.487 254.896 269.487 248.896 260.487 242.896C251.487 236.896 245.487 233.896 237.487 227.896C229.487 221.896 221.987 210.396 221.987 210.396C221.987 210.396 221.987 161.396 265.487 115.896Z" fill="#041D72"/>
<path fill-rule="evenodd" clip-rule="evenodd" d="M416.557 94.6274C411.136 90.8864 405.685 88.5674 399.078 87.8084C390.227 86.7904 373.37 84.9494 371.987 97.3964C371.524 101.567 370.251 105.537 368.751 109.439C367.402 112.947 364.557 117.446 365.634 121.296C366.636 124.877 371.44 127.755 374.661 129.061C382.799 132.357 383.332 124.417 388.844 121.206C391.559 119.624 395.359 119.058 397.487 121.896C400.487 125.896 396.487 135.896 387.487 137.896C378.487 139.896 376.487 136.896 368.487 137.896C360.487 138.896 354.487 143.896 350.487 146.896C346.487 149.896 342.487 150.896 339.487 158.896C336.487 166.896 337.487 174.896 347.487 173.896C357.487 172.896 360.487 167.896 369.487 170.896C378.487 173.896 383.487 171.896 388.487 168.896C393.487 165.896 398.487 167.896 403.487 172.896C408.487 177.896 409.487 179.896 417.487 179.896C425.487 179.896 428.487 166.896 443.487 180.896C458.487 194.896 461.487 200.896 474.487 207.896C487.487 214.896 506.487 220.396 511.987 208.146C511.987 208.146 503.987 139.396 458.737 108.146C458.737 108.146 435.488 103.896 427.486 100.896C423.239 99.3034 419.984 96.9924 416.557 94.6274Z" fill="#041D72"/>
<path fill-rule="evenodd" clip-rule="evenodd" d="M334.154 217.063C334.154 217.063 339.987 212.396 344.987 209.396C349.987 206.396 355.987 198.396 356.987 197.396C357.987 196.396 363.987 188.396 368.987 195.396C373.987 202.396 375.987 211.396 391.987 208.396C407.987 205.396 408.987 200.396 418.987 204.396C423.189 206.077 429.074 208.533 431.288 212.795C431.641 213.475 431.889 214.237 431.809 214.999C431.454 218.371 425.722 220.102 423.18 221.251C419.585 222.878 415.883 224.438 412.737 226.867C409.601 229.287 409.987 232.828 409.987 236.396L404.987 238.896C404.987 238.896 389.154 224.896 374.321 220.396C359.487 215.896 334.154 217.063 334.154 217.063Z" fill="#041D72"/>
<path fill-rule="evenodd" clip-rule="evenodd" d="M472.899 242.026C477.028 241.022 481.237 241.254 484.986 243.396C487.768 244.986 490.986 247.022 491.521 250.453C492.165 254.589 489.68 258.617 488.013 262.205C486.226 266.048 484.819 270.235 483.986 274.396C482.986 279.396 477.986 287.396 467.986 282.396C457.986 277.396 446.986 268.396 453.987 256.396C457.586 250.224 465.101 243.922 472.899 242.026Z" fill="#041D72"/>
<path fill-rule="evenodd" clip-rule="evenodd" d="M339.978 107.702C340.899 105.16 341.885 102.478 344.663 101.851C347.335 101.248 350.724 102.269 353.196 103.257C358.599 105.415 359.247 112.431 359.577 117.423C359.92 122.616 359.96 128.178 353.487 128.896C348.59 129.44 343.87 126.723 340.767 123.1C336.814 118.487 337.22 114.658 339.413 109.212C339.608 108.726 339.791 108.217 339.978 107.702Z" fill="#041D72"/>
<path fill-rule="evenodd" clip-rule="evenodd" d="M656.987 142.988C647.443 142.988 643.404 122.734 637.887 89.3778C635.781 76.6438 633.603 63.4768 630.942 53.8248C627.383 40.9158 624.178 38.9878 622.584 38.9878C620.99 38.9878 617.785 40.9158 614.226 53.8248C611.566 63.4768 609.388 76.6438 607.282 89.3778C601.765 122.734 597.726 142.988 588.182 142.988C578.638 142.988 574.6 122.734 569.084 89.3768C566.978 76.6428 564.8 63.4758 562.14 53.8238C558.582 40.9158 555.378 38.9878 553.784 38.9878C552.19 38.9878 548.986 40.9158 545.427 53.8248C542.766 63.4768 540.589 76.6438 538.483 89.3778C532.966 122.734 528.928 142.988 519.384 142.988C509.841 142.988 505.803 122.734 500.287 89.3778C498.181 76.6438 496.004 63.4768 493.343 53.8248C489.785 40.9158 486.581 38.9878 484.987 38.9878C483.924 38.9878 483.062 38.1268 483.062 37.0628C483.062 35.9998 483.924 35.1378 484.987 35.1378C494.53 35.1378 498.569 55.3918 504.085 88.7488C506.191 101.482 508.368 114.649 511.028 124.301C514.586 137.211 517.791 139.138 519.384 139.138C520.978 139.138 524.183 137.211 527.741 124.301C530.402 114.649 532.579 101.482 534.685 88.7488C540.202 55.3918 544.24 35.1378 553.784 35.1378C563.327 35.1378 567.365 55.3918 572.882 88.7488C574.987 101.482 577.165 114.649 579.825 124.301C583.383 137.211 586.588 139.138 588.182 139.138C589.776 139.138 592.981 137.211 596.54 124.301C599.2 114.649 601.378 101.482 603.484 88.7488C609.001 55.3918 613.04 35.1378 622.584 35.1378C632.129 35.1378 636.168 55.3918 641.685 88.7498C643.791 101.483 645.968 114.649 648.63 124.301C652.188 137.211 655.393 139.138 656.987 139.138C658.05 139.138 658.912 140 658.912 141.063C658.912 142.127 658.05 142.988 656.987 142.988Z" fill="#041D72"/>
<path fill-rule="evenodd" clip-rule="evenodd" d="M717.987 166.321C707.204 166.321 702.503 148.543 697.525 129.721C693.343 113.91 688.603 95.9878 680.784 95.9878C672.966 95.9878 668.225 113.91 664.044 129.721C659.066 148.544 654.364 166.321 643.581 166.321C632.799 166.321 628.098 148.543 623.121 129.721C618.94 113.91 614.201 95.9878 606.383 95.9878C598.566 95.9878 593.826 113.91 589.645 129.721C584.667 148.544 579.966 166.321 569.184 166.321C558.404 166.321 553.702 148.544 548.725 129.723C548.382 128.424 548.038 127.125 547.693 125.832C547.418 124.804 548.028 123.75 549.055 123.475C550.083 123.199 551.137 123.811 551.411 124.838C551.758 126.133 552.102 127.436 552.447 128.739C556.628 144.55 561.367 162.471 569.184 162.471C577.002 162.471 581.741 144.55 585.923 128.738C590.901 109.916 595.602 92.1378 606.383 92.1378C617.165 92.1378 621.866 109.916 626.843 128.737C631.024 144.55 635.763 162.471 643.581 162.471C651.4 162.471 656.14 144.55 660.322 128.738C665.3 109.916 670.002 92.1378 680.784 92.1378C691.567 92.1378 696.268 109.916 701.246 128.737C705.428 144.55 710.168 162.471 717.987 162.471C719.05 162.471 719.912 163.333 719.912 164.396C719.912 165.459 719.05 166.321 717.987 166.321Z" fill="#041D72"/>
<path fill-rule="evenodd" clip-rule="evenodd" d="M792.581 166.321C781.799 166.321 777.098 148.543 772.121 129.721C767.94 113.91 763.201 95.9878 755.383 95.9878C747.565 95.9878 742.826 113.91 738.644 129.721C733.667 148.544 728.966 166.321 718.184 166.321C707.403 166.321 702.702 148.544 697.725 129.723C697.381 128.424 697.038 127.125 696.692 125.832C696.418 124.804 697.028 123.75 698.055 123.475C699.085 123.199 700.137 123.811 700.411 124.838C700.758 126.133 701.102 127.436 701.447 128.739C705.628 144.55 710.367 162.471 718.184 162.471C726.002 162.471 730.741 144.55 734.923 128.738C739.9 109.916 744.602 92.1378 755.383 92.1378C766.164 92.1378 770.866 109.916 775.843 128.737C780.024 144.55 784.763 162.471 792.581 162.471C796.769 162.471 800.427 157.51 804.094 146.859C804.439 145.855 805.533 145.32 806.54 145.666C807.545 146.012 808.08 147.107 807.733 148.113C804.815 156.591 800.456 166.321 792.581 166.321Z" fill="#041D72"/>
<path fill-rule="evenodd" clip-rule="evenodd" d="M563.987 43.396C563.987 48.918 559.51 53.396 553.987 53.396C548.464 53.396 543.987 48.918 543.987 43.396C543.987 37.874 548.464 33.396 553.987 33.396C559.51 33.396 563.987 37.874 563.987 43.396Z" fill="#FF5A00"/>
<path fill-rule="evenodd" clip-rule="evenodd" d="M597.987 137.396C597.987 142.918 593.51 147.396 587.987 147.396C582.464 147.396 577.987 142.918 577.987 137.396C577.987 131.874 582.464 127.396 587.987 127.396C593.51 127.396 597.987 131.874 597.987 137.396Z" fill="#FF5A00"/>
<path fill-rule="evenodd" clip-rule="evenodd" d="M648.987 90.396C648.987 95.918 644.51 100.396 638.987 100.396C633.464 100.396 628.987 95.918 628.987 90.396C628.987 84.874 633.464 80.396 638.987 80.396C644.51 80.396 648.987 84.874 648.987 90.396Z" fill="#FF5A00"/>
<path fill-rule="evenodd" clip-rule="evenodd" d="M690.987 95.396C690.987 100.918 686.51 105.396 680.987 105.396C675.464 105.396 670.987 100.918 670.987 95.396C670.987 89.874 675.464 85.396 680.987 85.396C686.51 85.396 690.987 89.874 690.987 95.396Z" fill="#FF5A00"/>
<path fill-rule="evenodd" clip-rule="evenodd" d="M750.987 118.396C750.987 123.918 746.51 128.396 740.987 128.396C735.464 128.396 730.987 123.918 730.987 118.396C730.987 112.874 735.464 108.396 740.987 108.396C746.51 108.396 750.987 112.874 750.987 118.396Z" fill="#FF5A00"/>
<path fill-rule="evenodd" clip-rule="evenodd" d="M540.987 115.396C540.987 120.918 536.51 125.396 530.987 125.396C525.464 125.396 520.987 120.918 520.987 115.396C520.987 109.874 525.464 105.396 530.987 105.396C536.51 105.396 540.987 109.874 540.987 115.396Z" fill="#FF5A00"/>
<path fill-rule="evenodd" clip-rule="evenodd" d="M748.989 382.321C748.898 382.321 748.807 382.315 748.715 382.301C747.662 382.151 746.931 381.176 747.081 380.124C748.945 367.08 749.752 353.898 750.391 338.118C751.251 316.887 748.189 300.151 740.463 283.851C737.577 277.762 734.286 271.714 731.104 265.863C725.989 256.461 720.7 246.739 716.858 236.455C705.674 206.523 705.494 181.953 716.325 163.425C716.862 162.508 718.041 162.2 718.958 162.734C719.876 163.271 720.185 164.45 719.648 165.368C709.43 182.848 709.704 206.312 720.464 235.107C724.212 245.137 729.434 254.739 734.486 264.024C737.693 269.92 741.01 276.017 743.942 282.203C751.948 299.095 755.123 316.388 754.238 338.274C753.593 354.171 752.779 367.464 750.892 380.669C750.755 381.629 749.931 382.321 748.989 382.321Z" fill="#041D72"/>
<path fill-rule="evenodd" clip-rule="evenodd" d="M591.485 641.821C590.457 641.821 589.604 641.009 589.563 639.972C589.521 638.91 590.348 638.015 591.41 637.973C591.77 637.959 592.129 637.943 592.488 637.923C626.278 636.03 663.692 622.14 697.836 598.812C702.411 595.687 706.963 592.363 711.368 588.932C751.089 557.988 780.369 517.53 793.813 475.01C800.621 453.475 803.834 430.969 806.941 409.204C809.276 392.847 811.69 375.933 815.614 359.451C818.032 349.297 823.859 342.393 832.023 340.012C838.553 338.108 845.47 338.789 852.159 339.448C856.766 339.901 861.117 340.331 865.331 339.978C872.213 339.404 880.812 336.858 882.701 327.99C884.451 319.767 882.086 310.849 879.798 302.225C878.636 297.842 877.434 293.309 876.809 288.961C876.146 284.338 875.319 278.584 877.605 273.784C880.618 267.458 889.03 267.502 897.164 267.54C903.214 267.574 909.479 267.602 911.854 264.818C912.959 263.523 913.275 261.547 912.818 258.774C911.797 252.569 907.727 246.816 903.791 241.252C902.59 239.555 901.457 237.952 900.397 236.326C894.979 228.009 890.052 219.24 885.288 210.759C879.897 201.164 874.321 191.242 868.048 182.011C856.467 164.971 842.799 148.217 821.386 141.063C810.677 137.484 799.309 135.662 788.513 135.821C787.484 135.845 786.577 134.985 786.562 133.923C786.547 132.86 787.397 131.986 788.46 131.971C799.692 131.818 811.491 133.698 822.606 137.413C845.103 144.928 859.271 162.249 871.232 179.847C877.597 189.214 883.213 199.209 888.644 208.875C893.378 217.3 898.273 226.013 903.623 234.224C904.642 235.789 905.755 237.363 906.934 239.029C911.121 244.948 915.451 251.069 916.616 258.149C917.259 262.053 916.642 265.137 914.783 267.317C911.248 271.46 904.075 271.432 897.145 271.389C890.211 271.36 883.043 271.319 881.081 275.438C879.295 279.188 880.029 284.303 880.62 288.414C881.213 292.54 882.333 296.765 883.52 301.238C885.923 310.3 888.408 319.67 886.465 328.791C884.608 337.514 877.216 342.849 865.651 343.814C861.086 344.194 856.357 343.729 851.782 343.278C845.165 342.628 838.916 342.011 833.101 343.708C824.413 346.242 820.833 354.152 819.359 360.342C815.475 376.653 813.074 393.477 810.752 409.748C807.623 431.668 804.387 454.334 797.484 476.171C783.807 519.426 754.064 560.551 713.733 591.969C709.266 595.449 704.648 598.821 700.007 601.99C665.293 625.709 627.184 639.835 592.702 641.766C592.322 641.787 591.943 641.804 591.563 641.819C591.537 641.82 591.511 641.821 591.485 641.821Z" fill="#041D72"/>
<path fill-rule="evenodd" clip-rule="evenodd" d="M845.823 207.449C837.671 207.449 830.668 203.643 830.552 203.579C829.622 203.062 829.287 201.89 829.803 200.962C830.321 200.034 831.491 199.698 832.419 200.213C832.462 200.236 836.769 202.589 842.251 203.384C849.297 204.403 854.936 202.476 859.017 197.653C859.704 196.842 860.919 196.741 861.729 197.427C862.541 198.114 862.642 199.328 861.955 200.139C857.202 205.757 851.257 207.449 845.823 207.449Z" fill="#041D72"/>
<path fill-rule="evenodd" clip-rule="evenodd" d="M858.487 188.821H811.487C810.424 188.821 809.562 187.96 809.562 186.896C809.562 185.833 810.424 184.971 811.487 184.971H858.487C859.55 184.971 860.412 185.833 860.412 186.896C860.412 187.96 859.55 188.821 858.487 188.821Z" fill="#041D72"/>
<path fill-rule="evenodd" clip-rule="evenodd" d="M889.984 306.885C871.576 306.885 854.282 297.001 853.522 296.562C852.603 296.029 852.289 294.852 852.821 293.932C853.352 293.013 854.528 292.696 855.45 293.23C855.636 293.337 874.208 303.915 892.385 302.974C893.445 302.918 894.353 303.734 894.408 304.794C894.464 305.856 893.649 306.762 892.588 306.818C891.718 306.864 890.85 306.885 889.984 306.885Z" fill="#041D72"/>
<path fill-rule="evenodd" clip-rule="evenodd" d="M833.487 266.896C833.487 277.942 824.533 286.896 813.487 286.896C802.442 286.896 793.487 277.942 793.487 266.896C793.487 255.85 802.442 246.896 813.487 246.896C824.533 246.896 833.487 255.85 833.487 266.896Z" fill="#041D72"/>
<path fill-rule="evenodd" clip-rule="evenodd" d="M526.874 669.848C515.104 669.848 508.014 669.328 507.839 669.315C506.779 669.234 505.986 668.308 506.067 667.248C506.149 666.189 507.063 665.384 508.134 665.477C508.57 665.509 552.436 668.717 604.344 658.863C634.769 653.087 661.964 644.021 685.174 631.915C714.098 616.829 736.878 596.951 752.882 572.831C753.47 571.948 754.665 571.703 755.55 572.292C756.436 572.88 756.678 574.075 756.09 574.96C739.713 599.641 716.437 619.959 686.907 635.353C663.35 647.632 635.782 656.821 604.97 662.661C573.384 668.65 544.739 669.848 526.874 669.848Z" fill="#041D72"/>
<path fill-rule="evenodd" clip-rule="evenodd" d="M142.487 40.896C115.977 40.896 94.4866 62.386 94.4866 88.896C94.4866 104.782 102.209 118.859 114.098 127.595C112.689 135.209 111.003 144.312 110.987 144.395C110.206 148.614 114.641 151.212 118.333 149.574C120.934 148.42 123.258 145.125 125.251 143.132C127.677 140.707 130.103 138.281 132.528 135.855C135.742 136.534 139.071 136.896 142.487 136.896C168.997 136.896 190.487 115.406 190.487 88.896C190.487 62.386 168.997 40.896 142.487 40.896Z" fill="#041D72"/>
<path fill-rule="evenodd" clip-rule="evenodd" d="M154.454 96.2661C152.721 96.2671 151.02 96.0081 149.417 95.4801C145.471 94.1811 142.231 91.7711 139.098 89.4401C135.253 86.5791 131.622 83.8781 127.006 83.4171C120.083 82.7351 113.767 86.4241 111.271 92.6161C110.874 93.6011 109.752 94.0761 108.767 93.6811C107.781 93.2841 107.304 92.1621 107.701 91.1761C110.842 83.3821 118.76 78.7251 127.388 79.5871C133.064 80.1541 137.3 83.3041 141.395 86.3511C144.415 88.5981 147.267 90.7201 150.621 91.8241C154.414 93.0731 158.98 92.3401 162.835 89.8641C166.673 87.3981 169.128 83.6881 169.573 79.6831C169.69 78.6271 170.643 77.8651 171.699 77.9831C172.755 78.1001 173.516 79.0521 173.399 80.1091C172.826 85.2711 169.734 90.0061 164.916 93.1021C161.678 95.1821 158 96.2661 154.454 96.2661Z" fill="white"/>
<path fill-rule="evenodd" clip-rule="evenodd" d="M105.239 197.232C100.744 197.232 97.1015 193.588 97.1015 189.094C97.1015 184.599 100.744 180.956 105.239 180.956C109.734 180.956 113.378 184.599 113.378 189.094C113.378 193.588 109.734 197.232 105.239 197.232ZM194.021 265.298C188.533 260.752 183.069 256.174 177.621 251.581C170.762 245.797 163.905 240.005 157.204 234.041C153.79 231.002 150.506 228.12 148.247 224.065C145.554 219.232 144.036 213.872 142.141 208.705C139.801 202.326 137.88 195.711 135.203 189.464C132.984 184.285 128.545 161.349 106.349 161.349C84.1544 161.349 79.7155 181.326 79.7155 181.326L63.4385 193.164C59.3685 196.493 64.5485 198.712 64.5485 198.712C69.6545 200.627 77.7315 203.068 79.9945 208.579C82.4725 214.613 80.3344 222.186 79.9625 228.463C79.5415 235.557 79.5865 242.745 80.8245 249.761C85.2635 274.917 112.638 283.055 112.638 283.055C111.898 300.071 123.736 303.031 123.736 303.031C123.736 303.031 124.845 299.702 125.215 287.494C125.57 275.801 140.752 276.396 140.752 276.396H189.582C189.582 276.396 196.24 277.136 197.72 272.697C199.2 268.257 194.021 265.298 194.021 265.298Z" fill="#FF5A00"/>
<mask id="mask2" mask-type="alpha" maskUnits="userSpaceOnUse" x="0" y="312" width="84" height="266">
<path fill-rule="evenodd" clip-rule="evenodd" d="M0 312.472H83.4117V577.165H0V312.472Z" fill="white"/>
</mask>
<g mask="url(#mask2)">
<path fill-rule="evenodd" clip-rule="evenodd" d="M43.5666 577.165C41.0676 577.165 38.5306 576.964 35.9846 576.549C13.8906 572.956 -0.564353 555.494 0.0166472 533.1C0.933647 497.707 18.9566 467.851 36.3846 438.978C50.2406 416.023 64.5686 392.288 70.1036 365.999C77.7306 329.77 61.9166 316.011 61.7556 315.876C60.9446 315.194 60.8326 313.982 61.5096 313.168C62.1866 312.353 63.3916 312.236 64.2106 312.91C64.9417 313.512 82.0166 328.096 73.8696 366.792C68.2016 393.719 53.7026 417.738 39.6806 440.967C22.5106 469.411 4.75565 498.826 3.86465 533.199C3.33665 553.584 16.4926 569.478 36.6036 572.75C50.5906 575.024 64.2467 570.353 71.3906 560.844C79.3406 550.262 78.4296 534.926 77.6246 521.396C77.4146 517.863 77.2166 514.527 77.1616 511.298C77.1286 509.352 77.0396 507.29 76.9446 505.104C76.5396 495.745 76.0807 485.139 79.7337 477.1C80.1747 476.132 81.3156 475.702 82.2826 476.145C83.2506 476.583 83.6786 477.725 83.2386 478.692C79.9656 485.893 80.4036 496.012 80.7906 504.938C80.8867 507.148 80.9767 509.237 81.0107 511.231C81.0647 514.38 81.2596 517.678 81.4676 521.169C82.3116 535.359 83.2676 551.443 74.4676 563.156C67.7976 572.034 56.1726 577.165 43.5666 577.165Z" fill="#041D72"/>
</g>
<path fill-rule="evenodd" clip-rule="evenodd" d="M82.4891 459.821C82.3961 459.821 82.3021 459.814 82.2061 459.8C81.1551 459.646 80.4271 458.668 80.5821 457.616C80.6341 457.264 86.1601 422.95 126.737 422.95C127.33 422.95 127.926 422.957 128.533 422.972C129.596 422.998 130.437 423.881 130.411 424.943C130.385 426.006 129.477 426.881 128.44 426.82C112.084 426.439 99.7081 431.592 91.6431 442.187C85.6381 450.076 84.4031 458.096 84.3911 458.176C84.2501 459.133 83.4281 459.821 82.4891 459.821Z" fill="#041D72"/>
<path fill-rule="evenodd" clip-rule="evenodd" d="M185.148 406.002L177.666 395.655C175.642 392.856 171.694 392.221 168.895 394.245L54.3842 477.048C51.5852 479.072 50.9502 483.02 52.9752 485.819L60.4572 496.166C62.4812 498.966 66.4292 499.601 69.2292 497.576L107.422 469.958C110.044 462.316 118.364 441.763 134.486 432.896C144.224 427.54 154.191 428.352 161.864 430.591L183.738 414.773C186.538 412.749 187.172 408.802 185.148 406.002Z" fill="#041D72"/>
<path fill-rule="evenodd" clip-rule="evenodd" d="M201.948 552.657C187.178 552.657 172.04 545.932 164.249 535.659C158.019 527.444 156.659 517.682 160.316 507.431C162.829 500.388 167.004 494.069 171.042 487.958C171.549 487.189 172.055 486.424 172.555 485.66C180.002 474.292 187.004 461.116 182.473 449.582C177.879 437.886 164.762 431.801 157.352 429.214C156.348 428.863 155.819 427.765 156.169 426.761C156.52 425.759 157.615 425.227 158.621 425.579C166.654 428.384 180.9 435.048 186.056 448.174C191.228 461.341 183.761 475.579 175.775 487.769C175.272 488.538 174.764 489.307 174.254 490.079C170.343 496 166.298 502.122 163.942 508.724C160.742 517.693 161.909 526.203 167.317 533.333C174.948 543.396 190.442 549.724 204.981 548.703C221.984 547.519 235.329 536.434 240.68 519.053C242.644 512.672 243.64 506.056 243.562 499.921V372.896C243.562 372.835 243.565 372.772 243.571 372.711C243.583 372.58 244.739 359.289 237.076 350.87C232.82 346.192 226.565 343.821 218.487 343.821C215.865 343.821 211.375 343.88 205.69 343.953C187.075 344.193 158.943 344.559 150.23 343.522C133.781 341.565 123.562 331.363 123.562 316.896V292.896C123.566 292.683 124.14 275.804 141.654 275.804C142.717 275.804 143.578 276.666 143.578 277.729C143.578 278.793 142.717 279.654 141.654 279.654C135.898 279.654 131.771 281.829 129.386 286.118C127.529 289.459 127.412 292.91 127.411 292.944V316.896C127.411 329.442 136.112 337.967 150.685 339.7C159.146 340.706 188.25 340.329 205.64 340.104C211.339 340.03 215.841 339.971 218.487 339.971C227.707 339.971 234.926 342.773 239.943 348.3C248.471 357.693 247.533 371.558 247.411 372.982V499.896C247.495 506.402 246.439 513.427 244.359 520.185C238.521 539.148 223.901 551.244 205.249 552.543C204.154 552.619 203.051 552.657 201.948 552.657Z" fill="#041D72"/>
<path fill-rule="evenodd" clip-rule="evenodd" d="M151.485 493.821C151.169 493.821 150.848 493.743 150.552 493.579C149.623 493.062 149.288 491.89 149.804 490.962C150.423 489.847 165.171 463.491 183.208 447.458C184.002 446.753 185.219 446.821 185.925 447.618C186.631 448.412 186.56 449.629 185.766 450.335C168.214 465.936 153.318 492.564 153.17 492.831C152.818 493.464 152.161 493.821 151.485 493.821Z" fill="#041D72"/>
<path fill-rule="evenodd" clip-rule="evenodd" d="M136.485 483.821C136.156 483.821 135.822 483.737 135.517 483.558C134.599 483.023 134.289 481.844 134.824 480.926C135.693 479.436 156.324 444.326 174.626 435.175C175.577 434.701 176.733 435.085 177.209 436.036C177.684 436.986 177.298 438.142 176.348 438.618C159.069 447.257 138.357 482.511 138.15 482.866C137.792 483.479 137.147 483.821 136.485 483.821Z" fill="#041D72"/>
<path fill-rule="evenodd" clip-rule="evenodd" d="M123.486 471.821C123.248 471.821 123.006 471.777 122.772 471.683C121.785 471.289 121.305 470.169 121.699 469.181C135.931 433.602 162.516 428.375 163.641 428.17C164.687 427.978 165.69 428.672 165.88 429.717C166.07 430.762 165.379 431.764 164.335 431.956C164.019 432.016 138.659 437.148 125.274 470.611C124.972 471.364 124.25 471.821 123.486 471.821Z" fill="#041D72"/>
<path fill-rule="evenodd" clip-rule="evenodd" d="M223.003 598.958C215.938 598.958 208.585 597.521 202.842 594.968C200.16 593.775 197.448 592.437 194.824 591.144C185.915 586.749 176.691 582.207 166.828 582.393C155.839 582.6 145.063 588.092 138 597.084C137.343 597.92 136.133 598.065 135.297 597.409C134.461 596.753 134.316 595.543 134.973 594.707C142.742 584.815 154.623 578.772 166.755 578.543C177.566 578.376 187.205 583.094 196.527 587.691C199.117 588.969 201.795 590.289 204.405 591.45C216.806 596.963 236.124 596.711 245.112 587.548C245.857 586.787 247.075 586.777 247.835 587.521C248.593 588.266 248.605 589.484 247.86 590.243C241.538 596.687 232.442 598.493 225.925 598.874C224.96 598.93 223.984 598.958 223.003 598.958Z" fill="#041D72"/>
<path fill-rule="evenodd" clip-rule="evenodd" d="M223.003 619.958C215.938 619.958 208.585 618.521 202.842 615.968C200.16 614.775 197.448 613.437 194.824 612.144C185.915 607.749 176.691 603.219 166.828 603.393C155.839 603.6 145.063 609.092 138 618.084C137.343 618.919 136.133 619.067 135.297 618.409C134.461 617.753 134.316 616.543 134.973 615.707C142.742 605.815 154.623 599.772 166.755 599.543C177.566 599.385 187.205 604.094 196.527 608.691C199.117 609.969 201.795 611.289 204.405 612.45C216.806 617.964 236.124 617.711 245.112 608.548C245.857 607.787 247.075 607.777 247.835 608.521C248.593 609.266 248.605 610.484 247.86 611.243C241.538 617.687 232.442 619.493 225.925 619.874C224.96 619.93 223.984 619.958 223.003 619.958Z" fill="#041D72"/>
<path fill-rule="evenodd" clip-rule="evenodd" d="M224.487 371.821H115.487C114.424 371.821 113.562 370.96 113.562 369.896C113.562 368.833 114.424 367.971 115.487 367.971H224.487C225.55 367.971 226.412 368.833 226.412 369.896C226.412 370.96 225.55 371.821 224.487 371.821Z" fill="#041D72"/>
<path fill-rule="evenodd" clip-rule="evenodd" d="M224.487 388.821H115.487C114.424 388.821 113.562 387.96 113.562 386.896C113.562 385.833 114.424 384.971 115.487 384.971H224.487C225.55 384.971 226.412 385.833 226.412 386.896C226.412 387.96 225.55 388.821 224.487 388.821Z" fill="#041D72"/>
<path fill-rule="evenodd" clip-rule="evenodd" d="M224.487 405.821H192.32C191.258 405.821 190.396 404.96 190.396 403.896C190.396 402.833 191.258 401.971 192.32 401.971H224.487C225.55 401.971 226.412 402.833 226.412 403.896C226.412 404.96 225.55 405.821 224.487 405.821Z" fill="#041D72"/>
<path fill-rule="evenodd" clip-rule="evenodd" d="M171.32 405.821H115.487C114.424 405.821 113.562 404.96 113.562 403.896C113.562 402.833 114.424 401.971 115.487 401.971H171.32C172.383 401.971 173.245 402.833 173.245 403.896C173.245 404.96 172.383 405.821 171.32 405.821Z" fill="#041D72"/>
<path fill-rule="evenodd" clip-rule="evenodd" d="M224.487 422.821H168.487C167.424 422.821 166.562 421.96 166.562 420.896C166.562 419.833 167.424 418.971 168.487 418.971H224.487C225.55 418.971 226.412 419.833 226.412 420.896C226.412 421.96 225.55 422.821 224.487 422.821Z" fill="#041D72"/>
<path fill-rule="evenodd" clip-rule="evenodd" d="M224.487 439.821H175.987C174.924 439.821 174.062 438.96 174.062 437.896C174.062 436.833 174.924 435.971 175.987 435.971H224.487C225.55 435.971 226.412 436.833 226.412 437.896C226.412 438.96 225.55 439.821 224.487 439.821Z" fill="#041D72"/>
<path fill-rule="evenodd" clip-rule="evenodd" d="M224.487 456.821H185.987C184.924 456.821 184.062 455.96 184.062 454.896C184.062 453.833 184.924 452.971 185.987 452.971H224.487C225.55 452.971 226.412 453.833 226.412 454.896C226.412 455.96 225.55 456.821 224.487 456.821Z" fill="#041D72"/>
<path fill-rule="evenodd" clip-rule="evenodd" d="M170.902 397.214L182.573 411.793C182.912 411.617 183.354 411.296 183.662 410.876H183.663L204.889 381.967L172.035 396.352C171.558 396.562 171.149 396.923 170.902 397.214ZM182.206 415.791C181.326 415.791 180.567 415.447 180.062 414.815L167.403 399.003C166.885 398.356 166.719 397.513 166.937 396.629C167.301 395.147 168.763 393.582 170.491 392.827L206.261 377.164C208.646 376.12 209.865 377.332 210.183 377.729C210.5 378.125 211.416 379.581 209.877 381.679L186.765 413.154H186.766C185.65 414.674 183.804 415.759 182.277 415.79C182.254 415.791 182.23 415.791 182.206 415.791Z" fill="#041D72"/>
<path fill-rule="evenodd" clip-rule="evenodd" d="M188.987 386.396L196.987 395.396L208.862 379.396L188.987 386.396Z" fill="#041D72"/>
<path fill-rule="evenodd" clip-rule="evenodd" d="M196.489 186.821C196.409 186.821 196.329 186.816 196.248 186.806C195.193 186.675 194.445 185.713 194.577 184.658C201.894 126.115 236.156 90.1758 263.609 70.3368C293.303 48.8768 321.705 41.1128 321.989 41.0368C323.02 40.7608 324.071 41.3708 324.345 42.3978C324.621 43.4248 324.011 44.4788 322.985 44.7558C322.707 44.8298 294.884 52.4528 265.753 73.5358C238.966 92.9238 205.535 128.023 198.396 185.134C198.275 186.109 197.446 186.821 196.489 186.821Z" fill="#041D72"/>
<path fill-rule="evenodd" clip-rule="evenodd" d="M727.987 162.396C727.987 167.918 723.51 172.396 717.987 172.396C712.464 172.396 707.987 167.918 707.987 162.396C707.987 156.874 712.464 152.396 717.987 152.396C723.51 152.396 727.987 156.874 727.987 162.396Z" fill="#FF5A00"/>
</svg>
