<svg width="845" height="171" viewBox="0 0 845 171" fill="none" xmlns="http://www.w3.org/2000/svg">
<path fill-rule="evenodd" clip-rule="evenodd" d="M792.553 77.3905C791.832 78.5495 791.11 79.7545 790.389 81.0215C789.101 83.2855 787.906 85.5905 786.777 87.9225C794.255 88.0175 821.652 87.7995 836.56 80.0575C834.739 76.9545 832.646 74.0335 830.315 71.3195C818.921 76.8355 801.75 77.4205 795.034 77.4205C793.854 77.4205 792.998 77.4035 792.553 77.3905Z" fill="#041D72"/>
<path fill-rule="evenodd" clip-rule="evenodd" d="M803.034 119.014C790.677 119.014 780.151 117.953 776.485 117.535C775.54 121.566 774.75 125.591 774.097 129.578C778.145 130.009 789.388 131.024 802.544 130.632C819.289 130.128 833.196 127.517 843.448 123.023C844.152 119.741 844.587 116.36 844.73 112.902C834.998 116.821 821.59 118.876 804.68 119.007C804.129 119.012 803.579 119.014 803.034 119.014Z" fill="#041D72"/>
<path fill-rule="evenodd" clip-rule="evenodd" d="M785.385 90.9013C783.946 94.0893 782.641 97.3273 781.466 100.595C789.864 101.381 822.874 103.742 842.69 94.6303C841.554 90.4483 839.977 86.4493 838.013 82.6813C823.781 90.1073 799.662 90.9513 789.463 90.9513C787.567 90.9513 786.166 90.9223 785.385 90.9013Z" fill="#041D72"/>
<path fill-rule="evenodd" clip-rule="evenodd" d="M773.801 115.848C773.802 115.794 773.799 115.741 773.806 115.686C773.827 115.525 773.88 115.377 773.947 115.238C775.03 110.813 776.309 106.388 777.798 102.003C777.79 101.906 777.792 101.805 777.804 101.703C777.843 101.381 777.983 101.097 778.186 100.874C780.761 93.4926 783.95 86.2416 787.898 79.3346C795.99 65.1766 804.206 57.7146 807.717 54.9266C804.575 53.6266 801.298 52.5936 797.914 51.8386C794.289 54.8676 786.731 62.1186 779.389 75.0216C762.726 104.312 759.807 139.992 760.363 165.181C762.923 166.325 765.578 167.291 768.313 168.072C768.205 157.066 768.788 144.335 770.816 131.102C770.796 130.968 770.788 130.83 770.806 130.69C770.827 130.522 770.882 130.369 770.952 130.225C771.702 125.474 772.641 120.663 773.801 115.848Z" fill="#041D72"/>
<path fill-rule="evenodd" clip-rule="evenodd" d="M796.413 147.013C784.805 147.013 775.227 145.91 772.132 145.509C771.841 148.944 771.638 152.306 771.504 155.576C777.247 156.556 808.726 161.177 830.615 149.1C832.788 146.531 834.748 143.777 836.47 140.865C826.512 144.807 813.606 146.876 797.932 147.007C797.422 147.011 796.915 147.013 796.413 147.013Z" fill="#041D72"/>
<path fill-rule="evenodd" clip-rule="evenodd" d="M776.898 73.3349C783.408 61.9459 789.998 54.8899 794.155 51.1129C791.627 50.7169 789.043 50.4929 786.419 50.4229C783.033 53.1679 775.092 60.4829 767.389 74.0219C752.05 100.984 748.356 133.368 748.299 157.994C751.123 160.162 754.145 162.079 757.334 163.724C756.92 138.176 760.135 102.661 776.898 73.3349Z" fill="#041D72"/>
<path fill-rule="evenodd" clip-rule="evenodd" d="M781.78 50.4579C777.655 50.6619 773.639 51.2819 769.774 52.2779C763.589 57.8589 738.937 84.0559 737.759 147.612C740.034 150.482 742.564 153.138 745.318 155.546C745.614 130.79 749.654 99.0039 764.898 72.3349C771.217 61.2809 777.609 54.3119 781.78 50.4579Z" fill="#041D72"/>
<path fill-rule="evenodd" clip-rule="evenodd" d="M792.521 160.3C782.51 160.3 774.509 159.133 771.399 158.606C771.299 162.156 771.28 165.579 771.322 168.845C775.655 169.839 780.16 170.382 784.793 170.382C800.196 170.382 814.238 164.572 824.862 155.032C817.569 157.831 808.082 159.935 795.833 160.256C794.709 160.286 793.602 160.3 792.521 160.3Z" fill="#041D72"/>
<mask id="mask0" mask-type="alpha" maskUnits="userSpaceOnUse" x="0" y="1" width="764" height="161">
<path fill-rule="evenodd" clip-rule="evenodd" d="M0.000366211 1H763.548V161.308H0.000366211V1Z" fill="white"/>
</mask>
<g mask="url(#mask0)">
<path fill-rule="evenodd" clip-rule="evenodd" d="M505.625 83.332C500.88 82.046 495.757 80.592 490.107 78.916C481.719 76.429 473.381 73.185 465.317 70.048C461.653 68.622 457.943 67.179 454.189 65.79C460.219 63.058 465.841 60.9 471.259 59.235L472.611 58.818C479.317 56.746 486.246 54.605 492.99 55.01C499.065 55.378 503.25 57.908 505.428 62.529C508.043 68.08 507.581 75.943 505.625 83.332ZM498.419 99.375C476.004 130.14 435.315 148.072 392.228 146.154C375.9 145.431 355.535 143.093 342.884 131.336C340.975 129.561 339.251 127.647 337.721 125.619C344.645 122.956 351.245 119.71 357.077 116.768C361.98 114.293 366.902 111.848 371.827 109.402C383.56 103.573 395.693 97.545 407.404 91.187C412.629 88.351 417.866 85.345 422.927 82.438C431.465 77.536 440.293 72.468 449.275 68.102C454.224 69.862 459.113 71.765 463.922 73.636C472.059 76.801 480.473 80.074 489.013 82.607C494.655 84.28 499.772 85.733 504.516 87.02C502.882 91.858 500.685 96.266 498.419 99.375ZM330.17 89.307C334.56 69.868 351.569 62.25 365.066 59.283C373.304 57.472 381.322 56.724 389.131 56.724C404.629 56.724 419.292 59.675 433.141 63.127C436.839 64.05 440.513 65.145 444.157 66.345C436.253 70.349 428.521 74.788 421.011 79.1C415.967 81.995 410.752 84.989 405.566 87.805C393.917 94.129 381.815 100.141 370.113 105.954C365.184 108.403 360.253 110.853 355.342 113.33C349.358 116.35 342.556 119.692 335.484 122.352C329.518 112.715 327.532 100.99 330.17 89.307ZM284.498 120.799C277.736 117.102 271.696 111.862 266.68 105.17C265.156 103.138 263.321 100.42 262.648 97.42C262.018 94.615 262.582 91.794 264.119 90.056C265.458 88.541 267.434 87.889 269.443 87.889C271.109 87.889 272.797 88.337 274.163 89.114C277.193 90.839 279.605 94.057 281.333 98.68C284.029 105.895 285.063 113.664 284.498 120.799ZM158.064 148.158C154.543 146.49 151.829 144.623 150.339 142.682C148.952 140.872 148.772 139.222 149.773 137.489C151.61 134.312 153.979 132.685 156.655 132.685C157.909 132.685 159.231 133.042 160.598 133.765C161.854 134.429 162.629 135.402 162.968 136.741C163.686 139.574 162.342 143.339 160.691 145.814C160.143 146.638 159.244 147.419 158.064 148.158ZM582.833 58.529C594.753 43.354 614.43 33.002 635.467 30.834C662.25 28.078 676.781 37.652 681.084 46.692C682.873 50.453 683.331 54.883 682.406 59.504C679.544 73.811 656.668 89.257 638.897 92.998C612.112 98.637 589.852 100.012 569.693 97.203C570.297 82.506 574.846 68.696 582.833 58.529ZM763.548 54.265C747.03 60.522 734 73.86 728.152 90.573C723.532 94.855 719.008 99.733 714.591 104.505C712.534 106.727 710.593 108.825 708.688 110.811C706.734 112.846 704.793 114.904 702.849 116.967C692.805 127.62 682.417 138.637 669.995 146.616C651.513 158.484 623.561 160.909 602.018 152.511C591.051 148.235 576.961 139.264 572.12 120.805C571.96 120.192 571.81 119.577 571.672 118.959C570.333 113.013 569.662 106.994 569.626 101.08C590.108 103.865 612.661 102.454 639.69 96.766C659.003 92.699 682.987 76.224 686.18 60.26C687.269 54.817 686.71 49.554 684.56 45.038C676.815 28.764 653.056 25.156 635.073 27.004C613.018 29.277 592.358 40.173 579.807 56.15C571.41 66.841 566.589 81.275 565.875 96.616C564.218 96.339 562.57 96.031 560.94 95.695C557.025 94.889 553.346 94.147 549.802 93.433C536.185 90.688 524.646 88.362 509.327 84.322C511.479 76.193 511.977 67.396 508.91 60.889C506.128 54.982 500.703 51.621 493.223 51.168C485.781 50.711 478.182 53.066 471.474 55.141L470.128 55.556C463.498 57.594 456.587 60.34 449.046 63.938C444.126 62.223 439.134 60.654 434.072 59.393C412.792 54.087 389.604 49.946 364.24 55.523C343.323 60.122 330.242 71.511 326.417 88.459C323.615 100.867 325.62 113.325 331.777 123.67C331.432 123.785 331.086 123.898 330.74 124.01C315.549 128.896 300.814 128.279 288.235 122.652C289.137 114.576 288.064 105.697 284.938 97.332C282.887 91.842 279.902 87.951 276.067 85.769C271.023 82.898 264.646 83.647 261.235 87.506C258.859 90.192 257.983 94.214 258.892 98.264C259.727 101.978 261.846 105.139 263.6 107.478C269.297 115.079 276.217 120.928 283.982 124.914C283.163 129.631 281.589 133.935 279.28 137.436C274.921 144.053 268.405 147.613 259.915 148.019C249.934 148.522 240.717 136.521 233.323 126.9C227.17 118.895 222.321 112.569 217.302 112.924C215.071 113.08 213.156 114.542 211.611 117.27C208.47 122.816 210.99 129.189 213.213 134.811C215.119 139.629 216.918 144.18 215.234 147.526C213.972 150.034 210.785 151.943 205.49 153.361C192.752 156.771 174.413 154.443 162.134 149.864C162.857 149.254 163.451 148.615 163.895 147.949C165.862 144.999 167.777 140.046 166.7 135.796C166.095 133.409 164.607 131.53 162.397 130.362C156.279 127.125 150.165 129.12 146.44 135.563C144.664 138.637 144.963 141.997 147.285 145.023C148.733 146.912 150.942 148.673 153.701 150.261C140.664 155.303 114.86 157.572 108.77 156.017C106.852 155.527 100.597 153.452 100.597 147.311C100.597 146.444 100.609 144.958 100.625 142.92C100.66 138.594 100.718 131.353 100.718 122.331C100.718 115.612 99.0395 109.718 96.0245 105.562C115.46 102.762 138.945 93.705 138.945 55.589C138.945 45.305 135.64 36.292 129.119 28.782C130.48 24.807 132.704 15.035 127.722 2.462C127.509 1.927 127.068 1.515 126.52 1.338C125.597 1.043 117.063 -1.163 98.5705 11.165C90.8865 9.114 82.7255 8.056 74.2845 8.018C65.8485 8.056 57.6885 9.114 50.0145 11.164C31.5125 -1.161 22.9625 1.041 22.0395 1.338C21.4895 1.514 21.0485 1.927 20.8365 2.464C15.8675 15.039 18.0935 24.81 19.4555 28.783C12.9245 36.314 9.61449 45.327 9.61449 55.589C9.61449 93.705 33.0705 102.798 52.4685 105.636C50.4795 108.405 49.0635 111.954 48.3575 115.992C42.6585 118.316 30.6765 121.124 23.1575 108.243C22.9245 107.82 17.3335 97.876 6.54249 97.116C6.50549 97.113 6.46849 97.112 6.43149 97.111C4.82549 97.097 0.980489 97.327 0.146489 99.967C-0.674511 102.563 2.11949 104.878 4.64549 106.603C4.72249 106.656 4.81649 106.71 4.89949 106.751C4.95849 106.779 10.7465 109.706 14.8325 120.036C16.9815 127.003 26.5665 138.613 47.8705 134.918C47.8945 138.389 47.9235 141.423 47.9465 143.862C47.9705 146.368 47.9885 148.243 47.9885 149.311C47.9885 150.885 46.4195 155.465 41.6145 155.505C39.6905 155.521 37.5585 155.793 35.3015 156.08C30.2755 156.72 24.5785 157.444 18.6945 155.788C9.17249 153.108 3.95349 140.994 3.90249 140.874C3.49049 139.895 2.36249 139.433 1.38149 139.846C0.402489 140.258 -0.0585113 141.386 0.353489 142.366C0.592489 142.934 6.32849 156.307 17.6515 159.493C24.2905 161.362 30.6655 160.551 35.7875 159.898C37.9285 159.626 39.9515 159.369 41.6475 159.354C48.8485 159.294 51.8375 152.783 51.8375 149.311C51.8375 148.236 51.8195 146.349 51.7955 143.825C51.7675 140.86 51.7305 137.013 51.7055 132.573C51.7015 131.992 51.4365 131.445 50.9835 131.082C50.5305 130.719 49.9385 130.58 49.3715 130.703C24.1915 136.175 18.7115 119.547 18.4935 118.845C18.4785 118.794 18.4605 118.744 18.4415 118.695C14.0885 107.637 7.84349 103.948 6.71749 103.356C5.23249 102.334 4.50749 101.636 4.15749 101.221C4.71349 101.07 5.56549 100.96 6.31249 100.96H6.33049C14.9645 101.605 19.7395 110.018 19.8095 110.142C29.6425 126.987 46.0785 121.258 50.8815 119.099C51.4845 118.827 51.9065 118.266 51.9985 117.61C52.9835 110.603 55.9335 107.105 57.6045 105.644C58.1775 105.143 58.4015 104.349 58.1735 103.621C57.9465 102.894 57.3115 102.369 56.5545 102.283C36.4925 100.003 13.4645 92.634 13.4645 55.589C13.4645 45.914 16.7005 37.473 23.0825 30.498C23.5835 29.949 23.7255 29.162 23.4455 28.474C22.4335 25.982 19.5625 17.074 24.0265 4.902C26.4865 4.732 34.3475 5.196 48.5915 14.847C49.0595 15.163 49.6435 15.258 50.1875 15.107C57.6735 13.025 66.0125 11.905 74.2845 11.867C82.5625 11.905 90.9015 13.025 98.3985 15.107C98.9435 15.259 99.5265 15.164 99.9945 14.846C114.268 5.171 122.119 4.723 124.532 4.897C129.012 17.07 126.14 25.982 125.127 28.474C124.848 29.162 124.989 29.951 125.492 30.499C131.864 37.449 135.095 45.891 135.095 55.589C135.095 75.058 130.186 97.951 91.9045 102.205C91.1425 102.29 90.5035 102.817 90.2775 103.55C90.0515 104.282 90.2805 105.078 90.8615 105.577C92.6675 107.131 96.8685 111.871 96.8685 122.331C96.8685 131.338 96.8115 138.568 96.7765 142.889C96.7605 144.941 96.7485 146.438 96.7485 147.311C96.7485 154.395 102.465 158.38 107.816 159.746C114.539 161.469 144.452 159.149 158.055 152.434C171.451 158.27 192.52 160.82 206.486 157.08C212.902 155.361 216.888 152.803 218.672 149.257C221.132 144.369 218.926 138.791 216.793 133.396C214.702 128.107 212.726 123.112 214.961 119.166C215.83 117.633 216.708 116.824 217.572 116.764C220.492 116.598 225.476 123.007 230.271 129.246C238.212 139.579 248.111 152.4 260.099 151.864C269.747 151.402 277.491 147.146 282.494 139.556C284.942 135.842 286.656 131.426 287.62 126.618C300.816 132.231 316.146 132.751 331.919 127.674C332.6 127.455 333.277 127.229 333.953 126.996C335.785 129.553 337.893 131.953 340.264 134.156C353.833 146.767 375.07 149.247 392.056 150C436.422 151.956 478.365 133.436 501.53 101.643C503.991 98.265 506.428 93.402 508.224 88.013C523.694 92.098 535.318 94.44 549.042 97.207C552.581 97.92 556.253 98.66 560.162 99.465C562.02 99.848 563.893 100.194 565.782 100.504C565.773 106.891 566.472 113.39 567.915 119.805C568.064 120.466 568.224 121.124 568.396 121.78C573.648 141.809 588.818 151.497 600.62 156.097C609.607 159.602 619.663 161.308 629.74 161.308C645.022 161.308 660.352 157.383 672.074 149.854C684.894 141.621 695.447 130.43 705.651 119.607C707.586 117.554 709.521 115.503 711.464 113.476C713.394 111.466 715.348 109.354 717.417 107.119C720.27 104.038 723.168 100.912 726.095 97.942C725.248 101.957 724.794 106.115 724.794 110.382C724.794 122.698 728.51 134.144 734.875 143.669C735.643 121.735 739.49 95.173 751.211 72.566C755.651 64.007 760.137 58.079 763.548 54.265Z" fill="#041D72"/>
</g>
<path fill-rule="evenodd" clip-rule="evenodd" d="M796.499 133.721C785.764 133.721 777.034 132.912 773.634 132.546C773.136 135.911 772.729 139.243 772.406 142.52C778.621 143.324 815.83 147.534 838.773 136.599C840.31 133.441 841.564 130.123 842.534 126.686C832.201 130.81 818.838 133.147 802.589 133.631C800.505 133.694 798.468 133.721 796.499 133.721Z" fill="#041D72"/>
<path fill-rule="evenodd" clip-rule="evenodd" d="M794.478 74.41C800.361 74.42 817.153 73.977 828.208 68.993C823.254 63.797 817.388 59.478 810.851 56.321C809.412 57.353 802.262 62.806 794.478 74.41Z" fill="#041D72"/>
<path fill-rule="evenodd" clip-rule="evenodd" d="M800.688 104.483C791.185 104.483 783.437 103.812 780.453 103.513C779.221 107.186 778.144 110.888 777.203 114.595C785.62 115.525 823.113 118.979 844.775 109.641C844.725 105.516 844.26 101.493 843.417 97.6083C834.491 101.601 822.284 103.875 806.968 104.38C804.816 104.452 802.712 104.483 800.688 104.483Z" fill="#041D72"/>
</svg>
