<svg width="917" height="674" viewBox="0 0 917 674" fill="none" xmlns="http://www.w3.org/2000/svg">
<path fill-rule="evenodd" clip-rule="evenodd" d="M694.525 561.825C693.8 555.615 691.116 550.303 686.662 545.948C681.225 540.633 674.635 538.117 667.031 538.155C662.977 538.176 667.09 538.165 667.09 538.165H528.668C528.668 538.165 528.623 538.737 528.623 538.978C528.62 547.929 528.594 556.88 528.634 565.83C528.65 569.561 529.511 573.135 531.102 576.513C535.67 586.208 544.939 592.101 555.339 592.211C555.416 592.212 668.254 592.213 668.877 592.213C669.499 592.213 670.002 592.151 670.484 592.088C670.705 592.058 670.96 592.028 671.253 591.991C677.37 591.227 682.629 588.606 686.91 584.215C692.977 577.992 695.535 570.476 694.525 561.825" fill="#FF5A00"/>
<path fill-rule="evenodd" clip-rule="evenodd" d="M717.591 499.214C716.866 493.003 714.182 487.691 709.728 483.336C704.291 478.022 697.701 475.506 690.097 475.544C686.043 475.565 690.156 475.553 690.156 475.553H645.375C645.375 475.553 645.33 476.125 645.33 476.367C645.328 485.318 645.301 494.268 645.341 503.218C645.357 506.949 646.218 510.523 647.809 513.901C652.377 523.597 661.646 529.489 672.046 529.6C672.123 529.601 691.32 529.601 691.943 529.601C692.565 529.601 693.068 529.54 693.55 529.477C693.771 529.447 694.026 529.416 694.319 529.38C700.436 528.616 705.695 525.994 709.977 521.603C716.044 515.38 718.601 507.864 717.591 499.214" fill="#FF5A00"/>
<path fill-rule="evenodd" clip-rule="evenodd" d="M669.216 436.603C668.491 430.393 665.807 425.081 661.353 420.726C655.916 415.411 649.326 412.895 641.722 412.933C637.668 412.954 641.781 412.943 641.781 412.943H531.451C531.451 412.943 531.406 413.515 531.406 413.756C531.404 422.707 531.378 431.658 531.417 440.607C531.434 444.339 532.294 447.912 533.886 451.291C538.453 460.986 547.722 466.879 558.122 466.989C558.2 466.99 642.945 466.991 643.568 466.991C644.19 466.991 644.693 466.929 645.175 466.866C645.396 466.836 645.651 466.806 645.944 466.769C652.061 466.005 657.32 463.384 661.601 458.993C667.668 452.77 670.226 445.254 669.216 436.603" fill="#FF5A00"/>
<path fill-rule="evenodd" clip-rule="evenodd" d="M720.375 373.993C719.65 367.782 716.966 362.47 712.511 358.115C707.075 352.801 700.485 350.285 692.881 350.323C688.827 350.344 692.939 350.332 692.939 350.332H610.702C610.702 350.332 610.657 350.904 610.657 351.146C610.655 360.097 610.629 369.047 610.668 377.997C610.685 381.728 611.545 385.302 613.137 388.68C617.704 398.376 626.973 404.268 637.374 404.379C637.451 404.38 694.104 404.38 694.726 404.38C695.349 404.38 695.851 404.319 696.334 404.256C696.555 404.226 696.81 404.195 697.102 404.159C703.22 403.395 708.479 400.773 712.76 396.382C718.827 390.159 721.385 382.643 720.375 373.993" fill="#FF5A00"/>
<path fill-rule="evenodd" clip-rule="evenodd" d="M476.425 318.206C475.975 318.206 475.522 318.049 475.157 317.728C474.358 317.027 474.278 315.811 474.979 315.013C497.925 288.844 510.562 255.242 510.562 220.396C510.562 141.228 446.154 76.8207 366.987 76.8207C287.82 76.8207 223.412 141.228 223.412 220.396C223.412 250.799 232.794 279.851 250.545 304.409C251.168 305.271 250.974 306.475 250.113 307.097C249.251 307.723 248.048 307.527 247.425 306.665C229.197 281.445 219.562 251.614 219.562 220.396C219.562 139.106 285.697 72.9717 366.987 72.9717C448.277 72.9717 514.412 139.106 514.412 220.396C514.412 256.176 501.435 290.679 477.873 317.55C477.493 317.984 476.96 318.206 476.425 318.206" fill="#041D72"/>
<mask id="mask0" mask-type="alpha" maskUnits="userSpaceOnUse" x="240" y="1" width="178" height="76">
<path fill-rule="evenodd" clip-rule="evenodd" d="M240.562 1H417.856V76.8209H240.562V1Z" fill="white"/>
</mask>
<g mask="url(#mask0)">
<path fill-rule="evenodd" clip-rule="evenodd" d="M242.487 76.8209C242.005 76.8209 241.523 76.6409 241.149 76.2799C240.385 75.5419 240.364 74.3229 241.103 73.5579C271.426 42.1899 309.942 30.1089 336.913 25.4989C356.716 22.1139 373.392 22.1559 382.132 22.5359L375.332 17.4359C369.362 12.4649 371.193 6.93193 372.984 4.69393C377.881 -1.18407 383.988 1.20493 386.628 3.34193L412.54 20.2849C412.591 20.3189 412.641 20.3549 412.689 20.3929C416.22 23.2179 417.957 26.3209 417.852 29.6159C417.693 34.5759 413.295 37.9599 412.66 38.4239C411.251 39.5759 390.558 56.4959 387.555 58.4979C385.391 59.9409 379.641 63.7709 374.126 58.2579C369.998 54.1299 372.228 48.8879 373.984 46.6939C374.065 46.5919 374.155 46.5009 374.255 46.4179L382.968 39.1559C376.165 38.3029 361.977 37.2569 347.954 40.7629C346.921 41.0219 345.878 40.3949 345.62 39.3629C345.362 38.3319 345.989 37.2869 347.02 37.0289C367.208 31.9809 387.031 35.8429 387.864 36.0079C388.591 36.1539 389.17 36.7039 389.353 37.4229C389.535 38.1409 389.289 38.8999 388.719 39.3749L376.888 49.2339C376.347 49.9809 374.381 53.0679 376.848 55.5349C379.583 58.2719 382.156 57.4709 385.419 55.2949C387.73 53.7539 402.684 41.6119 410.268 35.4069C410.305 35.3759 410.344 35.3469 410.383 35.3189C410.413 35.2989 413.911 32.7749 414.005 29.4759C414.062 27.4829 412.834 25.4579 410.355 23.4559L384.434 6.50793C384.372 6.46693 384.312 6.42293 384.255 6.37493C383.499 5.75993 379.512 2.87293 375.966 7.12893C375.541 7.68493 373.459 10.8669 377.719 14.4179L389.642 23.3559C390.337 23.8779 390.596 24.7999 390.276 25.6059C389.955 26.4139 389.137 26.9179 388.27 26.8079C388.051 26.7839 366.111 24.3959 337.443 29.3129C311.075 33.8369 273.438 45.6479 243.871 76.2339C243.493 76.6249 242.99 76.8209 242.487 76.8209" fill="#041D72"/>
</g>
<path fill-rule="evenodd" clip-rule="evenodd" d="M441.414 472.467C432.072 472.467 422.469 470.403 413.371 466.303C396.603 458.746 383.838 445.32 378.348 429.466C375.293 420.646 377.271 411.166 383.511 404.726C389.692 398.347 398.204 396.404 406.436 394.526C415.509 392.454 424.079 390.499 429.228 382.932C431.437 379.687 432.329 375.566 431.5 372.434C430.919 370.241 429.569 368.612 427.486 367.591C424.16 365.961 420.635 365.159 416.902 364.311C411.732 363.135 406.386 361.919 401.601 358.34C398.4 355.946 396.287 352.836 395.65 349.58C395.295 347.764 395.489 346.12 396.212 344.826C396.96 343.488 398.083 342.634 399.461 342.354C402.866 341.674 406.844 344.756 409.475 346.802C409.956 347.176 410.371 347.501 410.698 347.729C415.499 351.07 422.532 353.705 425.518 352.134C425.961 351.901 427.31 351.191 427.289 347.774C427.284 346.993 427.143 345.876 426.993 344.694C426.514 340.919 425.917 336.222 428.427 333.618C429.669 332.33 431.428 331.781 433.66 331.979C436.548 332.242 444.833 332.444 448.496 330.245C451.753 328.291 447.845 320.904 447.804 320.83C447.781 320.79 447.76 320.748 447.741 320.706C445.185 315.203 442.651 309.585 440.201 304.152C436.994 297.043 433.678 289.693 430.286 282.533C419.986 260.792 410.66 243.223 392.45 231.407C375.834 220.626 355.537 216.029 336.767 218.8C305.919 223.351 288.962 238.769 280.17 250.901C270.663 264.018 268.402 276.116 268.38 276.237C268.192 277.282 267.188 277.976 266.145 277.79C265.099 277.602 264.404 276.601 264.592 275.555C264.687 275.027 267.035 262.463 277.053 248.641C286.28 235.91 304.032 219.738 336.206 214.991C355.889 212.085 377.155 216.894 394.546 228.179C413.603 240.545 423.2 258.585 433.765 280.885C437.172 288.077 440.496 295.445 443.709 302.57C446.147 307.973 448.667 313.56 451.204 319.024C453.386 322.987 455.656 330.439 450.477 333.546C444.959 336.855 433.781 335.858 433.308 335.812C431.79 335.679 431.345 336.138 431.198 336.29C429.969 337.566 430.476 341.564 430.811 344.208C430.976 345.509 431.132 346.737 431.139 347.749C431.168 352.508 429.074 354.612 427.31 355.54C421.848 358.419 412.616 353.754 408.498 350.888C408.128 350.63 407.656 350.264 407.111 349.841C405.552 348.627 401.907 345.78 400.226 346.127C400.104 346.152 399.853 346.202 399.573 346.703C399.228 347.321 399.304 348.206 399.428 348.841C399.881 351.158 401.471 353.437 403.906 355.258C408.037 358.347 412.758 359.42 417.756 360.557C421.539 361.417 425.451 362.308 429.179 364.134C432.266 365.646 434.354 368.176 435.221 371.449C436.34 375.677 435.264 380.906 432.411 385.098C426.41 393.915 416.691 396.133 407.293 398.279C399.254 400.113 391.662 401.846 386.276 407.404C381.052 412.795 379.408 420.766 381.985 428.206C387.13 443.064 399.146 455.67 414.952 462.793C430.648 469.867 447.888 470.532 462.253 464.616C463.239 464.206 464.361 464.681 464.766 465.663C465.171 466.646 464.702 467.771 463.719 468.175C456.758 471.042 449.176 472.467 441.414 472.467" fill="#041D72"/>
<path fill-rule="evenodd" clip-rule="evenodd" d="M363.523 256.675C356.572 256.675 349.068 255.361 340.896 252.728C339.884 252.402 339.329 251.318 339.654 250.306C339.981 249.292 341.065 248.735 342.077 249.064C356.47 253.7 368.571 254.042 379.071 250.11C385.931 247.54 392.423 243.778 398.702 240.139C402.163 238.133 405.742 236.059 409.372 234.186C420.203 228.603 431.645 229.358 441.59 236.319C442.461 236.929 442.673 238.129 442.063 238.999C441.453 239.871 440.254 240.079 439.382 239.473C430.54 233.281 420.772 232.636 411.137 237.608C407.59 239.437 404.053 241.487 400.632 243.469C394.217 247.188 387.583 251.032 380.421 253.715C375.155 255.688 369.546 256.675 363.523 256.675" fill="#041D72"/>
<path fill-rule="evenodd" clip-rule="evenodd" d="M263.484 345.821C262.569 345.821 261.757 345.166 261.591 344.233C258.08 324.484 263.494 308.817 276.444 301.25C279.709 299.342 283.29 298.014 287.086 297.304C296.588 295.529 306.261 298.129 315.618 300.644C327.042 303.717 337.833 306.617 347.919 301.943C362.275 295.289 368.472 278.052 369.418 265.315C370.004 257.417 367.757 250.593 362.92 245.584C357.152 239.61 347.899 236.424 337.562 236.819C336.491 236.844 335.605 236.033 335.563 234.971C335.522 233.909 336.349 233.014 337.411 232.973C348.86 232.511 359.161 236.148 365.689 242.91C371.309 248.731 373.926 256.577 373.256 265.6C371.622 287.622 359.933 300.617 349.538 305.435C338.184 310.701 326.204 307.478 314.618 304.362C305.678 301.959 296.434 299.475 287.794 301.088C284.434 301.717 281.269 302.889 278.387 304.574C262.087 314.097 263.861 335.01 265.381 343.559C265.567 344.606 264.87 345.605 263.823 345.791C263.71 345.811 263.596 345.821 263.484 345.821" fill="#041D72"/>
<path fill-rule="evenodd" clip-rule="evenodd" d="M324.487 378.821C323.424 378.821 322.562 377.959 322.562 376.896C322.562 376.232 322.898 375.647 323.41 375.301C324.275 373.841 327.374 364.87 319.285 358.399C313.941 354.123 307.324 356.812 300.32 359.657C296.991 361.009 293.847 362.287 290.803 362.794C277.923 364.942 266.546 352.718 266.068 352.197C265.35 351.413 265.403 350.198 266.186 349.479C266.967 348.761 268.186 348.812 268.904 349.594C269.008 349.706 279.362 360.807 290.17 358.997C292.793 358.56 295.745 357.361 298.871 356.09C306.234 353.099 314.58 349.704 321.69 355.393C329.114 361.332 329.487 369.888 327.55 375.409C326.723 377.769 325.778 378.821 324.487 378.821V378.821Z" fill="#041D72"/>
<path fill-rule="evenodd" clip-rule="evenodd" d="M325.554 346.247C321.788 346.247 317.852 345.14 315.307 343.268C309.471 338.975 305.105 331.572 301.96 320.638C299.44 311.876 302.026 304.358 309.241 299.47C310.121 298.875 311.318 299.103 311.914 299.984C312.51 300.864 312.28 302.06 311.4 302.657C305.593 306.591 303.608 312.44 305.659 319.573C308.56 329.66 312.462 336.396 317.588 340.166C321.219 342.837 328.625 343.17 331.251 340.778C332.591 339.56 332.451 337.577 330.837 334.887C330.29 333.976 330.585 332.793 331.497 332.246C332.408 331.697 333.591 331.994 334.137 332.906C337.666 338.787 335.468 342.146 333.843 343.625C331.846 345.444 328.761 346.247 325.554 346.247" fill="#041D72"/>
<path fill-rule="evenodd" clip-rule="evenodd" d="M322.9 329.501C319.116 329.501 316.183 328.048 314.414 325.224C312.922 322.841 312.625 319.495 313.674 316.898C314.483 314.897 316.028 313.522 318.024 313.028C319.053 312.774 320.099 313.401 320.355 314.434C320.61 315.465 319.981 316.509 318.949 316.765C318.15 316.963 317.592 317.479 317.243 318.342C316.662 319.778 316.849 321.858 317.677 323.181C319.726 326.452 324.384 325.749 326.978 325.04C328.005 324.758 329.062 325.363 329.343 326.389C329.624 327.413 329.02 328.473 327.995 328.753C326.167 329.253 324.461 329.501 322.9 329.501" fill="#041D72"/>
<path fill-rule="evenodd" clip-rule="evenodd" d="M208.485 325.821C207.463 325.821 206.612 325.017 206.564 323.986C206.514 322.924 207.335 322.023 208.397 321.973C222.651 321.308 235.342 316.645 244.133 308.842C247.36 305.978 250.32 302.666 253.183 299.463C256.647 295.588 260.229 291.581 264.404 288.194C273.315 280.967 284.609 279.971 295.486 279.971C296.549 279.971 297.411 280.833 297.411 281.896C297.411 282.96 296.549 283.821 295.486 283.821C283.734 283.821 274.364 285.073 266.829 291.184C262.893 294.377 259.416 298.266 256.053 302.028C253.117 305.313 250.081 308.71 246.689 311.721C237.242 320.106 223.707 325.113 208.576 325.819C208.546 325.82 208.515 325.821 208.485 325.821" fill="#041D72"/>
<mask id="mask1" mask-type="alpha" maskUnits="userSpaceOnUse" x="191" y="359" width="356" height="315">
<path fill-rule="evenodd" clip-rule="evenodd" d="M191.539 359.472H546.667V673.269H191.539V359.472Z" fill="white"/>
</mask>
<g mask="url(#mask1)">
<path fill-rule="evenodd" clip-rule="evenodd" d="M501.944 493.681C501.979 493.703 502.014 493.725 502.051 493.745C502.048 493.743 502.046 493.743 502.043 493.741C502.009 493.722 501.976 493.702 501.944 493.681M336.875 673.269C310.194 673.269 283.571 668.07 260.521 657.8C242.082 649.585 225.312 637.207 213.302 622.948C199.532 606.598 192.015 587.923 191.563 568.942C190.57 527.244 221.097 499.351 234.133 487.441L235.186 486.477C238.584 483.363 243.465 479.238 249.116 474.462C263.372 462.413 282.897 445.912 295.021 431.65C310.275 413.703 306.438 393.101 301.765 383.756C297.938 376.102 285.385 362.855 285.259 362.722C284.527 361.951 284.557 360.733 285.328 360.001C286.099 359.268 287.317 359.301 288.049 360.07C288.581 360.629 301.127 373.871 305.209 382.035C306.612 384.843 318.337 410.161 297.953 434.142C285.624 448.648 265.959 465.267 251.6 477.402C245.981 482.151 241.128 486.252 237.788 489.315L236.73 490.283C224.081 501.839 194.46 528.904 195.411 568.85C195.842 586.946 203.047 604.795 216.246 620.467C227.889 634.291 244.169 646.301 262.088 654.285C302.973 672.498 355.346 674.424 398.768 659.306C407.732 656.184 416.266 652.319 424.135 647.817C447.24 634.599 469.284 614.365 491.525 585.959C499.059 576.337 506.867 566.93 514.184 558.198C520.769 550.337 526.37 543.868 531.81 537.838C532.617 536.943 533.675 535.936 534.795 534.869C540.339 529.592 544.701 524.907 541.921 521.015C538.205 515.812 514.43 501.083 503.956 494.868C502.932 496.775 500.961 499.965 497.277 505.591C493.369 511.562 489.272 517.563 488.686 518.376C460.053 558.148 432.774 592.284 388.808 607.195C384.58 608.629 380.224 609.865 375.86 610.869C364.749 613.422 353.442 614.414 342.253 613.818C339.283 613.659 336.295 613.385 333.37 613.002C296.597 608.2 260.072 589.873 238.05 565.177C237.343 564.383 237.413 563.166 238.206 562.459C238.998 561.752 240.215 561.822 240.923 562.615C262.357 586.652 297.972 604.496 333.868 609.186C336.696 609.555 339.587 609.821 342.459 609.974C353.287 610.549 364.236 609.591 374.998 607.117C379.236 606.142 383.466 604.943 387.572 603.55C430.458 589.004 457.323 555.352 485.562 516.126C487.459 513.493 499.706 495.261 501.062 492.078C501.06 491.861 501.095 491.639 501.172 491.422C501.521 490.433 502.6 489.905 503.595 490.237C503.601 490.239 503.622 490.249 503.656 490.268L503.659 490.259C503.861 490.334 504.05 490.448 504.22 490.589C509.028 493.367 540.081 511.816 545.053 518.778C550.003 525.706 542.448 532.899 537.449 537.658C536.384 538.672 535.378 539.63 534.668 540.416C529.26 546.41 523.689 552.846 517.134 560.67C509.839 569.377 502.055 578.754 494.556 588.332C472.002 617.137 449.592 637.688 426.047 651.159C417.972 655.778 409.22 659.742 400.034 662.941C380.191 669.849 358.513 673.269 336.875 673.269" fill="#041D72"/>
</g>
<path fill-rule="evenodd" clip-rule="evenodd" d="M345.487 449.821C327.778 449.821 304.082 444.338 295.049 434.175C294.342 433.381 294.414 432.164 295.208 431.458C296.003 430.753 297.219 430.822 297.925 431.618C305.08 439.667 325.972 445.971 345.487 445.971C367.442 445.971 381.101 434.549 381.237 434.433C382.044 433.744 383.258 433.841 383.949 434.646C384.639 435.454 384.546 436.667 383.739 437.357C383.146 437.867 368.929 449.821 345.487 449.821" fill="#041D72"/>
<path fill-rule="evenodd" clip-rule="evenodd" d="M410.487 291.396C413.808 291.396 416.677 293.305 418.076 296.082C418.966 294.738 419.487 293.128 419.487 291.396C419.487 286.702 415.682 282.896 410.987 282.896C406.293 282.896 402.487 286.702 402.487 291.396C402.487 292.769 402.82 294.062 403.398 295.209C404.92 292.913 407.525 291.396 410.487 291.396" fill="#041D72"/>
<path fill-rule="evenodd" clip-rule="evenodd" d="M486.728 320.082C483.098 320.082 479.558 319.685 476.433 318.849C458.708 314.106 452.01 298.64 445.533 283.683C442.801 277.374 439.977 270.852 436.385 265.464C429.262 254.778 419.148 257.705 419.047 257.738C418.029 258.047 416.955 257.474 416.645 256.457C416.336 255.44 416.91 254.364 417.926 254.055C418.056 254.019 430.896 250.289 439.588 263.329C443.372 269.004 446.266 275.688 449.065 282.152C455.46 296.92 461.5 310.869 477.428 315.13C486.174 317.469 498.988 315.951 505.997 311.746C506.908 311.198 508.09 311.494 508.637 312.406C509.184 313.317 508.889 314.5 507.977 315.047C502.594 318.276 494.457 320.082 486.728 320.082" fill="#041D72"/>
<path fill-rule="evenodd" clip-rule="evenodd" d="M538.487 324.821C537.424 324.821 536.562 323.96 536.562 322.896C536.562 318.394 536.014 312.863 531.74 310.023C525.985 306.194 518.517 309.503 516.366 310.608C515.419 311.093 514.26 310.722 513.775 309.775C513.289 308.83 513.662 307.67 514.608 307.184C521.609 303.59 528.811 303.452 533.871 306.817C539.668 310.669 540.412 317.433 540.412 322.896C540.412 323.96 539.55 324.821 538.487 324.821" fill="#041D72"/>
<path fill-rule="evenodd" clip-rule="evenodd" d="M517.632 392.695C513.483 392.695 509.714 390.995 506.862 387.734C501.558 381.668 503.537 372.62 505.128 365.349C505.562 363.366 505.972 361.491 506.2 359.851C507.026 353.925 506.632 345.358 500.068 338.198C489.872 327.074 471.866 328.795 471.686 328.81C470.621 328.915 469.683 328.151 469.573 327.095C469.463 326.039 470.229 325.093 471.285 324.982C472.1 324.897 491.381 323.024 502.906 335.596C508.818 342.046 511.341 350.848 510.013 360.382C509.764 362.17 509.339 364.114 508.888 366.173C507.409 372.932 505.733 380.594 509.761 385.201C513.794 389.814 518.935 389.05 521.64 388.186C527.436 386.334 532.033 381.085 532.571 375.705C532.677 374.646 533.633 373.875 534.678 373.981C535.736 374.087 536.507 375.03 536.402 376.088C535.707 383.035 530.119 389.517 522.812 391.853C521.048 392.418 519.308 392.695 517.632 392.695" fill="#041D72"/>
<path fill-rule="evenodd" clip-rule="evenodd" d="M539.487 297.654C538.424 297.654 537.562 296.792 537.562 295.729V210.896C537.562 203.218 543.809 196.971 551.487 196.971H645.487C653.165 196.971 659.412 203.218 659.412 210.896V258.396C659.412 259.46 658.55 260.321 657.487 260.321C656.424 260.321 655.562 259.46 655.562 258.396V210.896C655.562 205.341 651.043 200.821 645.487 200.821H551.487C545.931 200.821 541.412 205.341 541.412 210.896V295.729C541.412 296.792 540.55 297.654 539.487 297.654" fill="#041D72"/>
<path fill-rule="evenodd" clip-rule="evenodd" d="M601.217 241.095C597.43 241.095 593.114 240.186 588.531 237.567C574.584 229.597 542.676 205.453 541.324 204.43C540.477 203.788 540.31 202.58 540.952 201.734C541.594 200.886 542.8 200.718 543.649 201.362C543.978 201.611 576.71 226.378 590.442 234.225C602.827 241.301 612.882 233.705 613.303 233.378L652.266 201.407C653.087 200.736 654.3 200.854 654.974 201.675C655.649 202.496 655.529 203.709 654.707 204.384L615.707 236.384C615.34 236.673 609.565 241.095 601.217 241.095" fill="#041D72"/>
<path fill-rule="evenodd" clip-rule="evenodd" d="M640.216 299.095C636.429 299.095 632.113 298.185 627.532 295.567C616.61 289.325 594.188 272.796 585.054 265.979C584.202 265.343 584.027 264.137 584.663 263.285C585.299 262.434 586.505 262.256 587.357 262.895C596.433 269.669 618.704 286.089 629.442 292.225C641.827 299.302 651.882 291.705 652.303 291.378L688.21 261.376C689.026 260.693 690.239 260.805 690.921 261.618C691.602 262.435 691.493 263.649 690.677 264.329L654.721 294.372C654.344 294.669 648.566 299.095 640.216 299.095" fill="#041D72"/>
<path fill-rule="evenodd" clip-rule="evenodd" d="M585.412 330.893H682.487C688.043 330.893 692.562 326.305 692.562 320.666V271.047C692.562 265.409 688.043 260.821 682.487 260.821H595.487C589.932 260.821 585.412 265.409 585.412 271.047V330.893ZM564.573 353.17H581.564L581.563 334.743H563.487C562.461 334.748 553.412 335.061 553.412 343.956C553.412 347.391 555.175 349.884 558.802 351.58C561.464 352.824 564.132 353.127 564.573 353.17V353.17ZM680.487 461.321H637.487C636.424 461.321 635.562 460.459 635.562 459.396C635.562 458.332 636.424 457.471 637.487 457.471H680.487C697.303 457.471 697.56 439.889 697.562 439.14V388.512C697.562 385.372 696.563 382.999 694.507 381.259C688.532 376.2 675.933 378.238 675.806 378.259C675.701 378.277 675.594 378.286 675.487 378.286H609.487C590.489 378.286 583.433 365.654 581.89 357.02H564.487C564.437 357.02 564.388 357.018 564.338 357.014C559.227 356.616 549.562 353.374 549.562 343.956C549.562 333.623 558.671 330.893 563.487 330.893H581.563L581.562 271.047C581.562 263.286 587.809 256.971 595.487 256.971H682.487C690.165 256.971 696.412 263.286 696.412 271.047V320.666C696.412 328.428 690.165 334.743 682.487 334.743H585.412V353.17H599.987C601.05 353.17 601.912 354.033 601.912 355.095C601.912 356.158 601.05 357.02 599.987 357.02H585.854C587.103 362.669 591.825 374.436 609.487 374.436H675.334C677.034 374.172 689.985 372.394 696.987 378.315C699.923 380.796 701.412 384.228 701.412 388.512V439.144C701.412 439.366 701.173 461.321 680.487 461.321V461.321Z" fill="#041D72"/>
<path fill-rule="evenodd" clip-rule="evenodd" d="M503.485 493.821C503.083 493.821 502.678 493.696 502.332 493.436C501.481 492.799 501.309 491.592 501.947 490.741C505.055 486.596 507.996 481.994 510.84 477.543C516.711 468.353 522.782 458.851 531.153 451.809C540.088 444.292 553.611 439.122 567.327 437.978C590.92 436.012 638.532 437.891 640.548 437.972C642.581 438.055 644.63 438.109 646.698 438.164C659.586 438.505 672.912 438.856 684.283 445.766C691.695 450.27 696.991 460.5 696.876 470.09C696.785 477.683 693.451 483.756 687.488 487.186C684.45 488.934 680.749 489.821 676.486 489.821H641.32C640.257 489.821 639.395 488.96 639.395 487.896C639.395 486.833 640.257 485.971 641.32 485.971H676.486C680.066 485.971 683.122 485.258 685.568 483.85C690.304 481.125 692.953 476.221 693.027 470.043C693.127 461.725 688.609 452.899 682.284 449.055C671.787 442.677 658.981 442.34 646.596 442.012C644.509 441.957 642.442 441.902 640.408 441.819C638.387 441.738 591.006 439.87 567.646 441.814C554.695 442.893 541.979 447.731 533.631 454.755C525.71 461.419 519.799 470.669 514.084 479.615C511.202 484.126 508.222 488.791 505.026 493.051C504.648 493.555 504.07 493.821 503.485 493.821" fill="#041D72"/>
<path fill-rule="evenodd" clip-rule="evenodd" d="M694.654 476.654H638.487C637.424 476.654 636.562 475.793 636.562 474.729C636.562 473.666 637.424 472.804 638.487 472.804H694.654C695.717 472.804 696.579 473.666 696.579 474.729C696.579 475.793 695.717 476.654 694.654 476.654" fill="#041D72"/>
<path fill-rule="evenodd" clip-rule="evenodd" d="M682.32 448.654H638.487C637.424 448.654 636.562 447.793 636.562 446.729C636.562 445.666 637.424 444.804 638.487 444.804H682.32C683.383 444.804 684.245 445.666 684.245 446.729C684.245 447.793 683.383 448.654 682.32 448.654" fill="#041D72"/>
<path fill-rule="evenodd" clip-rule="evenodd" d="M540.652 518.988C540.382 518.988 540.108 518.931 539.846 518.81C538.881 518.364 538.461 517.22 538.906 516.256C548.244 496.051 572.437 496.888 574.037 496.971H616.485C618.176 496.971 619.936 497.043 621.637 497.111C625.048 497.246 628.575 497.389 631.772 496.977C635.132 496.545 638.171 493.824 638.997 490.509C639.372 489.004 639.539 486.152 636.445 483.96C633.288 481.722 628.349 482.062 623.992 482.363C623.055 482.427 622.148 482.489 621.289 482.525C620.39 482.563 619.471 482.611 618.538 482.66C613.238 482.937 607.23 483.253 601.959 481.747C593.752 479.402 588.325 466.74 585.717 460.654C583.258 454.917 573.581 454.821 573.484 454.821C572.422 454.818 571.562 453.955 571.563 452.893C571.565 451.832 572.424 450.971 573.486 450.971C573.987 450.971 585.796 451.064 589.256 459.138C591.444 464.245 596.569 476.204 603.016 478.046C607.669 479.375 613.092 479.091 618.337 478.816C619.283 478.766 620.215 478.717 621.128 478.679C621.954 478.644 622.826 478.585 623.728 478.522C628.482 478.196 634.394 477.789 638.671 480.819C642.24 483.348 643.759 487.319 642.732 491.439C641.518 496.31 637.214 500.158 632.264 500.796C628.746 501.25 625.054 501.1 621.483 500.957C619.742 500.887 618.098 500.821 616.485 500.821H573.986C573.943 500.821 573.898 500.819 573.854 500.816C573.623 500.801 550.887 499.507 542.401 517.871C542.075 518.574 541.38 518.988 540.652 518.988" fill="#041D72"/>
<path fill-rule="evenodd" clip-rule="evenodd" d="M342.987 469.896C342.987 471.277 341.868 472.396 340.487 472.396C339.106 472.396 337.987 471.277 337.987 469.896C337.987 468.515 339.106 467.396 340.487 467.396C341.868 467.396 342.987 468.515 342.987 469.896" fill="#041D72"/>
<path fill-rule="evenodd" clip-rule="evenodd" d="M342.987 502.896C342.987 504.277 341.868 505.396 340.487 505.396C339.106 505.396 337.987 504.277 337.987 502.896C337.987 501.515 339.106 500.396 340.487 500.396C341.868 500.396 342.987 501.515 342.987 502.896" fill="#041D72"/>
<path fill-rule="evenodd" clip-rule="evenodd" d="M342.987 535.896C342.987 537.277 341.868 538.396 340.487 538.396C339.106 538.396 337.987 537.277 337.987 535.896C337.987 534.515 339.106 533.396 340.487 533.396C341.868 533.396 342.987 534.515 342.987 535.896" fill="#041D72"/>
<path fill-rule="evenodd" clip-rule="evenodd" d="M342.987 568.896C342.987 570.277 341.868 571.396 340.487 571.396C339.106 571.396 337.987 570.277 337.987 568.896C337.987 567.515 339.106 566.396 340.487 566.396C341.868 566.396 342.987 567.515 342.987 568.896" fill="#041D72"/>
<path fill-rule="evenodd" clip-rule="evenodd" d="M342.987 601.896C342.987 603.277 341.868 604.396 340.487 604.396C339.106 604.396 337.987 603.277 337.987 601.896C337.987 600.515 339.106 599.396 340.487 599.396C341.868 599.396 342.987 600.515 342.987 601.896" fill="#041D72"/>
<path fill-rule="evenodd" clip-rule="evenodd" d="M265.486 115.896C265.324 116.066 268.918 118.329 269.167 118.443C271.927 119.716 278.286 117.638 279.265 121.261C280.839 127.085 275.136 133.284 270.986 136.396C266.986 139.396 273.486 149.896 276.486 152.896C279.486 155.896 286.486 152.896 287.486 147.896C288.486 142.896 292.486 138.897 298.484 139.896C302.925 140.635 308.489 138.422 312.504 141.076C315.498 143.055 316.379 146.918 315.887 150.291C315.339 154.053 312.498 156.355 311.486 159.896C309.486 166.896 309.486 167.896 302.486 173.896C296.453 179.067 293.932 186.178 292.227 193.707C290.802 199.995 290.493 209.898 281.486 206.896C272.486 203.896 270.486 197.896 264.486 199.896C258.486 201.896 254.486 210.896 260.487 215.896C264.702 219.409 270.506 218.41 274.502 222.04C279.273 226.373 283.6 239.034 282.236 245.396C281.486 248.896 274.486 254.896 274.486 254.896C274.486 254.896 269.486 248.896 260.486 242.896C251.486 236.896 245.486 233.896 237.486 227.896C229.486 221.896 221.986 210.396 221.986 210.396C221.986 210.396 221.986 161.396 265.486 115.896" fill="#041D72"/>
<path fill-rule="evenodd" clip-rule="evenodd" d="M416.557 94.6276C411.135 90.8866 405.685 88.5676 399.078 87.8086C390.227 86.7906 373.37 84.9496 371.987 97.3966C371.523 101.568 370.251 105.538 368.751 109.44C367.401 112.948 364.556 117.446 365.633 121.297C366.636 124.878 371.44 127.756 374.661 129.061C382.799 132.358 383.332 124.418 388.844 121.207C391.559 119.625 395.359 119.059 397.487 121.897C400.487 125.897 396.487 135.897 387.487 137.897C378.487 139.897 376.487 136.897 368.487 137.897C360.487 138.897 354.487 143.897 350.487 146.897C346.487 149.897 342.487 150.897 339.487 158.897C336.487 166.897 337.487 174.897 347.487 173.897C357.487 172.897 360.487 167.897 369.487 170.897C378.487 173.897 383.487 171.897 388.487 168.897C393.487 165.897 398.487 167.897 403.487 172.897C408.487 177.897 409.487 179.897 417.487 179.897C425.487 179.897 428.487 166.897 443.487 180.897C458.487 194.897 461.487 200.897 474.487 207.897C487.487 214.897 506.487 220.397 511.987 208.147C511.987 208.147 503.987 139.397 458.737 108.147C458.737 108.147 435.487 103.897 427.486 100.897C423.238 99.3036 419.984 96.9926 416.557 94.6276" fill="#041D72"/>
<path fill-rule="evenodd" clip-rule="evenodd" d="M334.153 217.063C334.153 217.063 339.986 212.396 344.986 209.396C349.986 206.396 355.986 198.396 356.986 197.396C357.986 196.396 363.986 188.396 368.986 195.396C373.986 202.396 375.986 211.396 391.986 208.396C407.986 205.396 408.986 200.396 418.987 204.396C423.188 206.077 429.073 208.533 431.288 212.795C431.641 213.475 431.888 214.237 431.808 214.999C431.454 218.371 425.721 220.101 423.18 221.251C419.584 222.878 415.882 224.438 412.736 226.867C409.6 229.287 409.986 232.828 409.986 236.396L404.986 238.896C404.986 238.896 389.153 224.896 374.32 220.396C359.486 215.896 334.153 217.063 334.153 217.063" fill="#041D72"/>
<path fill-rule="evenodd" clip-rule="evenodd" d="M472.899 242.026C477.029 241.022 481.237 241.254 484.986 243.396C487.768 244.985 490.986 247.022 491.521 250.453C492.165 254.589 489.68 258.617 488.013 262.204C486.226 266.048 484.819 270.235 483.987 274.396C482.987 279.396 477.987 287.396 467.987 282.396C457.987 277.396 446.987 268.396 453.987 256.396C457.587 250.224 465.101 243.922 472.899 242.026" fill="#041D72"/>
<path fill-rule="evenodd" clip-rule="evenodd" d="M339.978 107.702C340.899 105.159 341.885 102.478 344.663 101.851C347.335 101.248 350.724 102.269 353.196 103.257C358.599 105.415 359.247 112.431 359.576 117.422C359.92 122.615 359.96 128.177 353.487 128.896C348.59 129.44 343.869 126.723 340.766 123.1C336.814 118.486 337.219 114.658 339.412 109.212C339.608 108.726 339.791 108.217 339.978 107.702" fill="#041D72"/>
<path fill-rule="evenodd" clip-rule="evenodd" d="M656.987 142.988C647.443 142.988 643.404 122.734 637.887 89.3779C635.781 76.6439 633.603 63.4769 630.942 53.8249C627.383 40.9159 624.178 38.9879 622.584 38.9879C620.99 38.9879 617.785 40.9159 614.226 53.8249C611.566 63.4769 609.388 76.6439 607.282 89.3779C601.765 122.734 597.726 142.988 588.182 142.988C578.638 142.988 574.6 122.734 569.084 89.3769C566.978 76.6429 564.8 63.4759 562.14 53.8239C558.582 40.9159 555.378 38.9879 553.784 38.9879C552.19 38.9879 548.986 40.9159 545.427 53.8249C542.766 63.4769 540.589 76.6439 538.483 89.3779C532.966 122.734 528.928 142.988 519.384 142.988C509.841 142.988 505.803 122.734 500.287 89.3779C498.181 76.6439 496.004 63.4769 493.343 53.8249C489.785 40.9159 486.581 38.9879 484.987 38.9879C483.924 38.9879 483.062 38.1269 483.062 37.0629C483.062 35.9999 483.924 35.1379 484.987 35.1379C494.53 35.1379 498.569 55.3919 504.085 88.7489C506.191 101.482 508.368 114.649 511.028 124.301C514.586 137.211 517.791 139.138 519.384 139.138C520.978 139.138 524.183 137.211 527.741 124.301C530.402 114.649 532.579 101.482 534.685 88.7489C540.202 55.3919 544.24 35.1379 553.784 35.1379C563.327 35.1379 567.365 55.3919 572.882 88.7489C574.987 101.482 577.165 114.649 579.825 124.301C583.383 137.211 586.588 139.138 588.182 139.138C589.776 139.138 592.981 137.211 596.54 124.301C599.2 114.649 601.378 101.482 603.484 88.7489C609.001 55.3919 613.04 35.1379 622.584 35.1379C632.129 35.1379 636.168 55.3919 641.685 88.7499C643.791 101.483 645.968 114.649 648.63 124.301C652.188 137.211 655.393 139.138 656.987 139.138C658.05 139.138 658.912 140 658.912 141.063C658.912 142.127 658.05 142.988 656.987 142.988" fill="#041D72"/>
<path fill-rule="evenodd" clip-rule="evenodd" d="M717.986 166.321C707.203 166.321 702.502 148.543 697.524 129.721C693.342 113.91 688.602 95.9879 680.784 95.9879C672.965 95.9879 668.225 113.91 664.043 129.721C659.065 148.544 654.363 166.321 643.58 166.321C632.799 166.321 628.098 148.543 623.121 129.721C618.939 113.91 614.2 95.9879 606.383 95.9879C598.565 95.9879 593.826 113.91 589.644 129.721C584.666 148.544 579.965 166.321 569.184 166.321C558.403 166.321 553.702 148.544 548.725 129.723C548.381 128.424 548.038 127.125 547.692 125.832C547.417 124.804 548.027 123.75 549.054 123.475C550.082 123.199 551.136 123.811 551.411 124.838C551.757 126.134 552.101 127.436 552.446 128.739C556.627 144.551 561.366 162.471 569.184 162.471C577.001 162.471 581.741 144.55 585.922 128.738C590.9 109.916 595.601 92.1379 606.383 92.1379C617.164 92.1379 621.865 109.916 626.842 128.737C631.023 144.55 635.763 162.471 643.58 162.471C651.399 162.471 656.14 144.55 660.321 128.738C665.299 109.916 670.001 92.1379 680.784 92.1379C691.566 92.1379 696.267 109.916 701.246 128.737C705.427 144.55 710.167 162.471 717.986 162.471C719.049 162.471 719.911 163.333 719.911 164.396C719.911 165.459 719.049 166.321 717.986 166.321" fill="#041D72"/>
<path fill-rule="evenodd" clip-rule="evenodd" d="M792.581 166.321C781.799 166.321 777.098 148.543 772.121 129.721C767.94 113.91 763.201 95.9879 755.383 95.9879C747.565 95.9879 742.826 113.91 738.644 129.721C733.667 148.544 728.966 166.321 718.184 166.321C707.403 166.321 702.702 148.544 697.725 129.723C697.382 128.424 697.038 127.125 696.693 125.832C696.418 124.804 697.028 123.75 698.055 123.475C699.086 123.199 700.137 123.811 700.411 124.838C700.758 126.134 701.102 127.436 701.447 128.739C705.628 144.551 710.367 162.471 718.184 162.471C726.002 162.471 730.741 144.55 734.923 128.738C739.9 109.916 744.602 92.1379 755.383 92.1379C766.164 92.1379 770.866 109.916 775.843 128.737C780.024 144.55 784.763 162.471 792.581 162.471C796.769 162.471 800.427 157.51 804.094 146.859C804.439 145.855 805.533 145.32 806.54 145.666C807.545 146.012 808.08 147.107 807.733 148.113C804.815 156.591 800.456 166.321 792.581 166.321" fill="#041D72"/>
<path fill-rule="evenodd" clip-rule="evenodd" d="M563.987 43.3961C563.987 48.9181 559.51 53.3961 553.987 53.3961C548.464 53.3961 543.987 48.9181 543.987 43.3961C543.987 37.8741 548.464 33.3961 553.987 33.3961C559.51 33.3961 563.987 37.8741 563.987 43.3961" fill="#FF5A00"/>
<path fill-rule="evenodd" clip-rule="evenodd" d="M597.987 137.396C597.987 142.918 593.51 147.396 587.987 147.396C582.464 147.396 577.987 142.918 577.987 137.396C577.987 131.874 582.464 127.396 587.987 127.396C593.51 127.396 597.987 131.874 597.987 137.396" fill="#FF5A00"/>
<path fill-rule="evenodd" clip-rule="evenodd" d="M648.987 90.3961C648.987 95.9181 644.51 100.396 638.987 100.396C633.464 100.396 628.987 95.9181 628.987 90.3961C628.987 84.8741 633.464 80.3961 638.987 80.3961C644.51 80.3961 648.987 84.8741 648.987 90.3961" fill="#FF5A00"/>
<path fill-rule="evenodd" clip-rule="evenodd" d="M690.987 95.3961C690.987 100.918 686.51 105.396 680.987 105.396C675.464 105.396 670.987 100.918 670.987 95.3961C670.987 89.8741 675.464 85.3961 680.987 85.3961C686.51 85.3961 690.987 89.8741 690.987 95.3961" fill="#FF5A00"/>
<path fill-rule="evenodd" clip-rule="evenodd" d="M750.987 118.396C750.987 123.918 746.509 128.396 740.987 128.396C735.464 128.396 730.987 123.918 730.987 118.396C730.987 112.874 735.464 108.396 740.987 108.396C746.509 108.396 750.987 112.874 750.987 118.396" fill="#FF5A00"/>
<path fill-rule="evenodd" clip-rule="evenodd" d="M540.987 115.396C540.987 120.918 536.51 125.396 530.987 125.396C525.464 125.396 520.987 120.918 520.987 115.396C520.987 109.874 525.464 105.396 530.987 105.396C536.51 105.396 540.987 109.874 540.987 115.396" fill="#FF5A00"/>
<path fill-rule="evenodd" clip-rule="evenodd" d="M748.989 382.321C748.898 382.321 748.807 382.315 748.715 382.301C747.662 382.151 746.931 381.176 747.081 380.124C748.945 367.08 749.752 353.898 750.391 338.118C751.251 316.887 748.189 300.151 740.463 283.851C737.577 277.762 734.286 271.714 731.104 265.863C725.989 256.461 720.7 246.739 716.858 236.455C705.674 206.523 705.494 181.953 716.325 163.425C716.862 162.508 718.041 162.2 718.958 162.734C719.876 163.271 720.185 164.45 719.648 165.368C709.43 182.848 709.704 206.312 720.464 235.107C724.212 245.137 729.434 254.739 734.486 264.024C737.693 269.92 741.01 276.017 743.942 282.203C751.948 299.095 755.123 316.388 754.238 338.274C753.593 354.171 752.779 367.464 750.892 380.669C750.755 381.629 749.931 382.321 748.989 382.321" fill="#041D72"/>
<path fill-rule="evenodd" clip-rule="evenodd" d="M591.485 641.821C590.457 641.821 589.604 641.009 589.563 639.972C589.521 638.91 590.348 638.015 591.41 637.973C591.77 637.959 592.129 637.943 592.488 637.923C626.278 636.03 663.692 622.14 697.836 598.812C702.411 595.687 706.963 592.363 711.368 588.932C751.089 557.988 780.369 517.53 793.813 475.01C800.621 453.475 803.833 430.969 806.94 409.204C809.275 392.847 811.689 375.933 815.614 359.451C818.032 349.297 823.859 342.393 832.022 340.012C838.553 338.108 845.47 338.789 852.159 339.448C856.766 339.901 861.117 340.331 865.331 339.978C872.212 339.404 880.812 336.858 882.701 327.99C884.451 319.767 882.086 310.849 879.798 302.225C878.636 297.842 877.433 293.309 876.809 288.961C876.145 284.338 875.319 278.584 877.605 273.784C880.618 267.458 889.03 267.502 897.163 267.54C903.214 267.574 909.479 267.602 911.854 264.818C912.959 263.523 913.274 261.547 912.818 258.774C911.796 252.569 907.726 246.816 903.79 241.252C902.59 239.555 901.456 237.952 900.397 236.326C894.979 228.009 890.052 219.24 885.287 210.759C879.896 201.164 874.321 191.242 868.048 182.011C856.467 164.971 842.799 148.217 821.386 141.063C810.677 137.484 799.309 135.662 788.513 135.821C787.483 135.845 786.577 134.985 786.561 133.923C786.547 132.86 787.397 131.986 788.46 131.971C799.691 131.818 811.491 133.698 822.606 137.413C845.102 144.928 859.271 162.249 871.231 179.847C877.597 189.214 883.213 199.209 888.643 208.875C893.378 217.3 898.273 226.013 903.622 234.224C904.641 235.789 905.755 237.363 906.933 239.029C911.12 244.948 915.451 251.069 916.616 258.149C917.259 262.053 916.642 265.137 914.783 267.317C911.247 271.46 904.075 271.432 897.144 271.389C890.21 271.36 883.042 271.319 881.08 275.438C879.295 279.188 880.029 284.303 880.62 288.414C881.212 292.54 882.333 296.765 883.519 301.238C885.923 310.3 888.408 319.67 886.465 328.791C884.608 337.514 877.216 342.849 865.651 343.814C861.086 344.194 856.357 343.729 851.782 343.278C845.165 342.628 838.916 342.011 833.1 343.708C824.413 346.242 820.832 354.152 819.359 360.342C815.475 376.653 813.074 393.477 810.751 409.748C807.622 431.668 804.387 454.334 797.483 476.171C783.807 519.426 754.064 560.551 713.733 591.969C709.266 595.449 704.647 598.821 700.007 601.99C665.293 625.709 627.184 639.835 592.702 641.766C592.322 641.787 591.943 641.804 591.563 641.819C591.537 641.82 591.511 641.821 591.485 641.821" fill="#041D72"/>
<path fill-rule="evenodd" clip-rule="evenodd" d="M845.823 207.449C837.671 207.449 830.668 203.643 830.552 203.579C829.622 203.062 829.287 201.89 829.803 200.962C830.321 200.034 831.491 199.698 832.419 200.213C832.462 200.236 836.769 202.589 842.251 203.384C849.297 204.403 854.936 202.476 859.017 197.653C859.704 196.842 860.919 196.741 861.729 197.427C862.541 198.114 862.642 199.328 861.955 200.139C857.202 205.757 851.257 207.449 845.823 207.449" fill="#041D72"/>
<path fill-rule="evenodd" clip-rule="evenodd" d="M858.487 188.821H811.487C810.424 188.821 809.562 187.96 809.562 186.896C809.562 185.833 810.424 184.971 811.487 184.971H858.487C859.55 184.971 860.412 185.833 860.412 186.896C860.412 187.96 859.55 188.821 858.487 188.821" fill="#041D72"/>
<path fill-rule="evenodd" clip-rule="evenodd" d="M889.984 306.885C871.576 306.885 854.282 297.001 853.522 296.562C852.603 296.029 852.289 294.852 852.821 293.932C853.352 293.013 854.528 292.696 855.45 293.23C855.636 293.337 874.208 303.915 892.385 302.974C893.445 302.918 894.353 303.734 894.408 304.794C894.464 305.856 893.649 306.762 892.588 306.818C891.718 306.864 890.85 306.885 889.984 306.885" fill="#041D72"/>
<path fill-rule="evenodd" clip-rule="evenodd" d="M833.487 266.896C833.487 277.942 824.532 286.896 813.487 286.896C802.441 286.896 793.487 277.942 793.487 266.896C793.487 255.85 802.441 246.896 813.487 246.896C824.532 246.896 833.487 255.85 833.487 266.896" fill="#041D72"/>
<path fill-rule="evenodd" clip-rule="evenodd" d="M526.874 669.848C515.104 669.848 508.014 669.328 507.839 669.315C506.779 669.234 505.986 668.308 506.067 667.248C506.149 666.189 507.063 665.384 508.134 665.477C508.57 665.509 552.436 668.717 604.344 658.863C634.769 653.087 661.964 644.021 685.174 631.915C714.097 616.829 736.878 596.951 752.882 572.831C753.47 571.948 754.665 571.703 755.55 572.292C756.436 572.88 756.677 574.075 756.09 574.96C739.713 599.641 716.437 619.959 686.907 635.353C663.35 647.632 635.782 656.821 604.97 662.661C573.384 668.65 544.739 669.848 526.874 669.848" fill="#041D72"/>
<path fill-rule="evenodd" clip-rule="evenodd" d="M142.487 40.8961C115.977 40.8961 94.4867 62.3861 94.4867 88.8961C94.4867 104.782 102.209 118.858 114.098 127.595C112.688 135.209 111.003 144.312 110.987 144.395C110.206 148.614 114.641 151.211 118.332 149.574C120.934 148.419 123.258 145.125 125.251 143.131C127.677 140.707 130.102 138.281 132.528 135.855C135.742 136.533 139.072 136.896 142.487 136.896C168.997 136.896 190.487 115.406 190.487 88.8961C190.487 62.3861 168.997 40.8961 142.487 40.8961" fill="#041D72"/>
<path fill-rule="evenodd" clip-rule="evenodd" d="M154.455 96.2662C152.722 96.2672 151.021 96.0082 149.418 95.4802C145.472 94.1812 142.232 91.7712 139.099 89.4402C135.254 86.5792 131.623 83.8782 127.007 83.4172C120.084 82.7352 113.768 86.4242 111.272 92.6162C110.875 93.6012 109.753 94.0762 108.768 93.6812C107.782 93.2842 107.305 92.1622 107.702 91.1762C110.843 83.3822 118.761 78.7252 127.389 79.5872C133.065 80.1542 137.301 83.3042 141.396 86.3512C144.416 88.5982 147.268 90.7202 150.622 91.8242C154.415 93.0732 158.981 92.3402 162.836 89.8642C166.674 87.3982 169.129 83.6882 169.574 79.6832C169.691 78.6272 170.644 77.8652 171.7 77.9832C172.756 78.1002 173.517 79.0522 173.4 80.1092C172.827 85.2712 169.735 90.0062 164.917 93.1022C161.679 95.1822 158.001 96.2662 154.455 96.2662" fill="white"/>
<path fill-rule="evenodd" clip-rule="evenodd" d="M106.24 197.232C101.745 197.232 98.1019 193.588 98.1019 189.094C98.1019 184.599 101.745 180.956 106.24 180.956C110.735 180.956 114.378 184.599 114.378 189.094C114.378 193.588 110.735 197.232 106.24 197.232M195.022 265.298C189.534 260.752 184.07 256.174 178.621 251.581C171.763 245.797 164.906 240.005 158.205 234.041C154.791 231.001 151.507 228.12 149.248 224.065C146.555 219.232 145.037 213.872 143.141 208.704C140.802 202.326 138.881 195.711 136.204 189.464C133.984 184.285 129.545 161.349 107.35 161.349C85.1539 161.349 80.7149 181.326 80.7149 181.326L64.4379 193.163C60.3689 196.493 65.5479 198.711 65.5479 198.711C70.6549 200.627 78.7319 203.068 80.9949 208.579C83.4729 214.612 81.3349 222.186 80.9619 228.463C80.5419 235.557 80.5869 242.745 81.8249 249.761C86.2639 274.917 113.638 283.054 113.638 283.054C112.898 300.071 124.736 303.031 124.736 303.031C124.736 303.031 125.846 299.701 126.216 287.494C126.57 275.801 141.753 276.396 141.753 276.396H190.583C190.583 276.396 197.241 277.136 198.721 272.697C200.201 268.257 195.022 265.298 195.022 265.298" fill="#FF5A00"/>
<mask id="mask2" mask-type="alpha" maskUnits="userSpaceOnUse" x="0" y="312" width="84" height="266">
<path fill-rule="evenodd" clip-rule="evenodd" d="M0 312.473H83.4118V577.166H0V312.473Z" fill="white"/>
</mask>
<g mask="url(#mask2)">
<path fill-rule="evenodd" clip-rule="evenodd" d="M43.5668 577.166C41.0678 577.166 38.5308 576.964 35.9848 576.55C13.8908 572.956 -0.5642 555.495 0.0167998 533.101C0.9338 497.708 18.9568 467.852 36.3848 438.979C50.2408 416.024 64.5688 392.289 70.1038 366C77.7308 329.771 61.9168 316.012 61.7558 315.877C60.9448 315.195 60.8328 313.983 61.5098 313.169C62.1868 312.354 63.3918 312.237 64.2108 312.911C64.9418 313.513 82.0168 328.097 73.8698 366.793C68.2018 393.72 53.7028 417.739 39.6808 440.968C22.5108 469.412 4.7558 498.826 3.8648 533.2C3.3368 553.585 16.4928 569.479 36.6038 572.751C50.5908 575.025 64.2468 570.354 71.3908 560.845C79.3408 550.262 78.4298 534.927 77.6248 521.397C77.4148 517.864 77.2168 514.528 77.1618 511.298C77.1288 509.353 77.0398 507.29 76.9448 505.104C76.5398 495.746 76.0808 485.14 79.7338 477.1C80.1748 476.132 81.3158 475.703 82.2828 476.145C83.2508 476.584 83.6788 477.726 83.2388 478.693C79.9658 485.894 80.4038 496.012 80.7908 504.938C80.8868 507.149 80.9768 509.238 81.0108 511.232C81.0648 514.381 81.2598 517.678 81.4678 521.169C82.3118 535.359 83.2678 551.444 74.4678 563.157C67.7978 572.035 56.1728 577.166 43.5668 577.166" fill="#041D72"/>
</g>
<path fill-rule="evenodd" clip-rule="evenodd" d="M82.4891 459.821C82.3961 459.821 82.3021 459.814 82.2061 459.8C81.1551 459.646 80.4271 458.668 80.5821 457.616C80.6341 457.264 86.1601 422.95 126.737 422.95C127.33 422.95 127.926 422.957 128.533 422.972C129.596 422.998 130.437 423.881 130.411 424.943C130.385 426.006 129.477 426.881 128.44 426.82C112.084 426.439 99.7081 431.592 91.6431 442.187C85.6381 450.076 84.4031 458.096 84.3911 458.176C84.2501 459.133 83.4281 459.821 82.4891 459.821" fill="#041D72"/>
<path fill-rule="evenodd" clip-rule="evenodd" d="M185.148 406.003L177.666 395.655C175.641 392.856 171.694 392.222 168.895 394.246L54.3843 477.049C51.5853 479.073 50.9503 483.021 52.9753 485.82L60.4573 496.167C62.4813 498.967 66.4293 499.602 69.2283 497.577L107.422 469.959C110.044 462.317 118.364 441.764 134.486 432.897C144.224 427.541 154.191 428.353 161.864 430.592L183.738 414.774C186.538 412.75 187.172 408.803 185.148 406.003" fill="#041D72"/>
<path fill-rule="evenodd" clip-rule="evenodd" d="M201.948 552.657C187.178 552.657 172.04 545.932 164.249 535.659C158.019 527.444 156.659 517.682 160.316 507.431C162.829 500.388 167.004 494.069 171.042 487.958C171.549 487.189 172.055 486.424 172.555 485.66C180.002 474.292 187.004 461.116 182.473 449.582C177.879 437.886 164.762 431.801 157.352 429.214C156.348 428.863 155.819 427.765 156.169 426.761C156.52 425.759 157.615 425.227 158.621 425.579C166.654 428.384 180.9 435.048 186.056 448.174C191.228 461.341 183.761 475.579 175.775 487.769C175.272 488.538 174.764 489.307 174.254 490.079C170.343 496 166.298 502.122 163.942 508.724C160.742 517.693 161.909 526.203 167.317 533.333C174.948 543.396 190.442 549.724 204.981 548.703C221.984 547.519 235.329 536.434 240.68 519.053C242.644 512.672 243.64 506.056 243.562 499.921V372.896C243.562 372.835 243.565 372.772 243.571 372.711C243.583 372.58 244.739 359.289 237.076 350.87C232.82 346.192 226.565 343.821 218.487 343.821C215.865 343.821 211.375 343.88 205.69 343.953C187.075 344.193 158.943 344.559 150.23 343.522C133.781 341.565 123.562 331.363 123.562 316.896V292.896C123.566 292.683 124.14 275.804 141.654 275.804C142.717 275.804 143.578 276.666 143.578 277.729C143.578 278.793 142.717 279.654 141.654 279.654C135.898 279.654 131.771 281.829 129.386 286.118C127.529 289.459 127.412 292.91 127.411 292.944V316.896C127.411 329.442 136.112 337.967 150.685 339.7C159.146 340.706 188.25 340.329 205.64 340.104C211.339 340.03 215.841 339.971 218.487 339.971C227.707 339.971 234.926 342.773 239.943 348.3C248.471 357.693 247.533 371.558 247.411 372.982V499.896C247.495 506.402 246.439 513.427 244.359 520.185C238.521 539.148 223.901 551.244 205.249 552.543C204.154 552.619 203.051 552.657 201.948 552.657" fill="#041D72"/>
<path fill-rule="evenodd" clip-rule="evenodd" d="M151.485 493.821C151.169 493.821 150.848 493.743 150.552 493.579C149.623 493.062 149.288 491.89 149.804 490.962C150.423 489.847 165.171 463.491 183.208 447.458C184.002 446.753 185.219 446.821 185.925 447.618C186.631 448.412 186.56 449.629 185.766 450.335C168.214 465.936 153.318 492.564 153.17 492.831C152.818 493.464 152.161 493.821 151.485 493.821" fill="#041D72"/>
<path fill-rule="evenodd" clip-rule="evenodd" d="M136.485 483.821C136.156 483.821 135.822 483.737 135.517 483.558C134.599 483.023 134.289 481.844 134.824 480.926C135.693 479.436 156.324 444.326 174.626 435.175C175.577 434.701 176.733 435.085 177.209 436.036C177.684 436.986 177.298 438.142 176.348 438.618C159.069 447.257 138.357 482.511 138.15 482.866C137.792 483.479 137.147 483.821 136.485 483.821" fill="#041D72"/>
<path fill-rule="evenodd" clip-rule="evenodd" d="M123.486 471.821C123.248 471.821 123.006 471.777 122.772 471.683C121.785 471.289 121.305 470.169 121.699 469.181C135.931 433.602 162.516 428.375 163.641 428.17C164.687 427.978 165.69 428.672 165.88 429.717C166.07 430.762 165.379 431.764 164.335 431.956C164.019 432.016 138.659 437.148 125.274 470.611C124.972 471.364 124.25 471.821 123.486 471.821" fill="#041D72"/>
<path fill-rule="evenodd" clip-rule="evenodd" d="M223.003 598.959C215.938 598.959 208.585 597.522 202.842 594.969C200.16 593.776 197.448 592.438 194.824 591.145C185.915 586.75 176.691 582.208 166.828 582.394C155.839 582.601 145.063 588.093 138 597.085C137.343 597.921 136.133 598.066 135.297 597.41C134.461 596.754 134.316 595.544 134.973 594.708C142.742 584.816 154.623 578.773 166.755 578.544C177.566 578.377 187.205 583.095 196.527 587.692C199.117 588.97 201.795 590.29 204.405 591.451C216.806 596.964 236.124 596.712 245.112 587.549C245.857 586.788 247.075 586.778 247.835 587.522C248.593 588.267 248.605 589.485 247.86 590.244C241.538 596.688 232.442 598.494 225.925 598.875C224.96 598.931 223.984 598.959 223.003 598.959" fill="#041D72"/>
<path fill-rule="evenodd" clip-rule="evenodd" d="M223.003 619.959C215.938 619.959 208.585 618.522 202.842 615.969C200.16 614.776 197.448 613.438 194.824 612.145C185.915 607.75 176.691 603.22 166.828 603.394C155.839 603.601 145.063 609.093 138 618.085C137.343 618.92 136.133 619.068 135.297 618.41C134.461 617.754 134.316 616.544 134.973 615.708C142.742 605.816 154.623 599.773 166.755 599.544C177.566 599.386 187.205 604.095 196.527 608.692C199.117 609.97 201.795 611.29 204.405 612.451C216.806 617.965 236.124 617.712 245.112 608.549C245.857 607.788 247.075 607.778 247.835 608.522C248.593 609.267 248.605 610.485 247.86 611.244C241.538 617.688 232.442 619.494 225.925 619.875C224.96 619.931 223.984 619.959 223.003 619.959" fill="#041D72"/>
<path fill-rule="evenodd" clip-rule="evenodd" d="M224.487 371.821H115.487C114.424 371.821 113.562 370.96 113.562 369.896C113.562 368.833 114.424 367.971 115.487 367.971H224.487C225.55 367.971 226.412 368.833 226.412 369.896C226.412 370.96 225.55 371.821 224.487 371.821" fill="#041D72"/>
<path fill-rule="evenodd" clip-rule="evenodd" d="M224.487 388.821H115.487C114.424 388.821 113.562 387.96 113.562 386.896C113.562 385.833 114.424 384.971 115.487 384.971H224.487C225.55 384.971 226.412 385.833 226.412 386.896C226.412 387.96 225.55 388.821 224.487 388.821" fill="#041D72"/>
<path fill-rule="evenodd" clip-rule="evenodd" d="M224.487 405.821H192.32C191.258 405.821 190.396 404.96 190.396 403.896C190.396 402.833 191.258 401.971 192.32 401.971H224.487C225.55 401.971 226.412 402.833 226.412 403.896C226.412 404.96 225.55 405.821 224.487 405.821" fill="#041D72"/>
<path fill-rule="evenodd" clip-rule="evenodd" d="M171.32 405.821H115.487C114.424 405.821 113.562 404.96 113.562 403.896C113.562 402.833 114.424 401.971 115.487 401.971H171.32C172.383 401.971 173.245 402.833 173.245 403.896C173.245 404.96 172.383 405.821 171.32 405.821" fill="#041D72"/>
<path fill-rule="evenodd" clip-rule="evenodd" d="M224.487 422.821H168.487C167.424 422.821 166.562 421.96 166.562 420.896C166.562 419.833 167.424 418.971 168.487 418.971H224.487C225.55 418.971 226.412 419.833 226.412 420.896C226.412 421.96 225.55 422.821 224.487 422.821" fill="#041D72"/>
<path fill-rule="evenodd" clip-rule="evenodd" d="M224.487 439.821H175.987C174.924 439.821 174.062 438.96 174.062 437.896C174.062 436.833 174.924 435.971 175.987 435.971H224.487C225.55 435.971 226.412 436.833 226.412 437.896C226.412 438.96 225.55 439.821 224.487 439.821" fill="#041D72"/>
<path fill-rule="evenodd" clip-rule="evenodd" d="M224.487 456.821H185.987C184.924 456.821 184.062 455.96 184.062 454.896C184.062 453.833 184.924 452.971 185.987 452.971H224.487C225.55 452.971 226.412 453.833 226.412 454.896C226.412 455.96 225.55 456.821 224.487 456.821" fill="#041D72"/>
<path fill-rule="evenodd" clip-rule="evenodd" d="M170.902 397.214L182.573 411.793C182.912 411.617 183.354 411.296 183.662 410.876H183.663L204.889 381.967L172.035 396.352C171.558 396.562 171.149 396.923 170.902 397.214V397.214ZM182.206 415.791C181.326 415.791 180.567 415.447 180.062 414.815L167.403 399.003C166.885 398.356 166.719 397.513 166.937 396.629C167.301 395.147 168.763 393.582 170.491 392.827L206.261 377.164C208.646 376.12 209.865 377.332 210.183 377.729C210.5 378.125 211.416 379.581 209.877 381.679L186.765 413.154H186.766C185.65 414.674 183.804 415.759 182.277 415.79C182.254 415.791 182.23 415.791 182.206 415.791V415.791Z" fill="#041D72"/>
<path fill-rule="evenodd" clip-rule="evenodd" d="M188.987 386.396L196.987 395.396L208.862 379.396L188.987 386.396Z" fill="#041D72"/>
<path fill-rule="evenodd" clip-rule="evenodd" d="M196.489 186.821C196.409 186.821 196.329 186.816 196.248 186.806C195.193 186.675 194.445 185.713 194.577 184.658C201.894 126.115 236.156 90.176 263.609 70.337C293.303 48.877 321.705 41.113 321.988 41.037C323.02 40.761 324.071 41.371 324.345 42.398C324.621 43.425 324.011 44.479 322.985 44.756C322.707 44.83 294.884 52.453 265.753 73.536C238.966 92.924 205.535 128.023 198.396 185.134C198.275 186.109 197.446 186.821 196.489 186.821" fill="#041D72"/>
<path fill-rule="evenodd" clip-rule="evenodd" d="M727.987 162.396C727.987 167.918 723.509 172.396 717.987 172.396C712.464 172.396 707.987 167.918 707.987 162.396C707.987 156.874 712.464 152.396 717.987 152.396C723.509 152.396 727.987 156.874 727.987 162.396" fill="#FF5A00"/>
</svg>
