<?xml version="1.0" encoding="UTF-8"?>
<svg width="6489px" height="203px" viewBox="0 0 6489 203" version="1.1" xmlns="http://www.w3.org/2000/svg" xmlns:xlink="http://www.w3.org/1999/xlink">
    <defs>
        <polygon id="path-1" points="0 0.748575644 104.85066 0.748575644 104.85066 65.0557 0 65.0557"></polygon>
        <polygon id="path-3" points="0.4253 0.0001 57.4253 0.0001 57.4253 57 0.4253 57"></polygon>
    </defs>
    <g id="Page-1" stroke="none" stroke-width="1" fill="none" fill-rule="evenodd">
        <g id="Insta" transform="translate(-115.000000, -276.000000)">
            <g id="Group-8" transform="translate(114.476979, 275.980374)">
                <g id="Group-6" transform="translate(0.523021, 0.019626)">
                    <path d="M98.8486,64.3071244 C96.2386,64.3071244 93.5356,63.9741244 90.7916,63.3021244 C83.1636,61.4341244 76.2176,57.1671244 71.7346,51.5971244 C66.8076,45.4741244 64.4396,37.9181244 62.1486,30.6111244 C60.1886,24.3601244 58.3376,18.4541244 55.0276,13.4681244 C44.7966,-1.94887564 21.2546,4.89412436 11.6076,8.55112436 C10.6136,8.92612436 9.5026,8.42812436 9.1256,7.43412436 C8.7486,6.44012436 9.2486,5.32812436 10.2426,4.95212436 C20.7536,0.967124356 46.4706,-6.38687564 58.2356,11.3391244 C61.8476,16.7821244 63.8676,23.2271244 65.8216,29.4591244 C68.0056,36.4251244 70.2636,43.6271244 74.7336,49.1831244 C82.5486,58.8961244 99.6686,64.3581244 110.8826,57.1331244 C111.7756,56.5561244 112.9676,56.8161244 113.5436,57.7091244 C114.1196,58.6031244 113.8616,59.7931244 112.9676,60.3691244 C108.9216,62.9751244 104.0726,64.3071244 98.8486,64.3071244" id="Fill-1" fill="#041D72"></path>
                    <g id="Group-5" transform="translate(0.000000, 15.251424)">
                        <mask id="mask-2" fill="white">
                            <use xlink:href="#path-1"></use>
                        </mask>
                        <g id="Clip-4"></g>
                        <path d="M89.8486,65.0557 C87.2386,65.0557 84.5356,64.7227 81.7916,64.0507 C74.1636,62.1827 67.2176,57.9157 62.7346,52.3457 C57.8076,46.2227 55.4396,38.6667 53.1486,31.3597 C51.1886,25.1087 49.3376,19.2027 46.0276,14.2167 C35.7966,-1.2003 12.2546,5.6437 2.6076,9.2997 C1.6136,9.6757 0.5026,9.1767 0.1256,8.1827 C-0.2514,7.1887 0.2486,6.0767 1.2426,5.7007 C11.7536,1.7157 37.4706,-5.6383 49.2356,12.0877 C52.8476,17.5307 54.8676,23.9757 56.8216,30.2077 C59.0056,37.1737 61.2636,44.3757 65.7336,49.9317 C73.5486,59.6447 90.6686,65.1067 101.8826,57.8817 C102.7756,57.3047 103.9676,57.5637 104.5436,58.4577 C105.1196,59.3517 104.8616,60.5417 103.9676,61.1177 C99.9216,63.7237 95.0726,65.0557 89.8486,65.0557" id="Fill-3" fill="#041D72" mask="url(#mask-2)"></path>
                    </g>
                    <path d="M69.4253,100.751524 C69.4253,109.863524 62.0383,117.251524 52.9253,117.251524 C43.8123,117.251524 36.4253,109.863524 36.4253,100.751524 C36.4253,91.6395244 43.8123,84.2515244 52.9253,84.2515244 C62.0383,84.2515244 69.4253,91.6395244 69.4253,100.751524" id="Fill-17" fill="#FF5A00"></path>
                </g>
                <g id="Group-7" transform="translate(1618.523021, 28.019626)">
                    <path d="M87.5578131,60.5636719 C45.7878131,60.5636719 11.3848131,23.2606719 0.436813132,9.92567188 C-0.237186868,9.10367188 -0.118186868,7.89067188 0.703813132,7.21667188 C1.52581313,6.54267188 2.73881313,6.66367188 3.41281313,7.48267188 C16.1518131,23.0006719 61.6458131,72.0666719 112.212813,51.9166719 C113.198813,51.5236719 114.318813,52.0026719 114.712813,52.9916719 C115.106813,53.9786719 114.624813,55.0986719 113.637813,55.4926719 C104.733813,59.0416719 95.9938131,60.5636719 87.5578131,60.5636719" id="Fill-6" fill="#FFFFFF"></path>
                    <path d="M112.923313,150.629172 C112.609313,150.629172 112.291313,150.553172 111.997313,150.391172 C104.636313,146.342172 98.0143131,141.674172 92.3143131,136.516172 C69.5693131,115.933172 59.3333131,83.5511719 64.2293131,47.6741719 C66.5973131,30.3311719 71.1823131,13.0811719 88.5533131,4.36617188 C102.552313,-2.65382812 119.280313,-1.09982812 130.178313,8.24317188 C145.276313,21.1851719 135.643313,36.5911719 135.544313,36.7451719 C134.969313,37.6401719 133.778313,37.9001719 132.884313,37.3231719 C131.991313,36.7491719 131.731313,35.5611719 132.304313,34.6671719 C132.645313,34.1281719 140.173313,21.8811719 127.673313,11.1651719 C117.937313,2.82117188 102.910313,1.47317188 90.2793131,7.80817188 C74.5023131,15.7221719 70.2683131,31.8961719 68.0433131,48.1951719 C63.3213131,82.7931719 73.1093131,113.944172 94.8973131,133.662172 C100.375313,138.619172 106.753313,143.112172 113.852313,147.018172 C114.784313,147.530172 115.123313,148.700172 114.611313,149.632172 C114.261313,150.269172 113.602313,150.629172 112.923313,150.629172" id="Fill-8" fill="#041D72"></path>
                </g>
                <path d="M5634.08083,192.802879 C5592.31083,192.802879 5557.90783,155.499879 5546.95983,142.164879 C5546.28583,141.342879 5546.40483,140.129879 5547.22683,139.455879 C5548.04883,138.781879 5549.26183,138.902879 5549.93583,139.721879 C5562.67483,155.239879 5608.16883,204.305879 5658.73583,184.155879 C5659.72183,183.762879 5660.84183,184.241879 5661.23583,185.230879 C5661.62983,186.217879 5661.14783,187.337879 5660.16083,187.731879 C5651.25683,191.280879 5642.51683,192.802879 5634.08083,192.802879" id="Fill-6" fill="#FFFFFF" transform="translate(5603.948158, 165.911252) scale(-1, 1) translate(-5603.948158, -165.911252) "></path>
                <path d="M6430.30654,224.629172 C6429.99254,224.629172 6429.67454,224.553172 6429.38054,224.391172 C6422.01954,220.342172 6415.39754,215.674172 6409.69754,210.516172 C6386.95254,189.933172 6376.71654,157.551172 6381.61254,121.674172 C6383.98054,104.331172 6388.56554,87.0811719 6405.93654,78.3661719 C6419.93554,71.3461719 6436.66354,72.9001719 6447.56154,82.2431719 C6462.65954,95.1851719 6453.02654,110.591172 6452.92754,110.745172 C6452.35254,111.640172 6451.16154,111.900172 6450.26754,111.323172 C6449.37454,110.749172 6449.11454,109.561172 6449.68754,108.667172 C6450.02854,108.128172 6457.55654,95.8811719 6445.05654,85.1651719 C6435.32054,76.8211719 6420.29354,75.4731719 6407.66254,81.8081719 C6391.88554,89.7221719 6387.65154,105.896172 6385.42654,122.195172 C6380.70454,156.793172 6390.49254,187.944172 6412.28054,207.662172 C6417.75854,212.619172 6424.13654,217.112172 6431.23554,221.018172 C6432.16754,221.530172 6432.50654,222.700172 6431.99454,223.632172 C6431.64454,224.269172 6430.98554,224.629172 6430.30654,224.629172" id="Fill-8" fill="#FFFFFF" transform="translate(6418.229575, 149.314586) scale(-1, 1) rotate(290.000000) translate(-6418.229575, -149.314586) "></path>
                <g id="Group-12" transform="translate(2232.523021, 121.019626)">
                    <mask id="mask-4" fill="white">
                        <use xlink:href="#path-3"></use>
                    </mask>
                    <g id="Clip-11"></g>
                    <path d="M57.4253,28.5001 C57.4253,44.2401 44.6653,57.0001 28.9253,57.0001 C13.1853,57.0001 0.4253,44.2401 0.4253,28.5001 C0.4253,12.7601 13.1853,0.0001 28.9253,0.0001 C44.6653,0.0001 57.4253,12.7601 57.4253,28.5001" id="Fill-10" fill="#041D72" mask="url(#mask-4)"></path>
                </g>
                <path d="M2542.52302,150.019626 C2542.52302,161.065626 2533.56902,170.019626 2522.52302,170.019626 C2511.47702,170.019626 2502.52302,161.065626 2502.52302,150.019626 C2502.52302,138.973626 2511.47702,130.019626 2522.52302,130.019626 C2533.56902,130.019626 2542.52302,138.973626 2542.52302,150.019626" id="Fill-13" fill="#FFFFFF"></path>
                <path d="M621.523021,64.0196255 C621.523021,82.2456255 606.749021,97.0196255 588.523021,97.0196255 C570.298021,97.0196255 555.523021,82.2456255 555.523021,64.0196255 C555.523021,45.7936255 570.298021,31.0196255 588.523021,31.0196255 C606.749021,31.0196255 621.523021,45.7936255 621.523021,64.0196255" id="Fill-15" fill="#FFFFFF"></path>
                <path d="M2524.45278,167.019626 C2524.41172,167.019626 2524.37165,167.018622 2524.33059,167.015611 C2523.26795,166.949363 2522.46071,166.032939 2522.52681,164.966955 C2523.24391,153.444901 2527.27914,144.279654 2534.19481,138.464926 C2540.6007,133.0788 2549.2871,130.834413 2559.31057,131.961625 C2562.2511,132.293867 2565.23471,132.752581 2568.39358,133.238396 C2584.77586,135.756807 2601.717,138.358529 2610.94223,122.957982 C2611.49008,122.041557 2612.67491,121.747459 2613.58732,122.294503 C2614.49972,122.843554 2614.79618,124.030991 2614.24733,124.945408 C2603.69105,142.572274 2584.62863,139.644333 2567.80968,137.057668 C2564.68987,136.578879 2561.74232,136.126187 2558.8789,135.800972 C2549.92809,134.795214 2542.25024,136.73446 2536.67263,141.424987 C2530.58624,146.543112 2527.02475,154.766841 2526.37475,165.207856 C2526.31065,166.231681 2525.46234,167.019626 2524.45278,167.019626" id="Fill-19" fill="#041D72"></path>
                <path d="M2533.45279,179.019626 C2533.41173,179.019626 2533.37166,179.018622 2533.3306,179.015611 C2532.26795,178.949363 2531.46071,178.032939 2531.52681,176.966955 C2532.24392,165.444901 2536.27916,156.279654 2543.19387,150.464926 C2549.60078,145.077796 2558.28523,142.831402 2568.31074,143.961625 C2571.25029,144.293867 2574.23491,144.752581 2577.3938,145.238396 C2593.77616,147.756807 2610.71738,150.358529 2619.94266,134.957982 C2620.49051,134.041557 2621.67534,133.747459 2622.58776,134.294503 C2623.50017,134.843554 2623.79563,136.030991 2623.24778,136.945408 C2612.69144,154.572274 2593.62793,151.644333 2576.8099,149.057668 C2573.68907,148.578879 2570.74251,148.126187 2567.87807,147.800972 C2558.92922,146.79421 2551.25034,148.735464 2545.6717,153.424987 C2539.58528,158.543112 2536.02477,166.766841 2535.37476,177.207856 C2535.31066,178.231681 2534.46235,179.019626 2533.45279,179.019626" id="Fill-21" fill="#041D72"></path>
                <path d="M1138.6005,135.019626 C1115.39942,135.019626 1096.52302,116.226872 1096.52302,93.1286125 C1096.52302,83.5373941 1099.86312,74.1620005 1105.9271,66.7300302 C1106.59953,65.9066982 1107.81695,65.7798012 1108.64495,66.4502572 C1109.47295,67.1207133 1109.5984,68.3317307 1108.92596,69.1560619 C1103.41901,75.9035875 1100.38702,84.4176799 1100.38702,93.1286125 C1100.38702,114.106593 1117.52914,131.172747 1138.6005,131.172747 C1153.99428,131.172747 1167.81536,122.052146 1173.81209,107.936599 C1174.2276,106.957393 1175.3597,106.500763 1176.34326,106.914428 C1177.32582,107.328092 1177.78549,108.456177 1177.36998,109.435383 C1170.76806,124.976773 1155.54991,135.019626 1138.6005,135.019626" id="Fill-23" fill="#FF5A00"></path>
                <path d="M1151.47517,171.019626 C1128.3432,171.019626 1109.52302,152.317875 1109.52302,129.331467 C1109.52302,119.972637 1112.573,111.130869 1118.34073,103.758752 C1118.99415,102.924491 1120.20393,102.77335 1121.04348,103.423656 C1121.88302,104.071972 1122.03512,105.275137 1121.3817,106.109397 C1116.14431,112.801378 1113.37551,120.831756 1113.37551,129.331467 C1113.37551,150.207862 1130.46658,167.191375 1151.47517,167.191375 C1164.81681,167.191375 1176.95967,160.439733 1183.9562,149.131975 C1184.51356,148.230099 1185.69933,147.949692 1186.60591,148.503545 C1187.5115,149.057399 1187.79468,150.236699 1187.23732,151.136586 C1179.53434,163.585859 1166.16568,171.019626 1151.47517,171.019626" id="Fill-25" fill="#041D72"></path>
                <g id="Group-29" transform="translate(3346.523021, 106.019626)" fill="#041D72">
                    <path d="M14.1023,49.2325006 C9.6393,49.2335 5.1643,47.9675 0.8813,44.8845 C0.0183,44.2635 -0.1777,43.0605 0.4433,42.1985 C1.0643,41.3355 2.2673,41.1405 3.1303,41.7595 C19.3813,53.4565 39.9963,33.6175 48.1053,24.5455 C49.2113,23.3075 50.3203,22.0225 51.4423,20.7215 C58.9083,12.0755 67.3703,2.2745 79.8443,0.9655 C87.3793,0.1755 96.0073,1.9555 104.1343,5.9825 C105.0873,6.4545 105.4773,7.6095 105.0043,8.5615 C104.5323,9.5135 103.3763,9.9015 102.4253,9.4315 C94.9443,5.7245 87.0673,4.0785 80.2463,4.7945 C69.2873,5.9445 61.6973,14.7355 54.3563,23.2375 C53.2193,24.5555 52.0953,25.8565 50.9753,27.1095 C44.1793,34.7135 29.2163,49.2325006 14.1023,49.2325006" id="Fill-27"></path>
                </g>
                <path d="M2939.60219,88.0196255 C2930.08592,88.0196255 2923.20015,79.5392281 2916.93343,71.8207102 C2912.97466,66.9472738 2909.23727,62.3440854 2905.07415,59.842049 C2895.99563,54.388228 2883.89594,55.7185256 2869.10866,63.7980388 C2858.46446,69.6138523 2849.91684,71.6382181 2843.70222,69.8043221 C2840.22427,68.7801725 2837.54569,66.5673313 2835.74061,63.2296208 C2830.57077,53.6632458 2835.17263,42.4524476 2842.02535,35.5865566 C2842.77563,34.8336521 2843.99672,34.8306604 2844.75201,35.5775816 C2845.5073,36.3245028 2845.51131,37.5401195 2844.76103,38.2920268 C2838.91002,44.1537126 2834.90217,53.57549 2839.13641,61.409686 C2840.45366,63.8488972 2842.30583,65.3906063 2844.79609,66.1235664 C2849.91684,67.6343616 2857.68112,65.6628486 2867.25349,60.432406 C2883.33298,51.6488522 2896.72788,50.3434853 2907.06756,56.5561942 C2911.80967,59.4062619 2915.93873,64.4901126 2919.93156,69.4074268 C2928.46815,79.9201678 2935.84076,89.0008945 2948.59056,81.2564487 C2949.50112,80.7059808 2950.68715,80.991187 2951.24109,81.8956696 C2951.79504,82.8011495 2951.50755,83.9818634 2950.59899,84.5343258 C2946.55809,86.9874981 2942.91986,88.0196255 2939.60219,88.0196255" id="Fill-30" fill="#041D72"></path>
                <path d="M3873.4492,187.019626 C3872.76631,187.019626 3872.10542,186.655213 3871.75648,186.011485 C3871.24956,185.077429 3871.59551,183.907105 3872.52935,183.399531 C3873.4192,182.914983 3894.54568,171.549126 3914.69032,171.015523 C3922.32605,170.797276 3930.94761,172.477176 3940.07409,174.239169 C3954.79564,177.081384 3971.48286,180.302027 3986.64033,175.710834 C4005.37021,170.034413 4012.98794,157.75252 4019.70882,146.915262 C4021.6305,143.816757 4023.4452,140.890447 4025.41987,138.291507 C4034.62334,126.180808 4051.86746,126.020627 4052.59634,126.019626 L4052.59934,126.019626 C4053.66116,126.019626 4054.52302,126.881601 4054.52302,127.944803 C4054.52302,129.008006 4053.66516,129.870982 4052.60334,129.873985 C4052.44337,129.873985 4036.51802,130.051186 4028.48336,140.624145 C4026.61867,143.077921 4024.84997,145.929146 4022.97828,148.948562 C4016.2494,159.798835 4007.87479,173.302109 3987.75515,179.399005 C3971.68783,184.270516 3954.50469,180.950761 3939.34522,178.02345 C3930.4307,176.302503 3922.0131,174.69068 3914.79131,174.866879 C3895.56051,175.377457 3874.57601,186.671231 3874.36604,186.786362 C3874.07409,186.944541 3873.76015,187.019626 3873.4492,187.019626" id="Fill-32" fill="#041D72"></path>
                <path d="M4486.30394,56.0196255 C4481.63917,56.0206167 4477.0171,54.5628612 4473.33156,51.5838832 C4468.86443,47.9751945 4466.2048,43.1100593 4465.63871,37.5180298 C4464.86705,29.8910925 4467.98947,20.9938254 4473.992,13.7159561 C4474.66237,12.9017946 4475.86705,12.7837859 4476.68241,13.4561384 C4477.49679,14.1265076 4477.61398,15.3294039 4476.94261,16.1425736 C4471.5747,22.6518983 4468.77008,30.4989865 4469.44144,37.1342533 C4469.9102,41.7564292 4472.02757,45.6199772 4475.73694,48.6168052 C4482.45354,54.0442175 4493.00861,53.2687312 4499.26638,46.884357 C4502.44243,43.6445697 4504.07416,39.2921282 4503.62824,35.2411545 C4503.23198,31.6394075 4501.20598,28.5533291 4497.76873,26.3171122 C4496.88483,25.7419434 4496.63456,24.5588806 4497.21058,23.6762939 C4497.7866,22.7927155 4498.96943,22.5408312 4499.8563,23.1189751 C4505.45164,26.7584056 4507.06251,31.4946236 4507.42898,34.8246529 C4507.99706,40.0001809 4505.96708,45.5059351 4501.9985,49.5549255 C4497.81044,53.8250584 4492.0264,56.0196255 4486.30394,56.0196255" id="Fill-34" fill="#FF5A00"></path>
                <path d="M5332.5868,210.019626 C5332.55666,210.019626 5332.52752,210.018623 5332.49738,210.017621 C5331.43338,209.968517 5330.6085,209.071613 5330.65371,208.010359 C5330.66978,207.565415 5330.92699,197.035057 5319.22496,191.797937 C5312.24111,188.673303 5304.77098,186.288239 5297.547,183.983345 C5288.54768,181.110245 5279.24292,178.139938 5270.61936,173.68047 C5257.14499,166.712676 5246.46576,155.318484 5237.04345,145.265138 C5236.31502,144.486485 5236.35622,143.265893 5237.13588,142.538349 C5237.91655,141.811806 5239.14031,141.853896 5239.86974,142.630545 C5249.07805,152.457409 5259.51514,163.594054 5272.39873,170.255197 C5280.73293,174.565349 5289.87994,177.484547 5298.72555,180.308543 C5306.052,182.647509 5313.62663,185.065643 5320.80841,188.279467 C5334.97101,194.616922 5334.542,207.627547 5334.51688,208.178717 C5334.46966,209.211911 5333.61363,210.019626 5332.5868,210.019626" id="Fill-36" fill="#041D72"></path>
                <path d="M5866.82381,163.019626 C5865.7318,163.019626 5864.61765,162.937895 5863.48539,162.774435 C5854.08607,161.412928 5845.20911,154.474826 5841.89887,145.902118 C5839.21867,138.961026 5840.48077,131.887371 5845.45368,125.980864 C5849.20777,121.521581 5854.53696,119.941795 5859.71419,121.758799 C5865.83748,123.904716 5870.18337,130.153095 5870.28401,136.954648 C5870.29911,138.014151 5869.44463,138.885276 5868.37476,138.901223 C5867.31295,138.89026 5866.42525,138.069967 5866.41015,137.010463 C5866.33266,131.78172 5863.04758,126.996513 5858.42089,125.374864 C5856.28317,124.624341 5852.14159,124.026315 5848.42978,128.437756 C5843.25759,134.580483 5843.99129,140.579684 5845.51708,144.531641 C5848.30598,151.750816 5856.09798,157.826764 5864.04598,158.977964 C5870.39875,159.896931 5876.06712,157.612471 5880.00439,152.544198 C5885.64659,145.281168 5884.04733,133.904713 5879.55148,126.41842 C5879.00498,125.508424 5879.30691,124.331308 5880.22682,123.790095 C5881.14672,123.246887 5882.33535,123.546897 5882.88185,124.458887 C5890.02066,136.343664 5887.9856,148.562339 5883.07509,154.884474 C5878.94559,160.199931 5873.26112,163.019626 5866.82381,163.019626" id="Fill-38" fill="#041D72"></path>
                <g id="Group-6-Copy" transform="translate(6289.523021, 93.019626) rotate(-90.000000) translate(-6289.523021, -93.019626) translate(6212.523021, -73.980374)">
                    <path d="M108.8486,80.3071244 C106.2386,80.3071244 103.5356,79.9741244 100.7916,79.3021244 C93.1636,77.4341244 86.2176,73.1671244 81.7346,67.5971244 C76.8076,61.4741244 74.4396,53.9181244 72.1486,46.6111244 C70.1886,40.3601244 68.3376,34.4541244 65.0276,29.4681244 C54.7966,14.0511244 31.2546,20.8941244 21.6076,24.5511244 C20.6136,24.9261244 19.5026,24.4281244 19.1256,23.4341244 C18.7486,22.4401244 19.2486,21.3281244 20.2426,20.9521244 C30.7536,16.9671244 56.4706,9.61312436 68.2356,27.3391244 C71.8476,32.7821244 73.8676,39.2271244 75.8216,45.4591244 C78.0056,52.4251244 80.2636,59.6271244 84.7336,65.1831244 C92.5486,74.8961244 109.6686,80.3581244 120.8826,73.1331244 C121.7756,72.5561244 122.9676,72.8161244 123.5436,73.7091244 C124.1196,74.6031244 123.8616,75.7931244 122.9676,76.3691244 C118.9216,78.9751244 114.0726,80.3071244 108.8486,80.3071244" id="Fill-1" fill="#041D72"></path>
                    <g id="Group-5" transform="translate(-0.000000, 14.251424)" fill="#FFFFFF">
                        <path d="M97.8486,81.0557 C95.2386,81.0557 92.5356,80.7227 89.7916,80.0507 C82.1636,78.1827 75.2176,73.9157 70.7346,68.3457 C65.8076,62.2227 63.4396,54.6667 61.1486,47.3597 C59.1886,41.1087 57.3376,35.2027 54.0276,30.2167 C43.7966,14.7997 20.2546,21.6437 10.6076,25.2997 C9.6136,25.6757 8.5026,25.1767 8.1256,24.1827 C7.7486,23.1887 8.2486,22.0767 9.2426,21.7007 C19.7536,17.7157 45.4706,10.3617 57.2356,28.0877 C60.8476,33.5307 62.8676,39.9757 64.8216,46.2077 C67.0056,53.1737 69.2636,60.3757 73.7336,65.9317 C81.5486,75.6447 98.6686,81.1067 109.8826,73.8817 C110.7756,73.3047 111.9676,73.5637 112.5436,74.4577 C113.1196,75.3517 112.8616,76.5417 111.9676,77.1177 C107.9216,79.7237 103.0726,81.0557 97.8486,81.0557" id="Fill-3" transform="translate(60.425307, 48.902138) rotate(20.000000) translate(-60.425307, -48.902138) "></path>
                    </g>
                    <path d="M124,16.5 C124,25.612 116.613,33 107.5,33 C98.387,33 91,25.612 91,16.5 C91,7.388 98.387,-4.54747351e-13 107.5,-4.54747351e-13 C116.613,-4.54747351e-13 124,7.388 124,16.5" id="Fill-17" fill="#FFFFFF"></path>
                    <path d="M153.5,317 C153.5,326.112 146.113,333.5 137,333.5 C127.887,333.5 120.5,326.112 120.5,317 C120.5,307.888 127.887,300.5 137,300.5 C146.113,300.5 153.5,307.888 153.5,317" id="Fill-17-Copy" fill="#FF5A00"></path>
                </g>
            </g>
        </g>
    </g>
</svg>