<svg width="75" height="92" viewBox="0 0 75 92" fill="none" xmlns="http://www.w3.org/2000/svg">
<path fill-rule="evenodd" clip-rule="evenodd" d="M0 82H75V9H0V82ZM6.30841 75.7823H68.6916V15.2177H6.30841V75.7823Z" fill="#FF5A00"/>
<path fill-rule="evenodd" clip-rule="evenodd" d="M18.5167 64.3467V64.3473L18.5169 64.3471C18.5168 64.347 18.5167 64.3469 18.5167 64.3467Z" fill="#FF5A00"/>
<path fill-rule="evenodd" clip-rule="evenodd" d="M28.068 70.085C33.708 70.085 37.5738 67.1264 37.5738 60.6263V39.1989H31.2064V60.5375C31.2064 63.6754 29.8872 64.4822 27.7951 64.4822C25.6122 64.4822 24.7023 63.0029 23.702 61.255L18.5169 64.3471C20.0176 67.4852 22.9744 70.085 28.068 70.085Z" fill="#FF5A00"/>
<path fill-rule="evenodd" clip-rule="evenodd" d="M52.4937 64.527C49.3557 64.527 47.5818 62.9133 46.217 60.7166L41.0325 63.6752C42.8971 67.3066 46.7178 70.0856 52.6302 70.0856C58.6791 70.0856 63.1819 66.9931 63.1819 61.3439C63.1819 56.0995 60.1343 53.7686 54.7219 51.4823L53.1302 50.81C50.4018 49.6443 49.2192 48.8821 49.2192 46.9991C49.2192 45.4753 50.4018 44.3097 52.2666 44.3097C54.0857 44.3097 55.2678 45.0716 56.3599 46.9991L61.3173 43.8613C59.2251 40.23 56.3144 38.8402 52.2666 38.8402C46.5812 38.8402 42.9426 42.4268 42.9426 47.1338C42.9426 52.2441 45.9899 54.6649 50.5841 56.5922L52.1749 57.2653C55.086 58.5199 56.8145 59.2821 56.8145 61.4338C56.8145 63.227 55.1318 64.527 52.4937 64.527Z" fill="#FF5A00"/>
</svg>
