<?xml version="1.0" encoding="UTF-8"?>
<svg width="75px" height="92px" viewBox="0 0 75 92" version="1.1" xmlns="http://www.w3.org/2000/svg" xmlns:xlink="http://www.w3.org/1999/xlink">
    <g id="Page-1" stroke="none" stroke-width="1" fill="none" fill-rule="evenodd">
        <g id="Group-9" transform="translate(0.000000, 9.000000)" fill="#FF5A00">
            <path d="M0,73 L75,73 L75,0 L0,0 L0,73 Z M6.30841121,66.7823344 L68.6915888,66.7823344 L68.6915888,6.21766562 L6.30841121,6.21766562 L6.30841121,66.7823344 Z" id="Fill-1"></path>
            <g id="Group-8" transform="translate(18.457944, 29.821767)">
                <path d="M0.0587266355,25.5249797 L0.0587266355,25.5255554 L0.0589602804,25.5253251 C0.0588434579,25.5252099 0.0587266355,25.5250948 0.0587266355,25.5249797" id="Fill-2"></path>
                <path d="M9.61004673,31.2631942 C15.2501168,31.2631942 19.1158879,28.3046216 19.1158879,21.8045128 L19.1158879,0.377170505 L12.7484813,0.377170505 L12.7484813,21.7157383 C12.7484813,24.8535869 11.4293224,25.6603866 9.33714953,25.6603866 C7.15432243,25.6603866 6.24439252,24.1811579 5.24404206,22.4331879 L0.0589953271,25.5253251 C1.55969626,28.6634039 4.51647196,31.2631942 9.61004673,31.2631942" id="Fill-4"></path>
                <path d="M34.0357944,25.7052344 C30.8977103,25.7052344 29.1238785,24.0915199 27.7590421,21.8948416 L22.5745794,24.8534142 C24.4391822,28.4848763 28.2598598,31.2638274 34.172243,31.2638274 C40.2211916,31.2638274 44.7239953,28.1713448 44.7239953,22.522135 C44.7239953,17.2777644 41.6763318,14.9468306 36.2639486,12.6605719 L34.672243,11.988258 C31.9438551,10.8225609 30.7612617,10.0603211 30.7612617,8.17728959 C30.7612617,6.65350095 31.9438551,5.48791893 33.8086916,5.48791893 C35.6277336,5.48791893 36.8098598,6.24981325 37.9019159,8.17728959 L42.8593925,5.03955615 C40.7671028,1.40820915 37.856472,0.0184457413 33.8086916,0.0184457413 C28.1232944,0.0184457413 24.4846262,3.60500252 24.4846262,8.31200568 C24.4846262,13.4223511 27.5319393,15.8430956 32.1260981,17.7704568 L33.716986,18.4435767 C36.6280841,19.6981634 38.3565888,20.460288 38.3565888,22.6120609 C38.3565888,24.4052817 36.6738785,25.7052344 34.0357944,25.7052344" id="Fill-6"></path>
            </g>
        </g>
    </g>
</svg>