<svg width="51" height="58" viewBox="0 0 51 58" fill="none" xmlns="http://www.w3.org/2000/svg">
<path fill-rule="evenodd" clip-rule="evenodd" d="M1.81445 1.8606V34.0227C1.81445 46.2036 12.4335 56.1375 25.4548 56.1375C38.4752 56.1375 49.0952 46.2027 49.0952 34.0227V1.8606H1.81445Z" fill="#ED1C24"/>
<path fill-rule="evenodd" clip-rule="evenodd" d="M26.2121 22.964C26.2326 22.817 26.2534 22.6704 26.2738 22.5236C27.1603 22.4304 28.0464 22.3371 28.9327 22.2439C28.5308 22.8491 27.9647 23.322 27.2975 23.7128C27.0783 23.3277 26.6716 23.1207 26.2121 22.964ZM16.1147 20.6131C16.2146 19.9886 16.1261 19.4305 15.6219 19.0187C15.8041 18.8284 15.9863 18.6379 16.168 18.4472C16.8052 18.4653 17.4177 18.3854 18.0197 18.2615C18.204 19.3169 18.0036 20.2309 17.5134 21.0382C17.0472 20.8966 16.581 20.7547 16.1147 20.6131ZM47.5262 30.8576C47.2794 30.7077 47.0284 30.7759 46.8528 30.9822C46.7013 29.3447 45.0779 28.1616 44.511 26.7513C44.3551 26.8585 44.2305 27.0907 44.1105 27.3411C42.8368 25.7764 42.701 24.2117 43.1401 22.6476C41.8233 22.9109 41.2095 24.4203 41.1781 26.9623C40.733 26.3422 40.6853 25.5237 40.6713 24.6891C40.0718 25.7633 39.5812 26.845 40.4183 28.3509C41.0221 29.2123 41.7332 29.9655 42.6761 30.8978C42.9874 31.24 43.7531 31.8019 43.0977 32.2182C42.2554 32.488 41.587 32.3283 40.9248 31.9927C39.5797 31.1812 38.4121 30.2179 37.3172 29.1935C36.478 28.5754 35.5622 28.185 34.6165 27.8881C34.9875 27.2677 35.4315 26.6376 34.638 26.1622C34.3778 26.0782 34.117 25.994 33.8572 25.9096V24.7519C34.831 25.4678 35.869 26.0949 37.0218 26.5618C40.2444 23.1515 40.7765 18.8004 38.161 14.2914C37.535 14.3965 36.909 14.502 36.2833 14.6069C35.995 14.1217 35.3619 14.0113 34.6796 13.9546C34.7634 13.8369 34.8022 13.6545 34.7431 13.5017C32.9749 13.746 34.4415 12.2552 34.7066 11.8969C35.1915 11.2418 35.1503 10.7326 34.8214 10.1565C34.4278 9.50369 33.9499 8.90905 33.4134 8.39806C32.6973 8.42871 32.0054 8.67897 31.3247 9.02985L30.9243 8.75612C30.4391 9.3383 29.9001 10.0143 29.4148 10.5967C29.5626 10.6385 29.7638 10.5873 29.9786 10.5894C29.9189 10.889 29.7194 11.1794 29.5529 11.4082C29.499 11.5312 29.534 11.6364 29.6582 11.7239C29.5265 11.8602 29.519 12.0147 29.6372 12.1867C29.6593 12.3724 29.5831 12.6827 29.4625 12.9041C29.341 12.8742 29.1834 12.8919 29.0656 12.9854C28.9141 13.1058 28.8266 13.3522 28.9624 13.7862L28.8356 13.8494C28.03 13.3234 27.2506 12.8237 26.5517 12.2977C26.6501 12.2415 26.775 12.1588 26.8736 12.1026C26.6275 11.9624 26.3949 11.7688 26.1488 11.6281C26.0782 11.3336 25.981 11.0389 25.9109 10.7442C25.8195 10.7932 25.7414 10.896 25.6504 10.9451L25.1839 10.0188L25.5444 9.61895C24.9236 9.4029 24.8328 8.79734 24.8903 8.08242C29.3912 8.01947 33.8914 7.95617 38.3928 7.89304C39.5339 7.82506 40.5878 7.65075 41.2198 6.96692C40.5665 6.32707 39.5335 6.06634 38.2661 6.04062C33.8006 6.01282 29.3344 5.98476 24.8694 5.95679C24.8387 5.27539 24.8299 4.5273 25.5561 4.31488L24.7642 3.55762C24.0933 3.85567 23.803 4.82795 23.5979 5.80534C23.2675 5.63683 22.9636 5.3883 22.6333 5.22005C22.449 5.19009 22.4076 5.39714 22.3381 5.5569C21.4429 5.513 21.0227 5.92718 20.7345 6.41774L18.5405 6.41999L18.5098 5.71754C16.8937 5.83851 16.9627 8.08684 18.4981 8.14581L18.5348 7.49895L20.7134 7.49349C20.8199 7.87875 21.0744 8.26531 21.4308 8.65074C21.1595 9.24876 20.8662 9.83578 20.5236 10.3977C21.367 10.5033 22.2944 10.5254 23.2452 10.5239C23.3979 10.8882 23.5687 11.2609 23.8646 11.6604C23.7873 11.6885 23.7233 11.7167 23.646 11.7446C23.8732 12.1855 24.0614 12.6426 24.1098 13.1548L25.2225 13.9546L25.4045 13.8726C25.9522 14.6483 26.5891 15.4261 27.4223 16.0596C27.7732 17.8327 28.5788 19.7121 28.8356 21.3247C28.0058 21.5215 27.1761 21.5682 26.3462 21.6582C26.3672 20.8859 26.1762 20.1768 25.8399 19.5112C26.0413 19.5009 26.1754 19.4371 26.283 19.2799C25.6741 18.7739 25.8949 18.1346 25.4604 17.7222C25.5374 17.6379 25.615 17.5544 25.6919 17.4697C25.2159 17.1374 25.3015 16.3513 24.7852 15.9123C23.5925 13.9081 22.4667 13.3244 21.3462 12.8603C21.3392 12.7765 21.3322 12.6922 21.3251 12.6079C20.8821 12.4563 20.4391 12.3787 19.9961 12.3339L19.9747 12.0605C19.2857 11.8087 18.5965 11.7676 17.9072 11.8712C17.421 10.9893 16.1989 11.1622 15.5655 10.5873C14.9147 10.7331 15.3768 11.1665 15.6724 11.4576C15.4191 11.4082 15.0188 11.2392 14.8059 11.1765C14.6422 11.4463 14.8533 11.7341 15.4387 12.0395L14.3208 12.671C14.3444 12.9003 14.5885 13.0812 14.9327 13.2391C14.5181 13.7092 14.1029 14.1793 13.688 14.6494C13.2028 15.2108 12.7176 15.7716 12.2325 16.333C12.0425 16.5436 11.8527 16.7539 11.6627 16.9643C11.4235 17.2663 11.1849 17.568 10.9454 17.8693C10.7127 18.2063 10.7989 18.5428 11.03 18.8797C10.9858 19.3291 10.8666 19.7664 11.3041 20.2902C11.5487 20.4402 11.8046 20.4681 12.085 20.2269C12.1412 20.0233 12.1971 19.82 12.2534 19.6167C12.4926 19.42 12.7318 19.2238 12.971 19.0271C13.1049 19.2097 13.2384 19.3923 13.3719 19.5742C13.2522 19.7005 13.1327 19.8269 13.013 19.9531L13.203 20.3319C13.1256 20.3951 13.0484 20.4582 12.971 20.5214C12.8612 21.0657 13.2423 21.0106 13.5403 20.8793C14.3875 20.8084 15.0109 20.4375 15.1442 19.4058C15.4118 19.6162 15.5687 19.8813 15.4815 20.2687C15.2564 20.7177 15.0315 21.1666 14.8063 21.6157C14.4136 21.6453 14.1824 21.9568 14.1483 22.2786C14.1147 22.6001 14.2777 22.9328 14.6727 23.003C14.9302 23.0487 15.2232 22.9334 15.4182 22.626C15.5502 22.3912 15.5572 22.1386 15.439 21.8683C15.9104 22.0018 16.3815 22.135 16.8526 22.2682C16.719 22.5136 16.5855 22.7592 16.4518 23.0048C15.876 23.043 15.3726 23.3702 14.9752 24.1204C14.6938 24.548 14.4124 24.9763 14.1313 25.4043C13.7411 25.021 13.2628 24.7525 12.7088 24.5575C12.3779 24.4414 12.152 24.3874 11.9628 24.3857C11.6863 24.3826 11.4883 24.4886 11.1564 24.6677L6.53633 27.467C6.28852 27.6905 6.07169 27.93 5.96658 28.2246C5.49517 29.3964 5.02437 30.5681 4.55322 31.7399C4.6165 31.9712 4.67978 32.2026 4.74271 32.4344C5.10162 32.336 5.46036 32.2381 5.81876 32.1397C5.64803 32.5799 5.54699 32.9521 5.49882 33.329C5.43901 33.7949 5.46002 34.2677 5.52902 34.8842C5.61331 35.6347 5.66304 36.3843 5.75548 37.1277C5.91033 37.3029 6.06492 37.4786 6.21986 37.6541L8.62464 34.9387C8.46745 34.7454 8.30348 34.5904 8.12797 34.4588C7.90177 34.2898 7.65631 34.1595 7.37994 34.0338C7.25503 33.496 7.45285 33.1104 7.76151 33.0886C7.94708 33.0752 8.17276 33.1927 8.39271 33.4868C8.82767 33.0998 8.90214 32.5651 8.73028 31.9296C9.18814 31.2505 9.68342 30.5901 10.2257 29.9541C10.563 29.5579 10.7467 29.303 11.3016 29.2596C11.9141 29.2116 12.2109 29.5786 12.4787 30.061C12.6935 30.4471 12.8355 30.8769 12.8863 31.361C13.6599 32.3574 14.4338 33.3537 15.2073 34.3499C15.3414 34.5317 15.5204 34.6687 15.7979 34.7077C16.058 34.7319 16.3182 34.7337 16.5783 34.6867C16.8757 34.5636 17.0858 34.3834 17.1691 34.1185C17.7878 34.3356 18.407 34.5532 19.0255 34.7707L19.3209 34.9181C19.2647 35.0584 19.2085 35.1989 19.1525 35.3388C18.7842 35.3398 18.483 35.4852 18.3292 35.9495C16.7968 36.0537 15.4527 36.7363 14.3845 38.2645C14.6024 38.426 14.8205 38.5873 15.0383 38.7488C15.4501 38.1414 15.9603 37.9508 16.5152 37.9487C16.522 38.0825 16.529 38.2157 16.5361 38.3489C17.4364 38.4329 18.3365 38.5169 19.2368 38.6015C19.2787 38.4822 19.3209 38.3629 19.3633 38.2435C19.6658 38.3277 19.9815 38.4385 20.2839 38.5231C20.368 38.3684 20.4394 38.1873 20.5236 38.0331C21.2477 38.2855 21.9724 38.5382 22.6965 38.7909C22.2816 39.0991 21.7729 39.4481 21.3579 39.7565C21.9982 39.7288 22.7319 39.6605 23.3717 39.6323C23.8147 40.2288 24.2579 40.8252 24.701 41.4214L24.4263 39.1906C24.9399 38.8746 25.4532 38.5591 25.9664 38.2433C25.3547 38.2223 24.7428 38.228 24.1311 38.2067C23.7795 37.7159 23.428 37.1981 23.0762 36.7072C23.0902 37.1699 23.1045 37.6329 23.1183 38.0961C22.3521 37.8362 21.5852 37.577 20.8189 37.3171C21.0949 36.7247 21.5993 36.2925 22.2323 35.9494C23.6514 36.3607 25.1363 36.5739 26.6627 36.6649C26.691 38.1031 26.7191 39.5413 26.7473 40.9795C26.7312 42.2462 26.9829 43.4352 27.8233 44.4523C28.5104 43.5813 28.7628 42.3908 28.7724 41.0215C28.7516 39.5624 28.7305 38.1031 28.7091 36.6437C28.9384 36.6493 29.1726 36.6823 29.2591 36.8516C29.3036 36.9404 29.3558 37.036 29.4136 37.1364C29.652 37.5526 29.5908 37.5503 30.0404 37.446C30.4664 37.3473 30.9175 37.2901 31.3212 37.275C31.3471 37.9304 31.5076 38.467 31.813 38.8935C32.1187 39.3205 32.5694 39.6378 33.1764 39.8561C34.0001 40.287 34.6683 40.7503 35.2077 41.2526C35.4947 41.8766 35.673 42.5084 35.4604 43.1679C35.009 43.9718 34.5701 44.7721 34.0658 45.5605C33.8157 45.952 33.6743 46.1898 33.2813 46.4271C31.9013 47.2599 30.3713 48.2251 29.68 49.7138C29.6517 49.9457 29.624 50.1771 29.5959 50.4083L31.1993 50.3663V50.8503C32.4018 50.8571 33.6041 50.8644 34.8067 50.8711C34.8132 50.4928 34.8207 50.1139 34.8275 49.7347C35.1837 48.8388 35.7186 48.7618 36.4306 49.5033C36.8163 49.077 37.0563 48.5644 37.0853 47.9247C38.1472 46.2483 39.2091 44.5709 40.2706 42.8945C40.4591 42.6475 40.5735 42.3987 40.6044 42.148C40.6574 41.7249 40.5268 41.4463 40.3026 41.243C39.9753 40.9459 39.4494 40.8102 39.0051 40.621C38.5446 40.3477 38.2075 39.9734 38.1399 39.3795C38.2893 38.1845 39.4856 37.1627 40.0811 35.9275C40.2602 34.9871 40.2967 34.1683 40.2438 33.2449C40.3602 33.2953 40.5158 33.3638 40.5691 33.4934C41.4543 35.6356 44.7827 37.8413 46.7111 35.4936C46.0427 35.7037 45.4177 35.6963 44.8911 35.4438C47.9236 34.9166 46.9153 31.5367 47.5262 30.8576Z" fill="white"/>
<path fill-rule="evenodd" clip-rule="evenodd" d="M31.1609 16.0711L37.9195 14.7257C39.9237 17.6665 40.228 22.6162 36.935 26.1172C32.9764 24.5186 30.69 20.8115 31.1609 16.0705" fill="#00ADEF"/>
<path fill-rule="evenodd" clip-rule="evenodd" d="M31.0506 30.3132C31.497 30.1473 31.9689 29.9395 32.4379 29.6744C32.5401 30.0341 32.6172 30.4919 32.6154 30.8057C32.1922 30.6685 31.5653 30.4614 31.0506 30.3132M36.4878 32.4131C36.5142 30.9835 36.5571 29.4538 35.9585 28.4892C35.6686 28.3809 35.4744 28.2454 35.1852 28.137C35.8024 29.2547 35.8088 30.6713 35.756 32.0519C35.0097 31.6971 34.2172 31.366 33.3785 31.0662C33.4598 30.4442 33.4177 29.6749 33.2138 29.176C33.837 28.7215 34.4262 28.1448 34.9113 27.4075C35.1576 26.8998 35.1987 26.4291 34.5072 26.0909C34.0671 25.8598 33.6273 25.8438 33.1875 25.8152C32.88 26.6279 32.0163 26.9873 30.7723 27.0358C30.2714 27.45 29.7716 27.8639 29.2712 28.278C29.2861 29.1273 29.2999 29.9766 29.3139 30.826C29.4495 30.7935 29.5971 30.7575 29.7552 30.7161C30.707 30.9894 31.7528 31.3051 32.5725 31.5921C32.4734 32.7848 32.3153 34.1166 33.381 35.5679C33.6117 35.5628 33.8421 35.5588 34.073 35.554C34.0865 35.3603 34.1002 35.1661 34.1139 34.9721C33.3164 34.1816 33.2744 32.9933 33.3304 31.866C34.197 32.1891 34.9945 32.5234 35.7221 32.8694C35.6536 34.5669 35.6638 36.1023 36.8406 36.813C36.9855 36.7587 37.1297 36.7047 37.2748 36.6505C37.2701 36.4608 37.2657 36.2714 37.2612 36.082C36.4746 35.7491 36.4125 34.592 36.4554 33.234C38.0236 34.0505 39.2183 34.927 40.0289 35.8656C40.0965 35.5091 40.1643 35.1523 40.2323 34.7963C39.1638 33.9655 37.9173 33.1491 36.4878 32.4131" fill="#00ADEF"/>
<path fill-rule="evenodd" clip-rule="evenodd" d="M25.5951 31.3282C25.6255 31.6583 25.5696 31.9883 25.3874 32.3184C25.2887 32.2787 25.1903 32.2387 25.0916 32.1986C24.9641 32.8284 24.6952 33.4053 24.3967 33.9714C24.8895 33.9768 25.3819 33.9821 25.8747 33.9877C25.9652 33.4549 26.2156 33.1353 26.6255 33.0293L26.6093 30.6255C26.3727 30.9726 26.0231 31.1935 25.5951 31.3282" fill="#00ADEF"/>
<path fill-rule="evenodd" clip-rule="evenodd" d="M13.5985 26.2199C13.4849 26.4269 13.3717 26.6341 13.2583 26.8413C13.5163 27.1223 13.7745 27.4035 14.0324 27.685C16.7365 26.5804 19.8587 26.2748 23.2965 26.5713L23.4487 27.2983L18.9447 34.7073C19.105 34.789 19.2193 34.8713 19.3797 34.9534C20.5055 33.4608 21.6312 31.968 22.7569 30.4754C22.7726 30.1859 22.7882 29.8966 22.8038 29.6079C23.1131 29.1729 23.6052 28.8607 24.2815 28.6699C25.1366 27.2123 26.1056 25.8363 27.3891 24.6839C27.3728 23.1394 26.5449 22.8818 25.4895 22.9842C24.3671 23.2986 23.7908 24.1155 23.4631 25.1612C20.0546 24.9144 16.7625 25.2483 13.5984 26.2199" fill="#00ADEF"/>
<path fill-rule="evenodd" clip-rule="evenodd" d="M15.4536 20.354C15.2256 20.7743 14.9975 21.1948 14.7698 21.6152C18.9437 22.9143 23.928 23.031 29.6498 22.0699C30.6987 21.8255 30.1401 21.1194 29.5673 21.2223C24.1046 22.2485 19.423 21.9188 15.4537 20.354" fill="#00ADEF"/>
<path fill-rule="evenodd" clip-rule="evenodd" d="M12.2265 16.3846C12.0545 16.5704 11.883 16.7569 11.7109 16.9432C12.459 17.254 13.0834 17.7135 13.623 18.2742C14.0069 17.7918 14.4382 17.7385 14.8429 18.2549C15.724 17.4029 16.5655 16.528 17.446 15.6762C17.5751 15.6762 17.6728 15.707 17.8016 15.707C18.1571 16.2554 18.4549 16.8786 18.4773 17.7394C18.696 17.658 18.9253 17.5845 19.1648 17.5657C19.1554 16.4535 18.8125 15.7125 18.241 15.2251C18.2553 15.096 18.2699 14.9674 18.2839 14.8386C18.9229 14.4037 19.2161 13.7589 19.272 12.9703C19.0452 12.8192 18.7878 12.7621 18.4989 12.7984C18.4586 13.4102 18.1874 13.9867 17.5848 14.411C17.0369 13.8408 16.4289 13.343 15.7144 12.9605C15.2375 13.089 15.0532 13.209 14.8687 13.3998C15.5866 13.7319 16.2979 14.1741 16.9953 14.8599C16.981 14.9745 16.9589 15.042 16.9443 15.1566C16.0494 16.0086 15.0999 16.9615 14.2045 17.8138C13.5145 17.2067 12.8957 16.6791 12.2265 16.3846" fill="#00ADEF"/>
<path fill-rule="evenodd" clip-rule="evenodd" d="M18.4404 36.328C17.9352 37.0514 17.2355 37.5372 16.4727 37.9458C16.4958 38.0659 16.519 38.186 16.5422 38.3067C17.4311 38.3992 18.3194 38.4917 19.2081 38.5843C19.245 38.4778 19.2822 38.3714 19.3192 38.2649C19.106 38.0081 18.9626 37.7398 18.9717 37.4457L22.7071 38.8198L21.4155 39.7364L23.3735 39.6391L24.7204 41.4716L24.4427 39.2364L25.9839 38.2231L24.1095 38.2507L23.0819 36.7375L23.1095 38.0429C21.7212 37.5936 20.3325 37.145 18.9442 36.6961C18.9564 36.6401 18.9731 36.6626 19.0277 36.6626C19.3955 36.6626 19.694 36.3777 19.694 36.0272C19.694 35.6761 19.3955 35.3912 19.0277 35.3912C18.6594 35.3912 18.3613 35.6761 18.3613 36.0272C18.3613 36.1359 18.3896 36.2386 18.4404 36.328" fill="#FDB913"/>
<path fill-rule="evenodd" clip-rule="evenodd" d="M37.8478 21.666L36.7616 21.899L37.0307 23.0952C37.1049 23.3947 37.1963 23.487 37.4218 23.6175L35.5493 24.0312C35.7156 23.7773 35.7411 23.6032 35.6903 23.4068L35.4262 22.166L34.0187 22.4595C33.759 22.5535 33.6979 22.5808 33.5301 22.8134L33.1773 21.1037C33.3202 21.206 33.4309 21.2237 33.7049 21.1994L35.1589 20.9112L34.8161 19.3652L33.4519 19.6412C33.2496 19.6902 33.0831 19.7788 32.9408 20.0177L32.5662 18.3148C32.7689 18.4288 32.9594 18.4587 33.1789 18.4161L34.5732 18.1348L34.3547 17.0302C34.2787 16.8282 34.1968 16.7212 33.9804 16.5654L35.7402 16.2015C35.5827 16.3932 35.6338 16.6238 35.6692 16.7976L35.8888 17.8457L36.9812 17.602C37.3004 17.5369 37.4383 17.4435 37.6122 17.197L37.9976 18.9704C37.7789 18.7933 37.6064 18.8294 37.3657 18.85L36.1706 19.095L36.4762 20.5918L37.704 20.3446C37.9144 20.3006 38.0758 20.2538 38.2039 20.0054L38.5841 21.7279C38.3228 21.544 38.0428 21.6296 37.8478 21.666" fill="#FDB913"/>
<path fill-rule="evenodd" clip-rule="evenodd" d="M14.826 21.6876C15.1902 21.6876 15.4849 21.9817 15.4849 22.3451C15.4849 22.7078 15.1902 23.0021 14.826 23.0021C14.4622 23.0021 14.1672 22.708 14.1672 22.3451C14.1672 21.9818 14.4622 21.6876 14.826 21.6876" fill="#FDB913"/>
<path fill-rule="evenodd" clip-rule="evenodd" d="M14.6359 18.985C15.1247 19.2499 15.5368 19.5916 15.5159 20.3666L16.1552 20.6315C16.1914 19.5442 15.7619 18.8503 14.8668 18.5496C14.8686 18.5317 14.8694 18.5135 14.8694 18.4948C14.8694 18.1461 14.5856 17.863 14.2361 17.863C13.8865 17.863 13.6028 18.1461 13.6028 18.4948C13.6028 18.8435 13.8865 19.1266 14.2361 19.1266C14.3875 19.1266 14.5266 19.0738 14.6359 18.985" fill="#FDB913"/>
<path fill-rule="evenodd" clip-rule="evenodd" d="M17.6245 14.4146C17.974 14.4146 18.258 14.6974 18.258 15.0463C18.258 15.3951 17.9741 15.6779 17.6245 15.6779C17.2749 15.6779 16.9912 15.3951 16.9912 15.0463C16.9913 14.6974 17.275 14.4146 17.6245 14.4146" fill="#FDB913"/>
<path fill-rule="evenodd" clip-rule="evenodd" d="M24.7411 10.4109C23.3111 9.71755 23.1948 4.37192 24.7575 3.49524L25.5029 4.29095C25.3304 4.40396 24.9126 4.51627 24.892 5.00639L24.8275 8.79134C24.8431 9.21851 25.3704 9.49812 25.5765 9.58991L24.7411 10.4109Z" fill="#FDB913"/>
<path fill-rule="evenodd" clip-rule="evenodd" d="M18.5098 8.10688C16.7794 7.95265 16.9644 5.85049 18.477 5.83447L18.4859 6.44782L21.4633 6.46886C21.678 6.69193 21.8253 7.21366 21.8216 7.47725L18.5004 7.45993L18.5098 8.10688Z" fill="#FDB913"/>
<path fill-rule="evenodd" clip-rule="evenodd" d="M32.9462 30.7627C33.3056 30.7627 33.5972 31.0533 33.5972 31.4124C33.5972 31.7711 33.3056 32.0621 32.9462 32.0621C32.5864 32.0621 32.2949 31.7711 32.2949 31.4124C32.2949 31.0533 32.5864 30.7627 32.9462 30.7627" fill="#FDB913"/>
<path fill-rule="evenodd" clip-rule="evenodd" d="M36.0935 31.9801C36.4532 31.9801 36.7443 32.2709 36.7443 32.6296C36.7443 32.9883 36.4532 33.28 36.0935 33.28C35.7339 33.28 35.4417 32.9883 35.4417 32.6296C35.4417 32.2711 35.7343 31.9801 36.0935 31.9801" fill="#FDB913"/>
<path fill-rule="evenodd" clip-rule="evenodd" d="M26.6108 26.3186H28.6335C28.6396 26.5604 28.6463 26.8019 28.6527 27.0433C27.8011 27.0481 27.765 28.0417 28.6431 28.1212C28.637 28.3373 28.6306 28.5539 28.6243 28.7703C27.9468 28.7828 27.2694 28.7955 26.592 28.8081C26.5862 28.6014 26.5793 28.395 26.573 28.1883C27.5743 28.0824 27.6071 27.0853 26.6013 27.0722C26.6043 26.821 26.6073 26.5696 26.6108 26.3186" fill="#FDB913"/>
<path fill-rule="evenodd" clip-rule="evenodd" d="M14.049 27.6271C14.2002 27.8224 14.351 28.0179 14.5019 28.2134C16.7737 27.5513 19.0109 26.8715 23.5039 27.342C23.4427 27.0907 23.381 26.8393 23.3196 26.588C20.5303 26.2683 16.9777 26.5892 14.0486 27.6271" fill="#FDB913"/>
<path fill-rule="evenodd" clip-rule="evenodd" d="M11.61 18.3125C11.7362 18.1883 11.867 18.1212 12.0111 18.2358C12.0939 18.3019 12.1436 18.3917 12.1356 18.5008C12.1281 18.6067 12.0937 18.6779 11.9965 18.7208C11.9177 18.7561 11.8256 18.768 11.727 18.7709C11.6395 18.7776 11.6441 18.8644 11.7365 18.873C11.8352 18.8764 11.9287 18.8655 12.0127 18.8299C12.1179 18.7847 12.1947 18.7047 12.2343 18.5964C12.2864 18.454 12.2298 18.3061 12.1426 18.1916C11.9808 17.9773 11.7611 18.04 11.5174 18.1956C11.4299 18.2738 11.5138 18.3799 11.61 18.3125ZM38.2629 41.2171C38.2154 41.3154 38.1677 41.4133 38.1204 41.511C39.3514 41.1615 39.5728 42.1698 38.9267 42.9022C39.8891 42.3303 39.5021 41.2138 38.4648 41.1337C37.6678 40.6107 37.3012 39.9536 36.8768 39.315C37.1702 39.9304 37.3339 40.5316 38.2629 41.2171ZM46.4544 35.7531C45.0602 37.1495 42.2097 36.3847 40.7737 33.7607C40.5814 33.3759 40.4514 33.2125 40.1281 32.9277C40.1231 33.5035 40.1186 34.0801 40.1143 34.6561C39.0941 33.8648 38.0859 33.1333 36.8298 32.511C36.7912 32.3997 36.7013 32.2158 36.5962 32.1047C36.6276 30.9706 36.5178 29.8472 36.1557 28.7129C36.4626 28.8752 36.7837 29.031 37.0646 29.2517C38.1904 30.1367 39.3227 31.2157 40.683 32.0459C41.4562 32.5129 42.2461 32.7234 43.0717 32.3999C43.5295 32.2208 43.6923 31.9189 43.3159 31.5025C42.4992 30.4674 40.984 29.2713 40.358 28.0966C39.8641 27.1685 40.0197 26.1033 40.6139 24.9847C40.5535 26.0085 40.7502 26.8431 41.3223 27.4009C41.2115 25.1121 41.568 23.3957 42.9546 22.9366C42.5286 24.2287 42.7027 25.5808 43.64 27.0093C44.1914 27.8496 44.8626 28.6382 45.5521 29.3661C45.5381 29.3196 45.5245 29.2731 45.5105 29.2272C45.1153 28.7681 43.9805 27.6687 44.4689 27.019C44.6691 27.5291 44.9785 27.8573 45.3058 28.2836C45.6367 28.715 45.9294 29.155 46.1744 29.6065C46.765 30.6956 47.1606 32.2778 45.7957 32.997C47.2078 32.7256 46.5987 30.9012 47.3165 30.9627C47.1417 31.2045 47.1736 31.5235 47.1611 31.8062C47.0598 34.1502 46.1991 35.3886 44.4824 35.3852C45.0252 35.9975 45.7755 35.8531 46.4544 35.7531ZM36.5876 33.2581C36.7333 33.1124 36.8443 32.989 36.842 32.7692C37.991 33.4296 39.0916 34.0351 40.0929 34.8993C40.1379 35.1846 40.0943 35.4581 40.0097 35.7254C38.9797 34.5912 37.7645 33.949 36.5876 33.2581ZM38.2855 38.5898C37.9758 39.1086 37.917 39.5142 38.2393 40.0492C38.6187 40.6794 39.1008 40.8749 39.8674 41.1791C40.2328 41.3237 40.2075 41.3645 40.3335 41.7028C40.3694 41.7994 40.4076 41.8959 40.4421 41.9919C40.5198 42.2059 40.3996 42.4372 40.281 42.6169C39.3736 43.9872 38.5231 45.3887 37.6605 46.7883C37.502 47.0715 37.3432 47.3542 37.1852 47.6373C37.0777 47.8284 37.0387 47.8457 36.9961 47.6028C36.955 47.3703 36.9888 47.163 37.0982 46.9803C37.1745 46.8768 37.1142 46.8538 37.027 46.9593C36.8877 47.1624 36.8287 47.2709 36.8219 47.5265C36.8068 48.0948 37.0228 48.7637 36.4437 49.3928C35.7878 48.6328 35.1587 48.8004 34.7087 49.5594C34.2035 48.9878 33.4943 48.6526 32.7076 48.5317C33.3228 47.8767 34.1818 47.5728 34.909 47.0491C35.2632 46.7941 35.3999 46.5649 35.6195 46.194C36.0906 45.3981 36.5658 44.603 36.9133 43.7791C37.0601 43.5072 37.0874 43.2312 37.0281 42.9526C36.9577 42.6185 36.7904 42.3857 36.5793 42.1255C36.3263 41.8144 36.1141 41.6208 35.9135 41.4615C35.5943 41.2078 35.2679 40.9837 34.9192 40.7719C34.4458 40.4839 33.9698 40.2131 33.4918 39.9526C33.1657 39.7752 32.8139 39.6227 32.4981 39.4296C32.1707 39.2292 31.9108 38.9679 31.7565 38.61C31.6636 38.3935 31.6034 38.1352 31.5504 37.9046C31.377 37.1505 31.2364 35.8272 30.6861 35.3203C30.5305 35.1904 30.4854 35.311 30.5572 35.3738C30.783 35.6651 30.9918 36.0148 30.9353 36.4941C30.164 36.5613 29.4139 36.6111 28.8076 36.5367V32.6093C29.007 32.3558 29.2061 32.1022 29.405 31.8485C29.4032 31.616 29.4008 31.3835 29.3986 31.1513C29.522 31.0615 29.6451 30.9711 29.7685 30.881C30.5844 31.1246 31.3857 31.3474 32.2012 31.6409C32.2448 31.7688 32.3377 31.9073 32.4515 32.0117C32.2809 33.3654 32.3928 34.6461 33.3432 35.6817C33.609 35.6747 33.8862 35.6973 34.1521 35.69C34.1757 35.4458 34.1993 35.2013 34.2231 34.9575C33.456 34.4217 33.3131 33.3335 33.3694 32.069C34.0356 32.3265 34.687 32.572 35.3534 32.8889C35.4 33.0097 35.5317 33.188 35.6345 33.2811C35.4258 35.3305 35.9012 36.404 36.8438 36.9576C37.0224 36.8767 37.1687 36.8373 37.347 36.7573C37.3447 36.5126 37.3319 36.2947 37.3294 36.0506C36.5877 35.7214 36.4374 34.573 36.5162 33.4297C38.4232 34.4547 39.4713 35.3655 39.9344 35.9131C39.4474 36.8027 38.8037 37.7211 38.2855 38.5898ZM34.6657 50.8186H31.341V50.4331L34.6657 50.4205V50.8186ZM29.7666 50.2941V49.9209L31.3345 49.9334L31.2141 50.2941H29.7666ZM32.0933 48.9228C31.8692 49.1828 31.6583 49.4569 31.4676 49.7506C30.945 49.7506 30.3911 49.738 29.8684 49.738C30.17 49.1903 30.5383 48.691 31.0247 48.278C31.4235 48.3668 31.8124 48.5648 32.0933 48.9228ZM34.634 50.2498C33.583 50.2372 32.5314 50.2246 31.4801 50.2119C31.7618 49.6887 32.1031 49.1612 32.5864 48.7398C33.3071 48.8351 34.7962 49.2657 34.634 50.2498ZM34.2302 45.6598C34.5803 45.04 34.9306 44.4196 35.281 43.7995C35.4392 43.5194 35.5769 43.2779 35.6354 42.9551C35.7317 42.4276 35.6017 41.9525 35.3713 41.3963C36.1045 41.8526 36.768 42.3786 36.7933 43.1446C36.8037 43.4669 36.6923 43.7632 36.5703 44.0547C36.2407 44.8382 35.7771 45.5817 35.3356 46.3187C35.1006 46.6287 34.9286 46.7941 34.5959 47.0053C33.7655 47.5335 32.8377 47.9499 32.1964 48.7035C31.9233 48.4864 31.6343 48.2565 31.2565 48.074C31.7927 47.5346 32.4964 47.0577 33.3146 46.6237C33.7255 46.3903 34.0303 46.0691 34.2302 45.6598ZM29.7668 37.467C29.6366 37.5005 29.5836 37.3382 29.516 37.1624C29.4729 37.0497 29.4241 36.9318 29.3453 36.8563C29.8742 36.8162 30.4036 36.7765 30.9324 36.7368C31.009 36.7424 31.0836 36.7513 31.0941 36.8703C31.1044 36.9511 31.1148 37.0316 31.1257 37.1122C31.1281 37.1844 31.0898 37.2359 30.9609 37.2421C30.5506 37.2801 30.1582 37.3724 29.7668 37.467ZM30.3584 23.1346C30.4963 23.1736 30.6283 23.2276 30.7169 23.3216C29.759 24.0782 29.344 24.9251 29.2129 25.9652C29.1462 26.4924 29.1678 27.0226 29.1715 27.5527C29.1809 28.9435 29.19 30.3345 29.1993 31.7256C29.0968 31.9242 28.8923 32.1696 28.7388 32.3168V27.6477C28.739 26.8868 28.7002 26.1637 28.8878 25.4203C29.1377 24.429 29.628 23.6665 30.3584 23.1346ZM27.866 44.3562C27.2406 43.7555 26.9649 42.7451 26.8834 41.6395C26.8485 41.1678 26.8532 40.6932 26.847 40.2204L26.6964 28.9355H28.5436C28.5629 32.7936 28.6126 36.6844 28.6353 40.5459C28.6383 41.0214 28.6533 41.4981 28.6093 41.9724C28.5228 42.8928 28.2616 43.6768 27.866 44.3562ZM28.5291 28.0346C27.9279 28.0166 27.942 27.2265 28.5291 27.1937V28.0346ZM26.7092 27.2744C27.4446 27.2895 27.3722 28.1267 26.7092 28.0989V27.2744ZM26.6908 28.3163C27.5565 28.2452 27.7127 27.1193 26.7064 27.0429V26.4877C27.3185 26.4787 27.9306 26.4698 28.5427 26.4607V27.0001C27.7641 27.1016 27.6539 28.1177 28.5427 28.2658V28.7405C27.9301 28.7445 27.3027 28.7504 26.6908 28.7541V28.3163ZM26.4598 28.2116C26.0234 28.6313 25.6295 29.1997 25.2346 29.7666C24.9511 29.4979 24.7067 29.165 24.5477 28.6896C25.3311 26.9832 26.7951 25.0239 28.5345 24.1545C28.2518 24.8018 28.0165 25.5098 27.9413 26.2393C27.4405 26.2444 26.9404 26.2486 26.4396 26.253C26.4462 26.9061 26.453 27.5589 26.4598 28.2116ZM24.3979 34.1732C24.9161 34.2114 25.4467 34.2127 25.9861 34.1892C26.0109 33.6597 26.2068 33.3755 26.5205 33.2599C26.5308 34.3674 26.5409 35.4749 26.5516 36.5824C25.0522 36.4988 23.6404 36.2995 22.4098 35.9688C23.1099 35.4064 23.8221 34.8396 24.3979 34.1732ZM20.1219 37.0371C20.2869 36.4323 20.788 35.9399 21.334 35.4622C22.5943 34.3593 23.8489 33.2054 24.312 31.5263C24.6022 31.577 24.832 31.7582 24.9734 32.131C24.8431 33.2622 24.177 34.1042 23.3997 34.8868C22.4558 35.7865 21.2421 36.3233 20.7085 37.2513C20.5128 37.1796 20.3173 37.1083 20.1219 37.0371ZM23.1144 36.969L24.0382 38.4184L25.7985 38.3308L24.2881 39.1737L24.6519 41.3313L23.4312 39.5312L21.6102 39.7265L23.0199 38.8567L19.0205 37.4406C19.007 37.2474 19.0161 37.081 19.0677 36.8944C20.4547 37.3737 21.8418 37.8525 23.2288 38.331L23.1144 36.969ZM20.2548 38.4593C19.9354 38.3446 19.6161 38.2302 19.297 38.1152C19.1619 37.9511 19.0588 37.7803 19.0677 37.6162C19.5037 37.7781 19.9669 37.9465 20.4033 38.1085C20.3535 38.2258 20.304 38.3425 20.2548 38.4593ZM19.1151 38.5538C18.2832 38.4748 17.4513 38.3965 16.6194 38.3177C16.615 38.2366 16.6106 38.1559 16.6059 38.0749C17.3435 37.7002 17.964 37.2264 18.4326 36.5823C18.5333 36.721 18.696 36.7843 18.8693 36.833C18.7291 37.3663 18.8278 37.845 19.2093 38.2703L19.1151 38.5538ZM14.6949 38.4454C14.5358 38.3138 14.5738 38.2657 14.6905 38.1151C15.5937 36.9519 16.716 36.1714 18.3033 36.1989C17.9894 36.8606 17.4253 37.4244 16.4956 37.8455C15.8427 37.8646 15.4244 38.2129 15.0395 38.6081C14.8958 38.5869 14.7888 38.5233 14.6949 38.4454ZM19.5788 36.0791C19.5788 36.3917 19.3248 36.6446 19.0119 36.6446C18.6989 36.6446 18.4451 36.3917 18.4451 36.0791C18.4451 35.7671 18.6989 35.5139 19.0119 35.5139C19.3248 35.5139 19.5788 35.7671 19.5788 36.0791ZM18.9266 34.6443C18.3944 34.4719 17.837 34.2823 17.3053 34.1104C17.4739 33.7497 17.7043 33.5096 18.1132 33.4119C18.6348 33.2874 18.5544 33.1232 18.021 33.2384C17.7184 33.3042 17.3432 33.5292 16.875 34.2833C16.7654 34.4596 16.7499 34.57 16.5185 34.6048H15.862C15.597 34.6048 15.4617 34.5801 15.2963 34.3649C14.5272 33.3663 13.7581 32.3673 12.9889 31.3684C12.869 30.6829 12.6355 29.9028 12.1609 29.4797C11.5537 28.9377 10.9009 29.135 10.3975 29.6342C9.75955 30.2674 9.22261 31.0131 8.71744 31.7952C8.62395 31.6547 8.64479 31.5186 8.69687 31.3737C8.71535 31.3223 8.72889 31.2736 8.70624 31.2616C8.65208 31.2333 8.55972 31.4077 8.53759 31.458C8.37883 31.8237 8.65807 32.1852 8.69661 32.6072C8.73228 32.9956 8.57821 33.2125 8.35748 33.3685C7.81273 32.4363 7.08778 33.2871 7.23386 34.0429C6.70187 34.2461 6.16952 34.4781 5.63753 34.762C5.57217 34.3797 5.52374 33.9979 5.59274 33.6159C5.71608 33.7236 5.8455 33.8013 5.98369 33.8286C6.07083 33.8453 6.13645 33.8601 6.18306 33.8587C6.29 33.8553 6.29886 33.8042 6.24608 33.7622C6.20598 33.7304 6.12196 33.7188 6.03525 33.6827C5.82389 33.5959 5.74525 33.3892 5.714 33.1802C5.61774 32.5251 6.19947 31.7956 6.64423 31.183C7.62446 29.8355 8.64609 28.5391 9.68178 27.3299C9.72605 27.5134 9.84062 27.6638 9.99304 27.768C10.2304 27.93 10.2377 27.8114 10.0907 27.6585C9.97907 27.5421 9.88611 27.4042 9.88611 27.2331C9.90121 27.0755 9.94834 26.9546 10.0186 26.8604C10.225 26.5845 10.6899 26.5268 11.0074 26.5195C11.5883 26.5066 12.23 26.4456 12.7196 26.6543C12.997 26.7722 13.2753 27.036 13.5564 27.3363C14.1315 27.9504 14.6873 28.7807 15.057 29.2781C15.9811 29.6649 16.6539 30.4706 16.4959 31.6302C16.4269 32.139 16.5037 32.1926 16.6291 31.6392C16.8355 30.7282 16.4943 29.8549 15.5515 29.1884C15.6437 28.7063 15.8061 28.3045 16.0589 27.9022C18.2788 27.3871 20.6498 27.1669 23.2178 27.4802L18.9266 34.6443ZM5.90895 36.8951C5.77988 36.3052 5.70827 35.6723 5.68431 35.004C6.23896 34.7024 6.80333 34.4286 7.3842 34.2049C7.58653 34.321 7.80596 34.4392 7.97252 34.6266C7.29471 35.3737 6.58625 36.1476 5.90895 36.8951ZM8.48837 35.0431L6.23115 37.5778L5.86989 37.2265C5.86998 37.2365 8.13649 34.7214 8.13649 34.7214L8.48837 35.0431ZM4.67683 31.9189C5.21924 31.7376 5.76174 31.556 6.30415 31.3753C6.15737 31.5929 5.98994 31.8106 5.77945 32.0284C5.45794 32.1366 5.1367 32.2449 4.81528 32.3532C4.76919 32.2086 4.72292 32.0633 4.67683 31.9189ZM7.02849 30.3706C6.48218 31.2564 5.76322 31.3844 4.75981 31.6732C4.92091 31.0753 5.12862 30.4861 5.46653 29.918C6.05608 29.9302 6.63104 29.9728 7.02849 30.3706ZM6.44676 28.8176C6.56802 28.8395 6.57983 28.7751 6.48009 28.7387C5.84967 28.375 6.37576 27.8153 6.74744 27.5498C8.16183 26.5408 9.6369 25.7499 11.1 24.9178C11.1211 25.026 11.1409 25.1344 11.1723 25.2426C11.1851 25.2865 11.261 25.5615 11.342 25.4376C11.3607 25.409 11.3678 25.3584 11.3475 25.2886C11.266 24.5745 11.7986 24.4997 12.3436 24.6241C13.1895 24.8172 13.5987 25.1754 13.9106 25.5697C13.6706 25.9366 13.4308 26.3039 13.1908 26.6708C12.8618 26.3988 12.5786 26.2922 12.1468 26.2779C11.6918 26.2628 11.2753 26.2782 10.8599 26.3263C10.3885 26.3808 10.0496 26.4689 9.75 26.8337C9.44647 27.2037 9.12166 27.6158 8.81812 27.9855C8.67786 28.1526 8.53603 28.2875 8.39255 28.3857C8.22988 28.4971 8.03337 28.5269 7.8806 28.6458C7.76221 28.7371 7.71924 28.8482 7.73643 28.9758C7.7557 29.1179 7.86003 29.1985 7.77471 29.344C7.73044 29.4193 7.66013 29.4894 7.61908 29.5398C7.46605 29.7273 7.31823 29.9164 7.16017 30.1028C6.66584 29.8205 6.10963 29.6928 5.54717 29.6489C5.66617 29.2714 5.82102 28.9141 6.01936 28.5813C6.12508 28.6971 6.27264 28.7699 6.44676 28.8176ZM15.895 24.2193C16.5311 23.8244 17.2305 23.5566 17.8989 23.5121C17.4757 23.2009 16.7979 23.7176 16.3193 23.6771C16.435 23.2052 16.8382 22.8768 17.01 22.4046C19.4484 22.7534 22.0456 22.9478 24.9322 22.8052C24.9424 22.9177 24.9476 23.0188 24.9582 23.1316C24.1831 23.4771 23.7101 24.1976 23.384 25.0518C19.9733 24.9147 16.703 25.1879 13.83 26.1685C14.6604 25.244 15.2154 23.3932 16.2876 23.1822C16.2763 23.5122 15.8984 23.7938 15.895 24.2193ZM15.5305 20.5335C19.4372 22.2618 24.9413 22.2089 29.1962 21.4384C29.4604 21.399 29.8581 21.2874 30.0624 21.514C30.157 21.6185 30.1629 21.7169 30.0768 21.8378C29.9292 22.0455 29.4841 22.0688 29.2327 22.1094C23.068 23.0034 18.3845 22.811 14.9559 21.5834C15.1429 21.246 15.3434 20.8708 15.5305 20.5335ZM14.2546 22.3933C14.2546 22.0797 14.5092 21.8257 14.8234 21.8257C15.1375 21.8257 15.3923 22.0798 15.3923 22.3933C15.3923 22.7067 15.1375 22.9609 14.8234 22.9609C14.5091 22.9609 14.2546 22.7067 14.2546 22.3933ZM14.9454 18.7214C15.7945 19.0307 16.1193 19.7251 16.0602 20.521C15.9183 20.4871 15.7413 20.4015 15.6222 20.3532C15.567 19.7158 15.2341 19.3032 14.7786 19.0334C14.845 18.9435 14.9116 18.8328 14.9454 18.7214ZM13.4885 20.8905C13.4021 20.9139 13.3279 20.9347 13.2392 20.9003C13.1275 20.8575 13.0703 20.7503 13.0968 20.6606C13.1244 20.5669 13.2272 20.5423 13.3043 20.5023C13.7871 20.2535 14.0709 19.8051 14.25 19.2709C14.4025 19.2566 14.5423 19.1924 14.6844 19.1141C14.8301 19.1809 14.9634 19.2885 15.0654 19.4157C14.9264 20.1947 14.556 20.5776 14.1018 20.7259C13.9024 20.7914 13.691 20.8352 13.4885 20.8905ZM14.0695 19.2525C13.9912 19.6812 13.6905 19.9884 13.3669 20.245C13.2462 20.2007 13.1709 20.1246 13.1499 20.0107C13.43 19.7838 13.7194 19.5093 13.9417 19.1982C13.9774 19.2228 14.0289 19.2363 14.0695 19.2525ZM13.5599 18.8178C13.6182 18.9536 13.7169 19.0677 13.8408 19.1452C13.7127 19.2943 13.5826 19.4408 13.409 19.5337C13.3225 19.4055 13.2283 19.2816 13.119 19.165C13.2493 19.0263 13.4016 18.9178 13.5599 18.8178ZM12.0695 19.9363C12.0439 20.1404 11.8912 20.291 11.7194 20.3234C11.5939 20.3469 11.4586 20.3073 11.3547 20.1805C11.096 19.8631 11.1134 19.5456 11.1503 19.2285C11.1785 18.9849 11.2456 19.0573 11.0998 18.8379C10.9249 18.5741 10.9247 18.2824 11.0808 17.9665C11.194 17.7383 11.4348 17.5106 11.6698 17.2473C11.7742 17.1303 11.8835 17.1618 12.01 17.2291C12.5084 17.4927 13.0551 17.9275 13.5274 18.342C13.5105 18.403 13.5011 18.4677 13.5011 18.5346C13.5011 18.5742 13.5048 18.6129 13.5108 18.6511C13.3157 18.7747 13.1158 18.8968 12.917 19.0191C12.5297 19.2567 12.1275 19.4725 12.0695 19.9363ZM14.0179 17.844C13.8368 17.8976 13.6856 18.0201 13.5944 18.1814C12.944 17.5749 12.3266 17.1332 11.8289 16.9752C11.9227 16.8108 12.0359 16.6602 12.2436 16.5769C12.8376 16.8397 13.4471 17.2302 14.0179 17.844ZM14.7757 14.7041C14.8358 14.8603 14.9722 14.9804 15.1747 15.0055C14.789 15.4549 14.5354 15.3426 14.3353 15.0788C14.5169 15.0105 14.6891 14.8975 14.7757 14.7041ZM15.2902 15.0921C15.429 14.9175 15.5696 14.7439 15.7947 14.6665C15.9345 14.6189 15.9484 14.6155 15.809 14.5109C15.4441 14.2364 15.1789 14.1662 14.9511 14.2758C14.7611 14.3679 14.6642 14.6653 14.4626 14.8736C14.2776 15.0685 14.0363 14.9853 13.9501 14.8322C13.7978 14.5607 14.1989 14.2935 14.365 14.1293C14.5386 13.9574 14.7132 13.7846 14.8826 13.6154C15.5271 13.8253 16.3004 14.3185 16.8915 14.9613C16.8824 15.0068 16.878 15.0541 16.878 15.102C16.878 15.1308 16.8795 15.1597 16.8829 15.1875C16.0183 16.034 15.07 16.9129 14.2069 17.7587C13.6124 17.1038 12.9963 16.7264 12.3753 16.4167C12.81 15.8012 13.2808 15.3029 13.7595 14.829C14.2353 15.3161 14.7338 15.7934 15.2902 15.0921ZM14.5552 12.7101C15.194 12.3421 15.7135 12.1813 16.447 12.1105C16.5701 12.1045 16.6756 12.1444 16.7344 12.2198C16.8409 12.3583 16.8234 12.4895 16.7443 12.5749C16.69 12.633 16.6069 12.6699 16.5139 12.6725C16.2276 12.6839 15.978 12.7853 15.7289 12.8927C15.5335 12.9774 15.3382 13.0654 15.1261 13.1163C14.8837 13.1292 14.7273 13.0119 14.5672 12.8534C14.5078 12.7944 14.4972 12.7436 14.5552 12.7101ZM15.0246 11.352C15.4254 11.6198 16.1415 11.7023 16.447 11.9532C16.1771 12.0038 15.9069 12.0544 15.6373 12.105C15.3353 11.9274 15.0385 11.75 14.8925 11.5634C14.7882 11.4299 14.8121 11.2793 15.0246 11.352ZM15.4139 10.7839C15.5212 10.7091 15.619 10.8136 15.7024 10.8709C15.9661 11.0553 16.3156 11.1896 16.7378 11.2808C17.1165 11.3699 17.4502 11.534 17.6574 11.8006C17.7412 11.9088 17.7672 12.0193 17.7803 12.133C17.8042 12.3526 17.8107 12.5516 17.9169 12.6765C18.0134 12.79 18.1483 12.7819 18.2675 12.8177C18.3214 12.8337 18.3723 12.8588 18.4148 12.9082C18.3422 13.4793 18.1201 13.9816 17.6321 14.3609L17.6209 14.3607L17.5995 14.3609C17.1013 13.8452 16.5599 13.3915 15.9483 13.0377C16.0953 12.8879 16.2989 12.7891 16.6271 12.8036C16.8811 12.7484 16.9686 12.5913 16.9582 12.4122C16.9428 12.1509 16.7179 11.8422 16.4972 11.7374C16.1362 11.5509 15.7663 11.3686 15.5206 11.1296C15.4603 11.0713 15.3702 10.9877 15.3624 10.8983C15.3577 10.8491 15.379 10.8081 15.4139 10.7839ZM19.6357 17.7476C19.4954 17.6807 19.3445 17.6132 19.2046 17.5464C19.2252 16.5741 18.9041 15.7952 18.3493 15.241C18.3582 15.196 18.3623 15.15 18.3623 15.1034C18.3623 15.0636 18.359 15.025 18.3532 14.9871C18.8632 14.4814 19.27 13.913 19.3496 13.1378C23.4228 13.9934 24.8883 17.4395 24.9622 21.7431C22.4416 21.8969 19.9665 21.7196 17.6255 21.0505C18.1175 20.1501 18.3879 19.2059 18.1235 18.2336C18.3687 17.8525 18.8403 17.6416 19.6357 17.7476ZM17.8793 18.4022C18.1685 19.3176 17.8165 20.2021 17.3598 20.9716C16.9946 20.8535 16.5771 20.736 16.2271 20.5873C16.2221 20.0196 16.1263 19.4491 15.7304 19.0656C15.8793 18.9334 16.0922 18.7582 16.2413 18.626C16.7585 18.6808 17.316 18.6537 17.8793 18.4022ZM15.0422 13.4673C15.1733 13.2834 15.3874 13.1581 15.7002 13.1023C16.3127 13.3796 16.8545 13.8473 17.393 14.3975C17.1955 14.4607 17.0336 14.6039 16.9467 14.7891C16.3811 14.1981 15.7445 13.7639 15.0422 13.4673ZM17.6195 15.6458C17.3189 15.6458 17.0753 15.4026 17.0753 15.1033C17.0753 14.9637 17.1284 14.8363 17.2153 14.7404C17.3115 14.6483 17.4438 14.5806 17.5911 14.5612C17.6005 14.5609 17.6099 14.5604 17.6195 14.5604C17.9198 14.5603 18.1636 14.8034 18.1636 15.1033C18.1636 15.4027 17.9199 15.6458 17.6195 15.6458ZM18.5453 17.6932C18.4841 16.9744 18.3142 16.3093 17.9118 15.7844C18.0872 15.7094 18.2278 15.5692 18.3024 15.3947C18.9124 16.073 19.0753 16.8278 19.0404 17.5738C18.8728 17.6123 18.7047 17.6507 18.5453 17.6932ZM17.8408 14.3954C18.3465 13.9033 18.4904 13.4927 18.5513 12.9413C18.7744 12.9114 18.9912 12.9548 19.2018 13.0714C19.1786 13.7583 18.828 14.3154 18.3116 14.8157C18.2583 14.6542 18.1198 14.5159 17.9508 14.4395C17.9154 14.4225 17.8787 14.4073 17.8408 14.3954ZM14.222 19.0955C14.2074 19.0955 14.1931 19.095 14.179 19.0939L14.1749 19.0934C13.8935 19.0645 13.674 18.8279 13.674 18.5398C13.674 18.2326 13.9237 17.9836 14.2318 17.9836C14.376 17.9836 14.5077 18.0387 14.6069 18.1282C14.7162 18.2326 14.7832 18.3765 14.7832 18.5357C14.7832 18.8446 14.5317 19.0955 14.222 19.0955ZM14.4203 17.8304L16.9053 15.3257C16.9129 15.343 16.9212 15.3612 16.9298 15.3783C16.9977 15.5473 17.1258 15.6855 17.2879 15.7664L14.8652 18.1943C14.8423 18.1541 14.8149 18.1172 14.7835 18.0829C14.7066 17.9882 14.6059 17.913 14.4904 17.867C14.4672 17.8546 14.4438 17.8423 14.4203 17.8304ZM17.4519 15.8253C17.5058 15.8376 17.562 15.8444 17.6195 15.8444C17.6599 15.8444 17.6997 15.841 17.7383 15.835C18.1464 16.3609 18.4054 16.9729 18.3687 17.7543C17.8044 18.3861 16.9262 18.4943 15.8735 18.3131C15.8941 18.3925 15.9479 18.4588 16.0362 18.5113L15.5841 18.9176C15.3824 18.7789 15.1604 18.6579 14.9589 18.5469C14.9674 18.4809 14.9552 18.4149 14.9229 18.3487C15.7577 17.5112 16.6174 16.6628 17.4519 15.8253ZM19.8788 12.2209C19.8809 12.3253 19.8491 12.4211 19.8018 12.5133C20.2665 12.5433 20.7266 12.5326 21.2178 12.7599C21.1537 12.9648 20.9697 13.005 20.8024 13.0675C21.0603 13.1094 21.2888 13.0086 21.553 13.091C21.832 13.1777 22.0897 13.3756 22.3258 13.5321C23.3164 14.1884 24.0811 15.0004 24.6489 15.8784C24.4846 15.8618 24.3948 15.8638 24.2964 15.8989C24.7035 16.0492 24.869 16.2308 24.9667 16.4384C25.1324 16.7907 25.1996 17.3973 25.6273 17.5542C25.4732 17.6726 25.2582 17.7207 25.0385 17.5581C25.0627 17.8069 25.5774 17.8197 25.6924 18.4285C25.757 18.7691 25.8209 19.1508 26.1129 19.2963C26.0114 19.6529 25.6426 19.3224 25.3738 19.4074C26.185 19.8001 26.1505 20.7022 26.1753 21.6568C25.852 21.6823 25.4935 21.7044 25.1698 21.73C25.0238 15.7604 22.4988 13.3876 18.838 12.7667C18.4194 12.6953 17.8535 12.6416 18.0472 12.0363C18.6698 11.956 19.2807 12.0131 19.8788 12.2209ZM29.0147 15.559C29.495 15.7608 30.0432 15.8538 30.6471 15.8564C30.4602 17.3749 30.546 19.0082 31.0293 20.626C30.6597 20.6191 30.3342 20.4564 29.9681 20.6214C29.8377 20.6798 29.7227 20.7857 29.6313 20.9852C29.5607 21.2653 29.1085 21.2656 28.9034 21.2975C28.7661 20.25 28.4261 19.3162 28.1775 18.362C27.9139 17.4761 28.6024 16.3045 29.0147 15.559ZM28.4712 15.0654C28.5714 15.2022 28.6828 15.353 28.8301 15.4592C28.4944 16.0631 28.1874 16.7184 27.9301 17.4639C27.7124 17.1014 27.6185 16.6977 27.5425 16.2879C27.8065 15.8232 28.1286 15.4039 28.4712 15.0654ZM25.4666 13.825C25.6584 13.2428 26.0129 12.7886 26.4896 12.4316C27.2124 12.954 27.9733 13.4581 28.7267 13.9657C28.43 14.2913 28.1679 14.546 28.4001 14.9093C28.0724 15.207 27.7729 15.6174 27.5013 16.0105C26.7265 15.383 25.9716 14.6323 25.4666 13.825ZM24.309 13.229C24.9006 12.7647 25.493 12.3 26.0848 11.8357C26.2966 11.9048 26.4873 12.0153 26.6693 12.1446C25.9759 12.5378 25.4894 13.1228 25.2306 13.92C24.9398 13.6652 24.6296 13.4389 24.309 13.229ZM23.7975 11.8579C24.534 11.8634 25.2231 11.6017 25.8548 10.9927C25.9394 11.2152 26.0078 11.4409 26.0175 11.6779C25.4219 12.135 24.8261 12.5921 24.2303 13.0489C24.1171 12.6442 23.9711 12.2476 23.7975 11.8579ZM24.2303 10.2116C24.3651 10.3596 24.519 10.4979 24.7134 10.6161C24.8862 10.5056 25.0377 10.3746 25.1801 10.2342L25.5286 10.9814C25.1337 11.3748 24.625 11.6295 23.915 11.6329C23.6772 11.3168 23.4992 10.9851 23.3812 10.6384C23.67 10.5188 23.957 10.3913 24.2303 10.2116ZM21.527 8.86911C21.8302 8.92462 22.1618 8.92652 22.4655 8.89171C22.4728 8.86184 22.4801 8.8317 22.4879 8.80183C21.5145 8.74883 21.2117 8.28148 20.9481 7.79041C20.8354 7.63688 20.8656 7.57297 21.0379 7.59929L21.4902 7.63177C21.5494 7.63592 21.6085 7.63999 21.6675 7.64424C21.7843 7.72598 21.8385 7.71723 21.8656 7.66995C21.9007 7.60891 21.8919 7.48386 21.9163 7.4035C22.0074 7.10224 22.2865 6.95443 22.8588 7.0263C22.9863 7.03617 23.0043 6.97634 22.9822 6.89156C22.9087 6.64165 22.9303 6.40655 22.96 6.17214C22.7846 6.1142 22.6661 5.96881 22.605 5.8242C22.5037 5.58338 22.5615 5.34594 22.7804 5.52034C22.8961 5.60624 23.0158 5.68652 23.1391 5.76064C23.1914 5.79216 23.249 5.82489 23.308 5.85633C23.6247 6.02692 23.5194 6.10918 23.5089 6.46915C23.4714 7.75534 23.6378 8.91007 24.0727 9.88044C23.6379 10.5573 22.1251 10.4655 20.6782 10.375C20.9668 9.88434 21.2384 9.35993 21.527 8.86911ZM18.566 7.39415V6.59489H21.4302C21.6085 6.83389 21.725 7.10605 21.7066 7.39415H18.566ZM18.4092 7.99139C17.7921 8.00906 17.3628 7.49538 17.4144 6.89979C17.4618 6.35788 17.835 5.9702 18.4092 5.99773V7.99139ZM22.4189 5.86109C22.4791 5.95643 22.5072 6.07221 22.6464 6.13689C22.8541 6.2331 22.8882 6.80401 22.6602 6.82774C22.4963 6.83034 22.3314 6.83995 22.1738 6.87632C22.0049 6.91494 21.8799 7.00725 21.7685 6.80159C21.6895 6.61385 21.5744 6.45573 21.3687 6.44872C21.1985 6.44274 21.0283 6.43668 20.8581 6.43079C21.0819 5.9792 21.8112 5.59957 22.2469 5.72808C22.3359 5.75467 22.383 5.8042 22.4189 5.86109ZM25.3204 4.31807C24.9513 4.50329 24.7043 4.77303 24.7248 5.22826C24.7324 6.40455 24.7397 7.58068 24.7472 8.75697C24.7704 9.13348 24.8919 9.47016 25.3654 9.66734C25.1671 9.87663 24.9685 10.0864 24.7696 10.2965C23.4589 9.62629 23.287 4.53568 24.7248 3.72265C24.9234 3.92077 25.1218 4.11942 25.3204 4.31807ZM40.8768 6.92758C35.5591 6.93373 30.2413 6.93979 24.9231 6.94629V6.15845C29.5243 6.20617 34.1264 6.25371 38.7277 6.30142C39.4641 6.30869 40.3221 6.38438 40.8768 6.92758ZM24.9287 7.95329L24.923 7.129C30.2347 7.13489 35.5854 7.09653 40.8976 7.10268C40.275 7.69879 39.2959 7.82158 38.4931 7.82911C33.9632 7.87025 29.4579 7.91164 24.9287 7.95329ZM31.1038 14.2069C31.2034 14.1659 31.2008 14.1352 31.0962 14.1149C30.4371 14.2069 29.7654 14.2741 29.2496 13.9157C28.9001 13.6347 28.9151 13.3156 29.196 13.0347C30.8927 13.3228 31.7996 12.522 32.2148 11.0205C32.3396 11.0536 32.4649 11.0915 32.5897 11.1658C31.8562 13.043 32.2022 13.9864 33.2873 14.291C32.9002 14.5732 32.5967 14.8999 32.4752 15.3251C29.8332 15.9906 29.0633 15.5702 28.6505 14.9569C28.4027 14.5892 28.5402 14.3807 28.7595 14.1534C29.0225 13.8818 29.1057 14.0498 29.4041 14.1849C29.8963 14.4066 30.5098 14.2786 31.1038 14.2069ZM29.9715 12.3305C30.1833 12.3555 30.207 12.4186 30.2219 12.53C30.2376 12.6504 30.257 12.6998 30.3411 12.7946C30.411 12.9437 30.1136 12.9514 30.0259 12.9519C29.9228 12.9522 29.6809 12.9382 29.6256 12.8271C29.6049 12.7858 29.636 12.744 29.7188 12.7025C29.76 12.6781 29.7819 12.6529 29.7844 12.6259C29.7889 12.5764 29.7247 12.5339 29.7157 12.4741C29.6958 12.3427 29.8349 12.3138 29.9715 12.3305ZM29.8344 11.8354C30.0048 11.7904 30.2328 11.7632 30.4079 11.787C30.8015 11.8415 30.8221 12.1071 30.7538 12.3938C30.7452 12.4311 30.6904 12.5319 30.7645 12.5484C30.8265 12.5622 30.8413 12.4236 30.8528 12.4021C30.8886 12.3344 30.961 12.3306 31.0589 12.3666C31.1574 12.4034 31.1458 12.4806 31.0863 12.5601C31.0197 12.6492 30.8759 12.76 30.7314 12.8033C30.6327 12.8321 30.5345 12.83 30.4605 12.7676C30.3837 12.7038 30.3415 12.589 30.3266 12.4755C30.3012 12.2743 30.3519 12.2176 30.1087 12.2129C29.9853 12.2111 29.4898 12.2397 29.6439 11.9685C29.6777 11.9093 29.7484 11.8583 29.8344 11.8354ZM30.0568 10.6871C30.259 10.691 30.5075 10.691 30.7097 10.6946C30.5689 10.9039 30.6654 10.9851 30.8166 11.0127C30.8525 11.0192 31.0424 11.0273 31.1995 11.014C31.3218 11.0039 31.4238 10.9805 31.4182 10.9341C31.412 10.8845 31.2965 10.8627 31.251 10.8478C31.2636 10.8247 31.2763 10.8019 31.289 10.7788C31.5353 10.8094 31.9036 10.8062 31.9986 11.0925C32.1307 11.4906 31.5799 12.1683 31.2936 12.3681C31.1852 12.2601 31.0674 12.1934 30.9284 12.2186C30.9151 11.8869 30.7898 11.6517 30.4176 11.6272C30.4668 11.4886 30.4078 11.4133 30.3336 11.3472C30.2343 11.3021 30.2025 11.3674 30.2525 11.4126C30.3745 11.5478 30.3425 11.6395 30.2707 11.6782C30.1725 11.7307 30.1021 11.6527 30.0055 11.6728C29.9603 11.682 29.9137 11.7016 29.8776 11.7099C29.7865 11.7317 29.7433 11.7172 29.6767 11.6699C29.5973 11.5928 29.6469 11.4845 29.7114 11.3973C29.8653 11.1639 29.9772 10.9381 30.0568 10.6871ZM30.9528 8.95588C31.6475 9.79757 32.4239 10.485 33.3618 10.8684C33.5488 10.7351 33.7443 10.7268 33.8909 10.8006C34.1058 10.9081 34.2168 11.1908 34.0461 11.5132C33.8886 11.8097 33.6036 11.8609 33.4057 11.7511C33.252 11.6658 33.1446 11.4789 33.1699 11.2227C32.2933 10.7312 31.097 10.5027 29.6272 10.5243C30.076 10.0351 30.5584 9.49848 30.9528 8.95588ZM34.8904 10.6458C35.0845 11.151 34.9089 11.5261 34.6431 11.8759C34.4583 12.119 34.2306 12.3498 34.0533 12.6035C33.8466 12.8993 33.547 13.4899 34.072 13.6531C34.2316 13.703 34.4349 13.7004 34.627 13.6915C34.657 14.0138 34.2274 14.0559 33.9597 14.0956C32.2312 14.3537 31.9689 12.6476 32.7548 11.2226C32.8421 11.2257 32.9301 11.2695 33.018 11.3542C33.0198 11.6405 33.1413 11.833 33.3114 11.924C33.6232 12.0912 33.9321 11.9351 34.1135 11.6741C34.3197 11.3785 34.3615 10.9478 34.061 10.6998C33.9007 10.5682 33.662 10.5353 33.3827 10.6861C32.4516 10.3464 31.9025 9.77463 31.4593 9.13764C32.026 8.84469 32.6366 8.63877 33.3114 8.56144C33.9169 9.15063 34.532 9.72709 34.8904 10.6458ZM32.6879 15.3065C32.9143 14.2379 35.4328 13.6946 36.0629 14.6238C34.9382 14.8516 33.8127 15.0788 32.6879 15.3065ZM37.0081 26.4805C32.0276 24.617 30.3813 19.768 30.9419 15.897C33.2913 15.4407 35.6418 14.9839 37.9908 14.5276C39.8844 17.05 40.8794 22.2118 37.0081 26.4805ZM33.0131 25.9857C33.053 26.1228 32.819 26.2996 32.725 26.3758C32.1721 26.8216 31.4935 26.9735 30.7544 26.9842C30.3393 27.3971 29.8567 27.7692 29.3439 28.123C29.3338 27.5401 29.3241 26.9577 29.3145 26.3748C29.9521 26.0729 30.6089 25.9029 31.2806 25.8406C31.4863 25.8219 32.9374 25.7237 33.0131 25.9857ZM33.7344 24.7499C33.7467 25.0709 33.7594 25.4407 33.7726 25.7616C32.2493 25.5027 30.762 25.5687 29.4424 26.0475C29.4175 25.0241 29.913 24.1532 30.9306 23.4349C31.4618 23.7998 31.8164 23.1036 32.2083 23.0157C32.6461 23.6531 33.1453 24.2048 33.7344 24.7499ZM29.395 22.3671C29.347 22.2819 29.3291 22.2102 29.509 22.2338C29.6983 22.2717 29.9529 22.1952 30.1287 22.0551C30.6362 21.6527 30.1719 21.2115 29.7291 21.1849C29.8727 20.8699 30.1324 20.7255 30.4726 20.8038C30.6855 20.8321 30.9168 20.8606 31.1298 20.8893C31.376 21.5235 31.6582 22.1673 32.0475 22.7798C31.6824 22.9356 31.4988 23.496 30.9871 23.2344C30.7406 23.0818 30.4927 22.9346 30.2401 22.8124C29.9641 22.6796 29.5714 22.6313 29.395 22.3671ZM30.2483 23.0805C29.3317 23.6694 28.7966 24.738 28.5785 26.2447L28.1671 26.2392C28.2737 24.8941 28.704 23.7456 29.8081 22.8993C29.9574 22.9291 30.1137 22.9745 30.2483 23.0805ZM27.5147 24.5671C27.5132 24.3721 27.4803 24.1449 27.4313 23.956C27.7843 23.8492 28.1369 23.8113 28.4149 24.0358C28.0747 24.1828 27.7696 24.3878 27.5147 24.5671ZM28.9218 22.4378C29.0041 22.4295 29.0864 22.4207 29.1688 22.4123C29.2822 22.5749 29.4542 22.7039 29.6428 22.8233C29.2495 23.1788 28.9304 23.5634 28.6435 23.9616C28.3222 23.624 27.8968 23.6726 27.4671 23.7339C28.061 23.3713 28.5958 22.9711 28.9218 22.4378ZM26.3219 22.9595C26.3385 22.8722 26.3553 22.7515 26.3721 22.6644L28.7413 22.3949C28.4137 22.8621 27.8886 23.2507 27.3079 23.6169C27.0268 23.244 26.704 23.0286 26.3219 22.9595ZM26.1444 22.6717C26.1342 22.7705 26.1181 22.8343 26.1075 22.9328C25.7567 22.9162 25.4301 22.9842 25.1107 23.0816C25.1055 22.9818 25.1002 22.8764 25.0949 22.777C25.4447 22.7375 25.7867 22.7089 26.1444 22.6717ZM23.4675 26.787C23.2666 25.2332 24.2752 22.7811 26.2239 23.1461C26.8752 23.2682 27.3691 23.7987 27.3122 24.7221C26.1433 25.725 25.1441 27.0257 24.3148 28.5874C23.8671 28.1646 23.5618 27.5166 23.4675 26.787ZM26.4712 28.5033C26.479 29.1307 26.479 29.789 26.4869 30.4163C26.109 30.4088 25.7073 30.2947 25.3945 29.913C25.7073 29.406 26.0544 28.8645 26.4712 28.5033ZM25.681 31.237C24.8101 30.5175 23.9283 29.8967 23.0159 29.5491C23.2978 29.2507 23.6659 28.9796 24.3408 28.8055C24.8294 29.6809 25.3531 30.5147 26.4869 30.6409C26.3088 30.995 26.004 31.1319 25.681 31.237ZM25.4255 32.4998C25.6035 32.165 25.7315 31.8252 25.6811 31.4698C25.9719 31.3612 26.238 31.2039 26.4869 31.0128C26.4948 31.6558 26.5025 32.2985 26.51 32.9412C26.1512 33.0705 25.9063 33.3853 25.7743 33.8864C25.3795 33.9698 24.9844 33.9732 24.5887 33.9322C24.8151 33.4377 25.0554 32.9457 25.1542 32.43C25.2448 32.453 25.3351 32.4765 25.4255 32.4998ZM22.9038 29.7425C23.8384 30.0509 24.6969 30.579 25.4618 31.3708C25.5407 31.7292 25.4759 31.9973 25.3462 32.2253C24.5488 31.187 23.8073 31.0165 23.0888 31.1281C22.7981 30.5382 22.8611 30.1461 22.9038 29.7425ZM19.7577 35.8452C20.8408 34.3495 21.9241 32.854 23.0072 31.3585C23.4013 31.2588 23.7797 31.2527 24.1246 31.4511C23.9856 32.2995 23.4958 32.9722 22.932 33.6085C22.4775 34.1214 22.0032 34.5554 21.4931 35.0102C20.9426 35.4995 20.4259 36.0048 20.0649 36.5808C19.9562 36.4935 19.8584 36.4068 19.7497 36.3196C19.7942 36.1685 19.7846 36.0114 19.7577 35.8452ZM19.9544 36.7252C19.9083 36.8063 19.8625 36.8872 19.8165 36.9687C19.6671 36.902 19.5175 36.8354 19.3678 36.7683C19.4748 36.6985 19.5701 36.6222 19.6411 36.5307C19.7455 36.5953 19.8501 36.6606 19.9544 36.7252ZM22.8673 31.172C21.7905 32.6676 20.7244 34.1501 19.6476 35.6454C19.5505 35.5146 19.4242 35.4184 19.2811 35.3514C20.4298 33.7878 21.5701 32.2428 22.7185 30.6791C22.7539 30.8556 22.8067 31.0202 22.8673 31.172ZM20.3113 33.6511L19.436 34.8228L19.0799 34.688L19.7952 33.6057L20.3113 33.6511ZM20.4034 33.4776L19.8974 33.4442L23.3899 27.5405C23.5576 27.9429 23.7929 28.3436 24.1042 28.6735C23.5875 28.8447 23.1315 29.1334 22.7301 29.5332C22.6467 29.8143 22.6312 30.1203 22.6627 30.4438L20.4034 33.4776ZM23.2073 26.4755C19.9563 26.3113 16.9024 26.6487 14.0543 27.5765C13.8271 27.3259 13.6345 27.1405 13.3943 26.8574C13.4898 26.7281 13.5731 26.5786 13.645 26.4494C16.7804 25.383 20.0119 25.146 23.3196 25.2863C23.2189 25.6811 23.1928 26.0806 23.2071 26.4755H23.2073ZM15.3308 29.0506C14.9897 28.9222 14.8771 28.6024 14.6759 28.3304C15.0447 28.1888 15.4304 28.0732 15.8307 27.9789C15.6446 28.2911 15.469 28.627 15.3308 29.0506ZM14.2036 27.7525C16.1537 26.833 20.9872 26.3882 23.2117 26.6894C23.252 26.873 23.2926 27.0573 23.3329 27.2413C20.1906 26.9982 17.2326 27.2735 14.4854 28.1433C14.3919 28.013 14.2976 27.8828 14.2036 27.7525ZM34.9241 26.8177C34.9812 27.643 33.9677 28.47 33.3942 28.919C32.1653 29.8805 30.5768 30.5405 29.3704 30.7043C29.3674 29.9406 29.364 29.177 29.3606 28.4129C29.8536 28.0135 30.3461 27.6139 30.8378 27.2142C31.8321 27.1872 32.7082 26.9161 33.2928 26.0445C33.5168 26.0486 33.7693 26.0848 34.0211 26.142C34.5368 26.2589 34.8955 26.3988 34.9241 26.8177ZM33.1321 29.4082C33.3075 29.864 33.3733 30.3268 33.307 30.7999C33.1342 30.7054 32.9149 30.6815 32.7076 30.7256C32.7188 30.3975 32.6635 30.0781 32.5821 29.7504C32.7625 29.65 32.9693 29.526 33.1321 29.4082ZM32.394 29.8581C32.5114 30.1546 32.5298 30.43 32.5206 30.7608C32.1256 30.6076 31.7596 30.5131 31.3653 30.3598C31.7388 30.2175 32.0465 30.0199 32.394 29.8581ZM32.1885 31.4452C31.5257 31.2172 30.8304 31.0097 30.1676 30.7812C30.4745 30.708 30.7726 30.6164 31.0547 30.4927C31.4795 30.6372 31.9821 30.7784 32.4069 30.9228C32.2822 31.077 32.2004 31.2412 32.1885 31.4452ZM32.3849 31.4594C32.3849 31.1494 32.6363 30.8984 32.9473 30.8984C33.2583 30.8984 33.5096 31.1494 33.5096 31.4594C33.5097 31.7692 33.2581 32.0205 32.9473 32.0205C32.6367 32.0205 32.3849 31.7692 32.3849 31.4594ZM33.9788 35.5126C33.7844 35.4961 33.6161 35.4765 33.4217 35.4598C32.7264 34.6346 32.4252 33.5439 32.598 32.1332C32.7693 32.2305 33.0116 32.2232 33.2206 32.1689C33.1897 33.6129 33.3885 34.5074 34.0071 35.0712C33.9981 35.2184 33.9877 35.3653 33.9788 35.5126ZM35.6488 31.9691C34.9649 31.6411 34.3223 31.3962 33.6181 31.1308C33.5921 31.0486 33.4903 30.9668 33.43 30.902C33.5049 30.3303 33.4482 29.8123 33.2814 29.2923C33.7814 28.9387 34.2277 28.5205 34.6413 28.0624C35.1505 28.2205 35.2731 28.6599 35.4169 29.1114C35.7226 30.0778 35.7205 31.0023 35.6488 31.9691ZM33.5411 31.9264C33.6621 31.7689 33.7192 31.5904 33.7023 31.3637C34.3065 31.6097 34.9659 31.8901 35.5703 32.1366C35.4302 32.2937 35.3296 32.4374 35.347 32.664C34.7481 32.3968 34.1578 32.1584 33.5411 31.9264ZM37.1931 36.2253C37.191 36.3744 37.168 36.4819 37.1664 36.6313L36.8309 36.748C35.7972 36.1523 35.6935 34.8083 35.763 33.3502C35.9315 33.4119 36.149 33.4343 36.332 33.3975C36.3325 34.605 36.3494 35.6826 37.1931 36.2253ZM35.4983 32.6705C35.4983 32.3459 35.7628 32.0822 36.0876 32.0822C36.4133 32.0822 36.6774 32.3459 36.6774 32.6705C36.6774 32.9949 36.4133 33.2583 36.0876 33.2583C35.7628 33.2583 35.4983 32.9949 35.4983 32.6705ZM36.4357 31.9945C36.2772 31.9031 36.0263 31.8969 35.8191 31.952C35.9108 30.7816 35.7622 29.5507 35.3743 28.3744C35.5451 28.4442 35.7525 28.5274 35.9233 28.63C36.3337 29.7002 36.5292 30.8587 36.4357 31.9945ZM46.9737 34.0732C47.2295 33.5497 47.289 32.9479 47.3299 32.3729C47.3679 31.8523 47.3785 31.3249 47.6522 30.8643C47.3984 30.6781 47.1537 30.6622 46.9155 30.7635C46.5205 28.938 44.8525 27.8957 44.5757 26.5641C44.3788 26.6713 44.2271 26.8503 44.1062 27.0785C42.7464 25.7051 42.7386 23.5657 43.48 22.4291C41.7115 22.9713 41.131 24.194 41.0821 26.7217C40.8488 26.2816 40.8359 25.4257 40.8689 24.3974C40.1238 24.9445 39.8702 26.0866 39.8696 26.9253C39.8691 27.5344 40.0449 28.0378 40.3198 28.4897C40.7427 29.1844 41.3163 29.7517 41.8789 30.3303C42.0296 30.4864 43.1671 31.5749 43.1671 31.8611C43.1674 32.0872 42.9773 32.1574 42.8037 32.2111C42.1039 32.4278 41.431 32.2394 40.7769 31.8237C40.4023 31.5855 40.0458 31.2947 39.6868 31.0304C39.1607 30.6426 38.662 30.2264 38.1582 29.8151C37.7998 29.5234 37.4794 29.1737 37.1064 28.9044C36.497 28.464 35.5549 28.1371 34.7951 27.8574C35.1743 27.1648 35.2424 26.7392 35.1074 26.4513C34.9544 26.1244 34.54 25.9737 34.0203 25.8105C34.0078 25.5562 33.9838 25.2293 33.9712 24.9748C34.8449 25.6838 35.951 26.3184 37.1062 26.8396C39.0913 24.5149 40.0549 22.0839 39.9638 19.5663C39.9003 17.8157 39.3257 16.0229 38.2297 14.1957C37.5912 14.2808 36.9569 14.384 36.3182 14.5033C35.9605 14.0423 35.387 13.9791 34.8443 13.9573C34.8737 13.7979 34.8547 13.6177 34.8172 13.4585C34.6261 13.5024 34.1386 13.5539 34.0197 13.3266C33.8732 13.046 34.4979 12.4025 34.653 12.1932C34.8493 11.9291 35.0482 11.7091 35.1231 11.3807C35.1844 11.1109 35.1663 10.8297 35.0778 10.5388C34.9466 10.1077 34.6936 9.76545 34.4207 9.41474C34.1062 9.01069 33.764 8.62483 33.4043 8.25048C32.6957 8.39977 32.0392 8.65652 31.3758 8.95163C31.2252 8.84469 31.0779 8.70207 30.9726 8.57253C30.423 9.30503 29.8367 10.0306 29.1857 10.7408C29.3431 10.7964 29.5989 10.7719 29.8003 10.7825C29.7514 11.0063 29.6194 11.2305 29.4806 11.43C29.4012 11.522 29.3932 11.6385 29.462 11.6958C29.5259 11.7413 29.5347 11.8013 29.5084 11.8706C29.4837 11.9197 29.4702 11.9257 29.4456 11.9748C29.4147 12.059 29.4276 12.1516 29.5169 12.2111C29.5701 12.3041 29.4975 12.3755 29.4851 12.488C29.4739 12.5898 29.5073 12.5734 29.4413 12.6508C29.412 12.6858 29.3925 12.7297 29.3951 12.773C29.3951 12.8712 29.3511 12.8671 29.2592 12.8728C29.1589 12.8767 29.0806 12.8993 29.0226 12.9329C28.7783 13.0746 28.8171 13.5431 28.8542 13.7732C28.1279 13.2668 27.2864 12.8643 26.7264 12.358C26.8217 12.2875 26.9169 12.2173 27.0123 12.1468C26.7785 11.9568 26.5279 11.7885 26.2476 11.66C26.1721 11.2715 26.0563 10.9637 25.9343 10.6674C25.8426 10.7195 25.7388 10.7944 25.6467 10.8463C25.5332 10.6014 25.4312 10.3332 25.3175 10.0884C25.4742 9.91283 25.6308 9.72812 25.7871 9.53736C25.0286 9.45501 24.8261 8.9712 25.0042 8.21403C29.376 8.21403 33.7197 8.07591 38.0918 8.07591C38.6575 8.06915 39.177 8.03027 39.6666 7.92376C40.3378 7.77811 40.9531 7.50646 41.5563 7.01963C41.2363 6.77899 40.9022 6.567 40.5458 6.40377C40.2684 6.27648 39.977 6.17854 39.6682 6.11914C38.595 5.95608 37.4752 5.99133 36.3896 5.97946C33.7429 5.95063 31.0962 5.91746 28.4495 5.88915C27.3045 5.87096 26.1417 5.85849 24.9965 5.83979C24.9981 5.66409 24.9999 5.48847 25.0015 5.31243C25.0043 5.00112 24.953 4.85383 25.2245 4.65752C25.3683 4.5536 25.5463 4.47991 25.7506 4.43757C25.4316 4.07586 25.1121 3.71451 24.7925 3.35315C24.3167 3.70342 23.7063 4.36405 23.5723 5.64227C23.2022 5.6072 23.0569 5.36776 22.9072 5.21406C22.7678 5.071 22.5808 4.97982 22.428 5.16912C22.3603 5.25242 22.3093 5.36465 22.2635 5.44154C21.5864 5.57455 20.8556 5.78151 20.6924 6.3526H18.5997V5.66902C17.8713 5.65344 17.4496 5.91131 17.2579 6.42309C17.1093 6.8209 17.1153 7.24651 17.2889 7.63714C17.4687 8.04196 17.8443 8.31517 18.5997 8.33379V7.68147H20.5525C20.7237 8.00681 20.9075 8.32729 21.2339 8.5908C21.2688 8.61678 21.281 8.66587 21.2709 8.73775C20.978 9.34486 20.6769 9.94729 20.2761 10.4927C20.2071 10.5526 20.2225 10.5895 20.3218 10.6032C21.1787 10.665 22.0596 10.698 22.9929 10.6677C23.0697 10.6551 23.1311 10.6886 23.1772 10.7684C23.3011 11.0731 23.5018 11.4049 23.6874 11.6786C23.6416 11.7297 23.5523 11.7858 23.5182 11.8103C23.7723 12.2546 23.9399 12.8448 24.0247 13.3507C24.45 13.5551 24.8423 13.8383 25.222 14.15L25.3636 14.0727C25.9043 14.7605 26.4326 15.4381 27.2033 16.1196C27.3132 16.217 27.3517 16.3353 27.3822 16.4763C27.4377 16.7371 27.5022 16.9956 27.5748 17.2533C27.8644 18.2836 28.6627 20.3964 28.6746 21.3361C27.9159 21.4534 27.1788 21.5753 26.4354 21.6262C26.3995 20.9425 26.3281 20.1988 26.0143 19.7002C26.1677 19.5764 26.2729 19.4213 26.3653 19.2819C25.792 18.82 26.1016 18.3048 25.664 17.8534C25.7489 17.7488 25.8126 17.6335 25.867 17.5133C25.2478 17.197 25.4118 16.2702 24.8904 15.9422C24.2553 14.5286 22.7589 13.5062 21.4549 12.7904C21.4802 12.732 21.4789 12.6741 21.4734 12.6159C21.0465 12.4332 20.5866 12.3668 20.1287 12.2938C20.1376 12.2082 20.1033 12.1165 20.078 12.031C19.3209 11.7685 18.6946 11.7619 17.9793 11.7991C17.7718 11.5277 17.511 11.3102 17.2281 11.1833C16.664 10.9301 15.9451 11.0206 15.5326 10.4829C15.3483 10.5761 15.2189 10.6684 15.1531 10.7544C15.0161 10.933 15.3426 11.2409 15.4405 11.3915C15.1903 11.3201 14.911 11.203 14.7244 11.0914C14.5805 11.316 14.5926 11.485 14.6809 11.6304C14.7872 11.806 15.044 11.9419 15.2311 12.1047C14.8412 12.2978 14.412 12.5355 14.0218 12.7287C14.2017 12.9674 14.4206 13.1672 14.7171 13.3239C13.8389 14.3348 12.9474 15.3264 12.0692 16.3371C11.799 16.4716 11.6009 16.7845 11.5272 17.0701C11.1743 17.3783 10.9616 17.6863 10.7339 18.0649C10.6362 18.2725 10.6344 18.5056 10.7935 18.7802C10.9127 18.9854 10.9075 19.0237 10.8675 19.2664C10.8115 19.6038 10.8854 19.9338 11.089 20.256C11.2912 20.5756 11.5265 20.6186 11.868 20.5211C12.0596 20.4661 12.2011 20.3534 12.2459 20.1163C12.3074 19.791 12.4896 19.4889 12.974 19.2406C13.0162 19.2914 13.2512 19.5536 13.2512 19.6178C13.2512 19.7047 12.9305 19.9258 12.8616 19.9855C12.9152 20.0764 12.9691 20.1672 13.0227 20.2587C13.0638 20.3285 13.08 20.3687 13.0136 20.4274C12.816 20.6034 12.7653 20.658 12.8712 20.8706C12.9829 21.0947 13.1533 21.1902 13.4282 21.0987C13.7561 20.9888 14.1006 20.9899 14.4303 20.8033C14.9061 20.5339 15.062 20.1507 15.1924 19.6289C15.4639 19.9309 15.4733 20.2323 15.0932 20.8356C14.9545 21.0911 14.8051 21.3465 14.6762 21.6026C14.1582 21.7363 13.867 22.2871 14.1087 22.7737C14.2309 23.0195 14.4841 23.1902 14.8118 23.1749C15.0648 23.1627 15.26 23.0564 15.3909 22.9024C15.5591 22.7049 15.6208 22.4202 15.5601 22.1167C15.9133 22.2087 16.2662 22.3006 16.6195 22.3925C16.5396 22.5488 16.4597 22.7051 16.38 22.8615C15.7676 22.9633 15.2582 23.4331 14.9656 23.9587C14.7108 24.4162 14.4123 24.8618 14.077 25.2962C13.528 24.6909 12.9789 24.5408 12.4296 24.3739C12.0691 24.2645 11.8432 24.2275 11.4926 24.4027C9.76302 25.2669 8.03311 26.3363 6.3032 27.5658C6.14574 27.7083 6.01433 27.8867 5.90105 28.0982C5.76157 28.359 5.64829 28.646 5.52573 28.9163C5.12125 29.8091 4.77509 30.8845 4.35107 31.838C4.45523 32.1354 4.55957 32.3868 4.6639 32.6838C4.97386 32.5804 5.28417 32.4762 5.59413 32.3718C5.51245 32.6655 5.36871 32.9903 5.3359 33.29C5.25283 34.0619 5.51966 35.7136 5.66626 37.3073C5.85991 37.4912 6.03611 37.6918 6.22976 37.8756C7.08951 36.9173 7.94891 35.9584 8.80866 34.9995C8.56346 34.7271 8.29542 34.4926 8.0174 34.2748C7.8576 34.15 7.70275 34.1422 7.5538 34.0378C7.4052 33.934 7.44365 33.7031 7.4874 33.5532C7.62611 33.0783 8.14951 33.1169 8.31981 33.7687C8.6743 33.5071 8.92602 33.0957 8.92159 32.6059C8.92003 32.451 8.86639 32.296 8.87888 32.1434C8.88565 32.0571 8.91846 31.9754 9.00171 31.9029C9.33571 31.3428 9.95754 30.2774 10.6139 29.7495C10.8417 29.5659 11.0739 29.4473 11.2998 29.4365C11.8029 29.4104 12.1585 29.7713 12.392 30.1843C12.6013 30.5541 12.712 30.9999 12.7785 31.4806C13.5201 32.5239 14.2528 33.5704 15.1515 34.5613C15.3905 34.8252 15.4886 34.9376 15.8777 34.9309C16.1401 34.9264 16.4024 34.9216 16.6651 34.9172C16.72 34.9052 16.765 34.8881 16.8025 34.866C16.9425 34.7834 17.0656 34.5878 17.1715 34.4669C17.2137 34.4011 17.296 34.3891 17.3834 34.3844C18.1143 34.6631 18.7029 34.8082 18.9525 34.9419C19.1519 35.0489 19.062 35.166 18.9559 35.3161C18.5803 35.3452 18.3676 35.547 18.276 35.8712C16.6791 35.9481 15.437 36.7856 14.4263 38.0723C14.2811 38.2528 14.171 38.3599 14.3779 38.5247C14.6038 38.7049 14.8354 38.8518 15.1179 38.9142C15.3641 38.5867 15.9175 37.9951 16.4127 38.1501C16.4221 38.2543 16.4255 38.4152 16.4349 38.5196C17.4049 38.6144 18.3753 38.709 19.3454 38.8042L19.4282 38.4275L20.3306 38.6963C20.398 38.5611 20.4861 38.3594 20.5534 38.2247L22.4819 38.8832L21.0785 39.9075L23.2966 39.824L24.8626 41.9008L24.5745 39.2888L26.3456 38.1683L24.1947 38.1544L22.9563 36.4974L22.9753 38.0003L20.9732 37.3013C21.1819 36.8394 21.7074 36.4651 22.2192 36.1664C23.5569 36.4946 25.0181 36.7374 26.5375 36.839C26.5829 38.1831 26.5843 39.5531 26.6297 40.8972C26.678 42.3199 26.8067 43.6627 27.8468 44.7582C28.7048 43.7959 28.8507 42.1574 28.8507 40.9293V36.862C29.1414 36.8373 29.2629 37.0154 29.4053 37.3435C29.5184 37.5981 29.5201 37.8351 29.8758 37.6869C30.2283 37.5391 30.6058 37.4526 31.0161 37.4485C31.2213 37.4464 31.2548 37.5192 31.2921 37.7315C31.3694 38.1776 31.4637 38.5771 31.6746 38.9429C31.7863 39.1359 31.9044 39.2753 32.0815 39.4093C32.5712 39.7811 33.2172 40.033 33.8397 40.407C34.6105 40.8697 35.4309 41.6033 35.4304 42.5785C35.4304 42.6997 35.4178 42.825 35.3908 42.9541C35.3637 43.0881 35.31 43.2339 35.2428 43.3855C35.0379 43.8405 34.6944 44.346 34.4687 44.7284C34.3814 44.8593 34.2936 44.9894 34.2099 45.1171C34.0707 45.3274 33.9705 45.5395 33.8465 45.7558C33.7501 45.9246 33.6368 46.0547 33.4286 46.2066C32.925 46.5735 32.3115 46.9337 31.7396 47.303C31.1466 47.7025 30.6657 48.1924 30.2031 48.739C29.9339 49.057 29.7036 49.4109 29.4688 49.7815C29.475 50.0295 29.4814 50.2775 29.4873 50.5259H31.09C31.0931 50.6974 31.0959 50.8691 31.099 51.04H34.9121C34.8975 50.7565 34.8975 50.4781 34.9261 50.2109C34.9713 49.7861 35.1002 49.1182 35.684 49.1985C35.9879 49.2403 36.2817 49.52 36.4136 49.846C36.7554 49.4238 37.016 48.9485 37.1151 48.4383C37.1926 48.04 37.2693 47.805 37.5169 47.4407C38.344 46.2238 39.0842 44.9473 39.9226 43.708C40.1618 43.3736 40.3847 43.0386 40.619 42.7036C40.7106 42.5723 40.7977 42.4749 40.8176 42.3112C40.859 41.9664 40.5802 41.4153 40.4089 41.1281C40.2731 40.9054 40.038 40.9314 39.8139 40.8755C39.5769 40.8161 39.3709 40.7327 39.1902 40.6295C38.7402 40.3729 38.2353 39.9034 38.2792 39.3432C38.2986 39.0921 38.3878 38.8834 38.5005 38.6621C38.9178 37.8402 39.5686 37.1088 40.0432 36.2938C40.3308 35.7997 40.317 35.4759 40.3404 34.9314C40.3598 34.4913 40.3744 34.0513 40.3461 33.6093C40.348 33.5387 40.3795 33.5086 40.4505 33.5658C40.5015 33.6071 40.5299 33.6862 40.5537 33.7733C40.6813 34.2351 41.0066 34.6347 41.3155 34.9948C41.7301 35.4775 42.2281 35.8426 42.7927 36.1406C44.2748 36.923 46.0549 37.0494 46.9779 35.3093C46.35 35.555 45.6793 35.6199 45.1569 35.5631C45.945 35.3753 46.6097 34.8103 46.9717 34.0702L46.9737 34.0732ZM34.0262 22.4285C33.8482 22.4653 33.6726 22.5759 33.5584 22.6954C33.4524 22.241 33.3656 21.7256 33.2597 21.2709C33.4203 21.3299 33.5993 21.3597 33.7831 21.3246C34.271 21.2315 34.7558 21.1243 35.2423 21.024C35.1161 20.4512 34.9902 19.8783 34.8642 19.3054C34.3619 19.4178 33.8555 19.5131 33.3577 19.6429C33.2052 19.6826 33.0551 19.7945 32.9712 19.9143C32.8681 19.4643 32.7643 18.9441 32.6613 18.494C32.7852 18.5425 32.9309 18.5942 33.091 18.5625C33.6059 18.4605 34.1176 18.3465 34.6308 18.2385C34.5523 17.8546 34.4738 17.4709 34.395 17.0869C34.3346 16.9309 34.2399 16.7782 34.1066 16.6467C34.5862 16.5455 35.1261 16.4348 35.6058 16.3336C35.5513 16.5039 35.5378 16.6873 35.5702 16.8573C35.6551 17.2333 35.7395 17.6092 35.8235 17.9853C36.2135 17.9063 36.604 17.8274 36.9932 17.7485C37.2083 17.7052 37.4204 17.5849 37.5559 17.4091C37.6751 17.8854 37.7668 18.3935 37.886 18.8698C37.7486 18.8028 37.6002 18.8012 37.4502 18.809C36.9874 18.9046 36.5246 19.0004 36.0618 19.0958C36.1794 19.644 36.2962 20.1922 36.4135 20.7406L37.653 20.4839C37.85 20.4265 38.0518 20.3402 38.174 20.2211C38.2779 20.696 38.3675 21.1805 38.471 21.6554C38.3051 21.6089 38.1189 21.5999 37.9407 21.6282C37.5138 21.7173 37.0874 21.8065 36.6609 21.8952C36.7449 22.2904 36.8217 22.6872 36.9138 23.0804C36.9596 23.2765 37.0531 23.4719 37.2322 23.6291C36.7189 23.7494 36.1779 23.8651 35.6643 23.9853C35.7725 23.7836 35.7903 23.5809 35.7524 23.381C35.6729 22.9691 35.5742 22.5614 35.4849 22.1519C34.9986 22.244 34.5107 22.3282 34.0262 22.4285ZM37.062 23.057L36.8304 21.9904L37.8507 21.7884C38.1253 21.7237 38.4093 21.7785 38.6675 21.9175C38.5315 21.2525 38.3767 20.5779 38.2409 19.913C38.0992 20.0924 37.915 20.282 37.6477 20.3513C37.2929 20.4438 36.8941 20.5031 36.5349 20.5746L36.2438 19.207L37.4003 18.9759C37.6406 18.9367 37.8833 19.04 38.0913 19.1842C37.9429 18.4896 37.7848 17.776 37.6361 17.0819C37.5023 17.3362 37.3128 17.5179 37.0005 17.585C36.6549 17.6595 36.287 17.7357 35.939 17.7982C35.871 17.4775 35.7998 17.1439 35.7311 16.8234C35.6787 16.5795 35.7151 16.3569 35.8442 16.1583L33.8646 16.587C34.0676 16.7475 34.2513 16.9297 34.2946 17.172C34.3519 17.4838 34.413 17.7989 34.4591 18.1123L33.2262 18.3571C32.9244 18.4264 32.6442 18.3265 32.4351 18.1971C32.5762 18.8715 32.7551 19.6124 32.8962 20.2866C33.0174 20.0217 33.2125 19.8018 33.5108 19.7588C33.9174 19.6998 34.352 19.5872 34.7555 19.5102L35.066 20.8943L33.8801 21.1444C33.5365 21.2174 33.2361 21.1088 33.0381 21.0096C33.1703 21.6359 33.3399 22.3955 33.4717 23.0223C33.6409 22.8346 33.845 22.6062 34.1281 22.5487L35.365 22.2858L35.5857 23.3819C35.6468 23.6841 35.5763 23.9412 35.4042 24.1897C36.1246 24.0285 36.8447 23.8672 37.5652 23.706C37.2544 23.5294 37.1057 23.3079 37.062 23.057ZM37.8744 14.8352C40.1621 18.1753 39.7826 23.176 36.8998 26.134C32.5021 24.3681 30.7069 20.0131 31.1779 16.1618C33.272 15.7491 35.7801 15.2477 37.8744 14.8352ZM37.8995 14.7393C35.7468 15.1714 33.2876 15.6568 31.1352 16.0893C30.6655 18.5151 31.5028 24.1342 36.9371 26.2425C40.3707 22.657 39.8239 17.461 37.8995 14.7393Z" fill="black"/>
<path fill-rule="evenodd" clip-rule="evenodd" d="M1.85938 33.5161V1H49.9997V33.5161C49.9997 45.9901 39.2021 56.1385 25.9301 56.1385C12.6574 56.1385 1.85938 45.9901 1.85938 33.5161Z" stroke="#041D72" stroke-width="2"/>
</svg>
