<svg width="259" height="55" viewBox="0 0 259 55" fill="none" xmlns="http://www.w3.org/2000/svg">
<path fill-rule="evenodd" clip-rule="evenodd" d="M119.258 12.1628C119.196 12.055 119.08 11.9935 118.938 11.9935H111.212C111.008 11.9935 110.778 12.1288 110.679 12.3091L96.0862 38.7647C95.6065 39.635 95.2025 40.0597 95.0874 40.073C94.9803 40.0398 94.7519 39.5886 94.6015 38.8288L89.2525 12.3953C89.2066 12.1703 88.991 11.9935 88.7613 11.9935H81.0354C80.9075 11.9935 80.7911 12.0479 80.7162 12.1429C80.6412 12.2379 80.6152 12.3644 80.6447 12.489L88.4235 45.4306C89.2133 48.7212 92.0249 48.7853 93.4554 48.7853C93.485 48.7853 93.5141 48.7853 93.5427 48.7853H93.6291C95.6413 48.7853 97.5154 47.9623 98.9878 46.5223C99.0985 46.4145 99.894 45.4271 99.973 45.2932L119.242 12.5243C119.313 12.4024 119.319 12.2707 119.258 12.1628Z" fill="#041D72"/>
<path fill-rule="evenodd" clip-rule="evenodd" d="M143.505 24.5882C143.347 25.481 142.985 26.5055 141.59 26.5055L125.406 26.5386C125.413 26.4984 126.138 22.4795 128.008 20.7182C130.404 18.4646 133.399 18.404 135.447 18.404C135.506 18.404 135.563 18.404 135.621 18.4044H135.789C138.144 18.4044 140.541 18.5949 142.12 19.9775C143.037 20.7876 143.882 22.4243 143.505 24.5882ZM148.761 14.2043C145.731 12.0426 141.387 11.8618 137.197 11.8618C133.861 11.8618 127.652 11.8618 123.072 15.2942C118.447 18.7607 117.255 23.7785 116.077 30.4886C115.232 35.2845 114.559 40.2564 116.367 43.7202C118.544 47.8134 122.631 48.3778 126.722 48.3778H146.389C146.621 48.3778 146.835 48.1983 146.875 47.9685L147.868 42.3178C147.889 42.1936 147.856 42.0698 147.779 41.9775C147.702 41.8851 147.586 41.8325 147.46 41.8325H130.167C127.094 41.8325 124.208 41.3397 123.898 37.768C123.818 36.7157 124.26 33.1255 124.265 33.0892C124.267 33.0742 124.289 33.0548 124.304 33.0548H144.915C146.699 33.0548 148.006 32.6199 149.152 31.6444C150.956 30.1068 151.541 27.9733 151.875 26.0887C152.581 22.0848 152.863 17.1161 148.761 14.2043Z" fill="#041D72"/>
<path fill-rule="evenodd" clip-rule="evenodd" d="M168.852 0.609279C168.774 0.516905 168.658 0.463867 168.532 0.463867H161.077C160.845 0.463867 160.631 0.643753 160.591 0.873141L152.319 47.8927C152.297 48.0165 152.329 48.1407 152.406 48.2331C152.484 48.325 152.6 48.378 152.726 48.378H160.184C160.417 48.378 160.631 48.1977 160.67 47.9688L168.939 0.950045C168.961 0.825849 168.929 0.701652 168.852 0.609279Z" fill="#041D72"/>
<path fill-rule="evenodd" clip-rule="evenodd" d="M204.71 12.1389C204.633 12.0466 204.516 11.9935 204.391 11.9935H196.932C196.7 11.9935 196.486 12.1734 196.446 12.4028L191.749 39.1028C191.634 39.7636 191.503 40.5127 190.768 41.1395C190.347 41.4957 189.112 41.7383 188.671 41.802C188.557 41.8183 188.362 41.8325 188.246 41.8325H181.911C179.05 41.8325 177.077 41.4661 176.078 39.6385C175.348 38.3634 175.833 33.7429 175.838 33.6961C175.852 33.5745 175.88 33.3761 175.9 33.2563L179.557 12.4793C179.579 12.3555 179.547 12.2313 179.47 12.1389C179.393 12.0466 179.276 11.9935 179.15 11.9935H171.692C171.459 11.9935 171.246 12.1734 171.205 12.4028L167.261 34.8306C166.573 38.7355 166.32 42.7434 169.115 45.6035C171.213 47.7351 177.614 48.3322 177.885 48.3566C178.016 48.3685 178.231 48.3778 178.363 48.3778H190.785C192.836 48.3778 194.988 48.2704 196.769 46.9869C199.013 45.3811 199.456 42.8389 199.645 41.7538L204.797 12.4793C204.819 12.3555 204.788 12.2313 204.71 12.1389Z" fill="#041D72"/>
<path fill-rule="evenodd" clip-rule="evenodd" d="M256.846 14.9138C254.662 12.5024 248.553 12.0299 248.294 12.0109C248.164 12.0012 247.95 11.9937 247.82 11.9937H215.775C213.143 11.9937 211.138 12.7486 209.813 14.2402C208.66 15.5816 208.203 17.4349 208.035 18.4192L202.843 47.8926C202.822 48.0164 202.854 48.1406 202.931 48.2329C203.009 48.3249 203.125 48.3779 203.251 48.3779H210.712C210.945 48.3779 211.158 48.198 211.198 47.9691L215.98 20.7988C216.215 19.453 216.473 19.1131 216.575 19.0278C216.694 18.9279 217.463 18.7184 218.107 18.5853C218.215 18.5632 218.407 18.5434 218.517 18.5434L229.601 18.5106L224.429 47.8922C224.407 48.0159 224.439 48.1397 224.517 48.2325C224.594 48.3249 224.71 48.3779 224.836 48.3779H232.293C232.527 48.3779 232.74 48.198 232.78 47.9691L237.949 18.5876C237.953 18.5685 237.983 18.5434 238.002 18.5434H245.15C246.648 18.5434 248.494 18.725 249.477 20.1451C250.448 21.483 250.061 24.8115 250.058 24.8451C250.043 24.9671 250.013 25.1664 249.992 25.2875L246.013 47.8926C245.992 48.0164 246.023 48.1406 246.101 48.2329C246.179 48.3249 246.295 48.3779 246.42 48.3779H253.881C254.114 48.3779 254.328 48.198 254.368 47.9691L258.6 23.9169C259.234 20.3095 258.58 16.9456 256.846 14.9138Z" fill="#041D72"/>
<path fill-rule="evenodd" clip-rule="evenodd" d="M76.8846 11.9934H69.426C69.1936 11.9934 68.9802 12.1733 68.9396 12.4027L62.6968 47.8919C62.6747 48.0157 62.7065 48.1399 62.7837 48.2322C62.8613 48.3246 62.9777 48.3777 63.1034 48.3777H70.5589C70.7913 48.3777 71.0051 48.1982 71.0453 47.9688L77.2912 12.4791C77.3133 12.3554 77.2815 12.2316 77.2043 12.1393C77.1267 12.0464 77.0103 11.9934 76.8846 11.9934Z" fill="#041D72"/>
<path fill-rule="evenodd" clip-rule="evenodd" d="M75.2447 0.442017C72.7069 0.442017 70.2789 2.5096 69.8331 5.05098C69.6108 6.30974 69.8979 7.49248 70.6418 8.3813C71.3716 9.25377 72.4538 9.73376 73.6885 9.73376C76.2258 9.73376 78.6534 7.66751 79.1005 5.12789L79.101 5.12745C79.3223 3.86648 79.0339 2.68197 78.2891 1.79271C77.5598 0.921565 76.4785 0.442017 75.2447 0.442017Z" fill="#041D72"/>
<path fill-rule="evenodd" clip-rule="evenodd" d="M27.3708 36.3882L27.385 36.3471C28.8358 31.2237 30.1265 26.6655 31.2814 22.5852C32.3216 18.9114 33.2653 15.5873 34.1217 12.5615C34.8859 9.79339 32.6118 8.33529 29.3755 9.02611C27.5534 9.41593 25.8226 9.7872 24.1778 10.1408C21.6197 10.684 18.7988 12.8276 17.6249 15.0985C14.991 20.1516 11.9214 26.0406 8.30144 32.9841C8.19958 33.1812 8.10741 33.3752 8.0201 33.5697C6.26856 31.1123 5.78172 27.8916 6.58782 24.2965C8.13122 17.4096 14.5663 9.96885 21.995 5.66573C22.2745 5.50441 22.5541 5.34795 22.8337 5.19591C22.3076 7.09996 23.9326 8.14613 27.1556 7.35984C30.7187 6.48472 34.5702 3.80853 36.0201 1.28748C39.8504 1.1624 43.4875 2.08879 45.9733 4.46311C49.5539 7.88934 49.9605 13.4371 46.8852 19.6597C43.4152 26.6655 36.2212 33.1905 27.3708 36.3882ZM20.4996 6.07103C16.0409 8.66722 12.0726 12.017 8.92806 15.6244C5.55462 19.4922 2.68963 24.1666 1.16783 29.1163C-0.706741 35.2293 -0.367633 41.1704 2.4978 45.7551C4.25023 48.5546 6.93443 50.8281 10.5526 52.1753C14.6695 53.7068 19.8496 53.9976 25.7948 52.5196C39.3018 49.1689 50.3243 38.9809 54.9153 27.5031C56.9155 22.4879 57.4134 17.7101 56.516 13.5842C55.728 9.97327 53.8966 6.98725 51.1939 4.77293C46.8243 1.20439 40.8518 0.251036 35.0998 0.951133C30.3218 1.53455 25.2542 3.30556 20.4996 6.07103Z" fill="#FF5A00"/>
</svg>
