<svg width="366" height="29" viewBox="0 0 366 29" fill="none" xmlns="http://www.w3.org/2000/svg">
<path fill-rule="evenodd" clip-rule="evenodd" d="M345.329 28.266C345.115 28.4409 344.795 28.2821 344.806 28.007L344.925 25.0825C344.935 24.851 345.043 24.6345 345.222 24.4875L358.413 13.6939C358.589 13.5499 358.565 13.2747 358.366 13.1642L346.132 6.35789C345.864 6.20894 345.704 5.92268 345.716 5.61726L345.811 3.28473C345.82 3.04686 346.079 2.90267 346.287 3.01865L363.376 12.5938C363.691 12.7701 363.729 13.2066 363.45 13.4351L345.329 28.266Z" fill="white"/>
<path d="M1.12598 15.7613C16.8184 18.5226 34.2422 10.6143 42.1992 10.6143C50.1562 10.6143 52.3672 15.8184 66.0605 14.5C79.7539 13.1816 81.3779 9.61426 97.4297 9.61426C113.481 9.61426 122.976 16.7613 139.151 16.7613C155.327 16.7613 194.327 10.5 212.38 11C230.432 11.5 228.827 18.375 247.677 13C266.527 7.625 274.841 16.5 295.611 17C310.274 17.353 324.468 13.9481 332.514 14.4873C347.625 15.5 357.615 13.5 360.334 13.5" stroke="white" stroke-width="3"/>
</svg>
