<svg width="361" height="25" viewBox="0 0 361 25" fill="none" xmlns="http://www.w3.org/2000/svg">
<mask id="mask0" mask-type="alpha" maskUnits="userSpaceOnUse" x="339" y="0" width="22" height="25">
<path fill-rule="evenodd" clip-rule="evenodd" d="M339.617 0.00012207H360.571V24.9H339.617V0.00012207Z" fill="white"/>
</mask>
<g mask="url(#mask0)">
<path fill-rule="evenodd" clip-rule="evenodd" d="M340.1 24.8554C339.861 24.9946 339.57 24.7877 339.624 24.5177L340.199 21.6479C340.244 21.4207 340.385 21.2237 340.585 21.1067L355.302 12.5095C355.499 12.3948 355.517 12.1191 355.338 11.9789L344.32 3.34261C344.079 3.15361 343.965 2.84573 344.025 2.546L344.483 0.257009C344.53 0.023585 344.808 -0.0784531 344.995 0.0686937L360.376 12.1993C360.659 12.4226 360.629 12.8597 360.317 13.0418L340.1 24.8554Z" fill="white"/>
</g>
<path d="M0.0800781 11.5617C2.16016 11.5617 24.4189 15.0001 34.293 15.0001C44.167 15.0001 64.9883 9.19048 75.9395 9.19048C86.8906 9.19048 110.004 15.0001 118.099 15.0001C126.193 15.0001 138.195 11.5617 159.237 9.19048C180.279 6.81924 209.418 12.1848 219.898 13.0001C230.379 13.8153 249.013 21.2432 271.168 12.0001C293.323 2.75689 294.427 11.8104 305.807 14.4873C315.797 16.8371 329.641 11.4965 337.551 11.4982C346.467 11.5001 355.764 12.5001 357.168 12.5001" stroke="white" stroke-width="3"/>
</svg>
