<svg width="366" height="31" viewBox="0 0 366 31" fill="none" xmlns="http://www.w3.org/2000/svg">
<path fill-rule="evenodd" clip-rule="evenodd" d="M345.163 30.266C344.949 30.4409 344.629 30.2821 344.64 30.007L344.759 27.0825C344.769 26.851 344.877 26.6345 345.056 26.4875L358.247 15.6939C358.423 15.5499 358.399 15.2747 358.2 15.1642L345.966 8.35789C345.698 8.20894 345.538 7.92268 345.55 7.61726L345.645 5.28473C345.654 5.04686 345.913 4.90267 346.121 5.01865L363.21 14.5938C363.525 14.7701 363.563 15.2066 363.284 15.4351L345.163 30.266Z" fill="white"/>
<path d="M1 16.3536C1 16.3536 3 17.0001 20.3408 17.0001C37.6816 17.0001 84.5 10.6741 94.7119 10.6741C104.924 10.6741 130.205 16.0001 138.77 16.0001C147.334 16.0001 159.303 14.3554 179.484 13.0147C199.666 11.6741 220.353 23.2432 243.168 14.0001C265.983 4.7569 295.127 32.9698 303.648 15.5001C312.17 -1.96967 286.343 -1.02142 286.343 9.12115C286.343 19.2637 324.716 18.7611 327.999 18.7618C337.181 18.7637 358.722 15.5001 360.168 15.5001" stroke="white" stroke-width="3"/>
</svg>
