<?xml version="1.0" encoding="UTF-8"?>
<svg width="1015px" height="25px" viewBox="0 0 1015 25" version="1.1" xmlns="http://www.w3.org/2000/svg" xmlns:xlink="http://www.w3.org/1999/xlink">
    <defs>
        <polygon id="path-1" points="0 6.97088011e-05 20.9537238 6.97088011e-05 20.9537238 24.8999903 0 24.8999903"></polygon>
    </defs>
    <g id="Page-1" stroke="none" stroke-width="1" fill="none" fill-rule="evenodd">
        <g id="Mobile_Arrows" transform="translate(0.000000, -267.000000)">
            <g id="mobile-arrow4" transform="translate(-16.000000, 267.000000)">
                <g id="Group-3" transform="translate(1009.783203, 0.000000)">
                    <mask id="mask-2" fill="white">
                        <use xlink:href="#path-1"></use>
                    </mask>
                    <g id="Clip-2"></g>
                    <path d="M0.482454545,24.8553261 C0.243954545,24.9945924 -0.0475909091,24.787663 0.00654545455,24.5176902 L0.581454545,21.6478533 C0.627,21.4206793 0.767590909,21.2236685 0.968181818,21.1066848 L15.6849545,12.5094022 C15.8813182,12.3947283 15.9001364,12.1190489 15.7212273,11.9788315 L4.70277273,3.34255435 C4.46168182,3.15355978 4.34768182,2.84567935 4.40768182,2.54595109 L4.86613636,0.256956522 C4.91290909,0.0235326087 5.19040909,-0.0785054348 5.37804545,0.0686413043 L20.7589091,12.199212 C21.0421364,12.4225815 21.0114545,12.8596739 20.7,13.0417391 L0.482454545,24.8553261 Z" id="Fill-1" fill="#FFFFFF" mask="url(#mask-2)" transform="translate(10.476852, 12.450030) rotate(2.000000) translate(-10.476852, -12.450030) "></path>
                </g>
                <path d="M0.884765625,20 C25.0429687,20 82.2714844,18.974578 152.546875,11.487289 C222.822266,4 300.972656,15 323.402344,11.487289 C345.832031,7.97457795 360.640625,8 390.820312,14 C421,20 491.115234,12.45003 509.634766,11.487289 C528.154297,10.5245479 587.738281,20 607.371094,20 C627.003906,20 638.441406,6.5 672.145508,6.5 C705.849609,6.5 742.703125,14 776.138672,14 C809.574219,14 802.574219,12.5 831.360352,9.5 C860.146484,6.5 882.363623,15 900.334233,15 C918.304843,15 914.758632,12.375 933.577793,7 C952.396954,1.625 953.841029,14.5 974.577607,15 C989.216842,15.352981 1006.4915,11.4567708 1014.50813,11.487289 C1017.84711,11.5 1024.61894,12.5 1027.33398,12.5" id="Path-3" stroke="#FFFFFF" stroke-width="3"></path>
            </g>
        </g>
    </g>
</svg>