<?xml version="1.0" encoding="UTF-8"?>
<svg width="1015px" height="31px" viewBox="0 0 1015 31" version="1.1" xmlns="http://www.w3.org/2000/svg" xmlns:xlink="http://www.w3.org/1999/xlink">
    <g id="Page-1" stroke="none" stroke-width="1" fill="none" fill-rule="evenodd">
        <g id="Mobile_Arrows" transform="translate(0.000000, -187.000000)">
            <g id="mobile-arrow3" transform="translate(-7.000000, 188.000000)">
                <g id="Group-3" transform="translate(998.617188, 1.000000)" fill="#FFFFFF">
                    <path d="M2.48245455,26.8553261 C2.24395455,26.9945924 1.95240909,26.787663 2.00654545,26.5176902 L2.58145455,23.6478533 C2.627,23.4206793 2.76759091,23.2236685 2.96818182,23.1066848 L17.6849545,14.5094022 C17.8813182,14.3947283 17.9001364,14.1190489 17.7212273,13.9788315 L6.70277273,5.34255435 C6.46168182,5.15355978 6.34768182,4.84567935 6.40768182,4.54595109 L6.86613636,2.25695652 C6.91290909,2.02353261 7.19040909,1.92149457 7.37804545,2.0686413 L22.7589091,14.199212 C23.0421364,14.4225815 23.0114545,14.8596739 22.7,15.0417391 L2.48245455,26.8553261 Z" id="Fill-1" transform="translate(12.476852, 14.450030) rotate(-9.000000) translate(-12.476852, -14.450030) "></path>
                </g>
                <path d="M0.0625,17.7617187 C30.2252604,19.9205729 51.3085938,19.3333333 63.3125,16 C81.3183594,11 123.896484,11.0146484 140.210938,13.5 C156.525391,15.9853516 200.259766,18.5380859 218.492188,17.7617187 C236.724609,16.9853516 242.414063,8.12109375 261.826172,5 C281.238281,1.87890625 329.681641,16 349.626953,17.7617187 C369.572266,19.5234375 437.849609,17.8789062 456.244141,13 C474.638672,8.12109375 477.626953,5 511.248047,13 C544.869141,21 578.103516,8.12109375 613.191406,9.67400099 C648.279297,11.2269082 655.662109,9 651.970703,15 C648.279297,21 661.145508,17.7617187 678.34082,16 C695.536133,14.2382813 742.5,9.67400099 752.711914,9.67400099 C762.923828,9.67400099 788.205078,15 796.769531,15 C805.333984,15 817.302734,13.3552959 837.484375,12.0146484 C857.666016,10.674001 878.352756,22.2431641 901.167969,13 C923.983181,3.75683594 953.126821,31.9697266 961.648201,14.5 C970.16958,-2.96972656 944.343409,-2.02148437 944.343409,8.12109375 C944.343409,18.2636719 982.715643,17.7610424 985.999023,17.7617187 C995.180916,17.76361 1016.72204,14.5 1018.16797,14.5" id="Path-3" stroke="#FFFFFF" stroke-width="3"></path>
            </g>
        </g>
    </g>
</svg>