<svg width="361" height="25" viewBox="0 0 361 25" fill="none" xmlns="http://www.w3.org/2000/svg">
<mask id="mask0" mask-type="alpha" maskUnits="userSpaceOnUse" x="339" y="0" width="22" height="25">
<path fill-rule="evenodd" clip-rule="evenodd" d="M339.783 0.00012207H360.737V24.9H339.783V0.00012207Z" fill="white"/>
</mask>
<g mask="url(#mask0)">
<path fill-rule="evenodd" clip-rule="evenodd" d="M339.839 24.4989C339.596 24.6298 339.312 24.4128 339.375 24.1449L340.05 21.2969C340.103 21.0714 340.251 20.8794 340.455 20.7695L355.463 12.6911C355.663 12.5833 355.692 12.3085 355.518 12.1621L344.807 3.14654C344.573 2.94925 344.47 2.63758 344.54 2.34012L345.078 0.0685245C345.133 -0.163125 345.414 -0.255416 345.597 -0.101811L360.545 12.5582C360.82 12.7913 360.774 13.227 360.456 13.3981L339.839 24.4989Z" fill="white"/>
</g>
<path d="M0.145508 9.50004C10.0557 8.63993 72.7031 14 106.139 14C139.574 14 132.574 12.5 161.36 9.50004C190.146 6.50004 212.364 15 230.334 15C248.305 15 244.759 12.375 263.578 7.00004C282.397 1.62504 283.841 14.5 304.578 15C319.217 15.353 336.491 11.4568 344.508 11.4873C347.847 11.5 354.619 12.5 357.334 12.5" stroke="white" stroke-width="3"/>
</svg>
