<?xml version="1.0" encoding="UTF-8"?>
<svg width="1015px" height="25px" viewBox="0 0 1015 25" version="1.1" xmlns="http://www.w3.org/2000/svg" xmlns:xlink="http://www.w3.org/1999/xlink">
    <defs>
        <polygon id="path-1" points="0 6.97088011e-05 20.9537238 6.97088011e-05 20.9537238 24.8999903 0 24.8999903"></polygon>
    </defs>
    <g id="Page-1" stroke="none" stroke-width="1" fill="none" fill-rule="evenodd">
        <g id="Mobile_Arrows" transform="translate(0.000000, -113.000000)">
            <g id="mobile-arrow2" transform="translate(0.000000, 113.000000)">
                <g id="Group-3" transform="translate(993.617188, 0.000000)">
                    <mask id="mask-2" fill="white">
                        <use xlink:href="#path-1"></use>
                    </mask>
                    <g id="Clip-2"></g>
                    <path d="M0.482454545,24.8553261 C0.243954545,24.9945924 -0.0475909091,24.787663 0.00654545455,24.5176902 L0.581454545,21.6478533 C0.627,21.4206793 0.767590909,21.2236685 0.968181818,21.1066848 L15.6849545,12.5094022 C15.8813182,12.3947283 15.9001364,12.1190489 15.7212273,11.9788315 L4.70277273,3.34255435 C4.46168182,3.15355978 4.34768182,2.84567935 4.40768182,2.54595109 L4.86613636,0.256956522 C4.91290909,0.0235326087 5.19040909,-0.0785054348 5.37804545,0.0686413043 L20.7589091,12.199212 C21.0421364,12.4225815 21.0114545,12.8596739 20.7,13.0417391 L0.482454545,24.8553261 Z" id="Fill-1" fill="#FFFFFF" mask="url(#mask-2)"></path>
                </g>
                <path d="M0,6.55664062 C12.6601563,6.55664062 45.2382812,15 70.5351562,15 C95.8320313,15 138.65625,12 177.960937,9.19042969 C217.265625,6.38085938 257.138672,15 270.878906,15 C284.619141,15 369.466797,11.5616689 411.292969,9.19042969 C453.119141,6.81919045 516.777344,15 550.916016,15 C585.054687,15 629.741211,16.1233379 654.080078,11.5616689 C678.418945,7 678.418945,15 688.292969,15 C698.166992,15 718.988281,9.19042969 729.939453,9.19042969 C740.890625,9.19042969 764.003906,15 772.098633,15 C780.193359,15 792.195313,11.5616689 813.237305,9.19042969 C834.279297,6.81919045 863.417969,12.1847898 873.898437,13 C884.378906,13.8152102 903.013417,21.2431641 925.167969,12 C947.322521,2.75683594 948.42668,11.81034 959.807415,14.487289 C969.797103,16.8370393 983.640597,11.4964309 991.55051,11.4981087 C1000.46652,11.5 1009.76391,12.5 1011.16797,12.5" id="Path-3" stroke="#FFFFFF" stroke-width="3"></path>
            </g>
        </g>
    </g>
</svg>