<?xml version="1.0" encoding="UTF-8"?>
<svg width="1015px" height="26px" viewBox="0 0 1015 26" version="1.1" xmlns="http://www.w3.org/2000/svg" xmlns:xlink="http://www.w3.org/1999/xlink">
    <g id="Page-1" stroke="none" stroke-width="1" fill="none" fill-rule="evenodd">
        <g id="Mobile_Arrows" transform="translate(0.000000, -38.000000)">
            <g id="mobile-arrow1" transform="translate(0.000000, 35.000000)">
                <g id="Group-3" transform="translate(991.783203, 0.000000)" fill="#FFFFFF">
                    <path d="M2.48245455,26.8553261 C2.24395455,26.9945924 1.95240909,26.787663 2.00654545,26.5176902 L2.58145455,23.6478533 C2.627,23.4206793 2.76759091,23.2236685 2.96818182,23.1066848 L17.6849545,14.5094022 C17.8813182,14.3947283 17.9001364,14.1190489 17.7212273,13.9788315 L6.70277273,5.34255435 C6.46168182,5.15355978 6.34768182,4.84567935 6.40768182,4.54595109 L6.86613636,2.25695652 C6.91290909,2.02353261 7.19040909,1.92149457 7.37804545,2.0686413 L22.7589091,14.199212 C23.0421364,14.4225815 23.0114545,14.8596739 22.7,15.0417391 L2.48245455,26.8553261 Z" id="Fill-1" transform="translate(12.476852, 14.450030) rotate(-9.000000) translate(-12.476852, -14.450030) "></path>
                </g>
                <path d="M0,17 C15.0019531,17 47.5761719,10.6142578 74.234375,9.61425781 C100.892578,8.61425781 149.908203,17 164.560547,17 C179.212891,17 192.283203,9.61425781 212.447266,9.61425781 C232.611328,9.61425781 274.375,13.3199932 292.277344,13 C310.179688,12.6800068 379.548828,9.61425781 401.060547,9.61425781 C422.572266,9.61425781 516.6875,21.8398437 547.382813,13.5 C578.078125,5.16015625 636.433594,13 652.125977,15.7613078 C667.818359,18.5226157 685.242187,10.6142578 693.199219,10.6142578 C701.15625,10.6142578 703.367188,15.8184368 717.060547,14.5 C730.753906,13.1815632 732.37793,9.61425781 748.429688,9.61425781 C764.481445,9.61425781 773.975586,16.7613078 790.151367,16.7613078 C806.327148,16.7613078 845.326896,10.5 863.379663,11 C881.43243,11.5 879.827466,18.375 898.677161,13 C917.526856,7.625 925.840913,16.5 946.611135,17 C961.274122,17.352981 975.468336,13.9480787 983.514047,14.487289 C998.625,15.5 1008.61453,13.5 1011.33398,13.5" id="Path-3" stroke="#FFFFFF" stroke-width="3"></path>
            </g>
        </g>
    </g>
</svg>