<svg width="281" height="92" viewBox="0 0 281 92" fill="none" xmlns="http://www.w3.org/2000/svg">
<path d="M31.7137 27.7546H37.6023V33.6432H31.7137V27.7546Z" fill="#FFD1A4"/>
<path d="M34.5054 31.3142C34.7335 31.3142 34.9118 31.251 35.0402 31.1245C35.1686 30.996 35.2329 30.8437 35.2329 30.6673C35.2329 30.514 35.1715 30.3731 35.0488 30.2446C34.9262 30.1162 34.7393 30.052 34.4882 30.052C34.239 30.052 34.0588 30.1162 33.9476 30.2446C33.8364 30.3731 33.7808 30.5235 33.7808 30.6961C33.7808 30.8897 33.8527 31.0411 33.9965 31.1504C34.1402 31.2596 34.3099 31.3142 34.5054 31.3142ZM34.537 33.3528C34.7766 33.3528 34.975 33.2886 35.1322 33.1602C35.2913 33.0298 35.3709 32.8362 35.3709 32.5794C35.3709 32.3129 35.2894 32.1107 35.1265 31.9727C34.9635 31.8347 34.7546 31.7657 34.4997 31.7657C34.2524 31.7657 34.0502 31.8366 33.893 31.9784C33.7377 32.1184 33.6601 32.3129 33.6601 32.5621C33.6601 32.7768 33.731 32.9627 33.8728 33.1199C34.0166 33.2752 34.238 33.3528 34.537 33.3528ZM33.801 31.5126C33.6572 31.4513 33.5451 31.3794 33.4646 31.297C33.3131 31.1436 33.2374 30.9443 33.2374 30.6989C33.2374 30.3922 33.3486 30.1287 33.5709 29.9082C33.7933 29.6878 34.1086 29.5776 34.5169 29.5776C34.9118 29.5776 35.2214 29.682 35.4456 29.891C35.6699 30.098 35.782 30.3405 35.782 30.6184C35.782 30.8753 35.7169 31.0833 35.5865 31.2424C35.5137 31.3325 35.4006 31.4206 35.2472 31.5069C35.4178 31.5855 35.552 31.6756 35.6498 31.7772C35.8319 31.9689 35.9229 32.218 35.9229 32.5247C35.9229 32.887 35.8012 33.1947 35.5578 33.4477C35.3143 33.6988 34.9702 33.8244 34.5255 33.8244C34.1249 33.8244 33.7856 33.7161 33.5077 33.4995C33.2317 33.2809 33.0936 32.9647 33.0936 32.5506C33.0936 32.3072 33.1531 32.0973 33.2719 31.9209C33.3908 31.7427 33.5671 31.6066 33.801 31.5126Z" fill="black"/>
<path fill-rule="evenodd" clip-rule="evenodd" d="M120.677 48.4443C120.677 53.118 119.57 56.9972 117.346 60.0822C114.866 63.5735 111.429 65.3716 107.035 65.47C103.723 65.5747 100.311 64.5464 96.7996 62.3913V82.348L91.1193 80.3407V36.0429C92.0515 34.9099 93.251 33.937 94.7052 33.1119C98.086 31.16 102.194 30.1562 107.029 30.107L107.11 30.1871C111.529 30.1317 114.934 31.9297 117.327 35.5749C119.558 38.9185 120.677 43.2042 120.677 48.4443ZM114.145 48.0625C114.145 38.8632 111.498 34.1402 106.202 33.8816C104.096 33.7832 102.039 34.1156 100.037 34.8853C98.4403 35.4518 97.3651 36.0121 96.7996 36.5786V58.5367C100.187 60.6425 103.195 61.6215 105.817 61.4676C111.367 61.1043 114.145 56.64 114.145 48.0625Z" fill="#FF5A00"/>
<path fill-rule="evenodd" clip-rule="evenodd" d="M155.392 61.5415C155.392 67.81 154.758 72.1511 153.491 74.5648C152.217 76.9785 149.793 78.906 146.213 80.3406C143.311 81.4736 140.172 82.0894 136.804 82.1941L135.866 78.6473C139.29 78.1855 141.701 77.7237 143.1 77.2618C145.853 76.3382 147.742 74.922 148.78 73.0254C149.613 71.4798 150.023 68.5304 150.023 64.1647V62.6992C146.139 64.4479 142.068 65.3161 137.811 65.3161C135.014 65.3161 132.547 64.4479 130.422 62.6992C128.035 60.7965 126.842 58.3827 126.842 55.4579V32.0344L132.522 30.107V53.6845C132.522 56.2029 133.342 58.1425 134.983 59.5034C136.624 60.8641 138.749 61.5169 141.353 61.4677C143.957 61.4122 146.748 60.4147 149.712 58.4627V30.9568H155.392V61.5415Z" fill="#FF5A00"/>
<path fill-rule="evenodd" clip-rule="evenodd" d="M177.567 65.1622C176.889 65.2175 176.268 65.2423 175.696 65.2423C172.483 65.2423 169.979 64.4848 168.189 62.964C166.405 61.4431 165.51 59.3433 165.51 56.6648V34.4974H161.62V30.9568H165.51V21.5542L171.184 19.553V30.9568H177.567V34.4974H171.184V56.5108C171.184 58.6228 171.756 60.1191 172.899 60.9935C173.881 61.714 175.441 62.1264 177.567 62.2312V65.1622Z" fill="#FF5A00"/>
<path fill-rule="evenodd" clip-rule="evenodd" d="M211.959 64.7004H206.279V42.9765C206.279 40.7658 205.757 38.8632 204.719 37.2745C203.52 35.4765 201.854 34.5774 199.716 34.5774C197.112 34.5774 193.856 35.9383 189.947 38.6599V64.7004H184.266V12.7734L189.947 11V34.6514C193.576 32.0344 197.541 30.7228 201.848 30.7228C204.856 30.7228 207.292 31.7265 209.156 33.7277C211.027 35.7289 211.959 38.2227 211.959 41.203V64.7004Z" fill="#FF5A00"/>
<path fill-rule="evenodd" clip-rule="evenodd" d="M248.372 47.2128C248.372 52.2436 247.073 56.4307 244.481 59.7743C241.629 63.5181 237.688 65.3962 232.661 65.3962C227.676 65.3962 223.792 63.5181 220.989 59.7743C218.448 56.4307 217.18 52.2436 217.18 47.2128C217.18 42.4838 218.553 38.506 221.3 35.2671C224.202 31.8312 228.018 30.107 232.735 30.107C237.452 30.107 241.293 31.8312 244.251 35.2671C246.998 38.506 248.372 42.4838 248.372 47.2128ZM242.151 47.1759C242.151 43.6414 241.473 40.7227 240.125 38.4136C238.521 35.5996 236.029 34.1157 232.661 33.9616C226.433 34.3188 223.326 38.7399 223.326 47.2128C223.326 51.0982 223.973 54.3434 225.277 56.9479C226.943 60.2669 229.441 61.9048 232.773 61.8494C239.025 61.8001 242.151 56.911 242.151 47.1759Z" fill="#FF5A00"/>
<path fill-rule="evenodd" clip-rule="evenodd" d="M280.937 64.7004H275.257V41.7449C275.257 39.2264 274.492 37.2622 272.964 35.8459C271.435 34.4358 269.396 33.7523 266.854 33.8077C264.157 33.857 261.59 34.7314 259.154 36.4248V64.7004H253.474V35.7289C256.743 33.3706 259.751 31.8312 262.498 31.1107C265.09 30.4396 267.376 30.107 269.347 30.107C270.695 30.107 271.963 30.2364 273.156 30.4949C275.387 31.0061 277.202 31.9543 278.6 33.346C280.16 34.8853 280.937 36.7326 280.937 38.8939V64.7004Z" fill="#FF5A00"/>
<mask id="mask0" mask-type="alpha" maskUnits="userSpaceOnUse" x="0" y="12" width="53" height="54">
<path d="M0 12.9808H52.4708V65.4747H0V12.9808Z" fill="white"/>
</mask>
<g mask="url(#mask0)">
<path fill-rule="evenodd" clip-rule="evenodd" d="M25.7712 18.1735C27.537 18.1735 28.9791 19.6256 28.9791 21.4111C28.9791 23.1903 27.537 24.629 25.7712 24.629C23.9989 24.629 22.5632 23.1903 22.5632 21.4111C22.5632 19.6256 23.9989 18.1735 25.7712 18.1735ZM35.0164 12.9814C32.0938 12.9948 29.3028 13.2418 26.8472 13.6723C19.6127 14.9387 18.2992 17.5891 18.2992 22.4772V28.9328H35.395V31.0846H18.2992H11.8833C6.9149 31.0846 2.56424 34.0435 1.20349 39.6722C-0.366146 46.1241 -0.435801 50.1502 1.20349 56.887C2.41872 61.9017 5.32086 65.4747 10.2894 65.4747H16.1672V57.7359C16.1672 52.1451 21.0495 47.2136 26.8472 47.2136H43.9229C48.6762 47.2136 52.4708 43.3359 52.4708 38.6062V22.4772C52.4708 17.8868 48.5622 14.4385 43.9229 13.6723C40.9861 13.1879 37.9389 12.9679 35.0164 12.9814Z" fill="#FF5A00"/>
</g>
<path fill-rule="evenodd" clip-rule="evenodd" d="M44.9989 71.9302C46.7711 71.9302 48.2068 73.369 48.2068 75.1481C48.2068 76.9336 46.7711 78.3857 44.9989 78.3857C43.2331 78.3857 41.7909 76.9336 41.7909 75.1481C41.7909 73.369 43.233 71.9302 44.9989 71.9302ZM54.6028 31.0846V38.6061C54.6028 44.4376 49.613 49.3457 43.9229 49.3457H26.8471C22.1698 49.3457 18.2992 53.3121 18.2992 57.9531V74.0821C18.2992 78.6725 22.328 81.3725 26.8471 82.6895C32.2586 84.266 37.4481 84.551 43.9229 82.6895C48.2269 81.4548 52.4708 78.9701 52.4708 74.0821V67.6265H35.3949V65.4747H52.4708H61.0187C65.9872 65.4747 67.8386 62.041 69.5665 56.887C71.3513 51.5812 71.2755 46.4787 69.5665 39.6722C68.3386 34.7716 65.9934 31.0846 61.0187 31.0846H54.6028Z" fill="#FF5A00"/>
</svg>
