<?xml version="1.0" encoding="UTF-8"?>
<svg width="281px" height="92px" viewBox="0 0 281 92" version="1.1" xmlns="http://www.w3.org/2000/svg" xmlns:xlink="http://www.w3.org/1999/xlink">
    <defs>
        <polygon id="path-1" points="0 0.00723224106 52.4708082 0.00723224106 52.4708082 52.5011562 0 52.5011562"></polygon>
    </defs>
    <g id="Page-1" stroke="none" stroke-width="1" fill="none" fill-rule="evenodd">
        <g id="Paddings/8px" transform="translate(32.000000, 28.000000)">
            <g id="Group" transform="translate(-0.613395, -0.613395)">
                <polygon id="color" fill="#FFD1A4" fill-rule="nonzero" points="0.327144259 0.368037291 6.21574092 0.368037291 6.21574092 6.25663395 0.327144259 6.25663395"></polygon>
                <text id="8" font-family="Helvetica" font-size="5.88859666" font-weight="normal" fill="#000000">
                    <tspan x="1.51727527" y="6.20847659">8</tspan>
                </text>
            </g>
        </g>
        <g id="Group-18" transform="translate(0.000000, 11.000000)">
            <path d="M120.676721,37.4442903 C120.676721,42.1180112 119.570455,45.9972457 117.345582,49.0821749 C114.865944,52.573495 111.429133,54.3715955 107.035332,54.4700459 C103.722841,54.5747457 100.310894,53.5464057 96.799582,51.3912754 L96.799582,71.3479901 L91.1192502,69.3406712 L91.1192502,25.0428945 C92.0514682,23.9099454 93.2509744,22.9370347 94.7051539,22.1119355 C98.0860209,20.1599553 102.193978,19.1562506 107.029116,19.1069801 L107.109832,19.1871352 C111.528589,19.131706 114.934229,20.9297159 117.326934,24.5749156 C119.558023,27.9185149 120.676721,32.2042308 120.676721,37.4442903 M114.144979,37.0625347 C114.144979,27.8631762 111.497509,23.1401849 106.202478,22.8816055 C104.09571,22.7831551 102.038577,23.1156402 100.037481,23.8853102 C98.4402418,24.45183 97.3650557,25.0121005 96.799582,25.5786203 L96.799582,47.5366762 C100.186574,49.642536 103.194572,50.6215149 105.817177,50.4676352 C111.366973,50.1042655 114.144979,45.6400347 114.144979,37.0625347" id="Fill-1" fill="#FF5A00"></path>
            <path d="M155.392415,50.5414866 C155.392415,56.8099767 154.758474,61.1511218 153.490683,63.5648315 C152.216676,65.9785412 149.792891,67.9059767 146.213204,69.3406169 C143.310878,70.473566 140.172435,71.0893563 136.804,71.1940561 L135.865657,67.6473067 C139.289945,67.1854866 141.701298,66.7236665 143.099625,66.2618464 C145.852767,65.3382062 147.742067,63.9219519 148.779957,62.025401 C149.612718,60.4798117 150.022883,57.5303762 150.022883,53.1646864 L150.022883,51.6991615 C146.138611,53.447901 142.067951,54.3161119 137.810901,54.3161119 C135.014156,54.3161119 132.54695,53.447901 130.421534,51.6991615 C128.035045,49.7964519 126.841755,47.3826516 126.841755,44.4578514 L126.841755,21.0343613 L132.522086,19.1070164 L132.522086,42.6844767 C132.522086,45.2028861 133.342416,47.1425486 134.983076,48.5033737 C136.623827,49.8641082 138.749244,50.5169419 141.353202,50.4676715 C143.957251,50.4121516 146.747689,49.4146963 149.712083,47.4627161 L149.712083,19.9568414 L155.392415,19.9568414 L155.392415,50.5414866 Z" id="Fill-3" fill="#FF5A00"></path>
            <path d="M177.566752,54.162196 C176.889299,54.2175347 176.267881,54.2422605 175.6961,54.2422605 C172.483065,54.2422605 169.978472,53.4848176 168.188628,51.9639541 C166.405001,50.4430906 165.510079,48.343299 165.510079,45.6647605 L165.510079,23.4973958 L161.619591,23.4973958 L161.619591,19.9568052 L165.510079,19.9568052 L165.510079,10.554206 L171.184194,8.55295533 L171.184194,19.9568052 L177.566752,19.9568052 L177.566752,23.4973958 L171.184194,23.4973958 L171.184194,45.5107903 C171.184194,47.6228089 171.755976,49.1191278 172.899446,49.9934975 C173.881392,50.7139876 175.441335,51.1264467 177.566752,51.231237 L177.566752,54.162196 Z" id="Fill-5" fill="#FF5A00"></path>
            <path d="M211.959351,53.7004122 L206.278928,53.7004122 L206.278928,31.9764816 C206.278928,29.7658315 205.756966,27.8632124 204.719076,26.2745114 C203.519662,24.4765015 201.854046,23.577406 199.716198,23.577406 C197.11224,23.577406 193.855693,24.9383216 189.946557,27.6598811 L189.946557,53.7004122 L184.266317,53.7004122 L184.266317,1.77341092 L189.946557,3.62282878e-05 L189.946557,23.6514022 C193.576064,21.0343613 197.541053,19.7228067 201.847922,19.7228067 C204.855828,19.7228067 207.291954,20.7265114 209.156481,22.7276715 C211.027133,24.7289221 211.959351,27.2226963 211.959351,30.2030164 L211.959351,53.7004122 Z" id="Fill-7" fill="#FF5A00"></path>
            <path d="M248.371704,36.2128274 C248.371704,41.243578 247.072742,45.4306624 244.481216,48.7742617 C241.628618,52.5180929 237.688494,54.3961674 232.660751,54.3961674 C227.676429,54.3961674 223.792248,52.5180929 220.989379,48.7742617 C218.447581,45.4306624 217.179699,41.243578 217.179699,36.2128274 C217.179699,31.4837679 218.553253,27.5059924 221.300179,24.2670929 C224.202413,20.8312021 228.018309,19.1070073 232.735252,19.1070073 C237.452286,19.1070073 241.292954,20.8312021 244.251315,24.2670929 C246.998241,27.5059924 248.371704,31.4837679 248.371704,36.2128274 M242.150671,36.1758746 C242.150671,32.6413522 241.473218,29.7227108 240.124619,27.4136103 C238.521256,24.599578 236.029186,23.1156674 232.660751,22.9616066 C226.433502,23.3188175 223.326139,27.7399366 223.326139,36.2128274 C223.326139,40.0982207 223.972513,43.3433696 225.277508,45.9479118 C226.943123,49.2668758 229.441409,50.9048473 232.772639,50.849418 C239.024661,50.8001475 242.150671,45.9110495 242.150671,36.1758746" id="Fill-9" fill="#FF5A00"></path>
            <path d="M280.93709,53.7004122 L275.256759,53.7004122 L275.256759,30.744901 C275.256759,28.226401 274.492373,26.2621938 272.96351,24.8459395 C271.434738,23.4358439 269.396254,22.7523067 266.854365,22.807736 C264.157259,22.8570065 261.590414,23.7313762 259.154288,25.4247769 L259.154288,53.7004122 L253.473957,53.7004122 L253.473957,24.7289221 C256.742936,22.3705511 259.750842,20.8312112 262.497859,20.1107211 C265.089477,19.4395921 267.376418,19.1070164 269.346526,19.1070164 C270.695125,19.1070164 271.962916,19.2363514 273.156206,19.4949308 C275.387295,20.0061119 277.202003,20.9542968 278.600329,22.3460065 C280.160181,23.8853464 280.93709,25.7326268 280.93709,27.8939159 L280.93709,53.7004122 Z" id="Fill-11" fill="#FF5A00"></path>
            <g id="Group-15" transform="translate(0.000000, 1.973536)">
                <mask id="mask-2" fill="white">
                    <use xlink:href="#path-1"></use>
                </mask>
                <g id="Clip-14"></g>
                <path d="M25.7711462,5.1999639 C27.5369488,5.1999639 28.979062,6.65208424 28.979062,8.43759541 C28.979062,10.2167666 27.5369488,11.6554825 25.7711462,11.6554825 C23.9989449,11.6554825 22.5632305,10.2167666 22.5632305,8.43759541 C22.5632305,6.65208424 23.9989449,5.1999639 25.7711462,5.1999639 M35.016357,0.0078162531 C32.0938291,0.0213112903 29.3028427,0.268297643 26.847155,0.698780273 C19.6127305,1.96514007 18.2992337,4.61560161 18.2992337,9.50370335 L18.2992337,15.959222 L35.3949849,15.959222 L35.3949849,18.1110917 L18.2992337,18.1110917 L11.8833108,18.1110917 C6.91489444,18.1110917 2.56423926,21.0699465 1.2034826,26.698645 C-0.36615013,33.1505408 -0.435805953,37.176681 1.2034826,43.9134217 C2.41871161,48.9281413 5.32085475,52.5011562 10.2893626,52.5011562 L16.1672354,52.5011562 L16.1672354,44.7623411 C16.1672354,39.1715917 21.0494504,34.240016 26.847155,34.240016 L43.922887,34.240016 C48.6762113,34.240016 52.4708082,30.3623212 52.4708082,25.6326277 L52.4708082,9.50370335 C52.4708082,4.913217 48.5622207,1.46491799 43.922887,0.698780273 C40.9860987,0.214408065 37.938885,-0.00567878412 35.016357,0.0078162531" id="Fill-13" fill="#FF5A00" mask="url(#mask-2)"></path>
            </g>
            <path d="M44.9988318,60.9302289 C46.7710331,60.9302289 48.2067475,62.3690354 48.2067475,64.148116 C48.2067475,65.9336272 46.7710331,67.3857475 44.9988318,67.3857475 C43.2330292,67.3857475 41.790916,65.9336272 41.790916,64.148116 C41.790916,62.3690354 43.2329378,60.9302289 44.9988318,60.9302289 L44.9988318,60.9302289 Z M54.6027426,20.0846458 L54.6027426,27.6060912 C54.6027426,33.4375775 49.6129358,38.3456954 43.9229144,38.3456954 L26.847091,38.3456954 C22.1697299,38.3456954 18.2991697,42.3120589 18.2991697,46.9530837 L18.2991697,63.0820986 C18.2991697,67.6724944 22.3279638,70.3724981 26.847091,71.689487 C32.2585806,73.2660515 37.4480308,73.550987 43.9229144,71.689487 C48.2268581,70.4548269 52.4707442,67.9701098 52.4707442,63.0820986 L52.4707442,56.6264895 L35.3949209,56.6264895 L35.3949209,54.4747103 L52.4707442,54.4747103 L61.0186655,54.4747103 C65.9871733,54.4747103 67.8385373,51.0409932 69.5664954,45.8869758 C71.3513116,40.5811619 71.2754398,35.4786793 69.5664954,28.6721991 C68.3385601,23.7715986 65.9933893,20.0846458 61.0186655,20.0846458 L54.6027426,20.0846458 Z" id="Fill-16" fill="#FF5A00"></path>
        </g>
    </g>
</svg>