<?xml version="1.0" encoding="UTF-8"?>
<svg width="231px" height="92px" viewBox="0 0 231 92" version="1.1" xmlns="http://www.w3.org/2000/svg" xmlns:xlink="http://www.w3.org/1999/xlink">
    <defs>
        <polygon id="path-1" points="0 0.0873096709 87.2518211 0.0873096709 87.2518211 77.1269033 0 77.1269033"></polygon>
    </defs>
    <g id="Page-1" stroke="none" stroke-width="1" fill="none" fill-rule="evenodd">
        <g id="Group-16" transform="translate(0.000000, 7.000000)">
            <path d="M105.292897,38.0143686 C105.498512,38.0383636 105.618632,38.0646775 105.738854,38.0647783 C108.786226,38.0662906 111.8337,38.0726422 114.880971,38.05883 C115.682211,38.0553013 116.481623,37.9535744 117.249051,37.7160437 C119.701002,36.9567722 121.311808,35.3737047 121.948149,32.877616 C122.207478,31.8601458 122.242205,30.8295691 122.05578,29.7870956 C121.649525,27.5156327 120.424869,25.8675366 118.318555,24.8854541 C117.302358,24.4117033 116.219654,24.1756849 115.099786,24.1701399 C111.990882,24.1545128 108.881875,24.1586464 105.772971,24.1620743 C105.601878,24.1622759 105.430888,24.2266996 105.221787,24.2690438 C105.221787,28.7415976 105.221312,33.1710007 105.224257,37.6005046 C105.224358,37.7169511 105.261826,37.8334984 105.292897,38.0143686 M100.701226,20.1170959 L101.550088,20.1170959 C106.201565,20.1181041 110.853042,20.116491 115.504518,20.1215319 C117.1203,20.1233467 118.695974,20.3787224 120.200977,20.9728516 C123.81138,22.397935 125.983795,25.0152087 126.691722,28.8080376 C127.044669,30.698907 127.001414,32.595019 126.441632,34.4394106 C125.289475,38.2361714 122.671306,40.4946286 118.828888,41.41259 C118.411158,41.5124013 117.984189,41.574002 117.522189,41.660606 C117.475075,41.9945201 117.731358,42.2027123 117.887322,42.4376217 C119.971906,45.5779469 122.064309,48.7130295 124.154783,51.8495236 C124.9875,53.0989794 125.821334,54.3478303 126.651918,55.5987984 C126.801992,55.8248357 126.938866,56.0594426 127.123362,56.3571626 C126.964657,56.4033379 126.862205,56.4588894 126.759549,56.4591919 C125.158186,56.464737 123.556823,56.463023 121.981251,56.463023 C121.636122,56.2722726 121.511128,55.9447101 121.332217,55.6666499 C118.59606,51.4154957 115.865488,47.1608128 113.132478,42.9076421 C112.951435,42.6259525 112.761863,42.3497071 112.598488,42.1043125 C111.743534,41.9853455 106.134042,41.9876643 105.312392,42.1063289 C105.157648,42.3965882 105.222125,42.7371564 105.221617,43.0613918 C105.216134,46.4870362 105.217962,49.9127813 105.21786,53.3383248 C105.217758,54.1335889 105.220703,54.9289538 105.216235,55.7241171 C105.215017,55.9326117 105.190952,56.1409048 105.17826,56.3361921 C104.505974,56.4947812 102.178103,56.5319836 100.781645,56.4105969 C100.747426,56.2563431 100.692392,56.0885795 100.676755,55.9171864 C100.657362,55.7048605 100.670054,55.4894093 100.670054,55.2753695 C100.669952,43.9583828 100.669648,32.6414968 100.671069,21.3246108 C100.671171,20.9621648 100.688737,20.5998196 100.701226,20.1170959" id="Fill-1" fill="#FF5A00"></path>
            <path d="M135.16605,41.4819034 C135.42609,41.6427105 135.709484,41.5861508 135.97978,41.5874614 C137.2417,41.5932081 138.50362,41.5900827 139.76554,41.5900827 C143.6437,41.5900827 147.52186,41.5928048 151.40002,41.5851426 C151.726872,41.5845377 152.075352,41.6803162 152.398752,41.4614371 C152.485364,40.5305708 152.275687,39.6381167 151.977977,38.7715733 C151.047478,36.0642678 149.308124,34.1360952 146.498758,33.2611837 C145.638321,32.9932055 144.753617,32.8934951 143.859266,32.8843205 C141.681063,32.8619386 139.731118,33.4855071 138.11686,34.9801559 C136.428681,36.5431603 135.50661,38.5026877 135.170823,40.7493491 C135.135386,40.9863757 135.16605,41.2329801 135.16605,41.4819034 M156.477654,44.6425942 C152.843186,44.6425942 149.30457,44.6425942 145.765955,44.642695 C142.262472,44.6427958 138.758989,44.6421909 135.220678,44.6429974 C135.196207,44.8546175 135.160669,44.9711649 135.172955,45.0826712 C135.485287,47.9213445 136.665164,50.2940302 139.005626,52.0251007 C140.402998,53.0586012 142.002838,53.5865928 143.72554,53.6972926 C146.978223,53.9061906 149.865063,52.9790546 152.335392,50.838657 C152.49298,50.7020466 152.660518,50.576728 152.874764,50.4050324 C153.51466,51.2713742 154.13049,52.1050505 154.781352,52.9862128 C154.621734,53.1603281 154.495623,53.3243613 154.343417,53.4594595 C152.292746,55.2781421 149.907607,56.4085301 147.196734,56.8584874 C144.858709,57.2464408 142.526066,57.2315195 140.239521,56.5782093 C136.190269,55.4216082 133.31338,52.9053556 131.801472,48.9930556 C130.267429,45.0234902 130.304186,41.0179322 132.065066,37.1198477 C133.703795,33.4923628 136.456198,31.0414412 140.3503,29.959749 C143.038734,29.2130799 145.723512,29.325292 148.344017,30.2628123 C151.361029,31.3420849 153.50481,33.4134211 154.918124,36.2439281 C155.803337,38.0168387 156.291737,39.9048851 156.447395,41.8756035 C156.500398,42.5459522 156.52101,43.2190231 156.542232,43.8912874 C156.54873,44.0983706 156.508318,44.3069661 156.477654,44.6425942" id="Fill-3" fill="#FF5A00"></path>
            <path d="M179.739323,48.4592265 C179.739323,47.7557082 179.728458,47.0519882 179.744095,46.3486715 C179.751406,46.0209074 179.645705,45.7623054 179.431154,45.5193305 C178.814206,44.820349 178.090135,44.2590869 177.265237,43.8266722 C175.498874,42.9007461 173.607923,42.5738893 171.632086,42.7373177 C170.770735,42.8085971 169.939745,43.0352393 169.148862,43.4041377 C166.401637,44.6856542 165.367163,47.5752413 166.196631,50.167411 C166.82952,52.1454892 168.247606,53.3615738 170.212477,53.8683934 C173.149477,54.6260518 175.892234,54.096447 178.35708,52.3138578 C178.751151,52.0289419 179.076582,51.6492557 179.426483,51.3057638 C179.65596,51.0806339 179.751711,50.8066065 179.743892,50.477935 C179.727849,49.8054691 179.73912,49.1321966 179.739323,48.4592265 M183.814569,56.406423 C182.651345,56.5201474 180.54036,56.4993785 179.794966,56.3714386 C179.686929,55.9420484 179.754046,55.4848321 179.742369,55.0348748 C179.731302,54.6123403 179.739932,54.1893018 179.739932,53.7916697 C179.488523,53.6871199 179.397748,53.8397606 179.294585,53.9379588 C176.514766,56.5829579 173.158209,57.4444604 169.423929,56.9952087 C167.582631,56.7738092 165.94248,56.0003221 164.538305,54.7782892 C163.016142,53.4534204 162.115495,51.7782039 161.843778,49.7980084 C161.655628,48.4267627 161.714215,47.0540046 162.119252,45.709476 C162.74148,43.6441889 164.001877,42.088141 165.885822,41.0351824 C167.333557,40.2260052 168.900397,39.8202068 170.560043,39.7644536 C172.269545,39.7069865 173.939142,39.9200181 175.554923,40.4933785 C176.876852,40.9624915 178.057542,41.6633886 179.079323,42.6228876 C179.213354,42.7487103 179.348095,42.8738273 179.484563,42.9969278 C179.506495,43.0166885 179.539394,43.0242499 179.569754,43.0386671 C179.786234,42.9959197 179.735769,42.8181749 179.736074,42.6817662 C179.739323,41.2749311 179.760443,39.867592 179.730185,38.4614627 C179.684492,36.3401199 178.675098,34.8079663 176.77176,33.8492738 C176.105871,33.5138474 175.399062,33.2883142 174.666868,33.1904185 C171.344225,32.7461071 168.370366,33.5018499 165.860335,35.7882341 C165.568412,36.0540951 165.282785,36.3266101 164.996852,36.5937818 C164.488957,36.1201318 163.559169,34.790827 163.08072,33.8560287 C163.184188,33.736356 163.291006,33.5914784 163.418742,33.4679746 C165.704372,31.2573058 168.423572,29.9732689 171.605178,29.6247359 C173.619295,29.4041429 175.605286,29.4817739 177.556652,30.0203516 C178.263462,30.2155381 178.968138,30.4703089 179.619203,30.803114 C181.777708,31.90618 183.081969,33.6778807 183.613726,36.0244542 C183.811523,36.8972484 183.84168,37.7812336 183.841985,38.6689492 C183.842789,41.6661107 183.842492,44.6633731 183.842789,47.6604338 C183.842789,50.2295158 183.843508,52.798497 183.841375,55.3674782 C183.841071,55.6983678 183.824723,56.0291565 183.814569,56.406423" id="Fill-5" fill="#FF5A00"></path>
            <path d="M213.538035,34.0752204 C212.607333,34.9102073 211.747099,35.6820813 210.84361,36.4927707 C210.678001,36.3169416 210.549859,36.1945467 210.437152,36.0594486 C208.396939,33.6128622 205.734398,32.8508686 202.658189,33.2495088 C200.699816,33.5031706 199.010724,34.3231355 197.639447,35.7469082 C196.733927,36.6871507 196.053619,37.7738839 195.621979,39.0036799 C194.612179,41.8805638 194.598573,44.7707559 195.650918,47.6291898 C196.548619,50.0678114 198.167142,51.8808482 200.643259,52.8513365 C202.350324,53.5204754 204.11557,53.6520448 205.906607,53.2885906 C207.556506,52.9539707 208.936515,52.1242264 210.076893,50.8982615 C210.202192,50.7634659 210.320687,50.622621 210.444259,50.4861115 C210.545392,50.3744035 210.649367,50.2651152 210.777915,50.1270933 C211.180515,50.2772135 211.413241,50.6137489 211.706789,50.8657976 C212.009475,51.1257103 212.296321,51.4036696 212.590579,51.6734625 C212.883315,51.9419448 213.176558,52.2100238 213.498333,52.5046183 C213.365724,52.7088786 213.270684,52.8968061 213.138278,53.0533787 C211.093902,55.4716348 208.481521,56.7834979 205.313927,57.0518794 C203.482681,57.2070406 201.679256,57.1032973 199.918681,56.5806491 C196.395195,55.5344454 193.766364,53.3669273 192.181552,50.0877737 C190.078386,45.7360016 189.993296,41.2607256 192.006398,36.8712471 C193.938066,32.6594124 197.336558,30.2643448 201.970672,29.6280731 C204.142884,29.329849 206.271232,29.5058798 208.347592,30.2091965 C210.453296,30.9224944 212.112333,32.2361722 213.538035,34.0752204" id="Fill-7" fill="#FF5A00"></path>
            <path d="M224.364553,30.1508422 C225.062427,30.1593111 225.641805,30.1688889 226.221184,30.1725184 C226.775584,30.1759463 227.330085,30.1681832 227.884384,30.1746356 C228.46163,30.1814914 229.042328,30.1387439 229.600079,30.2130479 C229.75259,30.9888538 229.764165,32.7675111 229.627596,33.6593602 C229.228448,33.8067583 228.795691,33.7166256 228.374611,33.7321518 C227.943987,33.7481821 227.512347,33.7357814 227.081113,33.7357814 L225.787513,33.7357814 L224.468731,33.7357814 C224.421211,33.9610121 224.356938,34.1316995 224.353891,34.3035967 C224.341504,35.0068126 224.347291,35.7103309 224.34719,36.4136476 C224.34719,40.8175434 224.34323,45.2212375 224.352774,49.6251333 C224.353993,50.1423372 224.406691,50.6626665 224.480408,51.175132 C224.523258,51.4728519 224.626116,51.7712776 224.753344,52.0459098 C225.212196,53.0363604 226.118528,53.5571939 227.218088,53.4675653 C227.965107,53.4067712 228.669378,53.2029142 229.290184,52.7650552 C229.439242,52.6597997 229.592565,52.5602908 229.795744,52.423378 C230.246067,53.396286 230.580941,54.3741341 230.98019,55.3737593 C230.828187,55.5292229 230.698725,55.695071 230.537279,55.8202888 C230.048981,56.1990675 229.510421,56.4910408 228.920787,56.688042 C227.267334,57.2406336 225.591138,57.2779368 223.91819,56.8296934 C222.323833,56.4025213 221.213713,55.3894871 220.665405,53.841404 C220.443239,53.2144076 220.330633,52.5404294 220.242193,51.8781462 C220.169694,51.335939 220.197618,50.7792139 220.197414,50.2289411 C220.194876,45.1523778 220.195891,40.0757136 220.195891,34.9991503 L220.195891,33.8506147 C219.951488,33.807464 219.75095,33.7435445 219.549701,33.7413264 C218.564168,33.7304379 217.578534,33.7390076 216.592901,33.7332609 C216.355402,33.7319502 216.117904,33.7022085 215.895331,33.6864806 C215.752771,32.8424199 215.754498,31.0448086 215.898581,30.226356 C217.277879,30.0753284 218.688858,30.2713215 220.136187,30.1123292 C220.158018,29.804124 220.192439,29.5375573 220.193251,29.2708898 C220.198227,27.527721 220.195891,25.7845521 220.195891,24.0413833 L220.195891,23.1042662 C220.90199,22.8639126 221.578845,22.9983049 222.239759,22.9837869 C222.90707,22.9692689 223.580879,22.9287395 224.290633,23.0307688 C224.403442,24.2371747 224.329014,25.3934734 224.344956,26.5468482 C224.360999,27.7045583 224.332873,28.8631758 224.364553,30.1508422" id="Fill-9" fill="#FF5A00"></path>
            <g id="Group-13" transform="translate(0.000000, 0.013510)">
                <mask id="mask-2" fill="white">
                    <use xlink:href="#path-1"></use>
                </mask>
                <g id="Clip-12"></g>
                <path d="M25.7898757,34.1972825 C27.3175218,31.326347 28.8691311,28.5933325 30.5645188,25.9436957 C30.6135618,25.8668712 30.6603711,25.7867197 30.6933711,25.7024347 C30.7143895,25.6484962 30.7079926,25.583871 30.7202788,25.4605687 C28.1570418,25.7688747 25.629648,26.183646 23.1292634,26.7626523 C23.1187034,26.9068242 23.0861095,27.0021994 23.109768,27.0807378 C23.7619495,29.2446263 24.5626818,31.3554838 25.4267742,33.4432536 C25.5180572,33.6635442 25.6333034,33.8740553 25.7898757,34.1972825 M61.5214634,34.0251837 C62.1309988,33.1463403 64.0123034,28.1420645 64.2176142,26.8000564 C61.6955003,26.2246796 59.1479003,25.7773435 56.558568,25.4741794 C56.5674018,25.5969775 56.5508511,25.6697691 56.5790788,25.7150371 C58.2584234,28.4133697 59.8501403,31.1619104 61.3794111,33.9464437 C61.4014449,33.986469 61.472928,33.9996763 61.5214634,34.0251837 M48.5332726,21.0027345 C48.5509403,20.9470822 48.6008972,20.8747946 48.581808,20.8383988 C48.1362572,19.9922209 44.5036172,15.6981175 43.6673465,15.0221229 C43.596168,15.0708187 43.5091495,15.1103399 43.4490388,15.174562 C41.7927434,16.9485815 40.2348388,18.8046682 38.7708572,20.7380834 C38.7264849,20.7967603 38.7394818,20.8982856 38.7219157,21.0026337 C42.0127772,21.0026337 45.2728726,21.0026337 48.5332726,21.0027345 M38.6457618,56.1854065 C38.7536972,56.4048905 38.7785742,56.492301 38.8313742,56.5573296 C39.8152818,57.7689781 40.7899495,58.9883897 41.7939618,60.183403 C42.3840018,60.8857116 43.0217649,61.5485996 43.6392203,62.2281229 C43.6589188,62.2497991 43.6895834,62.2665352 43.7182172,62.2737942 C43.7451249,62.2807507 43.7760942,62.2720802 43.8951988,62.2646196 C45.4090357,60.6264038 46.852608,58.8488556 48.2394203,57.0244262 C48.4174172,56.7901218 48.5731772,56.5391821 48.7273126,56.3133464 C48.6615157,56.2397482 48.6424265,56.2000253 48.6241495,56.2004286 C45.341208,56.2721113 42.0581649,56.3128423 38.6457618,56.1854065 M30.8353218,51.8095386 C30.7686111,51.658511 30.726168,51.5146416 30.648288,51.3930533 C28.9976788,48.8168131 27.4559188,46.1783672 26.0276788,43.4741871 C25.9683803,43.3617734 25.9327403,43.1817098 25.6753403,43.220122 C25.439568,43.7910627 25.1898849,44.3789411 24.953808,44.9720621 C24.7053434,45.5962356 24.4633772,46.2229295 24.2308542,46.8529504 C24.0088911,47.4543386 23.7890603,48.0572391 23.5938018,48.6672978 C23.3932634,49.2938909 23.0871249,49.8950774 23.0352388,50.5544368 C24.1832326,50.9812057 29.5580695,51.8445229 30.8353218,51.8095386 M56.5706511,51.7355371 C56.6697526,51.7545919 56.7294572,51.7813091 56.7853034,51.7748567 C59.197248,51.4910498 61.5886818,51.084344 63.9613311,50.5705679 C64.1244018,50.5352811 64.2714295,50.427001 64.4135834,50.3586454 C64.0949557,48.9348727 62.2191342,44.2255947 61.7018972,43.2027811 C61.6718418,43.1432976 61.5630942,43.1230329 61.5215649,43.1008526 C59.8551157,45.9454742 58.2029834,48.7653951 56.5529834,51.5866267 C56.5410018,51.6071939 56.5587711,51.6447995 56.5706511,51.7355371 M68.0979065,49.4287873 C68.2508234,49.4415914 68.2843311,49.4535889 68.3117465,49.4454225 C71.5391465,48.4946948 74.6398265,47.2493726 77.5309311,45.5208226 C78.6673495,44.8415009 79.7450788,44.0801122 80.7319311,43.1967319 C81.4435126,42.5596536 82.1027003,41.8734762 82.6212572,41.0703482 C83.8380942,39.1857296 83.8361649,37.8334379 82.5687618,35.9739234 C82.0128388,35.1580922 81.3168942,34.4659664 80.5657126,33.8267709 C79.3207495,32.767259 77.9493711,31.8949688 76.5113834,31.1207761 C73.9303772,29.7313828 71.2015311,28.7053429 68.3943988,27.8733806 C68.2580326,27.8329519 68.1058265,27.8451511 67.9455988,27.8315405 C67.8852849,27.9845844 67.8376634,28.0944777 67.7981649,28.2071939 C67.3935342,29.360972 67.0019003,30.5194887 66.583968,31.6686291 C65.7996849,33.8252586 64.8979218,35.9347047 63.9343218,38.0176351 C63.7673926,38.3784681 63.6954018,38.7014937 63.9237618,39.0518414 C63.9900665,39.1534674 64.0293618,39.2723336 64.0810449,39.383235 C65.5050203,42.4353432 66.7873495,45.5436078 67.8491372,48.7394845 C67.9249865,48.967639 68.012208,49.1920632 68.0979065,49.4287873 M53.646648,21.3805051 C54.0699618,21.4403919 54.4033126,21.500682 54.7394049,21.5329442 C58.112208,21.8563731 61.4487618,22.4039237 64.7594234,23.1153059 C64.9309218,23.1521051 65.1094265,23.1572469 65.2629526,23.1746886 C65.3229618,23.0789101 65.3715988,23.0313233 65.3851034,22.9753685 C66.2914357,19.2412166 66.778008,15.4624016 66.5316757,11.6162392 C66.4358234,10.1191707 66.1809618,8.64297185 65.6522511,7.22565158 C65.4051065,6.56316677 65.0945003,5.93485976 64.6808326,5.35817232 C63.9512788,4.34120621 62.9496018,3.83206783 61.7024049,3.7718786 C60.8639003,3.73134917 60.0463126,3.85858336 59.2357311,4.05508053 C57.3636665,4.50907065 55.6499003,5.32903549 54.0003065,6.29387793 C51.3065926,7.86958561 48.8953588,9.80995735 46.6355188,11.9436 C46.530528,12.0429072 46.4562018,12.174275 46.3466418,12.3180436 C48.9948665,15.1849464 51.3959465,18.2049939 53.646648,21.3805051 M33.5689403,21.4052059 C34.8123803,19.7965303 35.9648418,18.2454225 37.1825926,16.7466401 C38.4153711,15.2296094 39.7128295,13.7643999 40.983888,12.2741871 C40.9159588,12.181534 40.8721957,12.0972489 40.8068049,12.0359507 C38.1721865,9.57051108 35.3389588,7.37355376 32.1128788,5.70962904 C30.9073126,5.08797611 29.6603188,4.56754595 28.3455988,4.21860973 C27.2669557,3.93238322 26.1762295,3.78710234 25.0544326,3.90627097 C23.9781249,4.02060026 23.1313957,4.50594525 22.4878449,5.36069281 C22.0216818,5.97982525 21.696048,6.67013624 21.4455526,7.39694388 C21.0239649,8.61978337 20.7965188,9.88325311 20.7039157,11.1684999 C20.4216388,15.0837236 20.9518726,18.9208122 21.8690695,22.7174723 C21.9081618,22.8792875 22.0259465,23.022552 22.1080911,23.1763017 C25.9205557,22.3353664 29.726928,21.7845896 33.5689403,21.4052059 M46.4445249,65.0098333 C46.5554049,65.1573322 46.6006911,65.2391976 46.6654726,65.3007983 C49.0520326,67.5716563 51.6170972,69.6107303 54.5049526,71.2276731 C55.7134634,71.9043735 56.967768,72.4814642 58.2925403,72.8991593 C59.3847895,73.2435587 60.4971434,73.4396526 61.6513311,73.4056764 C63.0558111,73.3642396 64.1201372,72.7554916 64.8908142,71.60252 C65.3891649,70.8568591 65.7395742,70.044859 65.9958572,69.1925311 C66.5103526,67.4820278 66.713328,65.7261557 66.7467342,63.9461877 C66.8074542,60.7165365 66.3406818,57.5494941 65.6042234,54.4145123 C65.5784326,54.3045183 65.501568,54.2063201 65.439528,54.0849334 C65.2928049,54.0966285 65.170248,54.0917892 65.0545957,54.1176998 C62.0805342,54.7829067 59.077128,55.2692599 56.045088,55.5830101 C55.4331157,55.6463247 54.8215495,55.7152853 54.2085618,55.7678122 C53.8804911,55.79584 53.6174049,55.9084554 53.4414388,56.1982106 C53.3462972,56.3548841 53.2338942,56.5014756 53.1274818,56.6512933 C51.4059988,59.0760019 49.5861249,61.4248941 47.6299865,63.6684301 C47.2477957,64.1067932 46.8598172,64.5402161 46.4445249,65.0098333 M21.9501988,54.2869757 C21.8959772,54.4573606 21.8423649,54.5980038 21.8065218,54.7428814 C21.120528,57.5117876 20.6826942,60.3178962 20.5945588,63.1695753 C20.5309957,65.2248812 20.6754849,67.2648626 21.2515126,69.2549383 C21.5081003,70.141444 21.8640942,70.9844965 22.402248,71.7429615 C23.122968,72.758617 24.1068757,73.2995135 25.3587434,73.3722043 C26.3824542,73.431587 27.3857557,73.3277429 28.3779895,73.0731737 C30.1193742,72.626241 31.7422634,71.9010465 33.302808,71.0275465 C36.0013957,69.5171698 38.4189249,67.6333578 40.6777495,65.5403454 C40.8303618,65.3988956 40.9553557,65.2282083 41.1349772,65.0235447 C38.4367957,62.1224641 35.9838295,59.0712633 33.6964726,55.8925259 C32.8537034,55.8133826 32.0568295,55.7473459 31.2622911,55.6613468 C30.4973003,55.5786749 29.7339342,55.4806783 28.9710757,55.379758 C28.1781618,55.274805 27.3855526,55.1669281 26.5951772,55.0445333 C25.8351618,54.9268769 25.0817465,54.7622387 24.3191926,54.6674684 C23.5343003,54.569976 22.7816972,54.2572339 21.9501988,54.2869757 M19.3156818,49.7214663 C20.537088,45.8404203 21.9979218,42.1817822 23.6080172,38.6462446 C23.534808,38.4525704 23.4982542,38.3350149 23.4471803,38.2239118 C21.9507065,34.9665352 20.6332449,31.6406013 19.5480018,28.2248373 C19.4957095,28.0600982 19.3830018,27.9142124 19.2859311,27.7367702 C18.3499495,27.9519189 17.4780388,28.2496389 16.6059249,28.5440317 C14.0922388,29.3925285 11.668008,30.4373208 9.39923261,31.8175395 C8.107968,32.6030241 6.89174031,33.4863035 5.82822646,34.5638622 C5.17817723,35.2225158 4.61179569,35.9413587 4.19041108,36.7703973 C3.60961108,37.9131862 3.57315877,39.0664602 4.147968,40.2078376 C4.42171569,40.7514562 4.75110646,41.2766249 5.12101108,41.7605584 C5.49152492,42.2452985 5.92489108,42.6876943 6.36445108,43.1143624 C7.35993415,44.0810196 8.48589415,44.8836435 9.66648185,45.6112577 C12.0860418,47.1021761 14.6763895,48.2252044 17.3713218,49.1197756 C17.9800449,49.3218179 18.5969926,49.4998651 19.3156818,49.7214663 M59.5344572,38.6066225 C59.4774942,38.4664835 59.4405342,38.3506419 59.3853988,38.2440757 C58.8797372,37.2645136 58.3829095,36.280213 57.8606972,35.3094222 C56.0601157,31.9623163 54.1101711,28.703629 52.0037557,25.5364858 C51.7224942,25.1136489 51.4205188,24.8953747 50.8915034,24.8826715 C49.1978418,24.8419404 47.5061095,24.7238808 45.812448,24.6899046 C42.6385588,24.6261867 39.4659895,24.6789153 36.2966695,24.8884182 C35.8924449,24.9152362 35.5783865,25.0132327 35.3851588,25.3828369 C35.3428172,25.4638958 35.2855495,25.5372924 35.2340695,25.6135119 C32.5501034,29.5795486 30.1582634,33.7125425 28.0510357,38.0080573 C27.9452326,38.223811 27.8600418,38.449445 27.7735311,38.6510839 C27.9098972,38.941444 28.0218942,39.1926862 28.1443495,39.4388874 C30.219288,43.6132172 32.5566018,47.6370235 35.1756849,51.4983088 C35.7602418,52.3600129 35.577168,52.327045 36.7197803,52.3871334 C41.2160049,52.6232526 45.7124326,52.639787 50.2083526,52.3844112 C50.6960418,52.3566859 51.1813957,52.2904475 51.6530418,52.2435664 C54.5913618,47.8266649 57.2323772,43.3115653 59.5344572,38.6066225 M18.3112634,24.0884156 C18.2749126,23.8481628 18.2594788,23.6394664 18.2105372,23.4390373 C17.6658849,21.2064907 17.2647065,18.9486384 17.0543188,16.6617501 C16.7926542,13.8177334 16.7870695,10.9782535 17.3775157,8.16468423 C17.6488265,6.87197684 18.0518326,5.62231937 18.6741618,4.45009125 C19.1077311,3.63355427 19.6354265,2.88396143 20.3017218,2.23488561 C21.4403742,1.12556885 22.810128,0.49645529 24.3807249,0.2574123 C26.1889218,-0.0178248843 27.940968,0.256706564 29.6730111,0.748302355 C31.609248,1.29797017 33.4162265,2.14414808 35.1540572,3.1425634 C37.8599557,4.69699816 40.3193188,6.58091099 42.6318572,8.66162345 C42.9706911,8.96650156 43.2771342,9.31372386 43.7109065,9.56778895 C43.9487095,9.35294264 44.1757495,9.15261433 44.3976111,8.94664013 C46.5182418,6.97824057 48.7673188,5.17145464 51.2283065,3.63607476 C53.3223342,2.3295551 55.515768,1.23868831 57.9113649,0.567633844 C59.3541249,0.163549363 60.8184111,0.0113119458 62.2995526,0.122717473 C64.0117957,0.25166559 65.5155803,0.906185663 66.7571926,2.11097847 C67.6289003,2.95685392 68.2789495,3.95204302 68.7780111,5.04895897 C69.4685742,6.56669545 69.8686357,8.16508751 70.0800388,9.81116718 C70.4683218,12.8358524 70.3553095,15.8532787 69.9472265,18.8684869 C69.7296295,20.4766585 69.4221711,22.0665817 69.0651618,23.6484394 C69.032568,23.7925104 69.010128,23.9387995 68.9866726,24.0641181 C69.2742295,24.3650642 69.6338788,24.3768601 69.9471249,24.4716304 C72.1592418,25.1408701 74.3200818,25.9425867 76.4109618,26.9231569 C78.6177988,27.9580689 80.7217772,29.1641724 82.6165865,30.7056014 C83.6691342,31.5617605 84.6330388,32.5043218 85.4403711,33.5973058 C85.9713157,34.3160479 86.4106726,35.0836874 86.7388449,35.9154481 C87.4086942,37.613349 87.4172234,39.3137704 86.7955034,41.0256852 C86.3613249,42.2212026 85.6912726,43.2760768 84.8783557,44.247775 C83.8475372,45.4796882 82.6403465,46.5207502 81.3356788,47.4545402 C78.8451434,49.2370287 76.1172111,50.5758106 73.2648942,51.6727265 C72.2038172,52.080743 71.1170511,52.4229243 70.042368,52.7959564 C69.7576542,52.8947595 69.4738542,52.9964863 69.1503526,53.1107148 C69.2483372,53.5747869 69.3320049,53.9898607 69.4239988,54.4031197 C70.1987372,57.883509 70.6063126,61.3996893 70.4363372,64.9679932 C70.3398757,66.9925492 70.029168,68.9823225 69.349368,70.9039418 C68.9590542,72.0068061 68.4520726,73.0496828 67.7493249,73.9920425 C66.4131803,75.7835039 64.6436695,76.8056118 62.3980449,77.0637096 C60.5447649,77.2766404 58.7790111,76.9272001 57.0387434,76.3801536 C54.7613372,75.6644361 52.6784788,74.5448357 50.6859895,73.2521283 C48.5391618,71.859408 46.555608,70.2608143 44.6758265,68.5323651 C44.4071557,68.2853574 44.1370634,68.0400636 43.8252388,67.7552486 C43.6301834,67.9104097 43.460208,68.0278644 43.3105403,68.1669953 C41.3721711,69.9689419 39.319368,71.627624 37.0928326,73.068536 C34.9688511,74.4431089 32.7417065,75.610296 30.3141249,76.3707773 C28.5352726,76.9280066 26.7250449,77.2278438 24.852168,77.0426384 C22.862928,76.8458387 21.1923157,76.034746 19.8768849,74.5279989 C18.848808,73.3505281 18.1974388,71.9749471 17.7365557,70.5003614 C17.1100634,68.4953644 16.8856634,66.4297748 16.8565218,64.3440214 C16.8234203,61.9830308 17.0523895,59.6381713 17.4695095,57.3147863 C17.6802018,56.1416509 17.9500911,54.9790006 18.1919557,53.8114102 C18.2220111,53.6662301 18.2446542,53.5196386 18.2701403,53.3772815 C17.9751711,53.1102107 17.6226295,53.088232 17.3089772,52.9920503 C15.0101465,52.2872213 12.7738634,51.4257188 10.6178972,50.3654003 C8.457768,49.3029646 6.41146338,48.0602637 4.57209415,46.5016953 C3.44207261,45.5441119 2.42506338,44.4830877 1.596408,43.2523843 C0.974992615,42.3293819 0.499081846,41.339637 0.220561846,40.2626833 C-0.193918154,38.6603593 -0.00718892348,37.1070336 0.637072615,35.5966569 C1.24752185,34.1655244 2.178528,32.9553882 3.27473723,31.8635132 C4.49939261,30.6435974 5.88254954,29.6236068 7.35516185,28.7201634 C9.85615569,27.1856909 12.5298665,26.020016 15.3037957,25.0730186 C16.0892972,24.8049396 16.887288,24.5726516 17.6781711,24.3197963 C17.8782018,24.2558767 18.0730542,24.1761285 18.3112634,24.0884156" id="Fill-11" fill="#FF5A00" mask="url(#mask-2)"></path>
            </g>
            <path d="M51.412812,38.5303728 C51.492012,42.4328933 48.2761874,46.2445754 43.6919289,46.2771401 C39.058932,46.3099064 35.8380305,42.4871341 35.8320316,38.5589047 C35.826252,34.6923768 38.9362735,30.7903604 43.6619751,30.8104464 C48.3753905,30.8304865 51.4764766,34.7232275 51.412812,38.5303728" id="Fill-14" fill="#FF5A00"></path>
        </g>
    </g>
</svg>