<svg width="231" height="92" viewBox="0 0 231 92" fill="none" xmlns="http://www.w3.org/2000/svg">
<path fill-rule="evenodd" clip-rule="evenodd" d="M105.293 45.0144C105.498 45.0384 105.619 45.0647 105.739 45.0648C108.786 45.0663 111.834 45.0726 114.881 45.0588C115.682 45.0553 116.482 44.9536 117.249 44.716C119.701 43.9568 121.312 42.3737 121.948 39.8776C122.207 38.8601 122.242 37.8296 122.056 36.7871C121.65 34.5156 120.425 32.8675 118.319 31.8855C117.302 31.4117 116.22 31.1757 115.1 31.1701C111.991 31.1545 108.882 31.1586 105.773 31.1621C105.602 31.1623 105.431 31.2267 105.222 31.269C105.222 35.7416 105.221 40.171 105.224 44.6005C105.224 44.717 105.262 44.8335 105.293 45.0144ZM100.701 27.1171H101.55C106.202 27.1181 110.853 27.1165 115.504 27.1215C117.12 27.1233 118.696 27.3787 120.201 27.9728C123.811 29.3979 125.984 32.0152 126.692 35.808C127.045 37.6989 127.001 39.595 126.442 41.4394C125.289 45.2362 122.671 47.4946 118.829 48.4126C118.411 48.5124 117.984 48.574 117.522 48.6606C117.475 48.9945 117.731 49.2027 117.887 49.4376C119.972 52.5779 122.064 55.713 124.155 58.8495C124.987 60.099 125.821 61.3478 126.652 62.5988C126.802 62.8248 126.939 63.0594 127.123 63.3572C126.965 63.4033 126.862 63.4589 126.76 63.4592C125.158 63.4647 123.557 63.463 121.981 63.463C121.636 63.2723 121.511 62.9447 121.332 62.6666C118.596 58.4155 115.865 54.1608 113.132 49.9076C112.951 49.626 112.762 49.3497 112.598 49.1043C111.744 48.9853 106.134 48.9877 105.312 49.1063C105.158 49.3966 105.222 49.7372 105.222 50.0614C105.216 53.487 105.218 56.9128 105.218 60.3383C105.218 61.1336 105.221 61.929 105.216 62.7241C105.215 62.9326 105.191 63.1409 105.178 63.3362C104.506 63.4948 102.178 63.532 100.782 63.4106C100.747 63.2563 100.692 63.0886 100.677 62.9172C100.657 62.7049 100.67 62.4894 100.67 62.2754C100.67 50.9584 100.67 39.6415 100.671 28.3246C100.671 27.9622 100.689 27.5998 100.701 27.1171Z" fill="#FF5A00"/>
<path fill-rule="evenodd" clip-rule="evenodd" d="M135.166 48.4819C135.426 48.6427 135.709 48.5861 135.98 48.5875C137.242 48.5932 138.504 48.5901 139.766 48.5901C143.644 48.5901 147.522 48.5928 151.4 48.5851C151.727 48.5845 152.075 48.6803 152.399 48.4614C152.485 47.5306 152.276 46.6381 151.978 45.7716C151.047 43.0643 149.308 41.1361 146.499 40.2612C145.638 39.9932 144.754 39.8935 143.859 39.8843C141.681 39.8619 139.731 40.4855 138.117 41.9802C136.429 43.5432 135.507 45.5027 135.171 47.7493C135.135 47.9864 135.166 48.233 135.166 48.4819ZM156.478 51.6426C152.843 51.6426 149.305 51.6426 145.766 51.6427C142.262 51.6428 138.759 51.6422 135.221 51.643C135.196 51.8546 135.161 51.9712 135.173 52.0827C135.485 54.9213 136.665 57.294 139.006 59.0251C140.403 60.0586 142.003 60.5866 143.726 60.6973C146.978 60.9062 149.865 59.9791 152.335 57.8387C152.493 57.702 152.66 57.5767 152.875 57.405C153.515 58.2714 154.13 59.105 154.781 59.9862C154.622 60.1603 154.496 60.3244 154.343 60.4595C152.293 62.2781 149.908 63.4085 147.197 63.8585C144.859 64.2464 142.526 64.2315 140.239 63.5782C136.19 62.4216 133.313 59.9054 131.801 55.9931C130.267 52.0235 130.304 48.0179 132.065 44.1198C133.704 40.4924 136.456 38.0414 140.35 36.9597C143.039 36.2131 145.723 36.3253 148.344 37.2628C151.361 38.3421 153.505 40.4134 154.918 43.2439C155.803 45.0168 156.292 46.9049 156.447 48.8756C156.5 49.5459 156.521 50.219 156.542 50.8913C156.549 51.0984 156.508 51.307 156.478 51.6426Z" fill="#FF5A00"/>
<path fill-rule="evenodd" clip-rule="evenodd" d="M179.739 55.4592C179.739 54.7557 179.728 54.052 179.744 53.3487C179.751 53.0209 179.646 52.7623 179.431 52.5193C178.814 51.8203 178.09 51.2591 177.265 50.8267C175.499 49.9007 173.608 49.5739 171.632 49.7373C170.771 49.8086 169.94 50.0352 169.149 50.4041C166.402 51.6857 165.367 54.5752 166.197 57.1674C166.83 59.1455 168.248 60.3616 170.212 60.8684C173.149 61.626 175.892 61.0964 178.357 59.3139C178.751 59.0289 179.077 58.6493 179.426 58.3058C179.656 58.0806 179.752 57.8066 179.744 57.4779C179.728 56.8055 179.739 56.1322 179.739 55.4592ZM183.815 63.4064C182.651 63.5201 180.54 63.4994 179.795 63.3714C179.687 62.942 179.754 62.4848 179.742 62.0349C179.731 61.6123 179.74 61.1893 179.74 60.7917C179.489 60.6871 179.398 60.8398 179.295 60.938C176.515 63.583 173.158 64.4445 169.424 63.9952C167.583 63.7738 165.942 63.0003 164.538 61.7783C163.016 60.4534 162.116 58.7782 161.844 56.798C161.656 55.4268 161.714 54.054 162.119 52.7095C162.741 50.6442 164.002 49.0881 165.886 48.0352C167.334 47.226 168.9 46.8202 170.56 46.7645C172.27 46.707 173.939 46.92 175.555 47.4934C176.877 47.9625 178.058 48.6634 179.079 49.6229C179.213 49.7487 179.348 49.8738 179.485 49.9969C179.506 50.0167 179.539 50.0242 179.57 50.0387C179.786 49.9959 179.736 49.8182 179.736 49.6818C179.739 48.2749 179.76 46.8676 179.73 45.4615C179.684 43.3401 178.675 41.808 176.772 40.8493C176.106 40.5138 175.399 40.2883 174.667 40.1904C171.344 39.7461 168.37 40.5018 165.86 42.7882C165.568 43.0541 165.283 43.3266 164.997 43.5938C164.489 43.1201 163.559 41.7908 163.081 40.856C163.184 40.7364 163.291 40.5915 163.419 40.468C165.704 38.2573 168.424 36.9733 171.605 36.6247C173.619 36.4041 175.605 36.4818 177.557 37.0204C178.263 37.2155 178.968 37.4703 179.619 37.8031C181.778 38.9062 183.082 40.6779 183.614 43.0245C183.812 43.8972 183.842 44.7812 183.842 45.6689C183.843 48.6661 183.842 51.6634 183.843 54.6604C183.843 57.2295 183.844 59.7985 183.841 62.3675C183.841 62.6984 183.825 63.0292 183.815 63.4064Z" fill="#FF5A00"/>
<path fill-rule="evenodd" clip-rule="evenodd" d="M213.538 41.0752C212.607 41.9102 211.747 42.6821 210.844 43.4928C210.678 43.3169 210.55 43.1945 210.437 43.0594C208.397 40.6129 205.734 39.8509 202.658 40.2495C200.7 40.5032 199.011 41.3231 197.639 42.7469C196.734 43.6872 196.054 44.7739 195.622 46.0037C194.612 48.8806 194.599 51.7708 195.651 54.6292C196.549 57.0678 198.167 58.8808 200.643 59.8513C202.35 60.5205 204.116 60.652 205.907 60.2886C207.556 59.954 208.937 59.1242 210.077 57.8983C210.202 57.7635 210.321 57.6226 210.444 57.4861C210.545 57.3744 210.649 57.2651 210.778 57.1271C211.181 57.2772 211.413 57.6137 211.707 57.8658C212.009 58.1257 212.296 58.4037 212.591 58.6735C212.883 58.9419 213.177 59.21 213.498 59.5046C213.366 59.7089 213.271 59.8968 213.138 60.0534C211.094 62.4716 208.482 63.7835 205.314 64.0519C203.483 64.207 201.679 64.1033 199.919 63.5806C196.395 62.5344 193.766 60.3669 192.182 57.0878C190.078 52.736 189.993 48.2607 192.006 43.8712C193.938 39.6594 197.337 37.2643 201.971 36.6281C204.143 36.3298 206.271 36.5059 208.348 37.2092C210.453 37.9225 212.112 39.2362 213.538 41.0752Z" fill="#FF5A00"/>
<path fill-rule="evenodd" clip-rule="evenodd" d="M224.365 37.1508C225.062 37.1593 225.642 37.1689 226.221 37.1725C226.776 37.1759 227.33 37.1682 227.884 37.1746C228.462 37.1815 229.042 37.1387 229.6 37.213C229.753 37.9889 229.764 39.7675 229.628 40.6594C229.228 40.8068 228.796 40.7166 228.375 40.7322C227.944 40.7482 227.512 40.7358 227.081 40.7358H225.787H224.469C224.421 40.961 224.357 41.1317 224.354 41.3036C224.341 42.0068 224.347 42.7103 224.347 43.4136C224.347 47.8175 224.343 52.2212 224.353 56.6251C224.354 57.1423 224.407 57.6627 224.48 58.1751C224.523 58.4729 224.626 58.7713 224.753 59.0459C225.212 60.0364 226.119 60.5572 227.218 60.4676C227.965 60.4068 228.669 60.2029 229.29 59.7651C229.439 59.6598 229.593 59.5603 229.796 59.4234C230.246 60.3963 230.581 61.3741 230.98 62.3738C230.828 62.5292 230.699 62.6951 230.537 62.8203C230.049 63.1991 229.51 63.491 228.921 63.688C227.267 64.2406 225.591 64.2779 223.918 63.8297C222.324 63.4025 221.214 62.3895 220.665 60.8414C220.443 60.2144 220.331 59.5404 220.242 58.8781C220.17 58.3359 220.198 57.7792 220.197 57.2289C220.195 52.1524 220.196 47.0757 220.196 41.9991V40.8506C219.951 40.8075 219.751 40.7435 219.55 40.7413C218.564 40.7304 217.579 40.739 216.593 40.7333C216.355 40.7319 216.118 40.7022 215.895 40.6865C215.753 39.8424 215.754 38.0448 215.899 37.2264C217.278 37.0753 218.689 37.2713 220.136 37.1123C220.158 36.8041 220.192 36.5376 220.193 36.2709C220.198 34.5277 220.196 32.7846 220.196 31.0414V30.1043C220.902 29.8639 221.579 29.9983 222.24 29.9838C222.907 29.9693 223.581 29.9287 224.291 30.0308C224.403 31.2372 224.329 32.3935 224.345 33.5468C224.361 34.7046 224.333 35.8632 224.365 37.1508Z" fill="#FF5A00"/>
<mask id="mask0" mask-type="alpha" maskUnits="userSpaceOnUse" x="0" y="7" width="88" height="78">
<path d="M0 7.10082H87.2518V84.1404H0V7.10082Z" fill="white"/>
</mask>
<g mask="url(#mask0)">
<path fill-rule="evenodd" clip-rule="evenodd" d="M25.7899 41.2108C27.3176 38.3399 28.8692 35.6068 30.5645 32.9572C30.6136 32.8804 30.6604 32.8002 30.6934 32.7159C30.7144 32.662 30.708 32.5974 30.7203 32.4741C28.1571 32.7824 25.6297 33.1972 23.1293 33.7762C23.1187 33.9203 23.0861 34.0157 23.1098 34.0942C23.762 36.2581 24.5627 38.369 25.4268 40.4568C25.5181 40.6771 25.6333 40.8876 25.7899 41.2108ZM61.5215 41.0387C62.131 40.1598 64.0123 35.1556 64.2176 33.8136C61.6955 33.2382 59.1479 32.7909 56.5586 32.4877C56.5674 32.6105 56.5509 32.6833 56.5791 32.7285C58.2585 35.4269 59.8502 38.1754 61.3794 40.96C61.4015 41 61.473 41.0132 61.5215 41.0387ZM48.5333 28.0162C48.551 27.9606 48.6009 27.8883 48.5818 27.8519C48.1363 27.0057 44.5036 22.7116 43.6674 22.0356C43.5962 22.0843 43.5092 22.1238 43.4491 22.1881C41.7928 23.9621 40.2349 25.8182 38.7709 27.7516C38.7265 27.8103 38.7395 27.9118 38.7219 28.0161C42.0128 28.0161 45.2729 28.0161 48.5333 28.0162ZM38.6458 63.1989C38.7537 63.4184 38.7786 63.5058 38.8314 63.5708C39.8153 64.7825 40.79 66.0019 41.794 67.1969C42.384 67.8992 43.0218 68.5621 43.6393 69.2416C43.659 69.2633 43.6896 69.28 43.7182 69.2873C43.7452 69.2943 43.7761 69.2856 43.8952 69.2781C45.4091 67.6399 46.8526 65.8624 48.2395 64.0379C48.4174 63.8036 48.5732 63.5527 48.7273 63.3269C48.6615 63.2533 48.6425 63.2135 48.6242 63.2139C45.3412 63.2856 42.0582 63.3263 38.6458 63.1989ZM30.8354 58.823C30.7686 58.672 30.7262 58.5282 30.6483 58.4066C28.9977 55.8303 27.4559 53.1919 26.0277 50.4877C25.9684 50.3753 25.9328 50.1952 25.6754 50.2336C25.4396 50.8046 25.1899 51.3924 24.9538 51.9856C24.7054 52.6097 24.4634 53.2364 24.2309 53.8665C24.0089 54.4678 23.7891 55.0707 23.5938 55.6808C23.3933 56.3074 23.0872 56.9086 23.0353 57.5679C24.1833 57.9947 29.5581 58.858 30.8354 58.823ZM56.5707 58.749C56.6698 58.7681 56.7295 58.7948 56.7853 58.7884C59.1973 58.5046 61.5887 58.0979 63.9614 57.5841C64.1244 57.5488 64.2715 57.4405 64.4136 57.3722C64.095 55.9484 62.2192 51.2391 61.7019 50.2163C61.6719 50.1568 61.5631 50.1365 61.5216 50.1144C59.8551 52.959 58.203 55.7789 56.553 58.6001C56.541 58.6207 56.5588 58.6583 56.5707 58.749ZM68.0979 56.4423C68.2509 56.4551 68.2844 56.4671 68.3118 56.4589C71.5392 55.5082 74.6399 54.2629 77.531 52.5343C78.6674 51.855 79.7451 51.0936 80.732 50.2102C81.4435 49.5732 82.1027 48.887 82.6213 48.0839C83.8381 46.1992 83.8362 44.8469 82.5688 42.9874C82.0129 42.1716 81.3169 41.4795 80.5657 40.8403C79.3208 39.7808 77.9494 38.9085 76.5114 38.1343C73.9304 36.7449 71.2016 35.7189 68.3944 34.8869C68.2581 34.8465 68.1059 34.8587 67.9456 34.845C67.8853 34.9981 67.8377 35.108 67.7982 35.2207C67.3936 36.3745 67.0019 37.533 66.584 38.6821C65.7997 40.8388 64.898 42.9482 63.9344 45.0311C63.7674 45.392 63.6954 45.715 63.9238 46.0653C63.9901 46.167 64.0294 46.2858 64.0811 46.3967C65.5051 49.4489 66.7874 52.5571 67.8492 55.753C67.925 55.9811 68.0122 56.2056 68.0979 56.4423ZM53.6467 28.394C54.07 28.4539 54.4033 28.5142 54.7394 28.5465C58.1122 28.8699 61.4488 29.4174 64.7595 30.1288C64.931 30.1656 65.1095 30.1708 65.263 30.1882C65.323 30.0924 65.3716 30.0448 65.3851 29.9889C66.2915 26.2547 66.778 22.4759 66.5317 18.6297C66.4359 17.1327 66.181 15.6565 65.6523 14.2392C65.4051 13.5767 65.0945 12.9484 64.6809 12.3717C63.9513 11.3547 62.9496 10.8456 61.7024 10.7854C60.8639 10.7449 60.0463 10.8721 59.2358 11.0686C57.3637 11.5226 55.6499 12.3425 54.0003 13.3074C51.3066 14.8831 48.8954 16.8235 46.6355 18.9571C46.5306 19.0564 46.4562 19.1878 46.3467 19.3316C48.9949 22.1985 51.396 25.2185 53.6467 28.394ZM33.569 28.4187C34.8124 26.81 35.9649 25.2589 37.1826 23.7601C38.4154 22.2431 39.7129 20.7779 40.9839 19.2877C40.916 19.195 40.8722 19.1108 40.8068 19.0495C38.1722 16.584 35.339 14.3871 32.1129 12.7231C30.9073 12.1015 29.6603 11.5811 28.3456 11.2321C27.267 10.9459 26.1763 10.8006 25.0545 10.9198C23.9782 11.0341 23.1314 11.5195 22.4879 12.3742C22.0217 12.9933 21.6961 13.6836 21.4456 14.4105C21.024 15.6333 20.7966 16.8968 20.7039 18.182C20.4217 22.0972 20.9519 25.9343 21.8691 29.731C21.9082 29.8928 22.026 30.0361 22.1081 30.1898C25.9206 29.3489 29.727 28.7981 33.569 28.4187ZM46.4446 72.0233C46.5554 72.1708 46.6007 72.2527 46.6655 72.3143C49.0521 74.5852 51.6171 76.6242 54.505 78.2412C55.7135 78.9179 56.9678 79.495 58.2926 79.9127C59.3848 80.2571 60.4972 80.4532 61.6514 80.4192C63.0558 80.3778 64.1202 79.769 64.8908 78.616C65.3892 77.8704 65.7396 77.0584 65.9959 76.206C66.5104 74.4955 66.7134 72.7397 66.7468 70.9597C66.8075 67.73 66.3407 64.563 65.6043 61.428C65.5785 61.318 65.5016 61.2198 65.4396 61.0984C65.2928 61.1101 65.1703 61.1053 65.0546 61.1312C62.0806 61.7964 59.0772 62.2828 56.0451 62.5965C55.4331 62.6598 54.8216 62.7288 54.2086 62.7813C53.8805 62.8093 53.6174 62.922 53.4415 63.2117C53.3463 63.3684 53.2339 63.515 53.1275 63.6648C51.406 66.0895 49.5862 68.4384 47.63 70.6819C47.2478 71.1203 46.8598 71.5537 46.4446 72.0233ZM21.9502 61.3005C21.896 61.4709 21.8424 61.6115 21.8066 61.7564C21.1206 64.5253 20.6827 67.3314 20.5946 70.1831C20.531 72.2384 20.6755 74.2784 21.2515 76.2684C21.5081 77.155 21.8641 77.998 22.4023 78.7565C23.123 79.7721 24.1069 80.313 25.3588 80.3857C26.3825 80.4451 27.3858 80.3413 28.378 80.0867C30.1194 79.6398 31.7423 78.9146 33.3028 78.0411C36.0014 76.5307 38.419 74.6469 40.6778 72.5539C40.8304 72.4124 40.9554 72.2417 41.135 72.0371C38.4368 69.136 35.9839 66.0848 33.6965 62.906C32.8537 62.8269 32.0569 62.7609 31.2623 62.6749C30.4973 62.5922 29.734 62.4942 28.9711 62.3933C28.1782 62.2883 27.3856 62.1804 26.5952 62.058C25.8352 61.9404 25.0818 61.7757 24.3192 61.681C23.5343 61.5835 22.7817 61.2707 21.9502 61.3005ZM19.3157 56.735C20.5371 52.8539 21.998 49.1953 23.608 45.6598C23.5348 45.4661 23.4983 45.3485 23.4472 45.2374C21.9507 41.98 20.6333 38.6541 19.548 35.2383C19.4957 35.0736 19.383 34.9277 19.286 34.7503C18.35 34.9654 17.4781 35.2631 16.606 35.5575C14.0923 36.406 11.668 37.4508 9.39926 38.831C8.108 39.6165 6.89177 40.4998 5.82826 41.5774C5.17821 42.236 4.61183 42.9549 4.19044 43.7839C3.60964 44.9267 3.57319 46.08 4.148 47.2213C4.42175 47.765 4.75114 48.2901 5.12104 48.7741C5.49156 49.2588 5.92492 49.7012 6.36448 50.1279C7.35996 51.0945 8.48592 51.8972 9.66651 52.6248C12.0861 54.1157 14.6764 55.2387 17.3714 56.1333C17.9801 56.3353 18.597 56.5134 19.3157 56.735ZM59.5345 45.6201C59.4775 45.48 59.4406 45.3641 59.3854 45.2576C58.8798 44.278 58.3829 43.2937 57.8607 42.3229C56.0601 38.9758 54.1102 35.7171 52.0038 32.55C51.7225 32.1272 51.4205 31.9089 50.8915 31.8962C49.1979 31.8554 47.5061 31.7374 45.8125 31.7034C42.6386 31.6397 39.466 31.6924 36.2967 31.9019C35.8925 31.9287 35.5784 32.0267 35.3852 32.3963C35.3428 32.4774 35.2856 32.5508 35.2341 32.627C32.5501 36.5931 30.1583 40.726 28.0511 45.0216C27.9453 45.2373 27.8601 45.463 27.7736 45.6646C27.9099 45.955 28.0219 46.2062 28.1444 46.4524C30.2193 50.6267 32.5566 54.6505 35.1757 58.5118C35.7603 59.3735 35.5772 59.3406 36.7198 59.4006C41.216 59.6368 45.7125 59.6533 50.2084 59.3979C50.6961 59.3702 51.1814 59.304 51.6531 59.2571C54.5914 54.8402 57.2324 50.3251 59.5345 45.6201ZM18.3113 31.1019C18.2749 30.8617 18.2595 30.653 18.2106 30.4525C17.6659 28.22 17.2647 25.9621 17.0543 23.6753C16.7927 20.8312 16.7871 17.9918 17.3775 15.1782C17.6489 13.8855 18.0519 12.6358 18.6742 11.4636C19.1078 10.6471 19.6355 9.89747 20.3018 9.24839C21.4404 8.13908 22.8102 7.50996 24.3808 7.27092C26.189 6.99568 27.941 7.27022 29.673 7.76181C31.6093 8.31148 33.4163 9.15766 35.1541 10.1561C37.86 11.7105 40.3194 13.5944 42.6319 15.6751C42.9707 15.98 43.2772 16.3272 43.7109 16.5813C43.9487 16.3665 44.1758 16.1661 44.3976 15.9601C46.5183 13.9917 48.7673 12.185 51.2283 10.6496C53.3224 9.34306 55.5158 8.2522 57.9114 7.58114C59.3542 7.17706 60.8184 7.02482 62.2996 7.13623C64.0118 7.26517 65.5156 7.91969 66.7572 9.12449C67.6289 9.97036 68.279 10.9656 68.778 12.0625C69.4686 13.5802 69.8687 15.1786 70.0801 16.8247C70.4684 19.8494 70.3553 22.8668 69.9473 25.882C69.7297 27.4902 69.4222 29.0801 69.0652 30.6619C69.0326 30.806 69.0102 30.9523 68.9867 31.0776C69.2743 31.3786 69.6339 31.3904 69.9472 31.4851C72.1593 32.1544 74.3201 32.9561 76.411 33.9367C78.6178 34.9716 80.7218 36.1777 82.6166 37.7191C83.6692 38.5753 84.6331 39.5178 85.4404 40.6108C85.9713 41.3296 86.4107 42.0972 86.7389 42.929C87.4087 44.6269 87.4173 46.3273 86.7955 48.0392C86.3614 49.2347 85.6913 50.2896 84.8784 51.2613C83.8476 52.4932 82.6404 53.5343 81.3357 54.468C78.8452 56.2505 76.1172 57.5893 73.2649 58.6862C72.2038 59.0943 71.1171 59.4364 70.0424 59.8095C69.7577 59.9083 69.4739 60.01 69.1504 60.1242C69.2484 60.5883 69.332 61.0034 69.424 61.4166C70.1988 64.897 70.6063 68.4132 70.4364 71.9815C70.3399 74.0061 70.0292 75.9958 69.3494 77.9174C68.9591 79.0203 68.4521 80.0632 67.7494 81.0056C66.4132 82.797 64.6437 83.8191 62.3981 84.0772C60.5448 84.2902 58.779 83.9407 57.0388 83.3937C54.7614 82.6779 52.6785 81.5583 50.686 80.2656C48.5392 78.8729 46.5556 77.2743 44.6759 75.5459C44.4072 75.2989 44.1371 75.0536 43.8253 74.7688C43.6302 74.9239 43.4602 75.0414 43.3106 75.1805C41.3722 76.9825 39.3194 78.6411 37.0929 80.082C34.9689 81.4566 32.7417 82.6238 30.3142 83.3843C28.5353 83.9415 26.7251 84.2414 24.8522 84.0562C22.863 83.8594 21.1923 83.0483 19.8769 81.5415C18.8488 80.364 18.1975 78.9885 17.7366 77.5139C17.1101 75.5089 16.8857 73.4433 16.8566 71.3575C16.8235 68.9965 17.0524 66.6517 17.4695 64.3283C17.6802 63.1552 17.9501 61.9925 18.192 60.8249C18.222 60.6797 18.2447 60.5331 18.2702 60.3908C17.9752 60.1237 17.6227 60.1017 17.309 60.0056C15.0102 59.3007 12.7739 58.4392 10.6179 57.3789C8.4578 56.3165 6.41149 55.0738 4.57212 53.5152C3.4421 52.5576 2.42509 51.4966 1.59644 50.2659C0.975023 49.3429 0.499112 48.3531 0.220592 47.2762C-0.193888 45.6739 -0.00715905 44.1205 0.637102 42.6102C1.24755 41.179 2.17856 39.9689 3.27477 38.877C4.49942 37.6571 5.88258 36.6371 7.35519 35.7337C9.85619 34.1992 12.5299 33.0335 15.3038 32.0865C16.0893 31.8184 16.8873 31.5862 17.6782 31.3333C17.8782 31.2694 18.0731 31.1896 18.3113 31.1019Z" fill="#FF5A00"/>
</g>
<path fill-rule="evenodd" clip-rule="evenodd" d="M51.4128 45.5304C51.492 49.4329 48.2762 53.2446 43.6919 53.2771C39.0589 53.3099 35.838 49.4871 35.832 45.5589C35.8263 41.6924 38.9363 37.7904 43.662 37.8104C48.3754 37.8305 51.4765 41.7232 51.4128 45.5304Z" fill="#FF5A00"/>
</svg>
