<?xml version="1.0" encoding="UTF-8"?>
<svg width="156px" height="92px" viewBox="0 0 156 92" version="1.1" xmlns="http://www.w3.org/2000/svg" xmlns:xlink="http://www.w3.org/1999/xlink">
    <defs>
        <polygon id="path-1" points="0.0703130087 0.0893690645 57.4595242 0.0893690645 57.4595242 48.546746 0.0703130087 48.546746"></polygon>
        <polygon id="path-3" points="0.0950858781 0.0713808709 33.3372283 0.0713808709 33.3372283 38.5229339 0.0950858781 38.5229339"></polygon>
        <polygon id="path-5" points="0 0.0694908827 29.2730982 0.0694908827 29.2730982 40.908668 0 40.908668"></polygon>
    </defs>
    <g id="Page-1" stroke="none" stroke-width="1" fill="none" fill-rule="evenodd">
        <g id="Group-30">
            <g id="Group-3" transform="translate(97.717120, 0.014187)">
                <mask id="mask-2" fill="white">
                    <use xlink:href="#path-1"></use>
                </mask>
                <g id="Clip-2"></g>
                <path d="M44.2334965,40.9541971 C44.0995611,40.6671391 44.0390941,40.5222638 43.9661416,40.3833949 C42.0219114,36.6739056 40.0823246,32.9615167 38.120656,29.2612439 C37.9227453,28.8894769 37.9472004,28.6682807 38.2180635,28.3507772 C41.3102377,24.7253756 44.3864181,21.0854761 47.4661068,17.448994 C47.5740393,17.3215162 47.67155,17.1851326 47.7130308,16.9583444 C46.8124236,17.1945562 45.9118164,17.4278685 45.0121378,17.6671871 C41.2757736,18.6608095 37.5383775,19.6514288 33.8054184,20.6586171 C33.4570626,20.7523356 33.299188,20.6501255 33.1262483,20.3606857 C31.0046414,16.803942 28.871065,13.2547578 26.739965,9.70402026 C26.6294528,9.51948298 26.5109953,9.34043418 26.2766599,9.18541044 C26.1051649,10.1329503 25.9307806,11.0799725 25.762897,12.0279266 C25.1690617,15.3743476 24.5773933,18.7220113 23.9856217,22.0690536 C23.9211305,22.4301543 23.8321841,22.7898053 23.8016411,23.1539091 C23.7717172,23.4994764 23.5952691,23.6269542 23.2838539,23.7252291 C18.8802891,25.1125725 14.4811613,26.5135853 10.0820336,27.9129413 C9.88855985,27.974143 9.70014226,28.0533636 9.49273844,28.2424573 C13.0917621,29.6779544 16.6906827,31.1134515 20.3451172,32.5709025 C20.2122137,32.6768405 20.1257438,32.7583393 20.0282331,32.82213 C17.7782629,34.2831019 15.5246811,35.7383782 13.2801797,37.2069097 C13.011793,37.3825412 12.7983012,37.4073947 12.4964822,37.2711146 C9.80910665,36.0565031 7.11130927,34.864881 4.41990943,33.658554 C3.21139526,33.1169547 2.12443417,32.3974457 1.27779323,31.3584656 C-0.635893904,29.0088773 -0.258130041,26.3359863 2.29180183,24.7033181 C3.1264732,24.1691748 4.0735141,23.7684121 5.01869765,23.4589859 C9.33135557,22.0489637 13.6605232,20.6892698 17.9876272,19.3249159 C18.3500164,19.211004 18.5184159,19.0480064 18.5858995,18.6537677 C19.1621932,15.3037222 19.7603623,11.9570941 20.361627,8.6121229 C20.6834641,6.82349894 20.8544432,4.98868888 21.7220309,3.34949662 C22.0549089,2.7195638 22.4542386,2.10205774 22.9289973,1.57392074 C24.6463215,-0.339074308 27.0437445,-0.413324156 28.8600241,1.40936982 C29.4727424,2.02428698 30.0000228,2.7501129 30.4552793,3.4944754 C32.4564681,6.76830345 34.4246375,10.0631534 36.3822818,13.3635954 C36.613728,13.7537955 36.8225764,13.8326018 37.2509014,13.7171365 C42.0758777,12.4190586 46.9058069,11.1410707 51.7358393,9.86049379 C52.7318936,9.5966324 53.7394014,9.49939306 54.7619745,9.69148995 C56.9880056,10.1097537 57.9611525,11.8106655 57.2079981,13.9684676 C56.8651111,14.9520451 56.2738554,15.7822558 55.6086154,16.5666945 C52.2385614,20.5441875 48.8739762,24.5262369 45.4924686,28.4937884 C45.2160333,28.817816 45.2100486,29.0524745 45.4014585,29.4146108 C47.4186412,33.2305559 49.4182823,37.0557176 51.4254559,40.8771512 C51.9056834,41.7921744 52.2720968,42.7410606 52.2830345,43.7913283 C52.3070769,46.1803715 50.5663294,48.1354104 48.2007909,48.4833595 C46.875883,48.6787702 45.6448743,48.3946118 44.4034438,48.0097967 C41.3782373,47.0712662 38.3474588,46.1483727 35.3152356,45.2332459 C35.0343634,45.1488475 34.9269468,45.0384565 34.8774175,44.7346224 C34.5286489,42.5930787 34.1482022,40.4561949 33.7804474,38.3176543 C33.7699224,38.2589379 33.7873609,38.1954579 33.7964412,38.0645628 C37.2484249,39.0202836 40.6704847,39.96772 44.2334965,40.9541971" id="Fill-1" fill="#FF5A00" mask="url(#mask-2)"></path>
            </g>
            <path d="M136.052135,72.1590473 C133.323795,72.1540766 130.595454,72.1415463 127.866598,72.1526268 C127.506788,72.1534552 127.302377,72.0481385 127.101474,71.7407835 C123.87134,66.8030132 120.626657,61.8749773 117.384554,56.9450773 C117.281058,56.788086 117.171165,56.6365831 116.9877,56.3728253 C116.289544,61.6975854 115.607381,66.9033593 114.923671,72.1223884 L107.778661,72.1223884 C107.862139,71.4235906 107.935607,70.7485073 108.023522,70.0759093 C108.721265,64.729506 109.421485,59.3832062 110.121705,54.0374242 C110.79035,48.9294075 111.457138,43.8212871 112.135792,38.7140988 C112.15581,38.561664 112.256726,38.3692564 112.380653,38.288379 C114.839162,36.6796322 117.306132,35.0847621 119.772999,33.4886492 C119.809011,33.4652455 119.859056,33.4624495 119.986491,33.4263083 C119.24025,39.1377475 118.499581,44.8046575 117.758912,50.4717746 C117.788423,50.491761 117.817315,50.5118509 117.846827,50.5324586 C121.71723,46.2266923 125.588045,41.9209259 129.541925,37.522891 C129.656359,38.1850298 129.755314,38.7515862 129.852309,39.3185568 C130.129673,40.942112 130.39548,42.567842 130.692449,44.1880835 C130.7524,44.5144928 130.66593,44.7176702 130.449033,44.9446656 C127.946051,47.5735452 125.452665,50.2113306 122.957215,52.8466306 C122.848251,52.9615781 122.743827,53.0808749 122.619797,53.2173621 C122.69925,53.3452541 122.76725,53.4680718 122.847735,53.5818802 C127.152344,59.6455142 131.457057,65.7082163 135.765278,71.7692615 C135.843183,71.8792382 135.955656,71.9655006 136.052135,72.0628435 L136.052135,72.1590473" id="Fill-4" fill="#FF5A00"></path>
            <g id="Group-8" transform="translate(24.558263, 42.575816)">
                <mask id="mask-4" fill="white">
                    <use xlink:href="#path-3"></use>
                </mask>
                <g id="Clip-7"></g>
                <path d="M7.91307463,27.5924035 C7.70082108,29.1864452 7.49837019,30.6886326 7.30149135,32.191959 C7.03981171,34.1902844 6.77885437,36.189024 6.52811245,38.1882815 C6.49880763,38.4215938 6.42833161,38.5244251 6.17862154,38.5229905 C4.21602425,38.514898 2.25342697,38.5168655 0.290932863,38.513966 C0.246253335,38.513966 0.201470621,38.489216 0.0950858781,38.4592882 C0.213852938,37.515787 0.329214861,36.5695934 0.452625289,35.6243317 C0.88559365,32.309806 1.31763334,28.9948661 1.75710241,25.6808583 C2.25961812,21.8915271 2.65770962,18.0841771 3.30117738,14.3190781 C4.4408665,7.65233229 10.0763686,1.90713376 16.6894547,0.476607395 C20.5233297,-0.353292584 24.1925199,0.0306940796 27.5395634,2.1957451 C30.8776298,4.35478986 32.7923488,7.4881956 33.2286191,11.4295474 C33.8458776,17.0021176 31.8022794,21.6281835 27.8579954,25.4551056 C25.2693688,27.9675879 22.1700747,29.5642185 18.5952997,30.1037467 C14.9126954,30.6612937 11.4510122,30.0447196 8.34459839,27.8658956 C8.23037151,27.7861573 8.10850887,27.7163604 7.91307463,27.5924035 M26.8018869,13.8206617 C26.6929225,13.2617685 26.6150171,12.4412922 26.3675771,11.6747686 C25.1712389,7.96962871 21.3829721,5.93785462 17.4620082,6.8537063 C13.1605975,7.85830572 10.0867904,11.2520519 9.64205887,15.6569216 C9.3128956,18.9150091 11.0611756,22.0540069 14.3117403,23.2321666 C16.9304972,24.1815705 19.4519497,23.7845358 21.79293,22.3755491 C24.8959387,20.5070832 26.5790052,17.733432 26.8018869,13.8206617" id="Fill-6" fill="#FF5A00" mask="url(#mask-4)"></path>
            </g>
            <g id="Group-11" transform="translate(0.000000, 32.220188)">
                <mask id="mask-6" fill="white">
                    <use xlink:href="#path-5"></use>
                </mask>
                <g id="Clip-10"></g>
                <path d="M29.2730982,6.26861336 C27.0720381,7.91308699 24.9501217,9.49822287 22.8190217,11.090297 C22.4756187,10.5464195 22.1679182,10.0046131 21.8087278,9.50050111 C20.8840782,8.20376945 19.7357215,7.23500051 18.0655533,7.11736058 C16.6764636,7.01970701 15.4884835,7.47897909 14.5429904,8.50667155 C13.6972781,9.42583704 13.5868691,10.7326137 14.3770673,11.7707653 C15.2470283,12.9134052 16.1991253,13.9975359 17.1713436,15.0553632 C18.7830054,16.8088816 20.4676196,18.495192 22.0688596,20.2582375 C23.5259488,21.86191 24.687307,23.6615109 25.0459814,25.8544186 C25.4725523,28.4612407 24.9544555,30.9440023 23.7256137,33.2352884 C21.4518075,37.4749859 17.8710477,39.9349651 13.1439949,40.7046989 C11.0564394,41.04426 8.97445591,40.9766377 6.93746154,40.3748722 C4.23409212,39.5762462 2.35249582,37.798185 1.14253705,35.287256 C0.714934362,34.3994681 0.387938,33.4629051 -4.12743909e-05,32.5115336 C2.36673549,31.2405875 4.66582225,30.0055754 6.99854764,28.7525445 C7.07996137,28.947748 7.13681684,29.1101243 7.21276172,29.2622484 C7.61044048,30.0612886 7.93609542,30.9100359 8.42880847,31.645389 C9.8899219,33.8255592 12.2499916,34.4892514 14.644319,33.4112306 C15.2593074,33.1344246 15.8516981,32.7437068 16.3561744,32.2947904 C17.8990111,30.9203915 18.1883446,29.0068787 17.0462822,27.2774889 C16.3901225,26.2838664 15.5693813,25.3930754 14.7705154,24.5026985 C12.8611621,22.3745135 10.8741098,20.3145721 9.00881684,18.1480713 C7.72301638,16.6548934 6.8494439,14.9133876 6.57300866,12.9134052 C6.27098331,10.7298176 6.70611858,8.6692549 7.83848149,6.83082037 C10.6534981,2.26108911 14.7440998,-0.116148717 20.1547597,0.0808153162 C23.2392982,0.193070317 25.6955372,1.64068347 27.6021045,4.04577793 C28.1663254,4.75720954 28.6950503,5.49711911 29.2730982,6.26861336" id="Fill-9" fill="#FF5A00" mask="url(#mask-6)"></path>
            </g>
            <path d="M81.5373116,63.0218319 C81.1784308,65.7744613 80.840084,68.3908105 80.4882198,71.0050887 C80.4702654,71.1372265 80.3667699,71.3172073 80.2544004,71.370021 C74.9286625,73.8454301 67.9156276,73.4998629 63.5419867,68.5151816 C61.1919261,65.8372164 60.2058809,62.6585565 60.3533337,59.1224204 C60.6941569,50.9367112 67.4567595,43.790707 75.5438573,42.7922174 C80.2688464,42.2087813 84.4125889,43.4895653 87.6137274,47.173062 C89.7938408,49.6824376 90.8023805,52.6790455 90.65338,55.9860116 C90.5554565,58.1704276 90.2141173,60.3452129 89.9432541,62.519584 C89.5594022,65.5993476 89.1400544,68.6750725 88.7347399,71.7523507 C88.7202939,71.8616026 88.6982121,71.9699225 88.673757,72.108895 L82.3025388,72.108895 C82.3874609,71.4018127 82.4649535,70.709539 82.5544158,70.0189223 C83.0156571,66.4644567 83.5229194,62.9158939 83.9273052,59.3552149 C84.1791822,57.1376609 84.0207917,54.9367794 83.0101882,52.8828443 C81.9350936,50.6999816 80.1329505,49.5453291 77.762459,49.293066 C72.8564817,48.7718673 68.1889672,52.193263 67.142455,57.0383504 C66.4512122,60.2367895 67.5407529,63.302573 70.0787152,64.997375 C72.552599,66.6493047 75.2020022,66.6547931 77.897839,65.5833999 C79.2647436,65.0406615 80.4293006,64.1813515 81.5373116,63.0218319" id="Fill-12" fill="#FF5A00"></path>
            <path d="M108.365418,43.4137932 C108.074537,45.6306223 107.788196,47.8145206 107.495251,50.0435694 C106.148364,50.0435694 104.827377,50.0356991 103.50701,50.0463654 C102.436971,50.0547535 101.460316,50.7479592 101.138995,51.7507981 C101.013004,52.1430693 100.966571,52.5626793 100.912604,52.9741084 C100.242412,58.0647277 99.5771716,63.155347 98.9119316,68.2463806 C98.744048,69.529857 98.5806014,70.8143691 98.4126146,72.1175212 L91.780955,72.1175212 C91.9048814,71.1385002 92.0218943,70.191271 92.1453047,69.245388 C92.5766221,65.945878 93.0079395,62.6476106 93.4447257,59.3497575 C93.8220769,56.4955395 94.1584631,53.6352117 94.602782,50.7916599 C95.1984746,46.979857 98.9773515,43.5948096 102.810298,43.4274626 C104.63896,43.3476207 106.474225,43.4137932 108.365418,43.4137932" id="Fill-14" fill="#FF5A00"></path>
            <path d="M139.003388,69.2022361 L139.003388,72.1174487 L138.450105,72.1174487 L138.450105,69.2022361 L137.400084,69.2022361 L137.400084,68.7523876 L140.053409,68.7523876 L140.053409,69.2022361 L139.003388,69.2022361 L139.003388,69.2022361 Z M143.870361,72.1174487 L143.870361,69.307967 L143.854264,69.307967 L142.755746,72.1174487 L142.40543,72.1174487 L141.306912,69.307967 L141.290402,69.307967 L141.290402,72.1174487 L140.737119,72.1174487 L140.737119,68.7523876 L141.591292,68.7523876 L142.5923,71.3088813 L143.577416,68.7523876 L144.424057,68.7523876 L144.424057,72.1174487 L143.870361,72.1174487 Z" id="Fill-16" fill="#FF5A00"></path>
            <path d="M40.058953,35.3776606 L37.3233895,35.3776606 L36.4543572,37.0860285 L34.5171437,37.0860285 L38.7903846,29.0742938 L40.6579476,29.0742938 L42.112973,37.0860285 L40.3170211,37.0860285 L40.058953,35.3776606 L40.058953,35.3776606 Z M38.1566163,33.763529 L39.8007817,33.763529 L39.4131119,31.2653374 L38.1566163,33.763529 Z" id="Fill-18" fill="#FF5A00"></path>
            <path d="M47.4866408,29.0742834 L50.0466849,29.0742834 C51.3851102,29.0742834 52.323793,29.8752912 52.323793,31.2533146 C52.323793,32.9856039 51.1027933,34.151544 49.3651415,34.151544 L48.261877,34.151544 L47.7447089,37.0860181 L46.0784617,37.0860181 L47.4866408,29.0742834 M49.8464009,30.6877937 L48.8718093,30.6877937 L48.5437811,32.5374124 L49.5175472,32.5374124 C50.1051913,32.5374124 50.5749971,32.1492834 50.5749971,31.4182797 C50.5749971,30.9351897 50.2806075,30.6877937 49.8464009,30.6877937" id="Fill-20" fill="#FF5A00"></path>
            <path d="M59.8885221,35.3776606 L57.153165,35.3776606 L56.2840295,37.0860285 L54.3469192,37.0860285 L58.6200569,29.0742938 L60.4873103,29.0742938 L61.9426454,37.0860285 L60.1468998,37.0860285 L59.8885221,35.3776606 L59.8885221,35.3776606 Z M57.9862886,33.763529 L59.6306603,33.763529 L59.2427843,31.2653374 L57.9862886,33.763529 Z" id="Fill-22" fill="#FF5A00"></path>
            <path d="M70.7034341,36.8028746 C70.1401418,37.0618688 69.5184463,37.215857 68.8957189,37.215857 C66.7830892,37.215857 65.4557048,35.6247148 65.4557048,33.6335348 C65.4557048,31.0881216 67.5922737,28.9437818 70.1286882,28.9437818 C70.7624564,28.9437818 71.338131,29.096838 71.8074208,29.3561429 L71.5725696,31.2773189 C71.2207054,30.8879473 70.6564844,30.6171477 69.9522401,30.6171477 C68.4968019,30.6171477 67.2054294,31.9373866 67.2054294,33.4685697 C67.2054294,34.6347169 67.9330969,35.5428018 69.0841365,35.5428018 C69.7887936,35.5428018 70.4689955,35.2716915 70.9268317,34.8946431 L70.7034341,36.8028746" id="Fill-24" fill="#FF5A00"></path>
            <polygon id="Fill-26" fill="#FF5A00" points="80.8915944 33.8573924 77.4166002 33.8573924 76.8522761 37.0860699 75.186029 37.0860699 76.5944144 29.0743352 78.2616934 29.0743352 77.6984011 32.2433643 81.1734985 32.2433643 81.7362748 29.0743352 83.4035538 29.0743352 81.9955812 37.0860699 80.3283021 37.0860699"></polygon>
            <polygon id="Fill-28" fill="#FF5A00" points="87.0054874 37.0860388 88.4133569 29.0743042 92.8400353 29.0743042 92.5581312 30.6878145 89.798835 30.6878145 89.5179627 32.2433332 92.0528295 32.2433332 91.7719572 33.8573613 89.2355427 33.8573613 88.9536386 35.4717001 91.713038 35.4717001 91.4311339 37.0860388"></polygon>
        </g>
    </g>
</svg>