<svg width="156" height="92" viewBox="0 0 156 92" fill="none" xmlns="http://www.w3.org/2000/svg">
<mask id="mask0" mask-type="alpha" maskUnits="userSpaceOnUse" x="97" y="0" width="59" height="49">
<path d="M97.7874 0.103558H155.177V48.5609H97.7874V0.103558Z" fill="white"/>
</mask>
<g mask="url(#mask0)">
<path fill-rule="evenodd" clip-rule="evenodd" d="M141.951 40.9684C141.817 40.6813 141.756 40.5365 141.683 40.3976C139.739 36.6881 137.799 32.9757 135.838 29.2754C135.64 28.9037 135.664 28.6825 135.935 28.365C139.027 24.7396 142.104 21.0997 145.183 17.4632C145.291 17.3357 145.389 17.1993 145.43 16.9725C144.53 17.2087 143.629 17.4421 142.729 17.6814C138.993 18.675 135.255 19.6656 131.523 20.6728C131.174 20.7665 131.016 20.6643 130.843 20.3749C128.722 16.8181 126.588 13.2689 124.457 9.71821C124.347 9.53367 124.228 9.35462 123.994 9.1996C123.822 10.1471 123.648 11.0942 123.48 12.0421C122.886 15.3885 122.295 18.7362 121.703 22.0832C121.638 22.4443 121.549 22.804 121.519 23.1681C121.489 23.5137 121.312 23.6411 121.001 23.7394C116.597 25.1268 112.198 26.5278 107.799 27.9271C107.606 27.9883 107.417 28.0676 107.21 28.2566C110.809 29.6921 114.408 31.1276 118.062 32.5851C117.929 32.691 117.843 32.7725 117.745 32.8363C115.495 34.2973 113.242 35.7526 110.997 37.2211C110.729 37.3967 110.515 37.4216 110.214 37.2853C107.526 36.0707 104.828 34.8791 102.137 33.6727C100.929 33.1311 99.8416 32.4116 98.9949 31.3727C97.0812 29.0231 97.459 26.3502 100.009 24.7175C100.844 24.1834 101.791 23.7826 102.736 23.4732C107.048 22.0632 111.378 20.7035 115.705 19.3391C116.067 19.2252 116.236 19.0622 116.303 18.668C116.879 15.3179 117.477 11.9713 118.079 8.62631C118.401 6.83769 118.572 5.00288 119.439 3.36369C119.772 2.73375 120.171 2.11625 120.646 1.58811C122.363 -0.324886 124.761 -0.399136 126.577 1.42356C127.19 2.03848 127.717 2.7643 128.172 3.50866C130.174 6.78249 132.142 10.0773 134.099 13.3778C134.331 13.768 134.54 13.8468 134.968 13.7313C139.793 12.4332 144.623 11.1553 149.453 9.87468C150.449 9.61082 151.457 9.51358 152.479 9.70568C154.705 10.1239 155.678 11.8249 154.925 13.9827C154.582 14.9662 153.991 15.7964 153.326 16.5809C149.956 20.5584 146.591 24.5404 143.21 28.508C142.933 28.832 142.927 29.0667 143.119 29.4288C145.136 33.2447 147.135 37.0699 149.143 40.8913C149.623 41.8064 149.989 42.7552 150 43.8055C150.024 46.1946 148.283 48.1496 145.918 48.4975C144.593 48.693 143.362 48.4088 142.121 48.024C139.095 47.0855 136.065 46.1626 133.032 45.2474C132.751 45.163 132.644 45.0526 132.595 44.7488C132.246 42.6073 131.865 40.4704 131.498 38.3318C131.487 38.2731 131.504 38.2096 131.514 38.0788C134.966 39.0345 138.388 39.9819 141.951 40.9684Z" fill="#FF5A00"/>
</g>
<path fill-rule="evenodd" clip-rule="evenodd" d="M136.052 72.159C133.324 72.1541 130.595 72.1415 127.867 72.1526C127.507 72.1535 127.302 72.0481 127.101 71.7408C123.871 66.803 120.627 61.875 117.385 56.9451C117.281 56.7881 117.171 56.6366 116.988 56.3728C116.29 61.6976 115.607 66.9034 114.924 72.1224H107.779C107.862 71.4236 107.936 70.7485 108.024 70.0759C108.721 64.7295 109.421 59.3832 110.122 54.0374C110.79 48.9294 111.457 43.8213 112.136 38.7141C112.156 38.5617 112.257 38.3693 112.381 38.2884C114.839 36.6796 117.306 35.0848 119.773 33.4886C119.809 33.4652 119.859 33.4624 119.986 33.4263C119.24 39.1377 118.5 44.8047 117.759 50.4718C117.788 50.4918 117.817 50.5119 117.847 50.5325C121.717 46.2267 125.588 41.9209 129.542 37.5229C129.656 38.185 129.755 38.7516 129.852 39.3186C130.13 40.9421 130.395 42.5678 130.692 44.1881C130.752 44.5145 130.666 44.7177 130.449 44.9447C127.946 47.5735 125.453 50.2113 122.957 52.8466C122.848 52.9616 122.744 53.0809 122.62 53.2174C122.699 53.3453 122.767 53.4681 122.848 53.5819C127.152 59.6455 131.457 65.7082 135.765 71.7693C135.843 71.8792 135.956 71.9655 136.052 72.0628V72.159Z" fill="#FF5A00"/>
<mask id="mask1" mask-type="alpha" maskUnits="userSpaceOnUse" x="24" y="42" width="34" height="40">
<path d="M24.6534 42.6472H57.8955V81.0988H24.6534V42.6472Z" fill="white"/>
</mask>
<g mask="url(#mask1)">
<path fill-rule="evenodd" clip-rule="evenodd" d="M32.4713 70.1682C32.2591 71.7623 32.0566 73.2645 31.8598 74.7678C31.5981 76.7661 31.3371 78.7648 31.0864 80.7641C31.0571 80.9974 30.9866 81.1002 30.7369 81.0988C28.7743 81.0907 26.8117 81.0927 24.8492 81.0898C24.8045 81.0898 24.7597 81.065 24.6534 81.0351C24.7721 80.0916 24.8875 79.1454 25.0109 78.2001C25.4439 74.8856 25.8759 71.5707 26.3154 68.2567C26.8179 64.4673 27.216 60.66 27.8594 56.8949C28.9991 50.2281 34.6346 44.483 41.2477 43.0524C45.0816 42.2225 48.7508 42.6065 52.0978 44.7716C55.4359 46.9306 57.3506 50.064 57.7869 54.0054C58.4041 59.5779 56.3605 64.204 52.4163 68.0309C49.8276 70.5434 46.7283 72.14 43.1536 72.6796C39.471 73.2371 36.0093 72.6205 32.9029 70.4417C32.7886 70.362 32.6668 70.2922 32.4713 70.1682ZM51.3602 56.3965C51.2512 55.8376 51.1733 55.0171 50.9258 54.2506C49.7295 50.5454 45.9412 48.5137 42.0203 49.4295C37.7189 50.4341 34.6451 53.8279 34.2003 58.2327C33.8712 61.4908 35.6194 64.6298 38.87 65.808C41.4888 66.7574 44.0102 66.3604 46.3512 64.9514C49.4542 63.0829 51.1373 60.3092 51.3602 56.3965Z" fill="#FF5A00"/>
</g>
<mask id="mask2" mask-type="alpha" maskUnits="userSpaceOnUse" x="0" y="32" width="30" height="42">
<path d="M0 32.2897H29.2731V73.1289H0V32.2897Z" fill="white"/>
</mask>
<g mask="url(#mask2)">
<path fill-rule="evenodd" clip-rule="evenodd" d="M29.2731 38.4888C27.072 40.1333 24.9501 41.7184 22.819 43.3105C22.4756 42.7666 22.1679 42.2248 21.8087 41.7207C20.8841 40.424 19.7357 39.4552 18.0655 39.3376C16.6765 39.2399 15.4885 39.6992 14.543 40.7269C13.6973 41.646 13.5869 42.9528 14.3771 43.991C15.247 45.1336 16.1991 46.2177 17.1713 47.2756C18.783 49.0291 20.4676 50.7154 22.0689 52.4784C23.5259 54.0821 24.6873 55.8817 25.046 58.0746C25.4725 60.6814 24.9545 63.1642 23.7256 65.4555C21.4518 69.6952 17.871 72.1552 13.144 72.9249C11.0564 73.2644 8.97445 73.1968 6.93746 72.5951C4.23409 71.7964 2.35249 70.0184 1.14253 67.5074C0.71493 66.6197 0.387933 65.6831 -4.57764e-05 64.7317C2.36673 63.4608 4.66582 62.2258 6.99854 60.9727C7.07996 61.1679 7.13681 61.3303 7.21276 61.4824C7.61044 62.2815 7.93609 63.1302 8.4288 63.8656C9.88992 66.0457 12.25 66.7094 14.6443 65.6314C15.2593 65.3546 15.8517 64.9639 16.3562 64.515C17.899 63.1406 18.1883 61.2271 17.0463 59.4977C16.3901 58.5041 15.5694 57.6133 14.7705 56.7229C12.8612 54.5947 10.8741 52.5348 9.00881 50.3683C7.72301 48.8751 6.84944 47.1336 6.573 45.1336C6.27098 42.95 6.70611 40.8894 7.83848 39.051C10.6535 34.4813 14.7441 32.104 20.1548 32.301C23.2393 32.4133 25.6955 33.8609 27.6021 36.266C28.1663 36.9774 28.695 37.7173 29.2731 38.4888Z" fill="#FF5A00"/>
</g>
<path fill-rule="evenodd" clip-rule="evenodd" d="M81.5373 63.0218C81.1784 65.7745 80.8401 68.3908 80.4882 71.0051C80.4703 71.1372 80.3668 71.3172 80.2544 71.37C74.9287 73.8454 67.9156 73.4999 63.542 68.5152C61.1919 65.8372 60.2059 62.6586 60.3533 59.1224C60.6942 50.9367 67.4568 43.7907 75.5438 42.7922C80.2688 42.2088 84.4126 43.4896 87.6137 47.1731C89.7938 49.6824 90.8024 52.679 90.6534 55.986C90.5555 58.1704 90.2141 60.3452 89.9432 62.5196C89.5594 65.5994 89.1401 68.6751 88.7347 71.7524C88.7203 71.8616 88.6982 71.9699 88.6738 72.1089H82.3025C82.3875 71.4018 82.4649 70.7095 82.5544 70.0189C83.0157 66.4645 83.5229 62.9159 83.9273 59.3552C84.1792 57.1377 84.0208 54.9368 83.0102 52.8828C81.9351 50.7 80.1329 49.5453 77.7625 49.2931C72.8565 48.7719 68.189 52.1933 67.1425 57.0384C66.4512 60.2368 67.5407 63.3026 70.0787 64.9974C72.5526 66.6493 75.202 66.6548 77.8978 65.5834C79.2647 65.0407 80.4293 64.1814 81.5373 63.0218Z" fill="#FF5A00"/>
<path fill-rule="evenodd" clip-rule="evenodd" d="M108.365 43.4138C108.075 45.6306 107.788 47.8145 107.495 50.0436C106.148 50.0436 104.827 50.0357 103.507 50.0464C102.437 50.0548 101.46 50.748 101.139 51.7508C101.013 52.1431 100.967 52.5627 100.913 52.9741C100.242 58.0647 99.5772 63.1554 98.9119 68.2464C98.7441 69.5299 98.5806 70.8144 98.4126 72.1175H91.781C91.9049 71.1385 92.0219 70.1913 92.1453 69.2454C92.5766 65.9459 93.0079 62.6476 93.4447 59.3498C93.8221 56.4955 94.1585 53.6352 94.6028 50.7917C95.1985 46.9799 98.9773 43.5948 102.81 43.4275C104.639 43.3476 106.474 43.4138 108.365 43.4138Z" fill="#FF5A00"/>
<path fill-rule="evenodd" clip-rule="evenodd" d="M139.003 69.2022V72.1175H138.45V69.2022H137.4V68.7524H140.053V69.2022H139.003ZM143.87 72.1175V69.308H143.854L142.756 72.1175H142.405L141.307 69.308H141.29V72.1175H140.737V68.7524H141.591L142.592 71.3089L143.577 68.7524H144.424V72.1175H143.87Z" fill="#FF5A00"/>
<path fill-rule="evenodd" clip-rule="evenodd" d="M40.059 35.3777H37.3234L36.4544 37.086H34.5172L38.7904 29.0743H40.658L42.113 37.086H40.317L40.059 35.3777ZM38.1566 33.7635H39.8008L39.4131 31.2653L38.1566 33.7635Z" fill="#FF5A00"/>
<path fill-rule="evenodd" clip-rule="evenodd" d="M47.4866 29.0743H50.0467C51.3851 29.0743 52.3238 29.8753 52.3238 31.2533C52.3238 32.9856 51.1028 34.1515 49.3651 34.1515H48.2619L47.7447 37.086H46.0785L47.4866 29.0743ZM49.8464 30.6878H48.8718L48.5438 32.5374H49.5175C50.1052 32.5374 50.575 32.1493 50.575 31.4183C50.575 30.9352 50.2806 30.6878 49.8464 30.6878Z" fill="#FF5A00"/>
<path fill-rule="evenodd" clip-rule="evenodd" d="M59.8885 35.3777H57.1532L56.284 37.086H54.3469L58.6201 29.0743H60.4873L61.9426 37.086H60.1469L59.8885 35.3777ZM57.9863 33.7635H59.6307L59.2428 31.2653L57.9863 33.7635Z" fill="#FF5A00"/>
<path fill-rule="evenodd" clip-rule="evenodd" d="M70.7034 36.8029C70.1401 37.0619 69.5184 37.2159 68.8957 37.2159C66.7831 37.2159 65.4557 35.6247 65.4557 33.6335C65.4557 31.0881 67.5923 28.9438 70.1287 28.9438C70.7625 28.9438 71.3381 29.0968 71.8074 29.3561L71.5726 31.2773C71.2207 30.8879 70.6565 30.6171 69.9522 30.6171C68.4968 30.6171 67.2054 31.9374 67.2054 33.4686C67.2054 34.6347 67.9331 35.5428 69.0841 35.5428C69.7888 35.5428 70.469 35.2717 70.9268 34.8946L70.7034 36.8029Z" fill="#FF5A00"/>
<path fill-rule="evenodd" clip-rule="evenodd" d="M80.8916 33.8574H77.4166L76.8523 37.0861H75.186L76.5944 29.0743H78.2617L77.6984 32.2434H81.1735L81.7363 29.0743H83.4036L81.9956 37.0861H80.3283L80.8916 33.8574Z" fill="#FF5A00"/>
<path fill-rule="evenodd" clip-rule="evenodd" d="M87.0055 37.086L88.4134 29.0743H92.84L92.5581 30.6878H89.7988L89.518 32.2433H92.0528L91.772 33.8574H89.2355L88.9536 35.4717H91.713L91.4311 37.086H87.0055Z" fill="#FF5A00"/>
</svg>
